<?xml version="1.0" encoding="UTF-8"?>
<svg id="Layer_2" data-name="Layer 2" xmlns="http://www.w3.org/2000/svg" viewBox="0 0 16 16">
  <defs>
    <style>
      .cls-1 {
        fill: #241d19;
      }

      .cls-1, .cls-2, .cls-3 {
        stroke-width: 0px;
      }

      .cls-2 {
        fill: #fff;
      }

      .cls-3 {
        fill: #ef412a;
      }
    </style>
  </defs>
  <g id="Designs">
    <g>
      <rect class="cls-2" width="16" height="16"/>
      <g>
        <path class="cls-1" d="M6.2,7.36c.54.64,1.21,1.03,1.99,1.03.43,0,.83-.12.83-.47s-.47-.37-1.64-.67c-1.38-.35-2.48-.99-2.48-2.39s1.25-2.47,3.14-2.47c1.55,0,2.6.81,3.11,1.49l-1.47,1.25c-.29-.35-.86-.8-1.66-.8-.59,0-.91.2-.91.5s.56.44,1.49.67c1.48.35,2.72.98,2.72,2.43s-1.36,2.41-3.15,2.41-2.87-.74-3.5-1.61l1.52-1.37Z"/>
        <rect class="cls-3" x="4.22" y="11.78" width="7.55" height="1.82"/>
      </g>
    </g>
  </g>
</svg>