<svg width="65" height="65" viewBox="0 0 65 65" fill="none" xmlns="http://www.w3.org/2000/svg">
<g clip-path="url(#clip0_89_1714)">
<path d="M64.9838 64.9998L65.0001 64.9971V41.1583C65.0001 29.4962 62.4894 20.5127 48.8557 20.5127C42.3015 20.5127 37.9032 24.1094 36.1075 27.5192H35.918V21.6014H22.9911V64.9971H36.4515V43.5092C36.4515 37.8514 37.524 32.3806 44.5305 32.3806C51.434 32.3806 51.5369 38.8373 51.5369 43.8721V64.9998H64.9838Z" fill="#0072B1"/>
<path d="M64.9838 64.9998L65.0001 64.9971V41.1583C65.0001 29.4962 62.4894 20.5127 48.8557 20.5127C42.3015 20.5127 37.9032 24.1094 36.1075 27.5192H35.918V21.6014H22.9911V64.9971H36.4515V43.5092C36.4515 37.8514 37.524 32.3806 44.5305 32.3806C51.434 32.3806 51.5369 38.8373 51.5369 43.8721V64.9998H64.9838Z" fill="#A79D9A"/>
<path d="M1.07251 21.6045H14.5492V65.0001H1.07251V21.6045Z" fill="#0072B1"/>
<path d="M1.07251 21.6045H14.5492V65.0001H1.07251V21.6045Z" fill="#A79D9A"/>
<path d="M7.80542 0C3.49646 0 0 3.49646 0 7.80542C0 12.1144 3.49646 15.684 7.80542 15.684C12.1144 15.684 15.6108 12.1144 15.6108 7.80542C15.6081 3.49646 12.1117 0 7.80542 0Z" fill="#0072B1"/>
<path d="M7.80542 0C3.49646 0 0 3.49646 0 7.80542C0 12.1144 3.49646 15.684 7.80542 15.684C12.1144 15.684 15.6108 12.1144 15.6108 7.80542C15.6081 3.49646 12.1117 0 7.80542 0Z" fill="#A79D9A"/>
</g>
<defs>
<clipPath id="clip0_89_1714">
<rect width="65" height="65" fill="white"/>
</clipPath>
</defs>
</svg>
