<svg width="65" height="65" viewBox="0 0 65 65" fill="none" xmlns="http://www.w3.org/2000/svg">
<g clip-path="url(#clip0_89_1705)">
<path d="M0.0636282 19.1102C0.215903 15.6565 0.774407 13.2821 1.57447 11.2247C2.39982 9.04073 3.6696 7.08547 5.33321 5.46005C6.95863 3.80934 8.92679 2.52666 11.0854 1.7142C13.1548 0.914142 15.5167 0.355637 18.9704 0.203363C22.4499 0.0381926 23.5545 0 32.3795 0C41.2045 0 42.3091 0.0381926 45.7757 0.190467C49.2294 0.342741 51.6038 0.901742 53.6607 1.70131C55.8451 2.52666 57.8004 3.79644 59.4258 5.46005C61.0765 7.08547 62.3587 9.05363 63.1717 11.2123C63.9717 13.2821 64.5302 15.6436 64.6825 19.0973C64.8477 22.5768 64.8859 23.6814 64.8859 32.5064C64.8859 41.3313 64.8477 42.4359 64.6954 45.9025C64.5431 49.3562 63.9841 51.7306 63.1841 53.7881C62.3587 55.972 61.0765 57.9272 59.4258 59.5527C57.8004 61.2034 55.8322 62.486 53.6736 63.2985C51.6038 64.0986 49.2423 64.6571 45.7881 64.8093C42.322 64.9621 41.2169 64.9998 32.3919 64.9998C23.5669 64.9998 22.4623 64.9621 18.9957 64.8093C15.542 64.6571 13.1677 64.0986 11.1107 63.2985C6.74237 61.6096 3.28867 58.1559 1.59976 53.7881C0.800199 51.7182 0.241199 49.3562 0.0889246 45.9025C-0.0633497 42.4359 -0.101542 41.3313 -0.101542 32.5064C-0.101542 23.6814 -0.0886461 22.5768 0.0636282 19.1102ZM5.91701 45.6486C6.05689 48.823 6.5901 50.5372 7.03452 51.68C8.12673 54.5117 10.3741 56.7591 13.2058 57.8513C14.3486 58.2958 16.0752 58.829 19.2373 58.9684C22.6657 59.1211 23.6939 59.1588 32.3666 59.1588C41.0393 59.1588 42.0804 59.1211 45.4964 58.9684C48.6709 58.829 50.3851 58.2958 51.5279 57.8513C52.937 57.3305 54.2197 56.5052 55.2608 55.4259C56.3402 54.3719 57.1655 53.1021 57.6863 51.6929C58.1307 50.5501 58.6639 48.823 58.8033 45.6615C58.9561 42.2331 58.9938 41.2043 58.9938 32.5316C58.9938 23.859 58.9561 22.8178 58.8033 19.4023C58.6639 16.2279 58.1307 14.5137 57.6863 13.3709C57.1655 11.9612 56.3401 10.679 55.2479 9.63743C54.1944 8.55811 52.9246 7.73276 51.515 7.21245C50.3722 6.76802 48.6451 6.23481 45.4835 6.09494C42.0551 5.94267 41.0264 5.90447 32.3542 5.90447C23.6686 5.90447 22.6404 5.94267 19.2244 6.09494C16.05 6.23481 14.3357 6.76802 13.1929 7.21245C11.7838 7.73276 10.5011 8.55811 9.46 9.63743C8.38068 10.6914 7.55533 11.9612 7.03452 13.3709C6.5901 14.5137 6.05689 16.2403 5.91701 19.4023C5.76474 22.8307 5.72655 23.859 5.72655 32.5316C5.72655 41.2043 5.76474 42.2202 5.91701 45.6486Z" fill="url(#paint0_linear_89_1705)"/>
<path d="M32.3794 15.8086C41.5977 15.8086 49.077 23.2874 49.077 32.5062C49.077 41.725 41.5977 49.2038 32.3794 49.2038C23.1606 49.2038 15.6818 41.725 15.6818 32.5062C15.6818 23.2874 23.1606 15.8086 32.3794 15.8086ZM32.3794 43.3375C38.3598 43.3375 43.2107 38.487 43.2107 32.5062C43.2107 26.5253 38.3598 21.6749 32.3794 21.6749C26.3986 21.6749 21.5481 26.5253 21.5481 32.5062C21.5481 38.487 26.3986 43.3375 32.3794 43.3375Z" fill="url(#paint1_linear_89_1705)"/>
<path d="M11.1231 15.1481C11.1231 17.3008 12.8685 19.0462 15.0217 19.0462C17.1743 19.0462 18.9198 17.3008 18.9198 15.1481C18.9198 12.995 17.1743 11.25 15.0217 11.25C12.8685 11.25 11.1231 12.995 11.1231 15.1481Z" fill="url(#paint2_linear_89_1705)"/>
</g>
<defs>
<linearGradient id="paint0_linear_89_1705" x1="32.3922" y1="64.9998" x2="32.3922" y2="0" gradientUnits="userSpaceOnUse">
<stop stop-color="#FFE400"/>
<stop offset="0.25" stop-color="#FF214B"/>
<stop offset="0.53" stop-color="#FF0072"/>
<stop offset="0.78" stop-color="#FF00C8"/>
<stop offset="0.99" stop-color="#680BFF"/>
</linearGradient>
<linearGradient id="paint1_linear_89_1705" x1="32.3794" y1="49.2038" x2="32.3794" y2="15.8086" gradientUnits="userSpaceOnUse">
<stop stop-color="#FFE400"/>
<stop offset="0.25" stop-color="#FF214B"/>
<stop offset="0.53" stop-color="#FF0072"/>
<stop offset="0.78" stop-color="#FF00C8"/>
<stop offset="0.99" stop-color="#680BFF"/>
</linearGradient>
<linearGradient id="paint2_linear_89_1705" x1="15.0214" y1="19.0462" x2="15.0214" y2="11.25" gradientUnits="userSpaceOnUse">
<stop stop-color="#FFE400"/>
<stop offset="0.25" stop-color="#FF214B"/>
<stop offset="0.53" stop-color="#FF0072"/>
<stop offset="0.78" stop-color="#FF00C8"/>
<stop offset="0.99" stop-color="#680BFF"/>
</linearGradient>
<clipPath id="clip0_89_1705">
<rect width="65" height="65" fill="white" transform="matrix(-1 0 0 1 65 0)"/>
</clipPath>
</defs>
</svg>
