<svg width="31" height="30" viewBox="0 0 31 30" fill="none" xmlns="http://www.w3.org/2000/svg">
<path d="M9.90647 24.9996H5.76004V11.6469H9.90647V24.9996ZM7.83103 9.82545C6.50513 9.82545 5.42969 8.72723 5.42969 7.40134C5.42969 6.76446 5.68269 6.15367 6.13302 5.70334C6.58336 5.253 7.19415 5 7.83103 5C8.4679 5 9.07869 5.253 9.52903 5.70334C9.97937 6.15367 10.2324 6.76446 10.2324 7.40134C10.2324 8.72723 9.15647 9.82545 7.83103 9.82545ZM25.4252 24.9996H21.2877V18.4996C21.2877 16.9504 21.2565 14.9638 19.1319 14.9638C16.9761 14.9638 16.6458 16.6469 16.6458 18.3879V24.9996H12.5038V11.6469H16.4806V13.4683H16.5386C17.0922 12.4192 18.4444 11.3121 20.4618 11.3121C24.6583 11.3121 25.4297 14.0754 25.4297 17.6647V24.9996H25.4252Z" fill="white"/>
</svg>
