<svg width="31" height="30" viewBox="0 0 31 30" fill="none" xmlns="http://www.w3.org/2000/svg">
<path fill-rule="evenodd" clip-rule="evenodd" d="M20.4297 4.05273H10.4297C6.97791 4.05273 4.17969 6.85096 4.17969 10.3027V20.3027C4.17969 23.7545 6.97791 26.5527 10.4297 26.5527H20.4297C23.8814 26.5527 26.6797 23.7545 26.6797 20.3027V10.3027C26.6797 6.85096 23.8814 4.05273 20.4297 4.05273ZM24.4922 20.3027C24.4853 22.5435 22.6704 24.3584 20.4297 24.3652H10.4297C8.18888 24.3584 6.37405 22.5435 6.36719 20.3027V10.3027C6.37405 8.06192 8.18888 6.2471 10.4297 6.24023H20.4297C22.6704 6.2471 24.4853 8.06192 24.4922 10.3027V20.3027ZM21.3672 10.6152C22.0576 10.6152 22.6172 10.0556 22.6172 9.36523C22.6172 8.67488 22.0576 8.11523 21.3672 8.11523C20.6768 8.11523 20.1172 8.67488 20.1172 9.36523C20.1172 10.0556 20.6768 10.6152 21.3672 10.6152ZM15.4297 9.67773C12.3231 9.67773 9.80469 12.1961 9.80469 15.3027C9.80469 18.4094 12.3231 20.9277 15.4297 20.9277C18.5363 20.9277 21.0547 18.4094 21.0547 15.3027C21.0581 13.8099 20.4664 12.3772 19.4108 11.3216C18.3552 10.266 16.9226 9.67441 15.4297 9.67773ZM11.9922 15.3027C11.9922 17.2012 13.5312 18.7402 15.4297 18.7402C17.3282 18.7402 18.8672 17.2012 18.8672 15.3027C18.8672 13.4042 17.3282 11.8652 15.4297 11.8652C13.5312 11.8652 11.9922 13.4042 11.9922 15.3027Z" fill="#2B2625"/>
</svg>
