<svg width="17" height="22" viewBox="0 0 17 22" fill="none" xmlns="http://www.w3.org/2000/svg">
<path d="M3.86906 13.4811C5.2393 15.121 6.95146 16.1127 8.92583 16.1127C10.0133 16.1127 11.021 15.808 11.021 14.9196C11.021 14.0312 9.83333 13.9692 6.84862 13.2202C3.34205 12.3292 0.560435 10.6893 0.560435 7.1279C0.560435 3.56651 3.74309 0.831543 8.54021 0.831543C12.4684 0.831543 15.1292 2.89761 16.4197 4.63828L12.6921 7.81745C11.9671 6.92646 10.5146 5.77204 8.48108 5.77204C6.99002 5.77204 6.18278 6.27823 6.18278 7.04784C6.18278 7.81745 7.61472 8.18159 9.97215 8.74718C13.7204 9.63817 16.885 11.2575 16.885 14.9428C16.885 18.6282 13.4402 21.0765 8.8847 21.0765C4.32924 21.0765 1.59133 19.1912 0 16.9831L3.86906 13.4811Z" fill="#262422"/>
</svg>
