<svg width="120" height="35" viewBox="0 0 120 35" fill="none" xmlns="http://www.w3.org/2000/svg">
<g clip-path="url(#clip0_1166_34)">
<path d="M3.86906 18.4811C5.2393 20.121 6.95146 21.1127 8.92583 21.1127C10.0133 21.1127 11.021 20.808 11.021 19.9196C11.021 19.0312 9.83333 18.9692 6.84862 18.2202C3.34205 17.3292 0.560435 15.6893 0.560435 12.1279C0.560435 8.56651 3.74309 5.83154 8.54021 5.83154C12.4684 5.83154 15.1292 7.89761 16.4197 9.63828L12.6921 12.8174C11.9671 11.9265 10.5146 10.772 8.48108 10.772C6.99002 10.772 6.18278 11.2782 6.18278 12.0478C6.18278 12.8174 7.61472 13.1816 9.97215 13.7472C13.7204 14.6382 16.885 16.2575 16.885 19.9428C16.885 23.6282 13.4402 26.0765 8.8847 26.0765C4.32924 26.0765 1.59133 24.1912 0 21.9831L3.86906 18.4811Z" fill="white"/>
<path d="M17.6899 6.23437H20.7723V0H26.9191V6.23437L33.5724 6.1414V11.3427L27.1222 11.4357V17.7114C27.1222 19.8162 28.3099 20.4644 29.9835 20.4644C30.9116 20.4644 32.1404 20.1804 33.1071 19.7956L33.5492 24.9788C32.2998 25.627 30.2252 26.0712 28.4102 26.0712C23.9781 26.0712 20.7723 23.9251 20.7723 18.7444V11.4357H17.6899V6.23437Z" fill="white"/>
<path d="M42.5392 6.14404H36.1919V25.6684H42.5392V6.14404Z" fill="white"/>
<path d="M45.5674 25.6683V6.14131H51.5522L51.7527 8.79363C52.6602 6.8696 54.5729 5.73584 56.8095 5.73584C57.5756 5.73584 58.3623 5.87788 59.1669 6.14131V11.6732C58.3597 11.3891 57.1514 11.2807 56.3468 11.2807C53.9482 11.2807 51.9147 12.5952 51.9147 16.2212V25.6683H45.5674Z" fill="white"/>
<path d="M60.9897 25.6683V6.14393H66.9746L67.1751 8.88664C68.0826 6.96261 69.9953 5.82886 72.2319 5.82886C72.998 5.82886 73.7846 5.9709 74.5893 6.23432V11.7662C73.7821 11.4821 72.5738 11.3737 71.7691 11.3737C69.3706 11.3737 67.3371 12.6882 67.3371 16.3142V25.6657H60.9897V25.6683Z" fill="white"/>
<path d="M77.0215 19.0699V6.14404H83.3688V17.2492C83.3688 19.416 85.081 20.4464 86.6132 20.4464C88.1454 20.4464 89.8369 19.4134 89.8369 17.2492V6.14404H96.1843V25.6684H90.3614L90.1609 23.827C88.7906 25.5677 86.4538 26.2753 84.176 26.2753C80.5281 26.2753 77.0215 23.7057 77.0215 19.0699Z" fill="white"/>
<path d="M98.9424 6.14404H104.907L105.107 8.27984C106.236 6.862 108.048 5.83154 110.971 5.83154C116.432 5.83154 120 10.1625 120 15.994C120 21.8255 116.434 26.0765 110.971 26.0765C108.573 26.0765 106.436 25.3482 105.29 24.2351V34.3821H98.9424V6.14404ZM105.207 15.9527C105.207 18.5431 106.961 20.3664 109.339 20.3664C111.717 20.3664 113.611 18.5456 113.611 15.9527C113.611 13.3598 111.778 11.5391 109.339 11.5391C106.899 11.5391 105.207 13.3417 105.207 15.9527Z" fill="white"/>
<path d="M96.1867 29.7437H77.0239V34.382H96.1867V29.7437Z" fill="#EF4C23"/>
<path d="M96.1867 29.7437H77.0239V34.382H96.1867V29.7437Z" fill="#EF4C23"/>
</g>
<defs>
<clipPath id="clip0_1166_34">
<rect width="120" height="34.382" fill="white"/>
</clipPath>
</defs>
</svg>
