<svg width="103" height="35" viewBox="0 0 103 35" fill="none" xmlns="http://www.w3.org/2000/svg">
<path d="M0.689941 6.23437H3.77234V0H9.91913V6.23437L16.5724 6.1414V11.3427L10.1222 11.4357V17.7114C10.1222 19.8162 11.3099 20.4644 12.9835 20.4644C13.9116 20.4644 15.1404 20.1804 16.1071 19.7956L16.5492 24.9788C15.2998 25.627 13.2252 26.0712 11.4102 26.0712C6.97813 26.0712 3.77234 23.9251 3.77234 18.7444V11.4357H0.689941V6.23437Z" fill="#262422"/>
<path d="M25.5392 6.14404H19.1919V25.6684H25.5392V6.14404Z" fill="#262422"/>
<path d="M28.5679 25.6683V6.14131H34.5527L34.7532 8.79363C35.6607 6.8696 37.5734 5.73584 39.81 5.73584C40.5761 5.73584 41.3628 5.87788 42.1674 6.14131V11.6732C41.3602 11.3891 40.1519 11.2807 39.3473 11.2807C36.9487 11.2807 34.9152 12.5952 34.9152 16.2212V25.6683H28.5679Z" fill="#262422"/>
<path d="M43.9902 25.6686V6.14418H49.9751L50.1756 8.88689C51.0831 6.96286 52.9958 5.8291 55.2324 5.8291C55.9985 5.8291 56.7851 5.97114 57.5898 6.23457V11.7665C56.7826 11.4824 55.5743 11.3739 54.7696 11.3739C52.3711 11.3739 50.3375 12.6885 50.3375 16.3144V25.666H43.9902V25.6686Z" fill="#262422"/>
<path d="M60.0215 19.0699V6.14404H66.3688V17.2492C66.3688 19.416 68.081 20.4464 69.6132 20.4464C71.1454 20.4464 72.8369 19.4134 72.8369 17.2492V6.14404H79.1843V25.6684H73.3614L73.1609 23.827C71.7906 25.5677 69.4538 26.2753 67.176 26.2753C63.5281 26.2753 60.0215 23.7057 60.0215 19.0699Z" fill="#262422"/>
<path d="M81.9429 6.14404H87.9071L88.1077 8.27984C89.2362 6.862 91.0487 5.83154 93.9717 5.83154C99.4321 5.83154 103 10.1625 103 15.994C103 21.8255 99.4346 26.0765 93.9717 26.0765C91.5731 26.0765 89.4368 25.3482 88.2902 24.2351V34.3821H81.9429V6.14404ZM88.2079 15.9527C88.2079 18.5431 89.9612 20.3664 92.3392 20.3664C94.7172 20.3664 96.6119 18.5456 96.6119 15.9527C96.6119 13.3598 94.7789 11.5391 92.3392 11.5391C89.8995 11.5391 88.2079 13.3417 88.2079 15.9527Z" fill="#262422"/>
</svg>
