<?xml version="1.0" standalone="no"?>
<!DOCTYPE svg PUBLIC "-//W3C//DTD SVG 1.1//EN" "http://www.w3.org/Graphics/SVG/1.1/DTD/svg11.dtd" >
<svg xmlns="http://www.w3.org/2000/svg" xmlns:xlink="http://www.w3.org/1999/xlink" version="1.1">
<metadata>
Created by FontForge 20190801 at Thu Jan 28 10:14:41 2021
 By www-data
Copyright 2020 The Archivo Project Authors (https://github.com/Omnibus-Type/Archivo)
</metadata>
<defs>
<font id="Archivo_ExpandedSemiBold" horiz-adv-x="0" >
  <font-face 
    font-family="Archivo_ExpandedSemiBold"
    font-weight="600"
    font-stretch="expanded"
    units-per-em="1000"
    panose-1="0 0 0 0 0 0 0 0 0 0"
    ascent="800"
    descent="-200"
    x-height="527"
    cap-height="687"
    bbox="-247 -406 1691 1100"
    underline-thickness="44"
    underline-position="-170"
    unicode-range="U+000D-FEFF"
  />
<missing-glyph horiz-adv-x="694" 
d="M97 0v700h500v-700h-500zM177 50h340l-170 255zM147 95l170 255l-170 255v-510zM547 95v510l-170 -255zM347 395l170 255h-340z" />
    <glyph glyph-name="fi" unicode="fi" horiz-adv-x="709" 
d="M122 0v420h-108v107h108v46q0 51 19 87.5t57 55.5t95 19q20 0 41.5 -2t41.5 -5.5t36 -9.5v-90h-68q-46 0 -65 -13t-19 -44v-44h152v-107h-152v-420h-138zM500 613v111h138v-111h-138zM500 0v527h138v-527h-138z" />
    <glyph glyph-name="fl" unicode="fl" horiz-adv-x="709" 
d="M122 0v420h-108v107h108v46q0 51 19 87.5t57 55.5t95 19q20 0 41.5 -2t41.5 -5.5t36 -9.5v-90h-68q-46 0 -65 -13t-19 -44v-44h152v-107h-152v-420h-138zM500 0v724h138v-724h-138z" />
    <glyph glyph-name="f_f" unicode="ff" horiz-adv-x="807" 
d="M122 0v420h-108v107h108v46q0 51 19 87.5t57 55.5t95 19q20 0 41.5 -2t41.5 -5.5t36 -9.5v-90h-68q-46 0 -65 -13t-19 -44v-44h240v46q0 51 19 87.5t57 55.5t95 19q20 0 41.5 -2t41.5 -5.5t36 -9.5v-90h-68q-46 0 -65 -13t-19 -44v-44h152v-107h-152v-420h-138v420h-240
v-420h-138z" />
    <glyph glyph-name="f_f_i" unicode="ffi" horiz-adv-x="1087" 
d="M122 0v420h-108v107h108v46q0 51 19 87.5t57 55.5t95 19q20 0 41.5 -2t41.5 -5.5t36 -9.5v-90h-68q-46 0 -65 -13t-19 -44v-44h240v46q0 51 19 87.5t57 55.5t95 19q20 0 41.5 -2t41.5 -5.5t36 -9.5v-90h-68q-46 0 -65 -13t-19 -44v-44h152v-107h-152v-420h-138v420h-240
v-420h-138zM878 613v111h138v-111h-138zM878 0v527h138v-527h-138z" />
    <glyph glyph-name="f_f_l" unicode="ffl" horiz-adv-x="1087" 
d="M122 0v420h-108v107h108v46q0 51 19 87.5t57 55.5t95 19q20 0 41.5 -2t41.5 -5.5t36 -9.5v-90h-68q-46 0 -65 -13t-19 -44v-44h240v46q0 51 19 87.5t57 55.5t95 19q20 0 41.5 -2t41.5 -5.5t36 -9.5v-90h-68q-46 0 -65 -13t-19 -44v-44h152v-107h-152v-420h-138v420h-240
v-420h-138zM878 0v724h138v-724h-138z" />
    <glyph glyph-name=".notdef" horiz-adv-x="694" 
d="M97 0v700h500v-700h-500zM177 50h340l-170 255zM147 95l170 255l-170 255v-510zM547 95v510l-170 -255zM347 395l170 255h-340z" />
    <glyph glyph-name=".null" 
 />
    <glyph glyph-name="nonmarkingreturn" horiz-adv-x="333" 
 />
    <glyph glyph-name="CR" unicode="&#xd;" horiz-adv-x="600" 
 />
    <glyph glyph-name="space" unicode=" " horiz-adv-x="320" 
 />
    <glyph glyph-name="exclam" unicode="!" horiz-adv-x="318" 
d="M103 231l-27 456h166l-27 -456h-112zM76 0v156h166v-156h-166z" />
    <glyph glyph-name="quotedbl" unicode="&#x22;" horiz-adv-x="431" 
d="M78 395l-31 136v156h130v-156l-30 -136h-69zM285 395l-31 136v156h130v-156l-30 -136h-69z" />
    <glyph glyph-name="numbersign" unicode="#" horiz-adv-x="739" 
d="M87 -12l48 177h-113v97h140l37 136h-124v97h150l56 204h101l-56 -204h182l56 204h101l-56 -204h109v-97h-135l-37 -136h119v-97h-146l-48 -177h-101l48 177h-182l-48 -177h-101zM263 262h182l37 136h-182z" />
    <glyph glyph-name="dollar" unicode="$" horiz-adv-x="666" 
d="M304 -49v772h64v-772h-64zM331 69q-58 0 -111 9.5t-93.5 28.5t-64 49.5t-23.5 72.5q0 5 0.5 9t1.5 8h141q0 -1 -0.5 -4t-0.5 -5q0 -25 21.5 -40t56 -21.5t73.5 -6.5t74.5 4.5t57.5 17.5t22 37q0 26 -24 37.5t-69.5 18t-110.5 15.5q-48 7 -88.5 18t-71 28.5t-47 45
t-16.5 67.5q0 43 19.5 73.5t56 50t88.5 29t117 9.5q58 0 106.5 -9.5t84.5 -28.5t56.5 -47t20.5 -64v-7.5t-1 -7.5h-141v4q0 22 -18 35t-46.5 19t-62.5 6q-12 0 -35.5 -1t-48 -5.5t-41.5 -14t-17 -27.5q0 -22 25 -33t65.5 -16.5t87.5 -12.5q51 -7 96.5 -16t79.5 -26
t53.5 -46.5t19.5 -77.5q0 -49 -19.5 -82.5t-57 -54t-92 -29.5t-124.5 -9z" />
    <glyph glyph-name="percent" unicode="%" horiz-adv-x="1091" 
d="M217 0l563 687h95l-563 -687h-95zM258 340q-66 0 -109.5 21.5t-65 62t-21.5 95.5q0 56 21.5 96t65 62t109.5 22q67 0 110 -22t64.5 -62t21.5 -96q0 -55 -21.5 -95.5t-64.5 -62t-110 -21.5zM258 411q55 0 76 29.5t21 73.5v12q0 30 -9 53t-30 36t-58 13q-55 0 -76 -29
t-21 -73v-12q0 -44 21 -73.5t76 -29.5zM833 -12q-66 0 -109.5 21.5t-65 62t-21.5 95.5q0 56 21.5 96t65 62t109.5 22q67 0 110 -22t64.5 -62t21.5 -96q0 -55 -21.5 -95.5t-64.5 -62t-110 -21.5zM833 59q55 0 76 29.5t21 73.5v12q0 30 -9 53t-30 36t-58 13q-55 0 -76 -29
t-21 -73v-12q0 -44 21 -73.5t76 -29.5z" />
    <glyph glyph-name="ampersand" unicode="&#x26;" horiz-adv-x="925" 
d="M426 -12q-121 0 -203 23.5t-123.5 69t-41.5 109.5q0 63 38.5 106.5t98.5 59.5v4q-48 16 -81.5 54.5t-33.5 91.5q0 59 42 102.5t122 67t193 23.5q110 0 189 -23.5t122 -65.5t43 -97v-20h-138v11q0 28 -27 47t-74 29t-106 10q-47 0 -87.5 -6t-71 -18t-47.5 -30.5t-17 -44.5
q0 -33 19.5 -52.5t52 -28t70.5 -8.5h126v-101h-138q-40 0 -75 -9t-56 -30t-21 -58q0 -36 27 -60t79 -35.5t127 -11.5q78 0 126.5 13.5t70.5 38.5t22 59v194h261v-101h-123v-89q0 -71 -39.5 -121.5t-120 -76.5t-205.5 -26z" />
    <glyph glyph-name="quotesingle" unicode="'" horiz-adv-x="224" 
d="M78 395l-31 136v156h130v-156l-30 -136h-69z" />
    <glyph glyph-name="parenleft" unicode="(" horiz-adv-x="349" 
d="M247 -158q-88 92 -136 208t-48 238q0 123 48 239.5t136 208.5h81q-43 -61 -77 -136.5t-54 -155.5t-20 -156t20 -155.5t54 -154.5t77 -136h-81z" />
    <glyph glyph-name="parenright" unicode=")" horiz-adv-x="349" 
d="M102 736q88 -92 136 -208t48 -238q0 -123 -48 -239.5t-136 -208.5h-81q43 61 77 136.5t54 156t20 155.5q0 76 -20 156t-54 154.5t-77 135.5h81z" />
    <glyph glyph-name="asterisk" unicode="*" horiz-adv-x="431" 
d="M177 329l12 133l-112 -76l-40 66l123 56l-123 57l40 65l112 -76l-12 133h78l-11 -133l111 76l40 -65l-124 -57l124 -56l-40 -66l-111 76l11 -133h-78z" />
    <glyph glyph-name="plus" unicode="+" horiz-adv-x="720" 
d="M310 0v219h-224v99h224v220h99v-220h225v-99h-225v-219h-99z" />
    <glyph glyph-name="comma" unicode="," horiz-adv-x="312" 
d="M64 -171v68q23 4 41.5 18t29.5 36t11 49h-73v156h166v-138q0 -68 -26 -108t-66.5 -58.5t-82.5 -22.5z" />
    <glyph glyph-name="hyphen" unicode="-" horiz-adv-x="416" 
d="M50 209v130h316v-130h-316z" />
    <glyph glyph-name="period" unicode="." horiz-adv-x="312" 
d="M73 0v156h166v-156h-166z" />
    <glyph glyph-name="slash" unicode="/" horiz-adv-x="306" 
d="M0 -48l214 784h92l-214 -784h-92z" />
    <glyph glyph-name="zero" unicode="0" horiz-adv-x="757" 
d="M379 -12q-85 0 -146.5 23t-101.5 68.5t-59 111.5t-19 153t19 153t58.5 111t101 68t146.5 23t146.5 -23t101.5 -68t59 -111t19 -153t-19 -153t-58.5 -111.5t-101 -68.5t-146.5 -23zM379 95q66 0 106 25.5t58.5 76t18.5 126.5v43q0 76 -18.5 126t-58.5 75t-106 25
q-65 0 -105.5 -25t-59 -75t-18.5 -126v-43q0 -76 18.5 -126.5t59 -76t105.5 -25.5z" />
    <glyph glyph-name="one" unicode="1" horiz-adv-x="670" 
d="M75 0v120h224v387h-224v84q57 4 108.5 15t99.5 31.5t92 51.5h62v-569h208v-120h-570z" />
    <glyph glyph-name="two" unicode="2" horiz-adv-x="753" 
d="M54 0v39q0 50 22 90.5t58.5 73.5t82 61t92.5 52q60 31 113 59t86.5 58t33.5 66q0 28 -18 48.5t-53.5 31.5t-89.5 11q-62 0 -102.5 -15.5t-59.5 -41.5t-19 -58v-28h-137q-1 8 -2 14t-1 15q0 72 41.5 121.5t117 75.5t176.5 26q64 0 118 -12t93.5 -36.5t61 -61.5t21.5 -87
q0 -51 -22 -90.5t-58.5 -71t-81.5 -56t-91 -45.5q-45 -20 -86 -38t-72 -36t-47 -39h465v-126h-642z" />
    <glyph glyph-name="three" unicode="3" horiz-adv-x="761" 
d="M381 -12q-112 0 -186.5 25.5t-111.5 71t-37 103.5v16h138v-14q0 -45 47 -70t133 -25q98 0 149 28.5t51 81.5q0 37 -22.5 57t-60 27.5t-81.5 7.5h-114v103h106q38 0 72.5 9t57 30.5t22.5 56.5q0 30 -21.5 51.5t-59 33t-85.5 11.5q-47 0 -86.5 -11.5t-63.5 -32t-24 -48.5
v-13h-134v21q0 54 38.5 97t110 68.5t169.5 25.5q91 0 157.5 -23.5t103 -65t36.5 -97.5q0 -42 -18.5 -73t-49 -51t-66.5 -30v-4q71 -13 113.5 -51t42.5 -118q0 -58 -38.5 -103t-111 -70t-176.5 -25z" />
    <glyph glyph-name="four" unicode="4" horiz-adv-x="736" 
d="M447 0v156h-423v111q48 60 92.5 130t81.5 146.5t61 155.5h152q-10 -44 -32 -93t-51 -98.5t-61 -95.5t-62.5 -83.5t-54.5 -61.5h297v186q11 21 21.5 42.5t20.5 43t18.5 41.5t14.5 38h63v-351h124v-111h-124v-156h-138z" />
    <glyph glyph-name="five" unicode="5" horiz-adv-x="760" 
d="M389 -12q-108 0 -184 29.5t-116 81.5t-40 119h135q1 -38 26.5 -65.5t69 -42.5t97.5 -15q44 0 87.5 14t72.5 43.5t29 75.5q0 43 -23 71t-63.5 42t-95.5 14q-39 0 -74 -8t-62.5 -23t-43.5 -38l-120 17l36 384h534v-126h-423l-16 -161q17 11 46 24.5t70.5 23.5t92.5 10
q83 0 147 -25t101 -76t37 -130q0 -71 -38.5 -125t-110.5 -84t-171 -30z" />
    <glyph glyph-name="six" unicode="6" horiz-adv-x="763" 
d="M388 -12q-81 0 -143.5 19t-105 59t-64.5 104.5t-22 154.5q0 101 22.5 172t66.5 115.5t107.5 65.5t145.5 21q94 0 159.5 -26.5t100.5 -76t35 -120.5h-134q0 41 -20.5 66.5t-57 37.5t-85.5 12q-74 0 -117.5 -27t-61.5 -78.5t-18 -127.5q28 33 67 52t82 27t80 8
q89 0 154 -27t100.5 -76.5t35.5 -117.5q0 -74 -42 -127.5t-115.5 -81.5t-169.5 -28zM388 95q59 0 100.5 15.5t63.5 44t22 66.5q0 36 -20.5 63.5t-61 43.5t-102.5 16q-59 0 -101 -16t-64 -44.5t-22 -65.5q0 -36 21.5 -63.5t63 -43.5t100.5 -16z" />
    <glyph glyph-name="seven" unicode="7" horiz-adv-x="691" 
d="M171 0q0 86 26.5 163.5t71 148t99 133t110.5 116.5h-458v126h656v-72q-49 -46 -98 -97.5t-92.5 -107.5t-77.5 -115t-53.5 -120t-19.5 -123v-52h-164z" />
    <glyph glyph-name="eight" unicode="8" horiz-adv-x="774" 
d="M387 -12q-110 0 -185.5 23.5t-113.5 67.5t-38 105t38 102.5t105 64.5q-61 31 -88 69t-27 86q0 58 36.5 101.5t105.5 67.5t167 24t167 -24t105.5 -67.5t36.5 -101.5q0 -48 -27 -86t-88 -69q68 -23 105.5 -64.5t37.5 -102.5t-38 -105t-113 -67.5t-186 -23.5zM387 95
q95 0 144 26.5t49 72.5q0 50 -49 77t-144 27t-144 -27t-49 -77q0 -46 49.5 -72.5t143.5 -26.5zM387 403q84 0 133 25t49 73q0 44 -47.5 67.5t-134.5 23.5t-134.5 -23.5t-47.5 -67.5q0 -48 49 -73t133 -25z" />
    <glyph glyph-name="nine" unicode="9" horiz-adv-x="763" 
d="M368 -12q-93 0 -159 26.5t-101 76.5t-35 120h134q0 -41 20.5 -66.5t57.5 -37.5t85 -12q75 0 118 27t61 79t18 127q-27 -32 -66.5 -51.5t-82 -27.5t-80.5 -8q-89 0 -154 27t-100.5 76.5t-35.5 117.5q0 75 42 128t116 81t169 28q81 0 143.5 -19t105 -59t64.5 -104.5
t22 -154.5q0 -101 -22.5 -172t-66.5 -115.5t-107.5 -65.5t-145.5 -21zM373 343q60 0 101.5 16t63.5 44.5t22 65.5q0 36 -21.5 64t-62.5 43.5t-101 15.5q-58 0 -100 -15.5t-64 -43.5t-22 -67q0 -35 20.5 -63t61.5 -44t102 -16z" />
    <glyph glyph-name="colon" unicode=":" horiz-adv-x="312" 
d="M73 371v156h166v-156h-166zM73 0v156h166v-156h-166z" />
    <glyph glyph-name="semicolon" unicode=";" horiz-adv-x="312" 
d="M64 -171v68q23 4 41.5 18t29.5 36t11 49h-73v156h166v-138q0 -68 -26 -108t-66.5 -58.5t-82.5 -22.5zM73 371v156h166v-156h-166z" />
    <glyph glyph-name="less" unicode="&#x3c;" horiz-adv-x="720" 
d="M622 -8l-544 216v111l544 217v-108l-430 -164l430 -163v-109z" />
    <glyph glyph-name="equal" unicode="=" horiz-adv-x="720" 
d="M86 328v99h548v-99h-548zM86 109v100h548v-100h-548z" />
    <glyph glyph-name="greater" unicode="&#x3e;" horiz-adv-x="720" 
d="M98 -8v109l430 163l-430 164v108l544 -217v-111z" />
    <glyph glyph-name="question" unicode="?" horiz-adv-x="681" 
d="M267 224v33q0 33 15 57.5t38.5 43.5t50.5 36t50.5 33.5t38.5 36.5t15 46q0 15 -7.5 29.5t-24.5 26.5t-44.5 19t-68.5 7q-51 0 -82 -11t-47 -28t-22 -35.5t-6 -33.5v-13.5t1 -13.5h-134q-1 5 -2 14t-1 22q0 30 10.5 59.5t33 56t58.5 47t86.5 32t117.5 11.5
q64 0 111.5 -11.5t80 -31t52.5 -43.5t28.5 -50.5t8.5 -51.5q0 -43 -15.5 -74.5t-40 -54t-52.5 -40t-52.5 -32t-40 -30t-15.5 -34.5v-22h-141zM256 0v156h166v-156h-166z" />
    <glyph glyph-name="at" unicode="@" horiz-adv-x="1269" 
d="M595 -156q-164 0 -282.5 44t-182 136.5t-63.5 237.5q0 119 46.5 202t127.5 135t185.5 76t221.5 24q119 0 219.5 -22t176 -68t117 -117.5t41.5 -171.5q0 -67 -15.5 -117.5t-42.5 -85t-62 -55.5t-74.5 -30.5t-79.5 -9.5q-48 0 -79 10t-47.5 27.5t-21.5 37.5h-8
q-24 -24 -57 -41t-72.5 -26t-81.5 -9q-39 0 -73.5 6.5t-60 21.5t-40 40.5t-14.5 63.5q0 60 29.5 94t83.5 49.5t126.5 20t157.5 4.5v20q0 36 -13.5 56t-43.5 28.5t-80 8.5q-33 0 -62.5 -5t-48 -17.5t-19.5 -35.5v-12h-111q-1 3 -1 7v8q0 43 28 75t84 49.5t139 17.5
q77 0 130 -15.5t80.5 -51t27.5 -95.5v-205q0 -26 13 -37.5t49 -11.5q50 0 88.5 20.5t61 67.5t22.5 128q0 107 -59 172.5t-164 96t-244 30.5q-152 0 -262.5 -39t-170 -118.5t-59.5 -201.5q0 -169 108.5 -253t338.5 -84q32 0 76 4t86.5 11t67.5 16v-81q-30 -8 -73 -15
t-86.5 -11t-77.5 -4zM587 107q28 0 59.5 6.5t59.5 19.5t46 32.5t18 45.5v37q-97 0 -161 -7t-95 -25t-31 -51q0 -23 15 -36t39 -17.5t50 -4.5z" />
    <glyph glyph-name="A" unicode="A" horiz-adv-x="908" 
d="M24 0l344 687h172l344 -687h-167l-65 133h-407l-65 -133h-156zM305 256h287l-80 168q-5 11 -14.5 32.5t-19 44t-17 39t-8.5 17.5h-8q-9 -20 -20.5 -46t-22 -50t-17.5 -38z" />
    <glyph glyph-name="B" unicode="B" horiz-adv-x="895" 
d="M97 0v687h531q55 0 98.5 -21.5t68.5 -59.5t25 -89q0 -39 -15 -71t-40.5 -53.5t-57.5 -32.5v-4q38 -8 68 -30.5t47 -57t17 -79.5q0 -64 -28.5 -106t-76 -62.5t-106.5 -20.5h-531zM249 127h348q38 0 62 19t24 60q0 24 -10 42.5t-30 28.5t-52 10h-342v-160zM249 411h330
q28 0 47 9.5t29 26.5t10 37q0 38 -22 57t-58 19h-336v-149z" />
    <glyph glyph-name="C" unicode="C" horiz-adv-x="946" 
d="M488 -12q-139 0 -233 40.5t-141 120t-47 195.5q0 170 108 262.5t312 92.5q116 0 204.5 -33t138 -95t49.5 -150h-149q0 50 -31 83.5t-86 50.5t-129 17q-80 0 -138.5 -25.5t-90.5 -73.5t-32 -116v-25q0 -69 32 -117.5t91 -74t139 -25.5q77 0 132.5 16.5t86 50t30.5 82.5
h146q0 -86 -49 -148t-137 -95t-206 -33z" />
    <glyph glyph-name="D" unicode="D" horiz-adv-x="934" 
d="M97 0v687h366q126 0 216.5 -39.5t139 -116t48.5 -188.5q0 -111 -48.5 -187.5t-139 -116t-216.5 -39.5h-366zM249 127h206q55 0 101.5 13t81 38.5t53.5 64t19 89.5v23q0 51 -19 89.5t-53.5 64t-81 38.5t-101.5 13h-206v-433z" />
    <glyph glyph-name="E" unicode="E" horiz-adv-x="866" 
d="M97 0v687h695v-127h-543v-147h483v-127h-483v-159h551v-127h-703z" />
    <glyph glyph-name="F" unicode="F" horiz-adv-x="789" 
d="M97 0v687h654v-127h-502v-166h454v-127h-454v-267h-152z" />
    <glyph glyph-name="G" unicode="G" horiz-adv-x="1013" 
d="M483 -12q-208 0 -312 88t-104 267q0 117 53 196.5t153.5 119.5t240.5 40q91 0 166 -15.5t129.5 -47t84 -79.5t29.5 -113h-148q0 36 -21 61t-57 39.5t-81.5 21t-95.5 6.5q-64 0 -118.5 -12.5t-94.5 -39t-62 -67.5t-22 -97v-24q0 -78 34 -125.5t96.5 -69.5t147.5 -22
q94 0 154.5 17t90 49t29.5 75v8h-278v120h427v-384h-94l-16 90q-37 -36 -88.5 -58.5t-113 -33t-129.5 -10.5z" />
    <glyph glyph-name="H" unicode="H" horiz-adv-x="965" 
d="M97 0v687h152v-270h467v270h152v-687h-152v283h-467v-283h-152z" />
    <glyph glyph-name="I" unicode="I" horiz-adv-x="346" 
d="M97 0v687h152v-687h-152z" />
    <glyph glyph-name="J" unicode="J" horiz-adv-x="699" 
d="M325 -12q-91 0 -155.5 26.5t-99 81.5t-34.5 141v14h147v-19q0 -58 36.5 -87.5t100.5 -29.5q70 0 109 36.5t39 112.5v423h151v-415q0 -98 -35.5 -161t-101 -93t-157.5 -30z" />
    <glyph glyph-name="K" unicode="K" horiz-adv-x="907" 
d="M97 0v687h152v-369l423 369h199l-327 -286l333 -401h-195l-250 309l-183 -148v-161h-152z" />
    <glyph glyph-name="L" unicode="L" horiz-adv-x="715" 
d="M97 0v687h152v-553h436v-134h-588z" />
    <glyph glyph-name="M" unicode="M" horiz-adv-x="1112" 
d="M97 0v687h236l157 -353q7 -16 18.5 -44.5t24 -60t22.5 -57.5h7q9 23 21 53t24 59t20 48l157 355h231v-687h-152v420q0 17 0.5 38t1.5 41.5t2 35.5h-8q-5 -15 -13 -36l-16 -42t-15 -37l-187 -420h-148l-188 420q-9 20 -17.5 41.5t-15 41t-11.5 32.5h-8q1 -12 1.5 -31.5
t1 -41t0.5 -42.5v-420h-146z" />
    <glyph glyph-name="N" unicode="N" horiz-adv-x="965" 
d="M97 0v687h143l376 -361q13 -11 31 -30t37.5 -39t33.5 -36h8q-1 22 -2.5 53.5t-1.5 51.5v361h146v-687h-140l-377 365q-27 26 -56.5 57.5t-47.5 50.5h-7q1 -13 2 -45.5t1 -74.5v-353h-146z" />
    <glyph glyph-name="O" unicode="O" horiz-adv-x="1018" 
d="M509 -12q-137 0 -236 41.5t-152.5 121t-53.5 193.5t53.5 193t152.5 120.5t236 41.5t236 -41.5t152.5 -120.5t53.5 -193t-53.5 -193.5t-152.5 -121t-236 -41.5zM509 115q62 0 114 14t90.5 41t60 68t21.5 95v23q0 54 -21.5 94.5t-60 67.5t-90.5 40.5t-114 13.5t-114 -13.5
t-90.5 -40.5t-59.5 -67.5t-21 -94.5v-23q0 -54 21 -95t59.5 -68t90.5 -41t114 -14z" />
    <glyph glyph-name="P" unicode="P" horiz-adv-x="856" 
d="M97 0v687h504q67 0 116.5 -29t77 -79.5t27.5 -116.5q0 -65 -28 -116.5t-78.5 -80.5t-118.5 -29h-348v-236h-152zM249 363h306q53 0 82.5 26t29.5 72q0 31 -13 53t-38 34t-61 12h-306v-197z" />
    <glyph glyph-name="Q" unicode="Q" horiz-adv-x="1018" 
d="M676 -130l-130 119q-9 0 -18.5 -0.5t-18.5 -0.5q-137 0 -236 41.5t-152.5 121t-53.5 193.5t53.5 193t152.5 120.5t236 41.5t236 -41.5t152.5 -120.5t53.5 -193q0 -124 -63.5 -207.5t-179.5 -120.5l169 -146h-201zM509 115q62 0 114 14t90.5 41t60 68t21.5 95v23
q0 54 -21.5 94.5t-60 67.5t-90.5 40.5t-114 13.5t-114 -13.5t-90.5 -40.5t-59.5 -67.5t-21 -94.5v-23q0 -54 21 -95t59.5 -68t90.5 -41t114 -14z" />
    <glyph glyph-name="R" unicode="R" horiz-adv-x="920" 
d="M97 0v687h544q73 0 119.5 -29.5t69.5 -78t23 -107.5q0 -61 -31.5 -114.5t-97.5 -83.5l146 -274h-171l-126 245h-324v-245h-152zM249 371h350q47 0 72.5 27.5t25.5 70.5q0 29 -11 49.5t-33 31t-54 10.5h-350v-189z" />
    <glyph glyph-name="S" unicode="S" horiz-adv-x="850" 
d="M432 -12q-78 0 -146 9.5t-119 34t-79.5 68.5t-28.5 113v5t1 5h150q-1 -4 -1.5 -9.5t-0.5 -12.5q0 -31 27 -50.5t77 -28.5t117 -9q29 0 58.5 2.5t56.5 7.5t48.5 14t34 22.5t12.5 31.5q0 26 -23.5 41.5t-63.5 25.5t-90 17t-103.5 15.5t-103.5 23t-90 37.5t-63.5 59.5
t-23.5 89.5q0 48 23 85t68 62.5t110.5 38.5t150.5 13q86 0 150 -14t106 -40t62.5 -62.5t20.5 -81.5v-16h-148v13q0 22 -24 39t-65 27t-93 10q-72 0 -117 -9t-66 -24.5t-21 -34.5q0 -23 23.5 -37t63.5 -22.5t90 -15.5t103.5 -16t103.5 -23t90 -37.5t63.5 -59t23.5 -87.5
q0 -80 -46 -128.5t-128 -70t-190 -21.5z" />
    <glyph glyph-name="T" unicode="T" horiz-adv-x="814" 
d="M331 0v553h-305v134h762v-134h-305v-553h-152z" />
    <glyph glyph-name="U" unicode="U" horiz-adv-x="944" 
d="M472 -12q-129 0 -213.5 40t-126 113.5t-41.5 173.5v372h152v-365q0 -99 59.5 -153t169.5 -54t169.5 54t59.5 153v365h152v-372q0 -100 -41.5 -173.5t-125.5 -113.5t-214 -40z" />
    <glyph glyph-name="V" unicode="V" horiz-adv-x="864" 
d="M346 0l-328 687h170l179 -388q12 -25 24 -53.5t23 -54.5t18 -44h8l17.5 42.5t23 54t24.5 54.5l180 389h161l-328 -687h-172z" />
    <glyph glyph-name="W" unicode="W" horiz-adv-x="1192" 
d="M245 0l-233 687h165l138 -442q4 -10 8.5 -27.5t9.5 -36.5t8 -34h6q2 12 5.5 26t6.5 28t6 25.5t5 18.5l128 442h209l129 -442q3 -10 7.5 -27.5t9 -36.5t6.5 -34h6q3 11 6.5 24.5t7.5 27t7 25.5t6 21l139 442h149l-234 -687h-186l-137 450q-4 14 -9 32.5t-8.5 37t-5.5 32.5
h-5q-2 -15 -7 -34.5t-9.5 -37.5t-8.5 -30l-132 -450h-193z" />
    <glyph glyph-name="X" unicode="X" horiz-adv-x="914" 
d="M37 0l322 356l-293 331h197l191 -227h12l196 227h184l-292 -324l323 -363h-197l-222 260h-12l-225 -260h-184z" />
    <glyph glyph-name="Y" unicode="Y" horiz-adv-x="861" 
d="M354 0v278l-336 409h183l228 -287h10l231 287h173l-337 -409v-278h-152z" />
    <glyph glyph-name="Z" unicode="Z" horiz-adv-x="834" 
d="M46 0v70l460 490h-429v127h686v-69l-462 -491h466v-127h-721z" />
    <glyph glyph-name="bracketleft" unicode="[" horiz-adv-x="325" 
d="M80 -160v896h222v-78h-116v-740h116v-78h-222z" />
    <glyph glyph-name="backslash" unicode="\" horiz-adv-x="306" 
d="M306 -48h-92l-214 784h92z" />
    <glyph glyph-name="bracketright" unicode="]" horiz-adv-x="325" 
d="M245 734v-896h-222v78h116v740h-116v78h222z" />
    <glyph glyph-name="asciicircum" unicode="^" horiz-adv-x="720" 
d="M103 277l208 410h100l207 -410h-100l-158 310l-156 -310h-101z" />
    <glyph glyph-name="underscore" unicode="_" horiz-adv-x="627" 
d="M0 -153v91h627v-91h-627z" />
    <glyph glyph-name="grave" unicode="`" horiz-adv-x="276" 
d="M276 591h-116l-160 128v5h160z" />
    <glyph glyph-name="a" unicode="a" horiz-adv-x="739" 
d="M270 -12q-47 0 -87.5 7.5t-71 25t-47.5 47.5t-17 75q0 64 35 100t99 52t149.5 20t185.5 4v22q0 34 -16.5 54t-51 28.5t-90.5 8.5q-45 0 -79 -6t-53 -18t-19 -30v-12h-138q-1 4 -1.5 8t-0.5 9q0 47 34 82t101 54.5t167 19.5q93 0 156.5 -17t96 -56t32.5 -105v-227
q0 -19 7.5 -29t26.5 -10h51v-90q-10 -4 -36.5 -10.5t-58.5 -6.5q-44 0 -68.5 11t-35 30t-14.5 42h-8q-28 -26 -67 -45t-85 -28.5t-96 -9.5zM304 95q32 0 68.5 7t69.5 20.5t53.5 34t20.5 47.5v27q-112 0 -185.5 -7.5t-109.5 -25.5t-36 -51q0 -22 17.5 -33t45 -15t56.5 -4z
" />
    <glyph glyph-name="b" unicode="b" horiz-adv-x="729" 
d="M409 -12q-64 0 -117 21.5t-90 73.5h-8l-12 -83h-111v724h138v-264h7q22 26 53 43.5t69 26.5t80 9q78 0 136.5 -30t91.5 -91t33 -155q0 -92 -33.5 -153.5t-94 -91.5t-142.5 -30zM374 104q51 0 88 17.5t56.5 51.5t19.5 83v15q0 49 -19.5 82.5t-55.5 51.5t-87 18
q-39 0 -70 -10.5t-53 -30t-33.5 -48.5t-11.5 -67v-8q0 -50 20 -84.5t57.5 -52.5t88.5 -18z" />
    <glyph glyph-name="c" unicode="c" horiz-adv-x="725" 
d="M373 -12q-102 0 -174.5 30.5t-110.5 92t-38 153.5t38 153t110.5 91.5t174.5 30.5q63 0 118 -13.5t96.5 -41t64.5 -68t23 -94.5h-139q0 36 -22.5 60.5t-59.5 37t-81 12.5q-56 0 -96.5 -18t-62 -53t-21.5 -87v-20q0 -51 22 -86.5t63.5 -54t99.5 -18.5q43 0 80 13.5t60 38.5
t23 59h134q0 -55 -23.5 -96t-64.5 -68t-96 -40.5t-118 -13.5z" />
    <glyph glyph-name="d" unicode="d" horiz-adv-x="729" 
d="M320 -12q-82 0 -142.5 30t-94 91.5t-33.5 153.5q0 94 33 155t91.5 91t136.5 30q42 0 80 -9t69 -26.5t53 -43.5h7v264h138v-724h-111l-12 83h-8q-37 -52 -90 -73.5t-117 -21.5zM355 104q52 0 89 18t57 52.5t20 84.5v8q0 38 -11.5 67t-33.5 48.5t-53 30t-70 10.5
q-50 0 -86.5 -18t-56 -51.5t-19.5 -82.5v-15q0 -49 20 -83t56.5 -51.5t87.5 -17.5z" />
    <glyph glyph-name="e" unicode="e" horiz-adv-x="744" 
d="M379 -12q-102 0 -175.5 29.5t-113.5 90.5t-40 155q0 92 39 153.5t112 92t173 30.5q105 0 176.5 -30.5t107.5 -89t36 -142.5v-48h-499q3 -49 26.5 -78.5t65 -42.5t96.5 -13q22 0 49.5 5t53 15t43.5 26.5t21 40.5h140q0 -40 -20.5 -75.5t-60.5 -62t-98 -41.5t-132 -15z
M195 321h353q0 29 -13.5 50t-37.5 34.5t-55 20t-66 6.5q-51 0 -90.5 -12.5t-62.5 -37.5t-28 -61z" />
    <glyph glyph-name="f" unicode="f" horiz-adv-x="429" 
d="M122 0v420h-108v107h108v46q0 51 19 87.5t57 55.5t95 19q20 0 41.5 -2t41.5 -5.5t36 -9.5v-90h-68q-46 0 -65 -13t-19 -44v-44h152v-107h-152v-420h-138z" />
    <glyph glyph-name="g" unicode="g" horiz-adv-x="729" 
d="M190 -198q-46 0 -85.5 12t-63.5 40t-24 76q0 38 27.5 68t70.5 44q-31 16 -45.5 42.5t-14.5 57.5q0 40 27.5 70t75.5 37q-40 22 -63 54t-23 69q0 60 33.5 97t99 53.5t161.5 16.5q37 0 70 -3.5t62 -9.5q48 20 73.5 45.5t30.5 47.5h129q-1 -36 -17 -63t-44.5 -45t-69.5 -27
q29 -20 44.5 -48t15.5 -64q0 -56 -30 -93t-88.5 -55t-145.5 -18h-139q-29 0 -45 -10.5t-16 -29.5t16 -30.5t50 -11.5h305q76 0 116.5 -44t40.5 -111q0 -50 -26 -87.5t-69 -58.5t-96 -21h-343zM214 -101h312q16 0 29.5 6.5t21.5 19.5t8 30q0 26 -17.5 40t-41.5 14h-307
q-27 0 -45 -13.5t-18 -39.5t16.5 -41.5t41.5 -15.5zM366 301q71 0 113 15t42 56t-42 56.5t-113 15.5t-113 -15.5t-42 -56.5q0 -29 19 -44.5t54 -21t82 -5.5z" />
    <glyph glyph-name="h" unicode="h" horiz-adv-x="716" 
d="M71 0v724h138v-270h7q28 33 63 51.5t73 26t74 7.5q74 0 123.5 -23t74.5 -70t25 -120v-326h-138v302q0 34 -9.5 57.5t-27 37.5t-42 20t-54.5 6q-44 0 -82.5 -18t-62.5 -50t-24 -75v-280h-138z" />
    <glyph glyph-name="i" unicode="i" horiz-adv-x="280" 
d="M71 613v111h138v-111h-138zM71 0v527h138v-527h-138z" />
    <glyph glyph-name="j" unicode="j" horiz-adv-x="278" 
d="M71 613v111h138v-111h-138zM43 -199q-16 0 -34 2t-35 6t-31 9v90h53q36 0 55.5 19t19.5 53v547h138v-550q0 -53 -15 -93t-51 -61.5t-100 -21.5z" />
    <glyph glyph-name="k" unicode="k" horiz-adv-x="686" 
d="M71 0v724h138v-436l278 239h172l-226 -209l234 -318h-164l-174 235l-120 -89v-146h-138z" />
    <glyph glyph-name="l" unicode="l" horiz-adv-x="280" 
d="M71 0v724h138v-724h-138z" />
    <glyph glyph-name="m" unicode="m" horiz-adv-x="1125" 
d="M71 0v527h111l10 -90h9q28 39 64 61t76.5 31.5t78.5 9.5q74 0 123 -24.5t71 -77.5h9q29 39 65.5 61t77 31.5t79.5 9.5q70 0 117.5 -23t71.5 -70t24 -120v-326h-138v302q0 34 -9 57.5t-25.5 37.5t-39.5 20t-51 6q-42 0 -79 -18t-60 -50t-23 -75v-280h-137v302
q0 34 -9 57.5t-25.5 37.5t-39.5 20t-52 6q-42 0 -79 -18t-59.5 -50t-22.5 -75v-280h-138z" />
    <glyph glyph-name="n" unicode="n" horiz-adv-x="716" 
d="M71 0v527h111l10 -90h9q29 39 66 61t78.5 31.5t80.5 9.5q74 0 123.5 -23t74.5 -70t25 -120v-326h-138v302q0 34 -9.5 57.5t-27 37.5t-42 20t-54.5 6q-44 0 -82.5 -18t-62.5 -50t-24 -75v-280h-138z" />
    <glyph glyph-name="o" unicode="o" horiz-adv-x="746" 
d="M373 -12q-101 0 -173.5 31t-111 92.5t-38.5 152.5q0 92 38.5 153t111 91.5t173.5 30.5t173.5 -30.5t111 -91.5t38.5 -153q0 -91 -38.5 -152.5t-111 -92.5t-173.5 -31zM373 95q56 0 96.5 18.5t62 54t21.5 86.5v20q0 52 -21.5 87t-62 53t-96.5 18t-96.5 -18t-62 -53
t-21.5 -87v-20q0 -51 21.5 -86.5t62 -54t96.5 -18.5z" />
    <glyph glyph-name="p" unicode="p" horiz-adv-x="729" 
d="M71 -187v714h111l12 -83h8q37 52 90 73.5t117 21.5q82 0 142.5 -30t94 -91t33.5 -154t-33 -154.5t-91.5 -91.5t-136.5 -30q-42 0 -80 9t-69 26.5t-53 43.5h-7v-254h-138zM376 104q51 0 87 18t55.5 52t19.5 82v15q0 49 -19.5 83t-56.5 51.5t-88 17.5t-88.5 -18
t-57.5 -52.5t-20 -84.5v-8q0 -37 11.5 -66.5t33.5 -49t53 -30t70 -10.5z" />
    <glyph glyph-name="q" unicode="q" horiz-adv-x="729" 
d="M520 -187v254h-7q-22 -26 -53 -43.5t-69 -26.5t-80 -9q-78 0 -136.5 30t-91.5 91.5t-33 154.5t33.5 154t94 91t142.5 30q64 0 117 -21.5t90 -73.5h8l12 83h111v-714h-138zM353 104q39 0 70 10.5t53 30t33.5 49t11.5 66.5v8q0 50 -20 84.5t-57 52.5t-89 18
q-51 0 -87.5 -17.5t-56.5 -51.5t-20 -83v-15q0 -48 19.5 -82t56 -52t86.5 -18z" />
    <glyph glyph-name="r" unicode="r" horiz-adv-x="438" 
d="M71 0v527h111l10 -93h8q11 28 32 52t52.5 38.5t71.5 14.5q18 0 35.5 -2.5t31.5 -7.5v-121h-69q-40 0 -67.5 -13.5t-44.5 -36.5t-25 -50.5t-8 -56.5v-251h-138z" />
    <glyph glyph-name="s" unicode="s" horiz-adv-x="666" 
d="M331 -12q-58 0 -111 9.5t-93.5 28.5t-64 49.5t-23.5 72.5q0 5 0.5 9t1.5 8h141q0 -1 -0.5 -4t-0.5 -5q0 -25 21.5 -40t56 -21.5t73.5 -6.5t74.5 4.5t57.5 17t22 37.5q0 26 -24 37.5t-69.5 18t-110.5 15.5q-48 7 -88.5 18t-71 28.5t-47 45t-16.5 67.5q0 43 19.5 73.5
t56 50t88.5 29t117 9.5q58 0 106.5 -9.5t84.5 -28.5t56.5 -47t20.5 -64v-7.5t-1 -7.5h-141v4q0 22 -18 35t-46.5 19t-62.5 6q-12 0 -35.5 -1t-48 -5.5t-41.5 -14t-17 -27.5q0 -22 25 -33t65.5 -16.5t87.5 -12.5q51 -7 96.5 -16t79.5 -26t53.5 -46.5t19.5 -77.5
q0 -49 -19.5 -82.5t-57 -54t-92 -29.5t-124.5 -9z" />
    <glyph glyph-name="t" unicode="t" horiz-adv-x="449" 
d="M287 -12q-58 0 -94 16t-52.5 53.5t-16.5 102.5v260h-101v107h105l28 154h106v-154h143v-107h-143v-250q0 -37 13.5 -56t60.5 -19h69v-90q-14 -5 -35.5 -9t-43.5 -6t-39 -2z" />
    <glyph glyph-name="u" unicode="u" horiz-adv-x="716" 
d="M290 -12q-110 0 -166.5 52t-56.5 161v326h138v-302q0 -34 9.5 -57.5t27 -37.5t42 -20t54.5 -6q44 0 82.5 18t62.5 50t24 75v280h138v-527h-111l-10 90h-9q-28 -39 -65.5 -61t-78.5 -31.5t-81 -9.5z" />
    <glyph glyph-name="v" unicode="v" horiz-adv-x="653" 
d="M255 0l-250 527h149l116 -256q7 -15 17 -39t20.5 -49t18.5 -45h8q8 20 17.5 45t19 49t16.5 39l116 256h145l-250 -527h-143z" />
    <glyph glyph-name="w" unicode="w" horiz-adv-x="972" 
d="M218 0l-213 527h148l95 -259q9 -23 16 -45t12.5 -39.5t7.5 -28.5h8q3 10 8.5 27t13 39t15.5 46l87 260h152l87 -260q3 -7 9 -26.5t13 -42.5t13 -43h8q5 17 11.5 38t13.5 41t11 33l94 260h139l-214 -527h-135l-83 243q-8 23 -16.5 48t-16 47t-12.5 36h-7q-5 -16 -13 -39
t-16 -47.5t-15 -45.5l-82 -242h-139z" />
    <glyph glyph-name="x" unicode="x" horiz-adv-x="684" 
d="M12 0l250 274l-235 253h176l155 -167h7l153 167h165l-235 -255l249 -272h-175l-169 186h-7l-168 -186h-166z" />
    <glyph glyph-name="y" unicode="y" horiz-adv-x="653" 
d="M140 -198q-28 0 -51 4.5t-43 12.5v90h69q46 0 73 10.5t43.5 30.5t31.5 50l-258 527h151l114 -255q9 -18 20.5 -44.5t23.5 -53.5t21 -47h8l5.5 15.5t15 39t19.5 48.5l18 45l102 252h145l-214 -477q-27 -59 -52.5 -105t-57.5 -78t-76.5 -48.5t-107.5 -16.5z" />
    <glyph glyph-name="z" unicode="z" horiz-adv-x="631" 
d="M31 0v59l332 361h-309v107h533v-56l-335 -364h348v-107h-569z" />
    <glyph glyph-name="braceleft" unicode="{" horiz-adv-x="333" 
d="M308 -159q-48 0 -83.5 6t-59 20t-35 38.5t-11.5 62.5v225q0 20 -13 32t-32.5 17.5t-41.5 5.5v79q21 0 41 6t33 18.5t13 32.5v224q0 38 12 63t35.5 39t59 20t82.5 6v-74q-15 0 -34 -3.5t-33 -14t-15 -30.5l-11 -219q-2 -49 -23 -76t-74 -27v-9q40 0 60 -14t28 -40.5
t10 -64.5l10 -200q1 -18 14.5 -28.5t32 -15.5t35.5 -5v-74z" />
    <glyph glyph-name="bar" unicode="|" horiz-adv-x="295" 
d="M97 -192v917h101v-917h-101z" />
    <glyph glyph-name="braceright" unicode="}" horiz-adv-x="333" 
d="M25 735q48 0 83.5 -6t59 -20t35 -38.5t11.5 -62.5v-225q0 -20 13 -32t33 -17.5t41 -5.5v-79q-20 0 -40.5 -6t-33.5 -18.5t-13 -32.5v-224q0 -38 -12 -63t-35.5 -39t-59 -20t-82.5 -6v74q15 0 34 3.5t33 14t15 30.5l11 219q2 49 23 76t74 27v9q-40 0 -60 14t-27.5 41
t-10.5 64l-10 200q-1 18 -14.5 29t-32 15.5t-35.5 4.5v74z" />
    <glyph glyph-name="asciitilde" unicode="~" horiz-adv-x="720" 
d="M26 193v102q16 20 44 42t66 37t82 15q39 0 74 -12.5t69.5 -28.5t70 -28.5t74.5 -12.5q41 0 77.5 15t65.5 37t46 42v-102q-16 -20 -45 -42t-67 -37t-82 -15q-39 0 -73.5 12.5t-69 28.5t-70 28.5t-75.5 12.5t-76.5 -15t-65 -37t-45.5 -42z" />
    <glyph glyph-name="uni00A0" unicode="&#xa0;" horiz-adv-x="320" 
 />
    <glyph glyph-name="exclamdown" unicode="&#xa1;" horiz-adv-x="318" 
d="M76 -160l27 456h112l27 -456h-166zM76 371v156h166v-156h-166z" />
    <glyph glyph-name="cent" unicode="&#xa2;" horiz-adv-x="734" 
d="M337 -49v772h64v-772h-64zM373 69q-102 0 -174.5 30.5t-110.5 92t-38 153.5t38 153t110.5 91.5t174.5 30.5q63 0 118 -13.5t96.5 -41t64.5 -68t23 -94.5h-139q0 36 -22.5 60.5t-59.5 37t-81 12.5q-56 0 -96.5 -18t-62 -53t-21.5 -87v-20q0 -51 22 -86.5t63.5 -54
t99.5 -18.5q43 0 80 13.5t60 38.5t23 59h134q0 -55 -23.5 -96t-64.5 -68t-96 -40.5t-118 -13.5z" />
    <glyph glyph-name="sterling" unicode="&#xa3;" horiz-adv-x="753" 
d="M70 0v112h93v177h-120v102h120v98q0 70 33 116.5t94.5 70t146.5 23.5q79 0 137.5 -21t91 -64t32.5 -110v-13h-124v17q0 28 -17 46.5t-47.5 28.5t-72.5 10t-72.5 -10.5t-47 -30.5t-16.5 -49v-112h188v-102h-188l-13 -177h400v-112h-618z" />
    <glyph glyph-name="currency" unicode="&#xa4;" horiz-adv-x="608" 
d="M100 87l-52 54l57 56q-25 28 -37.5 66t-12.5 80q0 41 12.5 80t37.5 65l-57 57l53 54l56 -56q27 23 66.5 35.5t79.5 12.5q42 0 80.5 -12.5t63.5 -34.5l57 57l55 -58l-55 -55q23 -25 35 -64t12 -81q0 -41 -12 -80t-36 -67l55 -55l-51 -53l-57 57q-27 -24 -65.5 -37
t-81.5 -13q-42 0 -80.5 12.5t-66.5 36.5zM303 180q47 0 84 22t58.5 59.5t21.5 81.5t-21.5 81t-58.5 59t-84 22q-45 0 -82.5 -22t-59.5 -58.5t-22 -81.5t22.5 -82t59.5 -59t82 -22z" />
    <glyph glyph-name="yen" unicode="&#xa5;" horiz-adv-x="733" 
d="M299 0v153h-242v77h242v54h-242v77h192q-6 6 -24 32.5t-44 62.5l-163 231h164l125 -184q9 -12 20 -29t22 -33.5t19 -29.5h8q7 12 16.5 28t20.5 33t20 31l125 184h157l-165 -232q-24 -33 -42 -61t-23 -33h191v-77h-241v-54h241v-77h-241v-153h-136z" />
    <glyph glyph-name="brokenbar" unicode="&#xa6;" horiz-adv-x="295" 
d="M97 347v378h101v-378h-101zM97 -192v378h101v-378h-101z" />
    <glyph glyph-name="section" unicode="&#xa7;" horiz-adv-x="746" 
d="M375 -183q-72 0 -127.5 11t-94 31.5t-58 49t-19.5 64.5v5.5t1 6.5h139v-9q0 -12 8.5 -24t27 -21t48 -14.5t72.5 -5.5t78 7t55.5 21t20.5 36q0 23 -25.5 39t-68 29t-92.5 25.5t-100.5 28t-93 37.5t-68 52.5t-25.5 73.5q0 38 17.5 67t45 49.5t56.5 32.5q-44 21 -73 51
t-29 73t24 74.5t66 51.5t96 30t114 10q66 0 121 -10t94.5 -29.5t61.5 -48.5t22 -68v-5.5t-1 -6.5h-139v9q0 12 -8.5 24t-26.5 21t-47.5 14.5t-72.5 5.5t-78 -7t-56 -21t-21 -36q0 -23 25.5 -39t68 -29t93 -26t101 -28.5t93 -37.5t68 -52.5t25.5 -73.5q0 -37 -18 -66.5
t-45.5 -49.5t-56.5 -32q45 -21 74 -51t29 -73t-24 -74.5t-66.5 -51.5t-96.5 -30t-114 -10zM476 148q35 11 58.5 31.5t23.5 49.5q0 30 -26.5 50t-69.5 34.5t-93.5 27t-99.5 26.5q-34 -12 -58 -32t-24 -48q0 -30 26 -50.5t69 -35t94 -27t100 -26.5z" />
    <glyph glyph-name="dieresis" unicode="&#xa8;" horiz-adv-x="384" 
d="M0 604v117h130v-117h-130zM253 604v117h131v-117h-131z" />
    <glyph glyph-name="copyright" unicode="&#xa9;" horiz-adv-x="835" 
d="M417 -12q-77 0 -142 26.5t-112.5 74t-74 112.5t-26.5 142t26.5 142t74 113t112.5 74.5t142 26.5t142 -26.5t113 -74.5t74.5 -113t26.5 -142t-26.5 -142t-74.5 -112.5t-113 -74t-142 -26.5zM417 130q-64 0 -111 22t-72.5 69.5t-25.5 121.5t25.5 121t72.5 69.5t111 22.5
q55 0 99.5 -18t70.5 -56t26 -98h-85q0 34 -15 55.5t-40 31.5t-57 10q-57 0 -87 -31.5t-30 -96.5v-18q0 -45 13.5 -74t40 -42.5t63.5 -13.5q33 0 58.5 9.5t40.5 30.5t15 55h83q0 -59 -25.5 -96.5t-69.5 -55.5t-101 -18zM417 46q87 0 155 38.5t106.5 105.5t38.5 153
q0 87 -38.5 154t-106.5 105.5t-155 38.5t-155 -38.5t-106.5 -105.5t-38.5 -153q0 -87 38.5 -154t106.5 -105.5t155 -38.5z" />
    <glyph glyph-name="ordfeminine" unicode="&#xaa;" horiz-adv-x="500" 
d="M172 330q-42 0 -76.5 9.5t-54.5 31.5t-20 61q0 42 23.5 66t66.5 35.5t100.5 15t124.5 3.5v10q0 26 -11 41t-33.5 22t-59.5 7q-30 0 -52 -5t-34.5 -14.5t-12.5 -23.5v-9h-97q-1 2 -1.5 4.5t-0.5 5.5q0 50 51.5 79.5t153.5 29.5q63 0 106 -12t65 -39.5t22 -73.5v-152
q0 -12 5 -18.5t18 -6.5h35v-56q-7 -1 -25 -6t-39 -5q-48 0 -64 19.5t-20 47.5h-5q-28 -31 -71.5 -49t-93.5 -18zM195 396q31 0 63.5 9.5t55 29t22.5 50.5v11q-74 0 -122.5 -4.5t-72 -16.5t-23.5 -34q0 -18 11.5 -28t29 -13.5t36.5 -3.5z" />
    <glyph glyph-name="guillemotleft" unicode="&#xab;" horiz-adv-x="601" 
d="M232 122l-207 203l207 202h107l-174 -202l174 -203h-107zM468 122l-207 203l207 202h107l-174 -202l174 -203h-107z" />
    <glyph glyph-name="logicalnot" unicode="&#xac;" horiz-adv-x="720" 
d="M543 145v208h-491v117h605v-325h-114z" />
    <glyph glyph-name="uni00AD" unicode="&#xad;" horiz-adv-x="416" 
d="M50 209v130h316v-130h-316z" />
    <glyph glyph-name="registered" unicode="&#xae;" horiz-adv-x="835" 
d="M417 -12q-77 0 -142 26.5t-112.5 74t-74 112.5t-26.5 142t26.5 142t74 113t112.5 74.5t142 26.5t142 -26.5t113 -74.5t74.5 -113t26.5 -142t-26.5 -142t-74.5 -112.5t-113 -74t-142 -26.5zM417 46q87 0 155 38.5t106.5 105.5t38.5 153q0 87 -38.5 154t-106.5 105.5
t-155 38.5t-155 -38.5t-106.5 -105.5t-38.5 -153q0 -87 38.5 -154t106.5 -105.5t155 -38.5zM247 136v413h215q68 0 104.5 -33t36.5 -90q0 -40 -21.5 -71t-56.5 -49l93 -170h-97l-77 154h-109v-154h-88zM335 360h114q29 0 46.5 16t17.5 44q0 26 -17.5 41.5t-46.5 15.5h-114
v-117z" />
    <glyph glyph-name="macron" unicode="&#xaf;" horiz-adv-x="383" 
d="M0 623v77h383v-77h-383z" />
    <glyph glyph-name="degree" unicode="&#xb0;" horiz-adv-x="400" 
d="M200 430q-37 0 -67.5 18t-48.5 48.5t-18 67.5q0 38 18 68.5t48.5 48.5t67.5 18q38 0 68.5 -18t48.5 -48.5t18 -68.5q0 -37 -18 -67.5t-48.5 -48.5t-68.5 -18zM200 497q29 0 48.5 19.5t19.5 47.5q0 29 -19.5 48.5t-48.5 19.5q-28 0 -47.5 -19.5t-19.5 -48.5
q0 -28 19.5 -47.5t47.5 -19.5z" />
    <glyph glyph-name="plusminus" unicode="&#xb1;" horiz-adv-x="720" 
d="M310 156v199h-224v99h224v200h99v-200h225v-99h-225v-199h-99zM86 0v99h548v-99h-548z" />
    <glyph glyph-name="uni00B2" unicode="&#xb2;" horiz-adv-x="436" 
d="M45 440v23q0 39 22 68t61 52t89 45q38 16 64.5 30.5t26.5 33.5q0 18 -21.5 29t-64.5 11q-31 0 -51 -7t-29.5 -18t-9.5 -25v-19h-83q0 2 -0.5 7.5t-0.5 11.5q0 39 22 65.5t63 40t97 13.5q48 0 85 -11t58.5 -34t21.5 -58q0 -25 -10 -44.5t-27 -34.5t-38.5 -27t-44.5 -21
q-37 -16 -70.5 -28.5t-48.5 -29.5h243v-73h-354z" />
    <glyph glyph-name="uni00B3" unicode="&#xb3;" horiz-adv-x="436" 
d="M226 428q-91 0 -137.5 30.5t-46.5 76.5v13h83v-11q0 -19 25.5 -29t67.5 -10q32 0 55 5t35.5 15t12.5 26q0 15 -12.5 24t-31 13t-35.5 4h-75v66h71q17 0 33.5 4.5t27.5 13.5t11 24q0 13 -11.5 21.5t-31.5 13t-44 4.5q-22 0 -42.5 -4.5t-33.5 -12.5t-13 -21v-10h-80v14
q0 30 22 53t61.5 36.5t90.5 13.5t88.5 -12t58.5 -34t21 -53q0 -26 -18 -47.5t-49 -31.5v-2q35 -6 57 -25.5t22 -57.5q0 -33 -21.5 -58t-62 -38.5t-98.5 -13.5z" />
    <glyph glyph-name="acute" unicode="&#xb4;" horiz-adv-x="276" 
d="M0 591l116 133h160v-5l-160 -128h-116z" />
    <glyph glyph-name="uni00B5" unicode="&#xb5;" horiz-adv-x="720" 
d="M71 -187v714h138v-302q0 -34 9.5 -57.5t27 -37.5t42 -20t54.5 -6q44 0 82.5 18t62.5 50t24 75v280h138v-527h-111l-10 90h-9q-26 -38 -61.5 -60.5t-74 -32t-75.5 -9.5q-29 0 -55.5 6.5t-48.5 19.5q2 -13 3.5 -34t1.5 -39v-128h-138z" />
    <glyph glyph-name="paragraph" unicode="&#xb6;" horiz-adv-x="699" 
d="M284 -165v417q-60 0 -109.5 29.5t-78.5 78.5t-29 109t29 109.5t78.5 79t109.5 29.5h384v-95h-86v-757h-95v757h-108v-757h-95z" />
    <glyph glyph-name="periodcentered" unicode="&#xb7;" horiz-adv-x="418" 
d="M126 262v156h166v-156h-166z" />
    <glyph glyph-name="cedilla" unicode="&#xb8;" horiz-adv-x="266" 
d="M131 -195q-34 0 -70 3t-61 9v47h133q20 0 32 5t12 21q0 14 -9.5 19t-32.5 5h-68l23 114h78l-12 -62q30 -1 55 -8.5t40 -24t15 -46.5q0 -25 -12 -41.5t-32 -25t-44 -12t-47 -3.5z" />
    <glyph glyph-name="uni00B9" unicode="&#xb9;" horiz-adv-x="436" 
d="M72 440v70h123v184h-121v51q32 1 63.5 7.5t60.5 18t52 25.5h29v-286h110v-70h-317z" />
    <glyph glyph-name="ordmasculine" unicode="&#xba;" horiz-adv-x="483" 
d="M242 330q-69 0 -118 20.5t-75.5 61.5t-26.5 102q0 62 26.5 103t75.5 61.5t118 20.5t118 -20.5t75 -61.5t26 -103q0 -61 -26 -102t-75 -61.5t-118 -20.5zM242 401q56 0 87 27.5t31 79.5v13q0 52 -31 79.5t-87 27.5t-87.5 -27.5t-31.5 -79.5v-13q0 -52 31.5 -79.5
t87.5 -27.5z" />
    <glyph glyph-name="guillemotright" unicode="&#xbb;" horiz-adv-x="601" 
d="M369 527l207 -203l-207 -202h-107l174 202l-174 203h107zM133 527l207 -203l-207 -202h-107l174 202l-174 203h107z" />
    <glyph glyph-name="onequarter" unicode="&#xbc;" horiz-adv-x="1063" 
d="M225 -12l547 711h85l-548 -711h-84zM72 340v70h123v184h-121v51q32 1 63.5 7.5t60.5 18t52 25.5h29v-286h110v-70h-317zM844 0v76h-227v66q39 45 73.5 101.5t55.5 117.5h91q-7 -26 -23.5 -57t-37 -61.5t-42 -57t-38.5 -43.5h148v94q8 10 16.5 25.5t16 32t10.5 28.5h41
v-180h68v-66h-68v-76h-84z" />
    <glyph glyph-name="onehalf" unicode="&#xbd;" horiz-adv-x="1062" 
d="M225 -12l547 711h85l-548 -711h-84zM658 0v23q0 39 22 68t61 52t89 45q38 16 64.5 30.5t26.5 33.5q0 18 -21.5 29t-64.5 11q-31 0 -51 -7t-29.5 -18t-9.5 -25v-19h-83q0 2 -0.5 7.5t-0.5 11.5q0 39 22 65.5t63 40t97 13.5q48 0 85 -11t58.5 -34t21.5 -58q0 -25 -10 -44.5
t-27 -34.5t-38.5 -27t-44.5 -21q-37 -16 -70.5 -28.5t-48.5 -29.5h243v-73h-354zM72 340v70h123v184h-121v51q32 1 63.5 7.5t60.5 18t52 25.5h29v-286h110v-70h-317z" />
    <glyph glyph-name="threequarters" unicode="&#xbe;" horiz-adv-x="1063" 
d="M225 -12l547 711h85l-548 -711h-84zM226 328q-91 0 -137.5 30.5t-46.5 76.5v13h83v-11q0 -19 25.5 -29t67.5 -10q32 0 55 5t35.5 15t12.5 26q0 15 -12.5 24t-31 13t-35.5 4h-75v66h71q17 0 33.5 4.5t27.5 13.5t11 24q0 13 -11.5 21.5t-31.5 13t-44 4.5q-22 0 -42.5 -4.5
t-33.5 -12.5t-13 -21v-10h-80v14q0 30 22 53t61.5 36.5t90.5 13.5t88.5 -12t58.5 -34t21 -53q0 -26 -18 -47.5t-49 -31.5v-2q35 -6 57 -25.5t22 -57.5q0 -33 -21.5 -57.5t-62 -38.5t-98.5 -14zM844 0v76h-227v66q39 45 73.5 101.5t55.5 117.5h91q-7 -26 -23.5 -57t-37 -61.5
t-42 -57t-38.5 -43.5h148v94q8 10 16.5 25.5t16 32t10.5 28.5h41v-180h68v-66h-68v-76h-84z" />
    <glyph glyph-name="questiondown" unicode="&#xbf;" horiz-adv-x="681" 
d="M337 -172q-64 0 -111.5 11.5t-80 31t-52.5 43.5t-28.5 50.5t-8.5 51.5q0 43 15.5 74.5t40 54t52.5 40t52.5 32t40 30t15.5 34.5v22h141v-33q0 -33 -15 -57.5t-38.5 -43.5t-50.5 -36t-50.5 -33.5t-38.5 -36.5t-15 -46q0 -15 7.5 -29.5t24.5 -26.5t45 -19t68 -7q51 0 82 11
t47 28t22 35.5t6 33.5v13.5t-1 13.5h134q1 -5 2 -13.5t1 -22.5q0 -30 -10.5 -59.5t-33 -56t-58.5 -47t-86.5 -32t-117.5 -11.5zM258 371v156h166v-156h-166z" />
    <glyph glyph-name="Agrave" unicode="&#xc0;" horiz-adv-x="908" 
d="M24 0l344 687h172l344 -687h-167l-65 133h-407l-65 -133h-156zM305 256h287l-80 168q-5 11 -14.5 32.5t-19 44t-17 39t-8.5 17.5h-8q-9 -20 -20.5 -46t-22 -50t-17.5 -38zM538 744h-116l-160 128v5h160z" />
    <glyph glyph-name="Aacute" unicode="&#xc1;" horiz-adv-x="908" 
d="M24 0l344 687h172l344 -687h-167l-65 133h-407l-65 -133h-156zM305 256h287l-80 168q-5 11 -14.5 32.5t-19 44t-17 39t-8.5 17.5h-8q-9 -20 -20.5 -46t-22 -50t-17.5 -38zM361 744l116 133h160v-5l-160 -128h-116z" />
    <glyph glyph-name="Acircumflex" unicode="&#xc2;" horiz-adv-x="908" 
d="M24 0l344 687h172l344 -687h-167l-65 133h-407l-65 -133h-156zM305 256h287l-80 168q-5 11 -14.5 32.5t-19 44t-17 39t-8.5 17.5h-8q-9 -20 -20.5 -46t-22 -50t-17.5 -38zM247 736l154 141h105l155 -141h-115l-127 115h66l-127 -115h-111z" />
    <glyph glyph-name="Atilde" unicode="&#xc3;" horiz-adv-x="908" 
d="M24 0l344 687h172l344 -687h-167l-65 133h-407l-65 -133h-156zM305 256h287l-80 168q-5 11 -14.5 32.5t-19 44t-17 39t-8.5 17.5h-8q-9 -20 -20.5 -46t-22 -50t-17.5 -38zM226 745q2 28 17.5 56.5t45 47.5t72.5 19q36 0 70 -10t66.5 -20.5t62.5 -10.5q23 0 35 12.5
t16 28.5h72q-1 -28 -18 -57t-47 -48t-72 -19q-34 0 -68.5 10.5t-67 20.5t-61.5 10q-24 0 -36.5 -12.5t-17.5 -27.5h-69z" />
    <glyph glyph-name="Adieresis" unicode="&#xc4;" horiz-adv-x="908" 
d="M24 0l344 687h172l344 -687h-167l-65 133h-407l-65 -133h-156zM305 256h287l-80 168q-5 11 -14.5 32.5t-19 44t-17 39t-8.5 17.5h-8q-9 -20 -20.5 -46t-22 -50t-17.5 -38zM262 759v117h130v-117h-130zM515 759v117h131v-117h-131z" />
    <glyph glyph-name="Aring" unicode="&#xc5;" horiz-adv-x="908" 
d="M24 0l344 687h172l344 -687h-167l-65 133h-407l-65 -133h-156zM305 256h287l-80 168q-5 11 -14.5 32.5t-19 44t-17 39t-8.5 17.5h-8q-9 -20 -20.5 -46t-22 -50t-17.5 -38zM453 719q-46 0 -76 29.5t-30 74.5q0 46 30 75.5t76 29.5q47 0 77 -29.5t30 -75.5q0 -45 -30 -74.5
t-77 -29.5zM453 773q23 0 38 14t15 36q0 23 -15 37t-38 14q-22 0 -37 -14t-15 -36q0 -23 15 -37t37 -14z" />
    <glyph glyph-name="AE" unicode="&#xc6;" horiz-adv-x="1283" 
d="M0 0l441 687h768v-127h-556l52 -147h444v-127h-399l57 -159h410v-127h-522l-46 133h-407l-84 -133h-158zM323 260h282l-56 164q-4 11 -10 31t-12.5 41t-11.5 36.5t-6 16.5h-8q-8 -14 -18.5 -31.5t-21 -35.5t-20 -33.5t-15.5 -25.5z" />
    <glyph glyph-name="Ccedilla" unicode="&#xc7;" horiz-adv-x="946" 
d="M488 -12q-139 0 -233 40.5t-141 120t-47 195.5q0 170 108 262.5t312 92.5q116 0 204.5 -33t138 -95t49.5 -150h-149q0 50 -31 83.5t-86 50.5t-129 17q-80 0 -138.5 -25.5t-90.5 -73.5t-32 -116v-25q0 -69 32 -117.5t91 -74t139 -25.5q77 0 132.5 16.5t86 50t30.5 82.5
h146q0 -86 -49 -148t-137 -95t-206 -33zM493 -195q-34 0 -70 3t-61 9v47h133q20 0 32 5t12 21q0 14 -9.5 19t-32.5 5h-68l23 114h78l-12 -62q30 -1 55 -8.5t40 -24t15 -46.5q0 -25 -12 -41.5t-32 -25t-44 -12t-47 -3.5z" />
    <glyph glyph-name="Egrave" unicode="&#xc8;" horiz-adv-x="866" 
d="M97 0v687h695v-127h-543v-147h483v-127h-483v-159h551v-127h-703zM532 744h-116l-160 128v5h160z" />
    <glyph glyph-name="Eacute" unicode="&#xc9;" horiz-adv-x="866" 
d="M97 0v687h695v-127h-543v-147h483v-127h-483v-159h551v-127h-703zM355 744l116 133h160v-5l-160 -128h-116z" />
    <glyph glyph-name="Ecircumflex" unicode="&#xca;" horiz-adv-x="866" 
d="M97 0v687h695v-127h-543v-147h483v-127h-483v-159h551v-127h-703zM241 736l154 141h105l155 -141h-115l-127 115h66l-127 -115h-111z" />
    <glyph glyph-name="Edieresis" unicode="&#xcb;" horiz-adv-x="866" 
d="M97 0v687h695v-127h-543v-147h483v-127h-483v-159h551v-127h-703zM256 759v117h130v-117h-130zM509 759v117h131v-117h-131z" />
    <glyph glyph-name="Igrave" unicode="&#xcc;" horiz-adv-x="346" 
d="M97 0v687h152v-687h-152zM257 744h-116l-160 128v5h160z" />
    <glyph glyph-name="Iacute" unicode="&#xcd;" horiz-adv-x="346" 
d="M97 0v687h152v-687h-152zM80 744l116 133h160v-5l-160 -128h-116z" />
    <glyph glyph-name="Icircumflex" unicode="&#xce;" horiz-adv-x="346" 
d="M97 0v687h152v-687h-152zM-34 736l154 141h105l155 -141h-115l-127 115h66l-127 -115h-111z" />
    <glyph glyph-name="Idieresis" unicode="&#xcf;" horiz-adv-x="346" 
d="M97 0v687h152v-687h-152zM-19 759v117h130v-117h-130zM234 759v117h131v-117h-131z" />
    <glyph glyph-name="Eth" unicode="&#xd0;" horiz-adv-x="934" 
d="M0 286v116h472v-116h-472zM97 0v687h366q126 0 216.5 -39.5t139 -116t48.5 -188.5q0 -111 -48.5 -187.5t-139 -116t-216.5 -39.5h-366zM249 127h206q55 0 101.5 13t81 38.5t53.5 64t19 89.5v23q0 51 -19 89.5t-53.5 64t-81 38.5t-101.5 13h-206v-433z" />
    <glyph glyph-name="Ntilde" unicode="&#xd1;" horiz-adv-x="965" 
d="M97 0v687h143l376 -361q13 -11 31 -30t37.5 -39t33.5 -36h8q-1 22 -2.5 53.5t-1.5 51.5v361h146v-687h-140l-377 365q-27 26 -56.5 57.5t-47.5 50.5h-7q1 -13 2 -45.5t1 -74.5v-353h-146zM255 745q2 28 17.5 56.5t45 47.5t72.5 19q36 0 70 -10t66.5 -20.5t62.5 -10.5
q23 0 35 12.5t16 28.5h72q-1 -28 -18 -57t-47 -48t-72 -19q-34 0 -68.5 10.5t-67 20.5t-61.5 10q-24 0 -36.5 -12.5t-17.5 -27.5h-69z" />
    <glyph glyph-name="Ograve" unicode="&#xd2;" horiz-adv-x="1018" 
d="M509 -12q-137 0 -236 41.5t-152.5 121t-53.5 193.5t53.5 193t152.5 120.5t236 41.5t236 -41.5t152.5 -120.5t53.5 -193t-53.5 -193.5t-152.5 -121t-236 -41.5zM509 115q62 0 114 14t90.5 41t60 68t21.5 95v23q0 54 -21.5 94.5t-60 67.5t-90.5 40.5t-114 13.5t-114 -13.5
t-90.5 -40.5t-59.5 -67.5t-21 -94.5v-23q0 -54 21 -95t59.5 -68t90.5 -41t114 -14zM593 744h-116l-160 128v5h160z" />
    <glyph glyph-name="Oacute" unicode="&#xd3;" horiz-adv-x="1018" 
d="M509 -12q-137 0 -236 41.5t-152.5 121t-53.5 193.5t53.5 193t152.5 120.5t236 41.5t236 -41.5t152.5 -120.5t53.5 -193t-53.5 -193.5t-152.5 -121t-236 -41.5zM509 115q62 0 114 14t90.5 41t60 68t21.5 95v23q0 54 -21.5 94.5t-60 67.5t-90.5 40.5t-114 13.5t-114 -13.5
t-90.5 -40.5t-59.5 -67.5t-21 -94.5v-23q0 -54 21 -95t59.5 -68t90.5 -41t114 -14zM416 744l116 133h160v-5l-160 -128h-116z" />
    <glyph glyph-name="Ocircumflex" unicode="&#xd4;" horiz-adv-x="1018" 
d="M509 -12q-137 0 -236 41.5t-152.5 121t-53.5 193.5t53.5 193t152.5 120.5t236 41.5t236 -41.5t152.5 -120.5t53.5 -193t-53.5 -193.5t-152.5 -121t-236 -41.5zM509 115q62 0 114 14t90.5 41t60 68t21.5 95v23q0 54 -21.5 94.5t-60 67.5t-90.5 40.5t-114 13.5t-114 -13.5
t-90.5 -40.5t-59.5 -67.5t-21 -94.5v-23q0 -54 21 -95t59.5 -68t90.5 -41t114 -14zM302 736l154 141h105l155 -141h-115l-127 115h66l-127 -115h-111z" />
    <glyph glyph-name="Otilde" unicode="&#xd5;" horiz-adv-x="1018" 
d="M509 -12q-137 0 -236 41.5t-152.5 121t-53.5 193.5t53.5 193t152.5 120.5t236 41.5t236 -41.5t152.5 -120.5t53.5 -193t-53.5 -193.5t-152.5 -121t-236 -41.5zM509 115q62 0 114 14t90.5 41t60 68t21.5 95v23q0 54 -21.5 94.5t-60 67.5t-90.5 40.5t-114 13.5t-114 -13.5
t-90.5 -40.5t-59.5 -67.5t-21 -94.5v-23q0 -54 21 -95t59.5 -68t90.5 -41t114 -14zM281 745q2 28 17.5 56.5t45 47.5t72.5 19q36 0 70 -10t66.5 -20.5t62.5 -10.5q23 0 35 12.5t16 28.5h72q-1 -28 -18 -57t-47 -48t-72 -19q-34 0 -68.5 10.5t-67 20.5t-61.5 10
q-24 0 -36.5 -12.5t-17.5 -27.5h-69z" />
    <glyph glyph-name="Odieresis" unicode="&#xd6;" horiz-adv-x="1018" 
d="M509 -12q-137 0 -236 41.5t-152.5 121t-53.5 193.5t53.5 193t152.5 120.5t236 41.5t236 -41.5t152.5 -120.5t53.5 -193t-53.5 -193.5t-152.5 -121t-236 -41.5zM509 115q62 0 114 14t90.5 41t60 68t21.5 95v23q0 54 -21.5 94.5t-60 67.5t-90.5 40.5t-114 13.5t-114 -13.5
t-90.5 -40.5t-59.5 -67.5t-21 -94.5v-23q0 -54 21 -95t59.5 -68t90.5 -41t114 -14zM317 759v117h130v-117h-130zM570 759v117h131v-117h-131z" />
    <glyph glyph-name="multiply" unicode="&#xd7;" horiz-adv-x="720" 
d="M192 30l-68 68l167 168l-168 168l70 70l168 -168l168 168l68 -68l-168 -168l169 -168l-70 -70l-169 168z" />
    <glyph glyph-name="Oslash" unicode="&#xd8;" horiz-adv-x="1018" 
d="M509 -12q-137 0 -236 41.5t-152.5 121t-53.5 193.5t53.5 193t152.5 120.5t236 41.5t236 -41.5t152.5 -120.5t53.5 -193t-53.5 -193.5t-152.5 -121t-236 -41.5zM509 115q62 0 114 14t90.5 41t60 68t21.5 95v23q0 54 -21.5 94.5t-60 67.5t-90.5 40.5t-114 13.5t-114 -13.5
t-90.5 -40.5t-59.5 -67.5t-21 -94.5v-23q0 -54 21 -95t59.5 -68t90.5 -41t114 -14zM86 -43l729 773h117l-730 -773h-116z" />
    <glyph glyph-name="Ugrave" unicode="&#xd9;" horiz-adv-x="944" 
d="M472 -12q-129 0 -213.5 40t-126 113.5t-41.5 173.5v372h152v-365q0 -99 59.5 -153t169.5 -54t169.5 54t59.5 153v365h152v-372q0 -100 -41.5 -173.5t-125.5 -113.5t-214 -40zM556 744h-116l-160 128v5h160z" />
    <glyph glyph-name="Uacute" unicode="&#xda;" horiz-adv-x="944" 
d="M472 -12q-129 0 -213.5 40t-126 113.5t-41.5 173.5v372h152v-365q0 -99 59.5 -153t169.5 -54t169.5 54t59.5 153v365h152v-372q0 -100 -41.5 -173.5t-125.5 -113.5t-214 -40zM379 744l116 133h160v-5l-160 -128h-116z" />
    <glyph glyph-name="Ucircumflex" unicode="&#xdb;" horiz-adv-x="944" 
d="M472 -12q-129 0 -213.5 40t-126 113.5t-41.5 173.5v372h152v-365q0 -99 59.5 -153t169.5 -54t169.5 54t59.5 153v365h152v-372q0 -100 -41.5 -173.5t-125.5 -113.5t-214 -40zM265 736l154 141h105l155 -141h-115l-127 115h66l-127 -115h-111z" />
    <glyph glyph-name="Udieresis" unicode="&#xdc;" horiz-adv-x="944" 
d="M472 -12q-129 0 -213.5 40t-126 113.5t-41.5 173.5v372h152v-365q0 -99 59.5 -153t169.5 -54t169.5 54t59.5 153v365h152v-372q0 -100 -41.5 -173.5t-125.5 -113.5t-214 -40zM280 759v117h130v-117h-130zM533 759v117h131v-117h-131z" />
    <glyph glyph-name="Yacute" unicode="&#xdd;" horiz-adv-x="861" 
d="M354 0v278l-336 409h183l228 -287h10l231 287h173l-337 -409v-278h-152zM338 744l116 133h160v-5l-160 -128h-116z" />
    <glyph glyph-name="Thorn" unicode="&#xde;" horiz-adv-x="863" 
d="M97 0v687h152v-107h352q67 0 116.5 -29t77 -79.5t27.5 -116.5q0 -65 -28 -116.5t-78.5 -80.5t-118.5 -29h-348v-129h-152zM249 256h306q53 0 82.5 26.5t29.5 71.5q0 31 -13 53t-38 34t-61 12h-306v-197z" />
    <glyph glyph-name="germandbls" unicode="&#xdf;" horiz-adv-x="757" 
d="M72 0v507q0 66 25.5 110t69 70.5t99.5 37.5t116 11q68 0 122.5 -11t93.5 -32.5t60 -55t21 -78.5q0 -56 -32.5 -99t-94.5 -62v-5q71 -9 116 -58t45 -124q0 -73 -33 -120t-91 -69t-134 -22h-130v107h112q41 0 71 12t46.5 37t16.5 65t-17.5 65t-47.5 37.5t-68 12.5h-113v109
h99q35 0 61 12t41 33.5t15 49.5q0 41 -38.5 65t-118.5 24q-53 0 -92 -11.5t-60.5 -35.5t-21.5 -64v-518h-138z" />
    <glyph glyph-name="agrave" unicode="&#xe0;" horiz-adv-x="739" 
d="M270 -12q-47 0 -87.5 7.5t-71 25t-47.5 47.5t-17 75q0 64 35 100t99 52t149.5 20t185.5 4v22q0 34 -16.5 54t-51 28.5t-90.5 8.5q-45 0 -79 -6t-53 -18t-19 -30v-12h-138q-1 4 -1.5 8t-0.5 9q0 47 34 82t101 54.5t167 19.5q93 0 156.5 -17t96 -56t32.5 -105v-227
q0 -19 7.5 -29t26.5 -10h51v-90q-10 -4 -36.5 -10.5t-58.5 -6.5q-44 0 -68.5 11t-35 30t-14.5 42h-8q-28 -26 -67 -45t-85 -28.5t-96 -9.5zM304 95q32 0 68.5 7t69.5 20.5t53.5 34t20.5 47.5v27q-112 0 -185.5 -7.5t-109.5 -25.5t-36 -51q0 -22 17.5 -33t45 -15t56.5 -4z
M471 591h-116l-160 128v5h160z" />
    <glyph glyph-name="aacute" unicode="&#xe1;" horiz-adv-x="739" 
d="M270 -12q-47 0 -87.5 7.5t-71 25t-47.5 47.5t-17 75q0 64 35 100t99 52t149.5 20t185.5 4v22q0 34 -16.5 54t-51 28.5t-90.5 8.5q-45 0 -79 -6t-53 -18t-19 -30v-12h-138q-1 4 -1.5 8t-0.5 9q0 47 34 82t101 54.5t167 19.5q93 0 156.5 -17t96 -56t32.5 -105v-227
q0 -19 7.5 -29t26.5 -10h51v-90q-10 -4 -36.5 -10.5t-58.5 -6.5q-44 0 -68.5 11t-35 30t-14.5 42h-8q-28 -26 -67 -45t-85 -28.5t-96 -9.5zM304 95q32 0 68.5 7t69.5 20.5t53.5 34t20.5 47.5v27q-112 0 -185.5 -7.5t-109.5 -25.5t-36 -51q0 -22 17.5 -33t45 -15t56.5 -4z
M255 591l116 133h160v-5l-160 -128h-116z" />
    <glyph glyph-name="acircumflex" unicode="&#xe2;" horiz-adv-x="739" 
d="M270 -12q-47 0 -87.5 7.5t-71 25t-47.5 47.5t-17 75q0 64 35 100t99 52t149.5 20t185.5 4v22q0 34 -16.5 54t-51 28.5t-90.5 8.5q-45 0 -79 -6t-53 -18t-19 -30v-12h-138q-1 4 -1.5 8t-0.5 9q0 47 34 82t101 54.5t167 19.5q93 0 156.5 -17t96 -56t32.5 -105v-227
q0 -19 7.5 -29t26.5 -10h51v-90q-10 -4 -36.5 -10.5t-58.5 -6.5q-44 0 -68.5 11t-35 30t-14.5 42h-8q-28 -26 -67 -45t-85 -28.5t-96 -9.5zM304 95q32 0 68.5 7t69.5 20.5t53.5 34t20.5 47.5v27q-112 0 -185.5 -7.5t-109.5 -25.5t-36 -51q0 -22 17.5 -33t45 -15t56.5 -4z
M156 583l154 141h105l155 -141h-115l-127 115h66l-127 -115h-111z" />
    <glyph glyph-name="atilde" unicode="&#xe3;" horiz-adv-x="739" 
d="M270 -12q-47 0 -87.5 7.5t-71 25t-47.5 47.5t-17 75q0 64 35 100t99 52t149.5 20t185.5 4v22q0 34 -16.5 54t-51 28.5t-90.5 8.5q-45 0 -79 -6t-53 -18t-19 -30v-12h-138q-1 4 -1.5 8t-0.5 9q0 47 34 82t101 54.5t167 19.5q93 0 156.5 -17t96 -56t32.5 -105v-227
q0 -19 7.5 -29t26.5 -10h51v-90q-10 -4 -36.5 -10.5t-58.5 -6.5q-44 0 -68.5 11t-35 30t-14.5 42h-8q-28 -26 -67 -45t-85 -28.5t-96 -9.5zM304 95q32 0 68.5 7t69.5 20.5t53.5 34t20.5 47.5v27q-112 0 -185.5 -7.5t-109.5 -25.5t-36 -51q0 -22 17.5 -33t45 -15t56.5 -4z
M134 601q2 28 17.5 56.5t45 47.5t72.5 19q36 0 70 -10t66.5 -20.5t62.5 -10.5q23 0 35 12.5t16 28.5h72q-1 -28 -18 -57t-47 -48t-72 -19q-34 0 -68.5 10.5t-67 20.5t-61.5 10q-24 0 -36.5 -12.5t-17.5 -27.5h-69z" />
    <glyph glyph-name="adieresis" unicode="&#xe4;" horiz-adv-x="739" 
d="M270 -12q-47 0 -87.5 7.5t-71 25t-47.5 47.5t-17 75q0 64 35 100t99 52t149.5 20t185.5 4v22q0 34 -16.5 54t-51 28.5t-90.5 8.5q-45 0 -79 -6t-53 -18t-19 -30v-12h-138q-1 4 -1.5 8t-0.5 9q0 47 34 82t101 54.5t167 19.5q93 0 156.5 -17t96 -56t32.5 -105v-227
q0 -19 7.5 -29t26.5 -10h51v-90q-10 -4 -36.5 -10.5t-58.5 -6.5q-44 0 -68.5 11t-35 30t-14.5 42h-8q-28 -26 -67 -45t-85 -28.5t-96 -9.5zM304 95q32 0 68.5 7t69.5 20.5t53.5 34t20.5 47.5v27q-112 0 -185.5 -7.5t-109.5 -25.5t-36 -51q0 -22 17.5 -33t45 -15t56.5 -4z
M171 604v117h130v-117h-130zM424 604v117h131v-117h-131z" />
    <glyph glyph-name="aring" unicode="&#xe5;" horiz-adv-x="739" 
d="M270 -12q-47 0 -87.5 7.5t-71 25t-47.5 47.5t-17 75q0 64 35 100t99 52t149.5 20t185.5 4v22q0 34 -16.5 54t-51 28.5t-90.5 8.5q-45 0 -79 -6t-53 -18t-19 -30v-12h-138q-1 4 -1.5 8t-0.5 9q0 47 34 82t101 54.5t167 19.5q93 0 156.5 -17t96 -56t32.5 -105v-227
q0 -19 7.5 -29t26.5 -10h51v-90q-10 -4 -36.5 -10.5t-58.5 -6.5q-44 0 -68.5 11t-35 30t-14.5 42h-8q-28 -26 -67 -45t-85 -28.5t-96 -9.5zM304 95q32 0 68.5 7t69.5 20.5t53.5 34t20.5 47.5v27q-112 0 -185.5 -7.5t-109.5 -25.5t-36 -51q0 -22 17.5 -33t45 -15t56.5 -4z
M362 567q-45 0 -76.5 31.5t-31.5 76.5t31.5 77t76.5 32t77 -32t32 -77t-32 -76.5t-77 -31.5zM362 621q23 0 39 16t16 38q0 23 -16 39t-39 16q-22 0 -38 -16t-16 -39q0 -22 16 -38t38 -16z" />
    <glyph glyph-name="ae" unicode="&#xe6;" horiz-adv-x="1205" 
d="M290 -12q-51 0 -95.5 7t-77.5 24t-51.5 45t-18.5 70q0 67 35 105t99 55t149.5 21t185.5 4v22q0 34 -16.5 54t-51 28.5t-90.5 8.5q-45 0 -79 -6t-53 -18t-19 -30v-12h-138q-1 4 -1.5 8t-0.5 9q0 47 34 82t101 54.5t167 19.5q84 0 144.5 -18t94.5 -59q41 38 98.5 57.5
t128.5 19.5q105 0 176.5 -30.5t107.5 -89t36 -142.5v-48h-499q3 -49 26.5 -78.5t65 -42.5t96.5 -13q22 0 49.5 5t53 15t43.5 26.5t21 40.5h140q0 -40 -20.5 -75.5t-60.5 -62t-98 -41.5t-132 -15q-86 0 -151.5 22.5t-107.5 68.5q-33 -29 -79 -49.5t-100 -31t-112 -10.5z
M304 95q32 0 68.5 7t69.5 20.5t53.5 34t20.5 47.5v27q-112 0 -185.5 -7.5t-109.5 -25.5t-36 -51q0 -22 17.5 -33t45 -15t56.5 -4zM656 321h353q0 29 -13.5 50t-37.5 34.5t-55 20t-66 6.5q-51 0 -90.5 -12.5t-62.5 -37.5t-28 -61z" />
    <glyph glyph-name="ccedilla" unicode="&#xe7;" horiz-adv-x="725" 
d="M373 -12q-102 0 -174.5 30.5t-110.5 92t-38 153.5t38 153t110.5 91.5t174.5 30.5q63 0 118 -13.5t96.5 -41t64.5 -68t23 -94.5h-139q0 36 -22.5 60.5t-59.5 37t-81 12.5q-56 0 -96.5 -18t-62 -53t-21.5 -87v-20q0 -51 22 -86.5t63.5 -54t99.5 -18.5q43 0 80 13.5t60 38.5
t23 59h134q0 -55 -23.5 -96t-64.5 -68t-96 -40.5t-118 -13.5zM379 -195q-34 0 -70 3t-61 9v47h133q20 0 32 5t12 21q0 14 -9.5 19t-32.5 5h-68l23 114h78l-12 -62q30 -1 55 -8.5t40 -24t15 -46.5q0 -25 -12 -41.5t-32 -25t-44 -12t-47 -3.5z" />
    <glyph glyph-name="egrave" unicode="&#xe8;" horiz-adv-x="744" 
d="M379 -12q-102 0 -175.5 29.5t-113.5 90.5t-40 155q0 92 39 153.5t112 92t173 30.5q105 0 176.5 -30.5t107.5 -89t36 -142.5v-48h-499q3 -49 26.5 -78.5t65 -42.5t96.5 -13q22 0 49.5 5t53 15t43.5 26.5t21 40.5h140q0 -40 -20.5 -75.5t-60.5 -62t-98 -41.5t-132 -15z
M195 321h353q0 29 -13.5 50t-37.5 34.5t-55 20t-66 6.5q-51 0 -90.5 -12.5t-62.5 -37.5t-28 -61zM480 591h-116l-160 128v5h160z" />
    <glyph glyph-name="eacute" unicode="&#xe9;" horiz-adv-x="744" 
d="M379 -12q-102 0 -175.5 29.5t-113.5 90.5t-40 155q0 92 39 153.5t112 92t173 30.5q105 0 176.5 -30.5t107.5 -89t36 -142.5v-48h-499q3 -49 26.5 -78.5t65 -42.5t96.5 -13q22 0 49.5 5t53 15t43.5 26.5t21 40.5h140q0 -40 -20.5 -75.5t-60.5 -62t-98 -41.5t-132 -15z
M195 321h353q0 29 -13.5 50t-37.5 34.5t-55 20t-66 6.5q-51 0 -90.5 -12.5t-62.5 -37.5t-28 -61zM264 591l116 133h160v-5l-160 -128h-116z" />
    <glyph glyph-name="ecircumflex" unicode="&#xea;" horiz-adv-x="744" 
d="M379 -12q-102 0 -175.5 29.5t-113.5 90.5t-40 155q0 92 39 153.5t112 92t173 30.5q105 0 176.5 -30.5t107.5 -89t36 -142.5v-48h-499q3 -49 26.5 -78.5t65 -42.5t96.5 -13q22 0 49.5 5t53 15t43.5 26.5t21 40.5h140q0 -40 -20.5 -75.5t-60.5 -62t-98 -41.5t-132 -15z
M195 321h353q0 29 -13.5 50t-37.5 34.5t-55 20t-66 6.5q-51 0 -90.5 -12.5t-62.5 -37.5t-28 -61zM165 583l154 141h105l155 -141h-115l-127 115h66l-127 -115h-111z" />
    <glyph glyph-name="edieresis" unicode="&#xeb;" horiz-adv-x="744" 
d="M379 -12q-102 0 -175.5 29.5t-113.5 90.5t-40 155q0 92 39 153.5t112 92t173 30.5q105 0 176.5 -30.5t107.5 -89t36 -142.5v-48h-499q3 -49 26.5 -78.5t65 -42.5t96.5 -13q22 0 49.5 5t53 15t43.5 26.5t21 40.5h140q0 -40 -20.5 -75.5t-60.5 -62t-98 -41.5t-132 -15z
M195 321h353q0 29 -13.5 50t-37.5 34.5t-55 20t-66 6.5q-51 0 -90.5 -12.5t-62.5 -37.5t-28 -61zM180 604v117h130v-117h-130zM433 604v117h131v-117h-131z" />
    <glyph glyph-name="igrave" unicode="&#xec;" horiz-adv-x="280" 
d="M71 0v527h138v-527h-138zM248 591h-116l-160 128v5h160z" />
    <glyph glyph-name="iacute" unicode="&#xed;" horiz-adv-x="280" 
d="M71 0v527h138v-527h-138zM32 591l116 133h160v-5l-160 -128h-116z" />
    <glyph glyph-name="icircumflex" unicode="&#xee;" horiz-adv-x="280" 
d="M71 0v527h138v-527h-138zM-67 583l154 141h105l155 -141h-115l-127 115h66l-127 -115h-111z" />
    <glyph glyph-name="idieresis" unicode="&#xef;" horiz-adv-x="280" 
d="M71 0v527h138v-527h-138zM-52 604v117h130v-117h-130zM201 604v117h131v-117h-131z" />
    <glyph glyph-name="eth" unicode="&#xf0;" horiz-adv-x="746" 
d="M373 -12q-101 0 -173.5 31t-111 91.5t-38.5 147.5q0 82 37.5 141t106.5 91t164 32q28 0 54 -4t49 -11l3 5q-21 23 -45 45t-49 41l-183 -19v67l113 11q-22 17 -44.5 32t-45.5 29v6h158q14 -7 27 -15.5l26 -17t25 -17.5l164 16v-66l-94 -9q55 -46 95 -100t62.5 -115
t22.5 -128q0 -94 -37.5 -157.5t-109.5 -95t-176 -31.5zM373 95q57 0 97 18t61.5 53.5t21.5 86.5v20q0 52 -21.5 87t-61.5 53.5t-97 18.5q-56 0 -96.5 -18.5t-62 -53.5t-21.5 -87v-20q0 -51 21.5 -86.5t62 -53.5t96.5 -18z" />
    <glyph glyph-name="ntilde" unicode="&#xf1;" horiz-adv-x="716" 
d="M71 0v527h111l10 -90h9q29 39 66 61t78.5 31.5t80.5 9.5q74 0 123.5 -23t74.5 -70t25 -120v-326h-138v302q0 34 -9.5 57.5t-27 37.5t-42 20t-54.5 6q-44 0 -82.5 -18t-62.5 -50t-24 -75v-280h-138zM129 601q2 28 17.5 56.5t45 47.5t72.5 19q36 0 70 -10t66.5 -20.5
t62.5 -10.5q23 0 35 12.5t16 28.5h72q-1 -28 -18 -57t-47 -48t-72 -19q-34 0 -68.5 10.5t-67 20.5t-61.5 10q-24 0 -36.5 -12.5t-17.5 -27.5h-69z" />
    <glyph glyph-name="ograve" unicode="&#xf2;" horiz-adv-x="746" 
d="M373 -12q-101 0 -173.5 31t-111 92.5t-38.5 152.5q0 92 38.5 153t111 91.5t173.5 30.5t173.5 -30.5t111 -91.5t38.5 -153q0 -91 -38.5 -152.5t-111 -92.5t-173.5 -31zM373 95q56 0 96.5 18.5t62 54t21.5 86.5v20q0 52 -21.5 87t-62 53t-96.5 18t-96.5 -18t-62 -53
t-21.5 -87v-20q0 -51 21.5 -86.5t62 -54t96.5 -18.5zM481 591h-116l-160 128v5h160z" />
    <glyph glyph-name="oacute" unicode="&#xf3;" horiz-adv-x="746" 
d="M373 -12q-101 0 -173.5 31t-111 92.5t-38.5 152.5q0 92 38.5 153t111 91.5t173.5 30.5t173.5 -30.5t111 -91.5t38.5 -153q0 -91 -38.5 -152.5t-111 -92.5t-173.5 -31zM373 95q56 0 96.5 18.5t62 54t21.5 86.5v20q0 52 -21.5 87t-62 53t-96.5 18t-96.5 -18t-62 -53
t-21.5 -87v-20q0 -51 21.5 -86.5t62 -54t96.5 -18.5zM265 591l116 133h160v-5l-160 -128h-116z" />
    <glyph glyph-name="ocircumflex" unicode="&#xf4;" horiz-adv-x="746" 
d="M373 -12q-101 0 -173.5 31t-111 92.5t-38.5 152.5q0 92 38.5 153t111 91.5t173.5 30.5t173.5 -30.5t111 -91.5t38.5 -153q0 -91 -38.5 -152.5t-111 -92.5t-173.5 -31zM373 95q56 0 96.5 18.5t62 54t21.5 86.5v20q0 52 -21.5 87t-62 53t-96.5 18t-96.5 -18t-62 -53
t-21.5 -87v-20q0 -51 21.5 -86.5t62 -54t96.5 -18.5zM166 583l154 141h105l155 -141h-115l-127 115h66l-127 -115h-111z" />
    <glyph glyph-name="otilde" unicode="&#xf5;" horiz-adv-x="746" 
d="M373 -12q-101 0 -173.5 31t-111 92.5t-38.5 152.5q0 92 38.5 153t111 91.5t173.5 30.5t173.5 -30.5t111 -91.5t38.5 -153q0 -91 -38.5 -152.5t-111 -92.5t-173.5 -31zM373 95q56 0 96.5 18.5t62 54t21.5 86.5v20q0 52 -21.5 87t-62 53t-96.5 18t-96.5 -18t-62 -53
t-21.5 -87v-20q0 -51 21.5 -86.5t62 -54t96.5 -18.5zM144 601q2 28 17.5 56.5t45 47.5t72.5 19q36 0 70 -10t66.5 -20.5t62.5 -10.5q23 0 35 12.5t16 28.5h72q-1 -28 -18 -57t-47 -48t-72 -19q-34 0 -68.5 10.5t-67 20.5t-61.5 10q-24 0 -36.5 -12.5t-17.5 -27.5h-69z" />
    <glyph glyph-name="odieresis" unicode="&#xf6;" horiz-adv-x="746" 
d="M373 -12q-101 0 -173.5 31t-111 92.5t-38.5 152.5q0 92 38.5 153t111 91.5t173.5 30.5t173.5 -30.5t111 -91.5t38.5 -153q0 -91 -38.5 -152.5t-111 -92.5t-173.5 -31zM373 95q56 0 96.5 18.5t62 54t21.5 86.5v20q0 52 -21.5 87t-62 53t-96.5 18t-96.5 -18t-62 -53
t-21.5 -87v-20q0 -51 21.5 -86.5t62 -54t96.5 -18.5zM181 604v117h130v-117h-130zM434 604v117h131v-117h-131z" />
    <glyph glyph-name="divide" unicode="&#xf7;" horiz-adv-x="720" 
d="M86 219v99h548v-99h-548zM308 18v109h104v-109h-104zM308 411v109h104v-109h-104z" />
    <glyph glyph-name="oslash" unicode="&#xf8;" horiz-adv-x="746" 
d="M373 -12q-101 0 -173.5 31t-111 92.5t-38.5 152.5q0 92 38.5 153t111 91.5t173.5 30.5t173.5 -30.5t111 -91.5t38.5 -153q0 -91 -38.5 -152.5t-111 -92.5t-173.5 -31zM373 95q56 0 96.5 18.5t62 54t21.5 86.5v20q0 52 -21.5 87t-62 53t-96.5 18t-96.5 -18t-62 -53
t-21.5 -87v-20q0 -51 21.5 -86.5t62 -54t96.5 -18.5zM49 -42l559 612h89l-557 -612h-91z" />
    <glyph glyph-name="ugrave" unicode="&#xf9;" horiz-adv-x="716" 
d="M290 -12q-110 0 -166.5 52t-56.5 161v326h138v-302q0 -34 9.5 -57.5t27 -37.5t42 -20t54.5 -6q44 0 82.5 18t62.5 50t24 75v280h138v-527h-111l-10 90h-9q-28 -39 -65.5 -61t-78.5 -31.5t-81 -9.5zM466 591h-116l-160 128v5h160z" />
    <glyph glyph-name="uacute" unicode="&#xfa;" horiz-adv-x="716" 
d="M290 -12q-110 0 -166.5 52t-56.5 161v326h138v-302q0 -34 9.5 -57.5t27 -37.5t42 -20t54.5 -6q44 0 82.5 18t62.5 50t24 75v280h138v-527h-111l-10 90h-9q-28 -39 -65.5 -61t-78.5 -31.5t-81 -9.5zM250 591l116 133h160v-5l-160 -128h-116z" />
    <glyph glyph-name="ucircumflex" unicode="&#xfb;" horiz-adv-x="716" 
d="M290 -12q-110 0 -166.5 52t-56.5 161v326h138v-302q0 -34 9.5 -57.5t27 -37.5t42 -20t54.5 -6q44 0 82.5 18t62.5 50t24 75v280h138v-527h-111l-10 90h-9q-28 -39 -65.5 -61t-78.5 -31.5t-81 -9.5zM151 583l154 141h105l155 -141h-115l-127 115h66l-127 -115h-111z" />
    <glyph glyph-name="udieresis" unicode="&#xfc;" horiz-adv-x="716" 
d="M290 -12q-110 0 -166.5 52t-56.5 161v326h138v-302q0 -34 9.5 -57.5t27 -37.5t42 -20t54.5 -6q44 0 82.5 18t62.5 50t24 75v280h138v-527h-111l-10 90h-9q-28 -39 -65.5 -61t-78.5 -31.5t-81 -9.5zM166 604v117h130v-117h-130zM419 604v117h131v-117h-131z" />
    <glyph glyph-name="yacute" unicode="&#xfd;" horiz-adv-x="653" 
d="M140 -198q-28 0 -51 4.5t-43 12.5v90h69q46 0 73 10.5t43.5 30.5t31.5 50l-258 527h151l114 -255q9 -18 20.5 -44.5t23.5 -53.5t21 -47h8l5.5 15.5t15 39t19.5 48.5l18 45l102 252h145l-214 -477q-27 -59 -52.5 -105t-57.5 -78t-76.5 -48.5t-107.5 -16.5zM219 591
l116 133h160v-5l-160 -128h-116z" />
    <glyph glyph-name="thorn" unicode="&#xfe;" horiz-adv-x="729" 
d="M71 -187v911h138v-264h7q22 26 53 43.5t69 26.5t80 9q78 0 136.5 -30t91.5 -90.5t33 -153.5t-33 -154.5t-91.5 -92t-136.5 -30.5q-42 0 -80 9t-69 27t-53 44h-7v-255h-138zM374 104q51 0 88 17.5t56.5 51.5t19.5 83v15q0 49 -19.5 82.5t-55.5 51.5t-87 18
q-39 0 -70 -10.5t-53 -30t-33.5 -48.5t-11.5 -67v-8q0 -50 20 -84.5t57.5 -52.5t88.5 -18z" />
    <glyph glyph-name="ydieresis" unicode="&#xff;" horiz-adv-x="653" 
d="M140 -198q-28 0 -51 4.5t-43 12.5v90h69q46 0 73 10.5t43.5 30.5t31.5 50l-258 527h151l114 -255q9 -18 20.5 -44.5t23.5 -53.5t21 -47h8l5.5 15.5t15 39t19.5 48.5l18 45l102 252h145l-214 -477q-27 -59 -52.5 -105t-57.5 -78t-76.5 -48.5t-107.5 -16.5zM135 604v117
h130v-117h-130zM388 604v117h131v-117h-131z" />
    <glyph glyph-name="Amacron" unicode="&#x100;" horiz-adv-x="908" 
d="M24 0l344 687h172l344 -687h-167l-65 133h-407l-65 -133h-156zM305 256h287l-80 168q-5 11 -14.5 32.5t-19 44t-17 39t-8.5 17.5h-8q-9 -20 -20.5 -46t-22 -50t-17.5 -38zM262 761v77h383v-77h-383z" />
    <glyph glyph-name="amacron" unicode="&#x101;" horiz-adv-x="739" 
d="M270 -12q-47 0 -87.5 7.5t-71 25t-47.5 47.5t-17 75q0 64 35 100t99 52t149.5 20t185.5 4v22q0 34 -16.5 54t-51 28.5t-90.5 8.5q-45 0 -79 -6t-53 -18t-19 -30v-12h-138q-1 4 -1.5 8t-0.5 9q0 47 34 82t101 54.5t167 19.5q93 0 156.5 -17t96 -56t32.5 -105v-227
q0 -19 7.5 -29t26.5 -10h51v-90q-10 -4 -36.5 -10.5t-58.5 -6.5q-44 0 -68.5 11t-35 30t-14.5 42h-8q-28 -26 -67 -45t-85 -28.5t-96 -9.5zM304 95q32 0 68.5 7t69.5 20.5t53.5 34t20.5 47.5v27q-112 0 -185.5 -7.5t-109.5 -25.5t-36 -51q0 -22 17.5 -33t45 -15t56.5 -4z
M171 623v77h383v-77h-383z" />
    <glyph glyph-name="Abreve" unicode="&#x102;" horiz-adv-x="908" 
d="M24 0l344 687h172l344 -687h-167l-65 133h-407l-65 -133h-156zM305 256h287l-80 168q-5 11 -14.5 32.5t-19 44t-17 39t-8.5 17.5h-8q-9 -20 -20.5 -46t-22 -50t-17.5 -38zM453 747q-69 0 -113 20t-64.5 50t-20.5 60h82q3 -13 17 -25t39 -20t60 -8q40 0 64.5 9t37.5 21.5
t15 22.5h82q0 -30 -21 -60t-65 -50t-113 -20z" />
    <glyph glyph-name="abreve" unicode="&#x103;" horiz-adv-x="739" 
d="M270 -12q-47 0 -87.5 7.5t-71 25t-47.5 47.5t-17 75q0 64 35 100t99 52t149.5 20t185.5 4v22q0 34 -16.5 54t-51 28.5t-90.5 8.5q-45 0 -79 -6t-53 -18t-19 -30v-12h-138q-1 4 -1.5 8t-0.5 9q0 47 34 82t101 54.5t167 19.5q93 0 156.5 -17t96 -56t32.5 -105v-227
q0 -19 7.5 -29t26.5 -10h51v-90q-10 -4 -36.5 -10.5t-58.5 -6.5q-44 0 -68.5 11t-35 30t-14.5 42h-8q-28 -26 -67 -45t-85 -28.5t-96 -9.5zM304 95q32 0 68.5 7t69.5 20.5t53.5 34t20.5 47.5v27q-112 0 -185.5 -7.5t-109.5 -25.5t-36 -51q0 -22 17.5 -33t45 -15t56.5 -4z
M362 594q-69 0 -113 20t-64.5 50t-20.5 60h82q3 -13 17 -25t39 -20t60 -8q40 0 64.5 9t37.5 21.5t15 22.5h82q0 -30 -21 -60t-65 -50t-113 -20z" />
    <glyph glyph-name="Aogonek" unicode="&#x104;" horiz-adv-x="908" 
d="M24 0l344 687h172l344 -687h-167l-65 133h-407l-65 -133h-156zM305 256h287l-80 168q-5 11 -14.5 32.5t-19 44t-17 39t-8.5 17.5h-8q-9 -20 -20.5 -46t-22 -50t-17.5 -38zM798 -195q-30 0 -58.5 10t-47 32.5t-18.5 59.5q0 35 16.5 60.5t39.5 44.5h85v-4
q-18 -12 -32.5 -31.5t-14.5 -42.5q0 -22 15.5 -39t47.5 -17h69v-59q-22 -7 -50.5 -10.5t-51.5 -3.5z" />
    <glyph glyph-name="aogonek" unicode="&#x105;" horiz-adv-x="739" 
d="M270 -12q-47 0 -87.5 7.5t-71 25t-47.5 47.5t-17 75q0 64 35 100t99 52t149.5 20t185.5 4v22q0 34 -16.5 54t-51 28.5t-90.5 8.5q-45 0 -79 -6t-53 -18t-19 -30v-12h-138q-1 4 -1.5 8t-0.5 9q0 47 34 82t101 54.5t167 19.5q93 0 156.5 -17t96 -56t32.5 -105v-227
q0 -19 7.5 -29t26.5 -10h51v-90q-10 -4 -36.5 -10.5t-58.5 -6.5q-44 0 -68.5 11t-35 30t-14.5 42h-8q-28 -26 -67 -45t-85 -28.5t-96 -9.5zM304 95q32 0 68.5 7t69.5 20.5t53.5 34t20.5 47.5v27q-112 0 -185.5 -7.5t-109.5 -25.5t-36 -51q0 -22 17.5 -33t45 -15t56.5 -4z
M637 -195q-30 0 -58.5 10t-47 32.5t-18.5 59.5q0 35 16.5 60.5t39.5 44.5h85v-4q-18 -12 -32.5 -31.5t-14.5 -42.5q0 -22 15.5 -39t47.5 -17h69v-59q-22 -7 -50.5 -10.5t-51.5 -3.5z" />
    <glyph glyph-name="Cacute" unicode="&#x106;" horiz-adv-x="946" 
d="M488 -12q-139 0 -233 40.5t-141 120t-47 195.5q0 170 108 262.5t312 92.5q116 0 204.5 -33t138 -95t49.5 -150h-149q0 50 -31 83.5t-86 50.5t-129 17q-80 0 -138.5 -25.5t-90.5 -73.5t-32 -116v-25q0 -69 32 -117.5t91 -74t139 -25.5q77 0 132.5 16.5t86 50t30.5 82.5
h146q0 -86 -49 -148t-137 -95t-206 -33zM394 744l116 133h160v-5l-160 -128h-116z" />
    <glyph glyph-name="cacute" unicode="&#x107;" horiz-adv-x="725" 
d="M373 -12q-102 0 -174.5 30.5t-110.5 92t-38 153.5t38 153t110.5 91.5t174.5 30.5q63 0 118 -13.5t96.5 -41t64.5 -68t23 -94.5h-139q0 36 -22.5 60.5t-59.5 37t-81 12.5q-56 0 -96.5 -18t-62 -53t-21.5 -87v-20q0 -51 22 -86.5t63.5 -54t99.5 -18.5q43 0 80 13.5t60 38.5
t23 59h134q0 -55 -23.5 -96t-64.5 -68t-96 -40.5t-118 -13.5zM265 591l116 133h160v-5l-160 -128h-116z" />
    <glyph glyph-name="Ccircumflex" unicode="&#x108;" horiz-adv-x="946" 
d="M488 -12q-139 0 -233 40.5t-141 120t-47 195.5q0 170 108 262.5t312 92.5q116 0 204.5 -33t138 -95t49.5 -150h-149q0 50 -31 83.5t-86 50.5t-129 17q-80 0 -138.5 -25.5t-90.5 -73.5t-32 -116v-25q0 -69 32 -117.5t91 -74t139 -25.5q77 0 132.5 16.5t86 50t30.5 82.5
h146q0 -86 -49 -148t-137 -95t-206 -33zM280 736l154 141h105l155 -141h-115l-127 115h66l-127 -115h-111z" />
    <glyph glyph-name="ccircumflex" unicode="&#x109;" horiz-adv-x="725" 
d="M373 -12q-102 0 -174.5 30.5t-110.5 92t-38 153.5t38 153t110.5 91.5t174.5 30.5q63 0 118 -13.5t96.5 -41t64.5 -68t23 -94.5h-139q0 36 -22.5 60.5t-59.5 37t-81 12.5q-56 0 -96.5 -18t-62 -53t-21.5 -87v-20q0 -51 22 -86.5t63.5 -54t99.5 -18.5q43 0 80 13.5t60 38.5
t23 59h134q0 -55 -23.5 -96t-64.5 -68t-96 -40.5t-118 -13.5zM166 583l154 141h105l155 -141h-115l-127 115h66l-127 -115h-111z" />
    <glyph glyph-name="Cdotaccent" unicode="&#x10a;" horiz-adv-x="946" 
d="M488 -12q-139 0 -233 40.5t-141 120t-47 195.5q0 170 108 262.5t312 92.5q116 0 204.5 -33t138 -95t49.5 -150h-149q0 50 -31 83.5t-86 50.5t-129 17q-80 0 -138.5 -25.5t-90.5 -73.5t-32 -116v-25q0 -69 32 -117.5t91 -74t139 -25.5q77 0 132.5 16.5t86 50t30.5 82.5
h146q0 -86 -49 -148t-137 -95t-206 -33zM422 759v117h130v-117h-130z" />
    <glyph glyph-name="cdotaccent" unicode="&#x10b;" horiz-adv-x="725" 
d="M373 -12q-102 0 -174.5 30.5t-110.5 92t-38 153.5t38 153t110.5 91.5t174.5 30.5q63 0 118 -13.5t96.5 -41t64.5 -68t23 -94.5h-139q0 36 -22.5 60.5t-59.5 37t-81 12.5q-56 0 -96.5 -18t-62 -53t-21.5 -87v-20q0 -51 22 -86.5t63.5 -54t99.5 -18.5q43 0 80 13.5t60 38.5
t23 59h134q0 -55 -23.5 -96t-64.5 -68t-96 -40.5t-118 -13.5zM308 604v116h130v-116h-130z" />
    <glyph glyph-name="Ccaron" unicode="&#x10c;" horiz-adv-x="946" 
d="M488 -12q-139 0 -233 40.5t-141 120t-47 195.5q0 170 108 262.5t312 92.5q116 0 204.5 -33t138 -95t49.5 -150h-149q0 50 -31 83.5t-86 50.5t-129 17q-80 0 -138.5 -25.5t-90.5 -73.5t-32 -116v-25q0 -69 32 -117.5t91 -74t139 -25.5q77 0 132.5 16.5t86 50t30.5 82.5
h146q0 -86 -49 -148t-137 -95t-206 -33zM280 877h111l127 -115h-66l127 115h115l-155 -141h-105z" />
    <glyph glyph-name="ccaron" unicode="&#x10d;" horiz-adv-x="725" 
d="M373 -12q-102 0 -174.5 30.5t-110.5 92t-38 153.5t38 153t110.5 91.5t174.5 30.5q63 0 118 -13.5t96.5 -41t64.5 -68t23 -94.5h-139q0 36 -22.5 60.5t-59.5 37t-81 12.5q-56 0 -96.5 -18t-62 -53t-21.5 -87v-20q0 -51 22 -86.5t63.5 -54t99.5 -18.5q43 0 80 13.5t60 38.5
t23 59h134q0 -55 -23.5 -96t-64.5 -68t-96 -40.5t-118 -13.5zM166 724h111l127 -115h-66l127 115h115l-155 -141h-105z" />
    <glyph glyph-name="Dcaron" unicode="&#x10e;" horiz-adv-x="934" 
d="M97 0v687h366q126 0 216.5 -39.5t139 -116t48.5 -188.5q0 -111 -48.5 -187.5t-139 -116t-216.5 -39.5h-366zM249 127h206q55 0 101.5 13t81 38.5t53.5 64t19 89.5v23q0 51 -19 89.5t-53.5 64t-81 38.5t-101.5 13h-206v-433zM260 877h111l127 -115h-66l127 115h115
l-155 -141h-105z" />
    <glyph glyph-name="dcaron" unicode="&#x10f;" horiz-adv-x="729" 
d="M320 -12q-82 0 -142.5 30t-94 91.5t-33.5 153.5q0 94 33 155t91.5 91t136.5 30q42 0 80 -9t69 -26.5t53 -43.5h7v264h138v-724h-111l-12 83h-8q-37 -52 -90 -73.5t-117 -21.5zM355 104q52 0 89 18t57 52.5t20 84.5v8q0 38 -11.5 67t-33.5 48.5t-53 30t-70 10.5
q-50 0 -86.5 -18t-56 -51.5t-19.5 -82.5v-15q0 -49 20 -83t56.5 -51.5t87.5 -17.5zM708 555v169h129l-31 -169h-98z" />
    <glyph glyph-name="Dcroat" unicode="&#x110;" horiz-adv-x="934" 
d="M0 286v116h472v-116h-472zM97 0v687h366q126 0 216.5 -39.5t139 -116t48.5 -188.5q0 -111 -48.5 -187.5t-139 -116t-216.5 -39.5h-366zM249 127h206q55 0 101.5 13t81 38.5t53.5 64t19 89.5v23q0 51 -19 89.5t-53.5 64t-81 38.5t-101.5 13h-206v-433z" />
    <glyph glyph-name="dcroat" unicode="&#x111;" horiz-adv-x="729" 
d="M320 -12q-82 0 -142.5 30t-94 91.5t-33.5 153.5q0 94 33 155t91.5 91t136.5 30q42 0 80 -9t69 -26.5t53 -43.5h7v264h138v-724h-111l-12 83h-8q-37 -52 -90 -73.5t-117 -21.5zM355 104q52 0 89 18t57 52.5t20 84.5v8q0 38 -11.5 67t-33.5 48.5t-53 30t-70 10.5
q-50 0 -86.5 -18t-56 -51.5t-19.5 -82.5v-15q0 -49 20 -83t56.5 -51.5t87.5 -17.5zM267 579v81h462v-81h-462z" />
    <glyph glyph-name="Emacron" unicode="&#x112;" horiz-adv-x="866" 
d="M97 0v687h695v-127h-543v-147h483v-127h-483v-159h551v-127h-703zM256 761v77h383v-77h-383z" />
    <glyph glyph-name="emacron" unicode="&#x113;" horiz-adv-x="744" 
d="M379 -12q-102 0 -175.5 29.5t-113.5 90.5t-40 155q0 92 39 153.5t112 92t173 30.5q105 0 176.5 -30.5t107.5 -89t36 -142.5v-48h-499q3 -49 26.5 -78.5t65 -42.5t96.5 -13q22 0 49.5 5t53 15t43.5 26.5t21 40.5h140q0 -40 -20.5 -75.5t-60.5 -62t-98 -41.5t-132 -15z
M195 321h353q0 29 -13.5 50t-37.5 34.5t-55 20t-66 6.5q-51 0 -90.5 -12.5t-62.5 -37.5t-28 -61zM180 623v77h383v-77h-383z" />
    <glyph glyph-name="Ebreve" unicode="&#x114;" horiz-adv-x="866" 
d="M97 0v687h695v-127h-543v-147h483v-127h-483v-159h551v-127h-703zM447 747q-69 0 -113 20t-64.5 50t-20.5 60h82q3 -13 17 -25t39 -20t60 -8q40 0 64.5 9t37.5 21.5t15 22.5h82q0 -30 -21 -60t-65 -50t-113 -20z" />
    <glyph glyph-name="ebreve" unicode="&#x115;" horiz-adv-x="744" 
d="M379 -12q-102 0 -175.5 29.5t-113.5 90.5t-40 155q0 92 39 153.5t112 92t173 30.5q105 0 176.5 -30.5t107.5 -89t36 -142.5v-48h-499q3 -49 26.5 -78.5t65 -42.5t96.5 -13q22 0 49.5 5t53 15t43.5 26.5t21 40.5h140q0 -40 -20.5 -75.5t-60.5 -62t-98 -41.5t-132 -15z
M195 321h353q0 29 -13.5 50t-37.5 34.5t-55 20t-66 6.5q-51 0 -90.5 -12.5t-62.5 -37.5t-28 -61zM371 594q-69 0 -113 20t-64.5 50t-20.5 60h82q3 -13 17 -25t39 -20t60 -8q40 0 64.5 9t37.5 21.5t15 22.5h82q0 -30 -21 -60t-65 -50t-113 -20z" />
    <glyph glyph-name="Edotaccent" unicode="&#x116;" horiz-adv-x="866" 
d="M97 0v687h695v-127h-543v-147h483v-127h-483v-159h551v-127h-703zM383 759v117h130v-117h-130z" />
    <glyph glyph-name="edotaccent" unicode="&#x117;" horiz-adv-x="744" 
d="M379 -12q-102 0 -175.5 29.5t-113.5 90.5t-40 155q0 92 39 153.5t112 92t173 30.5q105 0 176.5 -30.5t107.5 -89t36 -142.5v-48h-499q3 -49 26.5 -78.5t65 -42.5t96.5 -13q22 0 49.5 5t53 15t43.5 26.5t21 40.5h140q0 -40 -20.5 -75.5t-60.5 -62t-98 -41.5t-132 -15z
M195 321h353q0 29 -13.5 50t-37.5 34.5t-55 20t-66 6.5q-51 0 -90.5 -12.5t-62.5 -37.5t-28 -61zM307 604v116h130v-116h-130z" />
    <glyph glyph-name="Eogonek" unicode="&#x118;" horiz-adv-x="866" 
d="M97 0v687h695v-127h-543v-147h483v-127h-483v-159h551v-127h-703zM698 -195q-30 0 -58.5 10t-47 32.5t-18.5 59.5q0 35 16.5 60.5t39.5 44.5h85v-4q-18 -12 -32.5 -31.5t-14.5 -42.5q0 -22 15.5 -39t47.5 -17h69v-59q-22 -7 -50.5 -10.5t-51.5 -3.5z" />
    <glyph glyph-name="eogonek" unicode="&#x119;" horiz-adv-x="744" 
d="M379 -12q-102 0 -175.5 29.5t-113.5 90.5t-40 155q0 92 39 153.5t112 92t173 30.5q105 0 176.5 -30.5t107.5 -89t36 -142.5v-48h-499q3 -49 26.5 -78.5t65 -42.5t96.5 -13q22 0 49.5 5t53 15t43.5 26.5t21 40.5h140q0 -40 -20.5 -75.5t-60.5 -62t-98 -41.5t-132 -15z
M195 321h353q0 29 -13.5 50t-37.5 34.5t-55 20t-66 6.5q-51 0 -90.5 -12.5t-62.5 -37.5t-28 -61zM511 -195q-30 0 -58.5 10t-47 32.5t-18.5 59.5q0 35 16.5 60.5t39.5 44.5h85v-4q-18 -12 -32.5 -31.5t-14.5 -42.5q0 -22 15.5 -39t47.5 -17h69v-59q-22 -7 -50.5 -10.5
t-51.5 -3.5z" />
    <glyph glyph-name="Ecaron" unicode="&#x11a;" horiz-adv-x="866" 
d="M97 0v687h695v-127h-543v-147h483v-127h-483v-159h551v-127h-703zM241 877h111l127 -115h-66l127 115h115l-155 -141h-105z" />
    <glyph glyph-name="ecaron" unicode="&#x11b;" horiz-adv-x="744" 
d="M379 -12q-102 0 -175.5 29.5t-113.5 90.5t-40 155q0 92 39 153.5t112 92t173 30.5q105 0 176.5 -30.5t107.5 -89t36 -142.5v-48h-499q3 -49 26.5 -78.5t65 -42.5t96.5 -13q22 0 49.5 5t53 15t43.5 26.5t21 40.5h140q0 -40 -20.5 -75.5t-60.5 -62t-98 -41.5t-132 -15z
M195 321h353q0 29 -13.5 50t-37.5 34.5t-55 20t-66 6.5q-51 0 -90.5 -12.5t-62.5 -37.5t-28 -61zM165 724h111l127 -115h-66l127 115h115l-155 -141h-105z" />
    <glyph glyph-name="Gcircumflex" unicode="&#x11c;" horiz-adv-x="1013" 
d="M483 -12q-208 0 -312 88t-104 267q0 117 53 196.5t153.5 119.5t240.5 40q91 0 166 -15.5t129.5 -47t84 -79.5t29.5 -113h-148q0 36 -21 61t-57 39.5t-81.5 21t-95.5 6.5q-64 0 -118.5 -12.5t-94.5 -39t-62 -67.5t-22 -97v-24q0 -78 34 -125.5t96.5 -69.5t147.5 -22
q94 0 154.5 17t90 49t29.5 75v8h-278v120h427v-384h-94l-16 90q-37 -36 -88.5 -58.5t-113 -33t-129.5 -10.5zM300 736l154 141h105l155 -141h-115l-127 115h66l-127 -115h-111z" />
    <glyph glyph-name="gcircumflex" unicode="&#x11d;" horiz-adv-x="729" 
d="M190 -198q-46 0 -85.5 12t-63.5 40t-24 76q0 38 27.5 68t70.5 44q-31 16 -45.5 42.5t-14.5 57.5q0 40 27.5 70t75.5 37q-40 22 -63 54t-23 69q0 60 33.5 97t99 53.5t161.5 16.5q37 0 70 -3.5t62 -9.5q48 20 73.5 45.5t30.5 47.5h129q-1 -36 -17 -63t-44.5 -45t-69.5 -27
q29 -20 44.5 -48t15.5 -64q0 -56 -30 -93t-88.5 -55t-145.5 -18h-139q-29 0 -45 -10.5t-16 -29.5t16 -30.5t50 -11.5h305q76 0 116.5 -44t40.5 -111q0 -50 -26 -87.5t-69 -58.5t-96 -21h-343zM214 -101h312q16 0 29.5 6.5t21.5 19.5t8 30q0 26 -17.5 40t-41.5 14h-307
q-27 0 -45 -13.5t-18 -39.5t16.5 -41.5t41.5 -15.5zM366 301q71 0 113 15t42 56t-42 56.5t-113 15.5t-113 -15.5t-42 -56.5q0 -29 19 -44.5t54 -21t82 -5.5zM155 583l154 141h105l155 -141h-115l-127 115h66l-127 -115h-111z" />
    <glyph glyph-name="Gbreve" unicode="&#x11e;" horiz-adv-x="1013" 
d="M483 -12q-208 0 -312 88t-104 267q0 117 53 196.5t153.5 119.5t240.5 40q91 0 166 -15.5t129.5 -47t84 -79.5t29.5 -113h-148q0 36 -21 61t-57 39.5t-81.5 21t-95.5 6.5q-64 0 -118.5 -12.5t-94.5 -39t-62 -67.5t-22 -97v-24q0 -78 34 -125.5t96.5 -69.5t147.5 -22
q94 0 154.5 17t90 49t29.5 75v8h-278v120h427v-384h-94l-16 90q-37 -36 -88.5 -58.5t-113 -33t-129.5 -10.5zM506 747q-69 0 -113 20t-64.5 50t-20.5 60h82q3 -13 17 -25t39 -20t60 -8q40 0 64.5 9t37.5 21.5t15 22.5h82q0 -30 -21 -60t-65 -50t-113 -20z" />
    <glyph glyph-name="gbreve" unicode="&#x11f;" horiz-adv-x="729" 
d="M190 -198q-46 0 -85.5 12t-63.5 40t-24 76q0 38 27.5 68t70.5 44q-31 16 -45.5 42.5t-14.5 57.5q0 40 27.5 70t75.5 37q-40 22 -63 54t-23 69q0 60 33.5 97t99 53.5t161.5 16.5q37 0 70 -3.5t62 -9.5q48 20 73.5 45.5t30.5 47.5h129q-1 -36 -17 -63t-44.5 -45t-69.5 -27
q29 -20 44.5 -48t15.5 -64q0 -56 -30 -93t-88.5 -55t-145.5 -18h-139q-29 0 -45 -10.5t-16 -29.5t16 -30.5t50 -11.5h305q76 0 116.5 -44t40.5 -111q0 -50 -26 -87.5t-69 -58.5t-96 -21h-343zM214 -101h312q16 0 29.5 6.5t21.5 19.5t8 30q0 26 -17.5 40t-41.5 14h-307
q-27 0 -45 -13.5t-18 -39.5t16.5 -41.5t41.5 -15.5zM366 301q71 0 113 15t42 56t-42 56.5t-113 15.5t-113 -15.5t-42 -56.5q0 -29 19 -44.5t54 -21t82 -5.5zM361 594q-69 0 -113 20t-64.5 50t-20.5 60h82q3 -13 17 -25t39 -20t60 -8q40 0 64.5 9t37.5 21.5t15 22.5h82
q0 -30 -21 -60t-65 -50t-113 -20z" />
    <glyph glyph-name="Gdotaccent" unicode="&#x120;" horiz-adv-x="1013" 
d="M483 -12q-208 0 -312 88t-104 267q0 117 53 196.5t153.5 119.5t240.5 40q91 0 166 -15.5t129.5 -47t84 -79.5t29.5 -113h-148q0 36 -21 61t-57 39.5t-81.5 21t-95.5 6.5q-64 0 -118.5 -12.5t-94.5 -39t-62 -67.5t-22 -97v-24q0 -78 34 -125.5t96.5 -69.5t147.5 -22
q94 0 154.5 17t90 49t29.5 75v8h-278v120h427v-384h-94l-16 90q-37 -36 -88.5 -58.5t-113 -33t-129.5 -10.5zM442 759v117h130v-117h-130z" />
    <glyph glyph-name="gdotaccent" unicode="&#x121;" horiz-adv-x="729" 
d="M190 -198q-46 0 -85.5 12t-63.5 40t-24 76q0 38 27.5 68t70.5 44q-31 16 -45.5 42.5t-14.5 57.5q0 40 27.5 70t75.5 37q-40 22 -63 54t-23 69q0 60 33.5 97t99 53.5t161.5 16.5q37 0 70 -3.5t62 -9.5q48 20 73.5 45.5t30.5 47.5h129q-1 -36 -17 -63t-44.5 -45t-69.5 -27
q29 -20 44.5 -48t15.5 -64q0 -56 -30 -93t-88.5 -55t-145.5 -18h-139q-29 0 -45 -10.5t-16 -29.5t16 -30.5t50 -11.5h305q76 0 116.5 -44t40.5 -111q0 -50 -26 -87.5t-69 -58.5t-96 -21h-343zM214 -101h312q16 0 29.5 6.5t21.5 19.5t8 30q0 26 -17.5 40t-41.5 14h-307
q-27 0 -45 -13.5t-18 -39.5t16.5 -41.5t41.5 -15.5zM366 301q71 0 113 15t42 56t-42 56.5t-113 15.5t-113 -15.5t-42 -56.5q0 -29 19 -44.5t54 -21t82 -5.5zM297 604v116h130v-116h-130z" />
    <glyph glyph-name="uni0122" unicode="&#x122;" horiz-adv-x="1013" 
d="M483 -12q-208 0 -312 88t-104 267q0 117 53 196.5t153.5 119.5t240.5 40q91 0 166 -15.5t129.5 -47t84 -79.5t29.5 -113h-148q0 36 -21 61t-57 39.5t-81.5 21t-95.5 6.5q-64 0 -118.5 -12.5t-94.5 -39t-62 -67.5t-22 -97v-24q0 -78 34 -125.5t96.5 -69.5t147.5 -22
q94 0 154.5 17t90 49t29.5 75v8h-278v120h427v-384h-94l-16 90q-37 -36 -88.5 -58.5t-113 -33t-129.5 -10.5zM422 -384v68q38 5 57.5 29t19.5 64h-68v146h152v-128q0 -56 -17 -94t-52.5 -58.5t-91.5 -26.5z" />
    <glyph glyph-name="uni0123" unicode="&#x123;" horiz-adv-x="729" 
d="M190 -198q-46 0 -85.5 12t-63.5 40t-24 76q0 38 27.5 68t70.5 44q-31 16 -45.5 42.5t-14.5 57.5q0 40 27.5 70t75.5 37q-40 22 -63 54t-23 69q0 60 33.5 97t99 53.5t161.5 16.5q37 0 70 -3.5t62 -9.5q48 20 73.5 45.5t30.5 47.5h129q-1 -36 -17 -63t-44.5 -45t-69.5 -27
q29 -20 44.5 -48t15.5 -64q0 -56 -30 -93t-88.5 -55t-145.5 -18h-139q-29 0 -45 -10.5t-16 -29.5t16 -30.5t50 -11.5h305q76 0 116.5 -44t40.5 -111q0 -50 -26 -87.5t-69 -58.5t-96 -21h-343zM214 -101h312q16 0 29.5 6.5t21.5 19.5t8 30q0 26 -17.5 40t-41.5 14h-307
q-27 0 -45 -13.5t-18 -39.5t16.5 -41.5t41.5 -15.5zM366 301q71 0 113 15t42 56t-42 56.5t-113 15.5t-113 -15.5t-42 -56.5q0 -29 19 -44.5t54 -21t82 -5.5zM435 885v-62q-34 -4 -51.5 -26t-17.5 -57h61v-132h-137v116q0 50 15.5 84t47.5 53t82 24z" />
    <glyph glyph-name="Hcircumflex" unicode="&#x124;" horiz-adv-x="965" 
d="M97 0v687h152v-270h467v270h152v-687h-152v283h-467v-283h-152zM276 736l154 141h105l155 -141h-115l-127 115h66l-127 -115h-111z" />
    <glyph glyph-name="hcircumflex" unicode="&#x125;" horiz-adv-x="716" 
d="M71 0v724h138v-270h7q28 33 63 51.5t73 26t74 7.5q74 0 123.5 -23t74.5 -70t25 -120v-326h-138v302q0 34 -9.5 57.5t-27 37.5t-42 20t-54.5 6q-44 0 -82.5 -18t-62.5 -50t-24 -75v-280h-138zM-66 736l154 141h105l155 -141h-115l-127 115h66l-127 -115h-111z" />
    <glyph glyph-name="Hbar" unicode="&#x126;" horiz-adv-x="965" 
d="M97 0v687h152v-270h467v270h152v-687h-152v283h-467v-283h-152zM0 506v97h965v-97h-965z" />
    <glyph glyph-name="hbar" unicode="&#x127;" horiz-adv-x="716" 
d="M71 0v724h138v-270h7q28 33 63 51.5t73 26t74 7.5q74 0 123.5 -23t74.5 -70t25 -120v-326h-138v302q0 34 -9.5 57.5t-27 37.5t-42 20t-54.5 6q-44 0 -82.5 -18t-62.5 -50t-24 -75v-280h-138zM0 579v81h462v-81h-462z" />
    <glyph glyph-name="Itilde" unicode="&#x128;" horiz-adv-x="346" 
d="M97 0v687h152v-687h-152zM-55 745q2 28 17.5 56.5t45 47.5t72.5 19q36 0 70 -10t66.5 -20.5t62.5 -10.5q23 0 35 12.5t16 28.5h72q-1 -28 -18 -57t-47 -48t-72 -19q-34 0 -68.5 10.5t-67 20.5t-61.5 10q-24 0 -36.5 -12.5t-17.5 -27.5h-69z" />
    <glyph glyph-name="itilde" unicode="&#x129;" horiz-adv-x="280" 
d="M71 0v527h138v-527h-138zM-89 601q2 28 17.5 56.5t45 47.5t72.5 19q36 0 70 -10t66.5 -20.5t62.5 -10.5q23 0 35 12.5t16 28.5h72q-1 -28 -18 -57t-47 -48t-72 -19q-34 0 -68.5 10.5t-67 20.5t-61.5 10q-24 0 -36.5 -12.5t-17.5 -27.5h-69z" />
    <glyph glyph-name="Imacron" unicode="&#x12a;" horiz-adv-x="346" 
d="M97 0v687h152v-687h-152zM-19 761v77h383v-77h-383z" />
    <glyph glyph-name="imacron" unicode="&#x12b;" horiz-adv-x="280" 
d="M71 0v527h138v-527h-138zM-52 623v77h383v-77h-383z" />
    <glyph glyph-name="Ibreve" unicode="&#x12c;" horiz-adv-x="346" 
d="M97 0v687h152v-687h-152zM172 747q-69 0 -113 20t-64.5 50t-20.5 60h82q3 -13 17 -25t39 -20t60 -8q40 0 64.5 9t37.5 21.5t15 22.5h82q0 -30 -21 -60t-65 -50t-113 -20z" />
    <glyph glyph-name="ibreve" unicode="&#x12d;" horiz-adv-x="280" 
d="M71 0v527h138v-527h-138zM139 594q-69 0 -113 20t-64.5 50t-20.5 60h82q3 -13 17 -25t39 -20t60 -8q40 0 64.5 9t37.5 21.5t15 22.5h82q0 -30 -21 -60t-65 -50t-113 -20z" />
    <glyph glyph-name="Iogonek" unicode="&#x12e;" horiz-adv-x="346" 
d="M97 0v687h152v-687h-152zM166 -195q-30 0 -58.5 10t-47 32.5t-18.5 59.5q0 35 16.5 60.5t39.5 44.5h85v-4q-18 -12 -32.5 -31.5t-14.5 -42.5q0 -22 15.5 -39t47.5 -17h69v-59q-22 -7 -50.5 -10.5t-51.5 -3.5z" />
    <glyph glyph-name="iogonek" unicode="&#x12f;" horiz-adv-x="280" 
d="M71 613v111h138v-111h-138zM71 0v527h138v-527h-138zM140 -195q-30 0 -58.5 10t-47 32.5t-18.5 59.5q0 35 16.5 60.5t39.5 44.5h85v-4q-18 -12 -32.5 -31.5t-14.5 -42.5q0 -22 15.5 -39t47.5 -17h69v-59q-22 -7 -50.5 -10.5t-51.5 -3.5z" />
    <glyph glyph-name="Idotaccent" unicode="&#x130;" horiz-adv-x="346" 
d="M97 0v687h152v-687h-152zM108 759v117h130v-117h-130z" />
    <glyph glyph-name="dotlessi" unicode="&#x131;" horiz-adv-x="280" 
d="M71 0v527h138v-527h-138z" />
    <glyph glyph-name="IJ" unicode="&#x132;" horiz-adv-x="1045" 
d="M97 0v687h152v-687h-152zM671 -12q-91 0 -155.5 26.5t-99 81.5t-34.5 141v14h147v-19q0 -58 36.5 -87.5t100.5 -29.5q70 0 109 36.5t39 112.5v423h151v-415q0 -98 -35.5 -161t-101 -93t-157.5 -30z" />
    <glyph glyph-name="ij" unicode="&#x133;" horiz-adv-x="558" 
d="M71 613v111h138v-111h-138zM71 0v527h138v-527h-138zM351 613v111h138v-111h-138zM323 -199q-16 0 -34 2t-35 6t-31 9v90h53q36 0 55.5 19t19.5 53v547h138v-550q0 -53 -15 -93t-51 -61.5t-100 -21.5z" />
    <glyph glyph-name="Jcircumflex" unicode="&#x134;" horiz-adv-x="699" 
d="M325 -12q-91 0 -155.5 26.5t-99 81.5t-34.5 141v14h147v-19q0 -58 36.5 -87.5t100.5 -29.5q70 0 109 36.5t39 112.5v423h151v-415q0 -98 -35.5 -161t-101 -93t-157.5 -30zM335 736l154 141h105l155 -141h-115l-127 115h66l-127 -115h-111z" />
    <glyph glyph-name="jcircumflex" unicode="&#x135;" horiz-adv-x="278" 
d="M43 -199q-16 0 -34 2t-35 6t-31 9v90h53q36 0 55.5 19t19.5 53v547h138v-550q0 -53 -15 -93t-51 -61.5t-100 -21.5zM-67 583l154 141h105l155 -141h-115l-127 115h66l-127 -115h-111z" />
    <glyph glyph-name="uni0136" unicode="&#x136;" horiz-adv-x="907" 
d="M97 0v687h152v-369l423 369h199l-327 -286l333 -401h-195l-250 309l-183 -148v-161h-152zM364 -384v68q38 5 57.5 29t19.5 64h-68v146h152v-128q0 -56 -17 -94t-52.5 -58.5t-91.5 -26.5z" />
    <glyph glyph-name="uni0137" unicode="&#x137;" horiz-adv-x="686" 
d="M71 0v724h138v-436l278 239h172l-226 -209l234 -318h-164l-174 235l-120 -89v-146h-138zM262 -346v62q34 4 51.5 26t17.5 57h-61v132h137v-115q0 -51 -15.5 -85t-47.5 -53t-82 -24z" />
    <glyph glyph-name="kgreenlandic" unicode="&#x138;" horiz-adv-x="686" 
d="M71 0v527h138v-239l278 239h172l-226 -209l234 -318h-164l-174 235l-120 -89v-146h-138z" />
    <glyph glyph-name="Lacute" unicode="&#x139;" horiz-adv-x="715" 
d="M97 0v687h152v-553h436v-134h-588zM80 744l116 133h160v-5l-160 -128h-116z" />
    <glyph glyph-name="lacute" unicode="&#x13a;" horiz-adv-x="280" 
d="M71 0v724h138v-724h-138zM47 744l116 133h160v-5l-160 -128h-116z" />
    <glyph glyph-name="uni013B" unicode="&#x13b;" horiz-adv-x="715" 
d="M97 0v687h152v-553h436v-134h-588zM308 -384v68q38 5 57.5 29t19.5 64h-68v146h152v-128q0 -56 -17 -94t-52.5 -58.5t-91.5 -26.5z" />
    <glyph glyph-name="uni013C" unicode="&#x13c;" horiz-adv-x="280" 
d="M71 0v724h138v-724h-138zM64 -346v62q34 4 51.5 26t17.5 57h-61v132h137v-115q0 -51 -15.5 -85t-47.5 -53t-82 -24z" />
    <glyph glyph-name="Lcaron" unicode="&#x13d;" horiz-adv-x="715" 
d="M97 0v687h152v-553h436v-134h-588zM484 555v169h129l-31 -169h-98z" />
    <glyph glyph-name="lcaron" unicode="&#x13e;" horiz-adv-x="280" 
d="M71 0v724h138v-724h-138zM259 555v169h129l-31 -169h-98z" />
    <glyph glyph-name="Ldot" unicode="&#x13f;" horiz-adv-x="715" 
d="M97 0v687h152v-553h436v-134h-588zM456 322v111h152v-111h-152z" />
    <glyph glyph-name="ldot" unicode="&#x140;" horiz-adv-x="280" 
d="M71 0v724h138v-724h-138zM222 300v117h117v-117h-117z" />
    <glyph glyph-name="Lslash" unicode="&#x141;" horiz-adv-x="715" 
d="M97 0v687h152v-553h436v-134h-588zM0 176v81l457 255v-83z" />
    <glyph glyph-name="lslash" unicode="&#x142;" horiz-adv-x="280" 
d="M71 0v724h138v-724h-138zM-14 219v81l307 208v-83z" />
    <glyph glyph-name="Nacute" unicode="&#x143;" horiz-adv-x="965" 
d="M97 0v687h143l376 -361q13 -11 31 -30t37.5 -39t33.5 -36h8q-1 22 -2.5 53.5t-1.5 51.5v361h146v-687h-140l-377 365q-27 26 -56.5 57.5t-47.5 50.5h-7q1 -13 2 -45.5t1 -74.5v-353h-146zM390 744l116 133h160v-5l-160 -128h-116z" />
    <glyph glyph-name="nacute" unicode="&#x144;" horiz-adv-x="716" 
d="M71 0v527h111l10 -90h9q29 39 66 61t78.5 31.5t80.5 9.5q74 0 123.5 -23t74.5 -70t25 -120v-326h-138v302q0 34 -9.5 57.5t-27 37.5t-42 20t-54.5 6q-44 0 -82.5 -18t-62.5 -50t-24 -75v-280h-138zM250 591l116 133h160v-5l-160 -128h-116z" />
    <glyph glyph-name="uni0145" unicode="&#x145;" horiz-adv-x="965" 
d="M97 0v687h143l376 -361q13 -11 31 -30t37.5 -39t33.5 -36h8q-1 22 -2.5 53.5t-1.5 51.5v361h146v-687h-140l-377 365q-27 26 -56.5 57.5t-47.5 50.5h-7q1 -13 2 -45.5t1 -74.5v-353h-146zM398 -384v68q38 5 57.5 29t19.5 64h-68v146h152v-128q0 -56 -17 -94t-52.5 -58.5
t-91.5 -26.5z" />
    <glyph glyph-name="uni0146" unicode="&#x146;" horiz-adv-x="716" 
d="M71 0v527h111l10 -90h9q29 39 66 61t78.5 31.5t80.5 9.5q74 0 123.5 -23t74.5 -70t25 -120v-326h-138v302q0 34 -9.5 57.5t-27 37.5t-42 20t-54.5 6q-44 0 -82.5 -18t-62.5 -50t-24 -75v-280h-138zM282 -346v62q34 4 51.5 26t17.5 57h-61v132h137v-115q0 -51 -15.5 -85
t-47.5 -53t-82 -24z" />
    <glyph glyph-name="Ncaron" unicode="&#x147;" horiz-adv-x="965" 
d="M97 0v687h143l376 -361q13 -11 31 -30t37.5 -39t33.5 -36h8q-1 22 -2.5 53.5t-1.5 51.5v361h146v-687h-140l-377 365q-27 26 -56.5 57.5t-47.5 50.5h-7q1 -13 2 -45.5t1 -74.5v-353h-146zM276 877h111l127 -115h-66l127 115h115l-155 -141h-105z" />
    <glyph glyph-name="ncaron" unicode="&#x148;" horiz-adv-x="716" 
d="M71 0v527h111l10 -90h9q29 39 66 61t78.5 31.5t80.5 9.5q74 0 123.5 -23t74.5 -70t25 -120v-326h-138v302q0 34 -9.5 57.5t-27 37.5t-42 20t-54.5 6q-44 0 -82.5 -18t-62.5 -50t-24 -75v-280h-138zM151 724h111l127 -115h-66l127 115h115l-155 -141h-105z" />
    <glyph glyph-name="napostrophe" unicode="&#x149;" horiz-adv-x="716" 
d="M71 0v527h111l10 -90h9q29 39 66 61t78.5 31.5t80.5 9.5q74 0 123.5 -23t74.5 -70t25 -120v-326h-138v302q0 34 -9.5 57.5t-27 37.5t-42 20t-54.5 6q-44 0 -82.5 -18t-62.5 -50t-24 -75v-280h-138zM-8 522v59q34 2 51.5 20.5t17.5 46.5h-62v132h138v-98q0 -53 -16 -87.5
t-48.5 -52.5t-80.5 -20z" />
    <glyph glyph-name="Eng" unicode="&#x14a;" horiz-adv-x="965" 
d="M686 -198q-13 0 -28.5 2t-30.5 5t-26 6v94h47q36 0 55.5 18.5t19.5 51.5v26l-372 360q-27 26 -56.5 57.5t-47.5 50.5h-7q1 -13 2 -45.5t1 -74.5v-353h-146v687h143l376 -361q13 -11 31 -30t37.5 -39t33.5 -36h8q-1 22 -2.5 53.5t-1.5 51.5v361h146v-677q0 -42 -4 -80
t-20.5 -66.5t-53.5 -45t-104 -16.5z" />
    <glyph glyph-name="eng" unicode="&#x14b;" horiz-adv-x="716" 
d="M467 -198q-13 0 -28.5 2t-30 5t-25.5 6v93h53q36 0 55.5 19t19.5 53v322q0 34 -9.5 57.5t-27 37.5t-42 20t-54.5 6q-44 0 -82.5 -18t-62.5 -50t-24 -75v-280h-138v527h111l10 -90h9q29 39 66 61t78.5 31.5t80.5 9.5q74 0 123.5 -23t74.5 -70t25 -120v-323q0 -44 -5 -81
t-23 -64t-54.5 -41.5t-99.5 -14.5z" />
    <glyph glyph-name="Omacron" unicode="&#x14c;" horiz-adv-x="1018" 
d="M509 -12q-137 0 -236 41.5t-152.5 121t-53.5 193.5t53.5 193t152.5 120.5t236 41.5t236 -41.5t152.5 -120.5t53.5 -193t-53.5 -193.5t-152.5 -121t-236 -41.5zM509 115q62 0 114 14t90.5 41t60 68t21.5 95v23q0 54 -21.5 94.5t-60 67.5t-90.5 40.5t-114 13.5t-114 -13.5
t-90.5 -40.5t-59.5 -67.5t-21 -94.5v-23q0 -54 21 -95t59.5 -68t90.5 -41t114 -14zM317 761v77h383v-77h-383z" />
    <glyph glyph-name="omacron" unicode="&#x14d;" horiz-adv-x="746" 
d="M373 -12q-101 0 -173.5 31t-111 92.5t-38.5 152.5q0 92 38.5 153t111 91.5t173.5 30.5t173.5 -30.5t111 -91.5t38.5 -153q0 -91 -38.5 -152.5t-111 -92.5t-173.5 -31zM373 95q56 0 96.5 18.5t62 54t21.5 86.5v20q0 52 -21.5 87t-62 53t-96.5 18t-96.5 -18t-62 -53
t-21.5 -87v-20q0 -51 21.5 -86.5t62 -54t96.5 -18.5zM181 623v77h383v-77h-383z" />
    <glyph glyph-name="Obreve" unicode="&#x14e;" horiz-adv-x="1018" 
d="M509 -12q-137 0 -236 41.5t-152.5 121t-53.5 193.5t53.5 193t152.5 120.5t236 41.5t236 -41.5t152.5 -120.5t53.5 -193t-53.5 -193.5t-152.5 -121t-236 -41.5zM509 115q62 0 114 14t90.5 41t60 68t21.5 95v23q0 54 -21.5 94.5t-60 67.5t-90.5 40.5t-114 13.5t-114 -13.5
t-90.5 -40.5t-59.5 -67.5t-21 -94.5v-23q0 -54 21 -95t59.5 -68t90.5 -41t114 -14zM508 747q-69 0 -113 20t-64.5 50t-20.5 60h82q3 -13 17 -25t39 -20t60 -8q40 0 64.5 9t37.5 21.5t15 22.5h82q0 -30 -21 -60t-65 -50t-113 -20z" />
    <glyph glyph-name="obreve" unicode="&#x14f;" horiz-adv-x="746" 
d="M373 -12q-101 0 -173.5 31t-111 92.5t-38.5 152.5q0 92 38.5 153t111 91.5t173.5 30.5t173.5 -30.5t111 -91.5t38.5 -153q0 -91 -38.5 -152.5t-111 -92.5t-173.5 -31zM373 95q56 0 96.5 18.5t62 54t21.5 86.5v20q0 52 -21.5 87t-62 53t-96.5 18t-96.5 -18t-62 -53
t-21.5 -87v-20q0 -51 21.5 -86.5t62 -54t96.5 -18.5zM372 594q-69 0 -113 20t-64.5 50t-20.5 60h82q3 -13 17 -25t39 -20t60 -8q40 0 64.5 9t37.5 21.5t15 22.5h82q0 -30 -21 -60t-65 -50t-113 -20z" />
    <glyph glyph-name="Ohungarumlaut" unicode="&#x150;" horiz-adv-x="1018" 
d="M509 -12q-137 0 -236 41.5t-152.5 121t-53.5 193.5t53.5 193t152.5 120.5t236 41.5t236 -41.5t152.5 -120.5t53.5 -193t-53.5 -193.5t-152.5 -121t-236 -41.5zM509 115q62 0 114 14t90.5 41t60 68t21.5 95v23q0 54 -21.5 94.5t-60 67.5t-90.5 40.5t-114 13.5t-114 -13.5
t-90.5 -40.5t-59.5 -67.5t-21 -94.5v-23q0 -54 21 -95t59.5 -68t90.5 -41t114 -14zM552 744l78 133h148v-7l-127 -126h-99zM320 744l78 133h148v-7l-127 -126h-99z" />
    <glyph glyph-name="ohungarumlaut" unicode="&#x151;" horiz-adv-x="746" 
d="M373 -12q-101 0 -173.5 31t-111 92.5t-38.5 152.5q0 92 38.5 153t111 91.5t173.5 30.5t173.5 -30.5t111 -91.5t38.5 -153q0 -91 -38.5 -152.5t-111 -92.5t-173.5 -31zM373 95q56 0 96.5 18.5t62 54t21.5 86.5v20q0 52 -21.5 87t-62 53t-96.5 18t-96.5 -18t-62 -53
t-21.5 -87v-20q0 -51 21.5 -86.5t62 -54t96.5 -18.5zM206 592l78 133h148v-7l-127 -126h-99zM438 592l78 133h148v-7l-127 -126h-99z" />
    <glyph glyph-name="OE" unicode="&#x152;" horiz-adv-x="1564" 
d="M509 -12q-137 0 -236 41.5t-152.5 121t-53.5 193.5t53.5 193t152.5 120.5t236 41.5q91 0 163 -23.5t123 -67.5v79h695v-127h-543v-147h483v-127h-483v-159h551v-127h-703v79q-51 -45 -123 -68t-163 -23zM509 115q62 0 114 14t90.5 41t60 68t21.5 95v23q0 54 -21.5 94.5
t-60 67.5t-90.5 40.5t-114 13.5t-114 -13.5t-90.5 -40.5t-59.5 -67.5t-21 -94.5v-23q0 -54 21 -95t59.5 -68t90.5 -41t114 -14z" />
    <glyph glyph-name="oe" unicode="&#x153;" horiz-adv-x="1247" 
d="M373 -12q-101 0 -173.5 31t-111 92.5t-38.5 152.5q0 92 38.5 153t111 91.5t173.5 30.5q82 0 145 -21.5t104 -65.5q42 44 106.5 65.5t148.5 21.5q105 0 176.5 -30.5t107.5 -89t36 -142.5v-48h-499q3 -49 26.5 -78.5t65 -42.5t96.5 -13q22 0 49.5 5t53 15t43.5 26.5
t21 40.5h140q0 -40 -20.5 -75.5t-60.5 -62t-98 -41.5t-132 -15q-85 0 -152 21.5t-110 65.5q-41 -43 -103.5 -65t-143.5 -22zM373 95q56 0 96.5 18.5t62 54t21.5 86.5v20q0 52 -21.5 87t-62 53t-96.5 18t-96.5 -18t-62 -53t-21.5 -87v-20q0 -51 21.5 -86.5t62 -54t96.5 -18.5
zM698 321h353q0 29 -13.5 50t-37.5 34.5t-55 20t-66 6.5q-51 0 -90.5 -12.5t-62.5 -37.5t-28 -61z" />
    <glyph glyph-name="Racute" unicode="&#x154;" horiz-adv-x="920" 
d="M97 0v687h544q73 0 119.5 -29.5t69.5 -78t23 -107.5q0 -61 -31.5 -114.5t-97.5 -83.5l146 -274h-171l-126 245h-324v-245h-152zM249 371h350q47 0 72.5 27.5t25.5 70.5q0 29 -11 49.5t-33 31t-54 10.5h-350v-189zM367 744l116 133h160v-5l-160 -128h-116z" />
    <glyph glyph-name="racute" unicode="&#x155;" horiz-adv-x="438" 
d="M71 0v527h111l10 -93h8q11 28 32 52t52.5 38.5t71.5 14.5q18 0 35.5 -2.5t31.5 -7.5v-121h-69q-40 0 -67.5 -13.5t-44.5 -36.5t-25 -50.5t-8 -56.5v-251h-138zM111 591l116 133h160v-5l-160 -128h-116z" />
    <glyph glyph-name="uni0156" unicode="&#x156;" horiz-adv-x="920" 
d="M97 0v687h544q73 0 119.5 -29.5t69.5 -78t23 -107.5q0 -61 -31.5 -114.5t-97.5 -83.5l146 -274h-171l-126 245h-324v-245h-152zM249 371h350q47 0 72.5 27.5t25.5 70.5q0 29 -11 49.5t-33 31t-54 10.5h-350v-189zM375 -384v68q38 5 57.5 29t19.5 64h-68v146h152v-128
q0 -56 -17 -94t-52.5 -58.5t-91.5 -26.5z" />
    <glyph glyph-name="uni0157" unicode="&#x157;" horiz-adv-x="438" 
d="M71 0v527h111l10 -93h8q11 28 32 52t52.5 38.5t71.5 14.5q18 0 35.5 -2.5t31.5 -7.5v-121h-69q-40 0 -67.5 -13.5t-44.5 -36.5t-25 -50.5t-8 -56.5v-251h-138zM65 -346v62q34 4 51.5 26t17.5 57h-61v132h137v-115q0 -51 -15.5 -85t-47.5 -53t-82 -24z" />
    <glyph glyph-name="Rcaron" unicode="&#x158;" horiz-adv-x="920" 
d="M97 0v687h544q73 0 119.5 -29.5t69.5 -78t23 -107.5q0 -61 -31.5 -114.5t-97.5 -83.5l146 -274h-171l-126 245h-324v-245h-152zM249 371h350q47 0 72.5 27.5t25.5 70.5q0 29 -11 49.5t-33 31t-54 10.5h-350v-189zM253 877h111l127 -115h-66l127 115h115l-155 -141h-105z
" />
    <glyph glyph-name="rcaron" unicode="&#x159;" horiz-adv-x="438" 
d="M71 0v527h111l10 -93h8q11 28 32 52t52.5 38.5t71.5 14.5q18 0 35.5 -2.5t31.5 -7.5v-121h-69q-40 0 -67.5 -13.5t-44.5 -36.5t-25 -50.5t-8 -56.5v-251h-138zM12 724h111l127 -115h-66l127 115h115l-155 -141h-105z" />
    <glyph glyph-name="Sacute" unicode="&#x15a;" horiz-adv-x="850" 
d="M432 -12q-78 0 -146 9.5t-119 34t-79.5 68.5t-28.5 113v5t1 5h150q-1 -4 -1.5 -9.5t-0.5 -12.5q0 -31 27 -50.5t77 -28.5t117 -9q29 0 58.5 2.5t56.5 7.5t48.5 14t34 22.5t12.5 31.5q0 26 -23.5 41.5t-63.5 25.5t-90 17t-103.5 15.5t-103.5 23t-90 37.5t-63.5 59.5
t-23.5 89.5q0 48 23 85t68 62.5t110.5 38.5t150.5 13q86 0 150 -14t106 -40t62.5 -62.5t20.5 -81.5v-16h-148v13q0 22 -24 39t-65 27t-93 10q-72 0 -117 -9t-66 -24.5t-21 -34.5q0 -23 23.5 -37t63.5 -22.5t90 -15.5t103.5 -16t103.5 -23t90 -37.5t63.5 -59t23.5 -87.5
q0 -80 -46 -128.5t-128 -70t-190 -21.5zM332 744l116 133h160v-5l-160 -128h-116z" />
    <glyph glyph-name="sacute" unicode="&#x15b;" horiz-adv-x="666" 
d="M331 -12q-58 0 -111 9.5t-93.5 28.5t-64 49.5t-23.5 72.5q0 5 0.5 9t1.5 8h141q0 -1 -0.5 -4t-0.5 -5q0 -25 21.5 -40t56 -21.5t73.5 -6.5t74.5 4.5t57.5 17t22 37.5q0 26 -24 37.5t-69.5 18t-110.5 15.5q-48 7 -88.5 18t-71 28.5t-47 45t-16.5 67.5q0 43 19.5 73.5
t56 50t88.5 29t117 9.5q58 0 106.5 -9.5t84.5 -28.5t56.5 -47t20.5 -64v-7.5t-1 -7.5h-141v4q0 22 -18 35t-46.5 19t-62.5 6q-12 0 -35.5 -1t-48 -5.5t-41.5 -14t-17 -27.5q0 -22 25 -33t65.5 -16.5t87.5 -12.5q51 -7 96.5 -16t79.5 -26t53.5 -46.5t19.5 -77.5
q0 -49 -19.5 -82.5t-57 -54t-92 -29.5t-124.5 -9zM225 591l116 133h160v-5l-160 -128h-116z" />
    <glyph glyph-name="Scircumflex" unicode="&#x15c;" horiz-adv-x="850" 
d="M432 -12q-78 0 -146 9.5t-119 34t-79.5 68.5t-28.5 113v5t1 5h150q-1 -4 -1.5 -9.5t-0.5 -12.5q0 -31 27 -50.5t77 -28.5t117 -9q29 0 58.5 2.5t56.5 7.5t48.5 14t34 22.5t12.5 31.5q0 26 -23.5 41.5t-63.5 25.5t-90 17t-103.5 15.5t-103.5 23t-90 37.5t-63.5 59.5
t-23.5 89.5q0 48 23 85t68 62.5t110.5 38.5t150.5 13q86 0 150 -14t106 -40t62.5 -62.5t20.5 -81.5v-16h-148v13q0 22 -24 39t-65 27t-93 10q-72 0 -117 -9t-66 -24.5t-21 -34.5q0 -23 23.5 -37t63.5 -22.5t90 -15.5t103.5 -16t103.5 -23t90 -37.5t63.5 -59t23.5 -87.5
q0 -80 -46 -128.5t-128 -70t-190 -21.5zM218 736l154 141h105l155 -141h-115l-127 115h66l-127 -115h-111z" />
    <glyph glyph-name="scircumflex" unicode="&#x15d;" horiz-adv-x="666" 
d="M331 -12q-58 0 -111 9.5t-93.5 28.5t-64 49.5t-23.5 72.5q0 5 0.5 9t1.5 8h141q0 -1 -0.5 -4t-0.5 -5q0 -25 21.5 -40t56 -21.5t73.5 -6.5t74.5 4.5t57.5 17t22 37.5q0 26 -24 37.5t-69.5 18t-110.5 15.5q-48 7 -88.5 18t-71 28.5t-47 45t-16.5 67.5q0 43 19.5 73.5
t56 50t88.5 29t117 9.5q58 0 106.5 -9.5t84.5 -28.5t56.5 -47t20.5 -64v-7.5t-1 -7.5h-141v4q0 22 -18 35t-46.5 19t-62.5 6q-12 0 -35.5 -1t-48 -5.5t-41.5 -14t-17 -27.5q0 -22 25 -33t65.5 -16.5t87.5 -12.5q51 -7 96.5 -16t79.5 -26t53.5 -46.5t19.5 -77.5
q0 -49 -19.5 -82.5t-57 -54t-92 -29.5t-124.5 -9zM126 583l154 141h105l155 -141h-115l-127 115h66l-127 -115h-111z" />
    <glyph glyph-name="Scedilla" unicode="&#x15e;" horiz-adv-x="850" 
d="M432 -12q-78 0 -146 9.5t-119 34t-79.5 68.5t-28.5 113v5t1 5h150q-1 -4 -1.5 -9.5t-0.5 -12.5q0 -31 27 -50.5t77 -28.5t117 -9q29 0 58.5 2.5t56.5 7.5t48.5 14t34 22.5t12.5 31.5q0 26 -23.5 41.5t-63.5 25.5t-90 17t-103.5 15.5t-103.5 23t-90 37.5t-63.5 59.5
t-23.5 89.5q0 48 23 85t68 62.5t110.5 38.5t150.5 13q86 0 150 -14t106 -40t62.5 -62.5t20.5 -81.5v-16h-148v13q0 22 -24 39t-65 27t-93 10q-72 0 -117 -9t-66 -24.5t-21 -34.5q0 -23 23.5 -37t63.5 -22.5t90 -15.5t103.5 -16t103.5 -23t90 -37.5t63.5 -59t23.5 -87.5
q0 -80 -46 -128.5t-128 -70t-190 -21.5zM431 -195q-34 0 -70 3t-61 9v47h133q20 0 32 5t12 21q0 14 -9.5 19t-32.5 5h-68l23 114h78l-12 -62q30 -1 55 -8.5t40 -24t15 -46.5q0 -25 -12 -41.5t-32 -25t-44 -12t-47 -3.5z" />
    <glyph glyph-name="scedilla" unicode="&#x15f;" horiz-adv-x="666" 
d="M331 -12q-58 0 -111 9.5t-93.5 28.5t-64 49.5t-23.5 72.5q0 5 0.5 9t1.5 8h141q0 -1 -0.5 -4t-0.5 -5q0 -25 21.5 -40t56 -21.5t73.5 -6.5t74.5 4.5t57.5 17t22 37.5q0 26 -24 37.5t-69.5 18t-110.5 15.5q-48 7 -88.5 18t-71 28.5t-47 45t-16.5 67.5q0 43 19.5 73.5
t56 50t88.5 29t117 9.5q58 0 106.5 -9.5t84.5 -28.5t56.5 -47t20.5 -64v-7.5t-1 -7.5h-141v4q0 22 -18 35t-46.5 19t-62.5 6q-12 0 -35.5 -1t-48 -5.5t-41.5 -14t-17 -27.5q0 -22 25 -33t65.5 -16.5t87.5 -12.5q51 -7 96.5 -16t79.5 -26t53.5 -46.5t19.5 -77.5
q0 -49 -19.5 -82.5t-57 -54t-92 -29.5t-124.5 -9zM343 -195q-34 0 -70 3t-61 9v47h133q20 0 32 5t12 21q0 14 -9.5 19t-32.5 5h-68l23 114h78l-12 -62q30 -1 55 -8.5t40 -24t15 -46.5q0 -25 -12 -41.5t-32 -25t-44 -12t-47 -3.5z" />
    <glyph glyph-name="Scaron" unicode="&#x160;" horiz-adv-x="850" 
d="M432 -12q-78 0 -146 9.5t-119 34t-79.5 68.5t-28.5 113v5t1 5h150q-1 -4 -1.5 -9.5t-0.5 -12.5q0 -31 27 -50.5t77 -28.5t117 -9q29 0 58.5 2.5t56.5 7.5t48.5 14t34 22.5t12.5 31.5q0 26 -23.5 41.5t-63.5 25.5t-90 17t-103.5 15.5t-103.5 23t-90 37.5t-63.5 59.5
t-23.5 89.5q0 48 23 85t68 62.5t110.5 38.5t150.5 13q86 0 150 -14t106 -40t62.5 -62.5t20.5 -81.5v-16h-148v13q0 22 -24 39t-65 27t-93 10q-72 0 -117 -9t-66 -24.5t-21 -34.5q0 -23 23.5 -37t63.5 -22.5t90 -15.5t103.5 -16t103.5 -23t90 -37.5t63.5 -59t23.5 -87.5
q0 -80 -46 -128.5t-128 -70t-190 -21.5zM218 877h111l127 -115h-66l127 115h115l-155 -141h-105z" />
    <glyph glyph-name="scaron" unicode="&#x161;" horiz-adv-x="666" 
d="M331 -12q-58 0 -111 9.5t-93.5 28.5t-64 49.5t-23.5 72.5q0 5 0.5 9t1.5 8h141q0 -1 -0.5 -4t-0.5 -5q0 -25 21.5 -40t56 -21.5t73.5 -6.5t74.5 4.5t57.5 17t22 37.5q0 26 -24 37.5t-69.5 18t-110.5 15.5q-48 7 -88.5 18t-71 28.5t-47 45t-16.5 67.5q0 43 19.5 73.5
t56 50t88.5 29t117 9.5q58 0 106.5 -9.5t84.5 -28.5t56.5 -47t20.5 -64v-7.5t-1 -7.5h-141v4q0 22 -18 35t-46.5 19t-62.5 6q-12 0 -35.5 -1t-48 -5.5t-41.5 -14t-17 -27.5q0 -22 25 -33t65.5 -16.5t87.5 -12.5q51 -7 96.5 -16t79.5 -26t53.5 -46.5t19.5 -77.5
q0 -49 -19.5 -82.5t-57 -54t-92 -29.5t-124.5 -9zM126 724h111l127 -115h-66l127 115h115l-155 -141h-105z" />
    <glyph glyph-name="uni0162" unicode="&#x162;" horiz-adv-x="814" 
d="M331 0v553h-305v134h762v-134h-305v-553h-152zM413 -195q-34 0 -70 3t-61 9v47h133q20 0 32 5t12 21q0 14 -9.5 19t-32.5 5h-68l23 114h78l-12 -62q30 -1 55 -8.5t40 -24t15 -46.5q0 -25 -12 -41.5t-32 -25t-44 -12t-47 -3.5z" />
    <glyph glyph-name="uni0163" unicode="&#x163;" horiz-adv-x="449" 
d="M287 -12q-58 0 -94 16t-52.5 53.5t-16.5 102.5v260h-101v107h105l28 154h106v-154h143v-107h-143v-250q0 -37 13.5 -56t60.5 -19h69v-90q-14 -5 -35.5 -9t-43.5 -6t-39 -2zM266 -195q-34 0 -70 3t-61 9v47h133q20 0 32 5t12 21q0 14 -9.5 19t-32.5 5h-68l23 114h78
l-12 -62q30 -1 55 -8.5t40 -24t15 -46.5q0 -25 -12 -41.5t-32 -25t-44 -12t-47 -3.5z" />
    <glyph glyph-name="Tcaron" unicode="&#x164;" horiz-adv-x="814" 
d="M331 0v553h-305v134h762v-134h-305v-553h-152zM200 877h111l127 -115h-66l127 115h115l-155 -141h-105z" />
    <glyph glyph-name="tcaron" unicode="&#x165;" horiz-adv-x="449" 
d="M287 -12q-58 0 -94 16t-52.5 53.5t-16.5 102.5v260h-101v107h105l28 154h106v-154h143v-107h-143v-250q0 -37 13.5 -56t60.5 -19h69v-90q-14 -5 -35.5 -9t-43.5 -6t-39 -2zM306 555v169h129l-31 -169h-98z" />
    <glyph glyph-name="Tbar" unicode="&#x166;" horiz-adv-x="814" 
d="M331 0v553h-305v134h762v-134h-305v-553h-152zM176 279v90h462v-90h-462z" />
    <glyph glyph-name="tbar" unicode="&#x167;" horiz-adv-x="449" 
d="M34 235v76h343v-76h-343zM287 -12q-58 0 -94 16t-52.5 53.5t-16.5 102.5v260h-101v107h105l28 154h106v-154h143v-107h-143v-250q0 -37 13.5 -56t60.5 -19h69v-90q-14 -5 -35.5 -9t-43.5 -6t-39 -2z" />
    <glyph glyph-name="Utilde" unicode="&#x168;" horiz-adv-x="944" 
d="M472 -12q-129 0 -213.5 40t-126 113.5t-41.5 173.5v372h152v-365q0 -99 59.5 -153t169.5 -54t169.5 54t59.5 153v365h152v-372q0 -100 -41.5 -173.5t-125.5 -113.5t-214 -40zM244 745q2 28 17.5 56.5t45 47.5t72.5 19q36 0 70 -10t66.5 -20.5t62.5 -10.5q23 0 35 12.5
t16 28.5h72q-1 -28 -18 -57t-47 -48t-72 -19q-34 0 -68.5 10.5t-67 20.5t-61.5 10q-24 0 -36.5 -12.5t-17.5 -27.5h-69z" />
    <glyph glyph-name="utilde" unicode="&#x169;" horiz-adv-x="716" 
d="M290 -12q-110 0 -166.5 52t-56.5 161v326h138v-302q0 -34 9.5 -57.5t27 -37.5t42 -20t54.5 -6q44 0 82.5 18t62.5 50t24 75v280h138v-527h-111l-10 90h-9q-28 -39 -65.5 -61t-78.5 -31.5t-81 -9.5zM129 601q2 28 17.5 56.5t45 47.5t72.5 19q36 0 70 -10t66.5 -20.5
t62.5 -10.5q23 0 35 12.5t16 28.5h72q-1 -28 -18 -57t-47 -48t-72 -19q-34 0 -68.5 10.5t-67 20.5t-61.5 10q-24 0 -36.5 -12.5t-17.5 -27.5h-69z" />
    <glyph glyph-name="Umacron" unicode="&#x16a;" horiz-adv-x="944" 
d="M472 -12q-129 0 -213.5 40t-126 113.5t-41.5 173.5v372h152v-365q0 -99 59.5 -153t169.5 -54t169.5 54t59.5 153v365h152v-372q0 -100 -41.5 -173.5t-125.5 -113.5t-214 -40zM280 761v77h383v-77h-383z" />
    <glyph glyph-name="umacron" unicode="&#x16b;" horiz-adv-x="716" 
d="M290 -12q-110 0 -166.5 52t-56.5 161v326h138v-302q0 -34 9.5 -57.5t27 -37.5t42 -20t54.5 -6q44 0 82.5 18t62.5 50t24 75v280h138v-527h-111l-10 90h-9q-28 -39 -65.5 -61t-78.5 -31.5t-81 -9.5zM166 623v77h383v-77h-383z" />
    <glyph glyph-name="Ubreve" unicode="&#x16c;" horiz-adv-x="944" 
d="M472 -12q-129 0 -213.5 40t-126 113.5t-41.5 173.5v372h152v-365q0 -99 59.5 -153t169.5 -54t169.5 54t59.5 153v365h152v-372q0 -100 -41.5 -173.5t-125.5 -113.5t-214 -40zM471 747q-69 0 -113 20t-64.5 50t-20.5 60h82q3 -13 17 -25t39 -20t60 -8q40 0 64.5 9
t37.5 21.5t15 22.5h82q0 -30 -21 -60t-65 -50t-113 -20z" />
    <glyph glyph-name="ubreve" unicode="&#x16d;" horiz-adv-x="716" 
d="M290 -12q-110 0 -166.5 52t-56.5 161v326h138v-302q0 -34 9.5 -57.5t27 -37.5t42 -20t54.5 -6q44 0 82.5 18t62.5 50t24 75v280h138v-527h-111l-10 90h-9q-28 -39 -65.5 -61t-78.5 -31.5t-81 -9.5zM357 594q-69 0 -113 20t-64.5 50t-20.5 60h82q3 -13 17 -25t39 -20
t60 -8q40 0 64.5 9t37.5 21.5t15 22.5h82q0 -30 -21 -60t-65 -50t-113 -20z" />
    <glyph glyph-name="Uring" unicode="&#x16e;" horiz-adv-x="944" 
d="M472 -12q-129 0 -213.5 40t-126 113.5t-41.5 173.5v372h152v-365q0 -99 59.5 -153t169.5 -54t169.5 54t59.5 153v365h152v-372q0 -100 -41.5 -173.5t-125.5 -113.5t-214 -40zM471 719q-46 0 -76 29.5t-30 74.5q0 46 30 75.5t76 29.5q47 0 77 -29.5t30 -75.5
q0 -45 -30 -74.5t-77 -29.5zM471 773q23 0 38 14t15 36q0 23 -15 37t-38 14q-22 0 -37 -14t-15 -36q0 -23 15 -37t37 -14z" />
    <glyph glyph-name="uring" unicode="&#x16f;" horiz-adv-x="716" 
d="M290 -12q-110 0 -166.5 52t-56.5 161v326h138v-302q0 -34 9.5 -57.5t27 -37.5t42 -20t54.5 -6q44 0 82.5 18t62.5 50t24 75v280h138v-527h-111l-10 90h-9q-28 -39 -65.5 -61t-78.5 -31.5t-81 -9.5zM357 567q-45 0 -76.5 31.5t-31.5 76.5t31.5 77t76.5 32t77 -32t32 -77
t-32 -76.5t-77 -31.5zM357 621q23 0 39 16t16 38q0 23 -16 39t-39 16q-22 0 -38 -16t-16 -39q0 -22 16 -38t38 -16z" />
    <glyph glyph-name="Uhungarumlaut" unicode="&#x170;" horiz-adv-x="944" 
d="M472 -12q-129 0 -213.5 40t-126 113.5t-41.5 173.5v372h152v-365q0 -99 59.5 -153t169.5 -54t169.5 54t59.5 153v365h152v-372q0 -100 -41.5 -173.5t-125.5 -113.5t-214 -40zM515 744l78 133h148v-7l-127 -126h-99zM283 744l78 133h148v-7l-127 -126h-99z" />
    <glyph glyph-name="uhungarumlaut" unicode="&#x171;" horiz-adv-x="716" 
d="M290 -12q-110 0 -166.5 52t-56.5 161v326h138v-302q0 -34 9.5 -57.5t27 -37.5t42 -20t54.5 -6q44 0 82.5 18t62.5 50t24 75v280h138v-527h-111l-10 90h-9q-28 -39 -65.5 -61t-78.5 -31.5t-81 -9.5zM191 592l78 133h148v-7l-127 -126h-99zM423 592l78 133h148v-7
l-127 -126h-99z" />
    <glyph glyph-name="Uogonek" unicode="&#x172;" horiz-adv-x="944" 
d="M472 -12q-129 0 -213.5 40t-126 113.5t-41.5 173.5v372h152v-365q0 -99 59.5 -153t169.5 -54t169.5 54t59.5 153v365h152v-372q0 -100 -41.5 -173.5t-125.5 -113.5t-214 -40zM613 -195q-30 0 -58.5 10t-47 32.5t-18.5 59.5q0 35 16.5 60.5t39.5 44.5h85v-4
q-18 -12 -32.5 -31.5t-14.5 -42.5q0 -22 15.5 -39t47.5 -17h69v-59q-22 -7 -50.5 -10.5t-51.5 -3.5z" />
    <glyph glyph-name="uogonek" unicode="&#x173;" horiz-adv-x="716" 
d="M614 -195q-30 0 -58.5 10t-47 32.5t-18.5 59.5q0 35 16.5 60.5t39.5 44.5h85v-4q-18 -12 -32.5 -31.5t-14.5 -42.5q0 -22 15.5 -39t47.5 -17h69v-59q-22 -7 -50.5 -10.5t-51.5 -3.5zM290 -12q-110 0 -166.5 52t-56.5 161v326h138v-302q0 -34 9.5 -57.5t27 -37.5t42 -20
t54.5 -6q44 0 82.5 18t62.5 50t24 75v280h138v-527h-111l-10 90h-9q-28 -39 -65.5 -61t-78.5 -31.5t-81 -9.5z" />
    <glyph glyph-name="Wcircumflex" unicode="&#x174;" horiz-adv-x="1192" 
d="M245 0l-233 687h165l138 -442q4 -10 8.5 -27.5t9.5 -36.5t8 -34h6q2 12 5.5 26t6.5 28t6 25.5t5 18.5l128 442h209l129 -442q3 -10 7.5 -27.5t9 -36.5t6.5 -34h6q3 11 6.5 24.5t7.5 27t7 25.5t6 21l139 442h149l-234 -687h-186l-137 450q-4 14 -9 32.5t-8.5 37t-5.5 32.5
h-5q-2 -15 -7 -34.5t-9.5 -37.5t-8.5 -30l-132 -450h-193zM389 736l154 141h105l155 -141h-115l-127 115h66l-127 -115h-111z" />
    <glyph glyph-name="wcircumflex" unicode="&#x175;" horiz-adv-x="972" 
d="M218 0l-213 527h148l95 -259q9 -23 16 -45t12.5 -39.5t7.5 -28.5h8q3 10 8.5 27t13 39t15.5 46l87 260h152l87 -260q3 -7 9 -26.5t13 -42.5t13 -43h8q5 17 11.5 38t13.5 41t11 33l94 260h139l-214 -527h-135l-83 243q-8 23 -16.5 48t-16 47t-12.5 36h-7q-5 -16 -13 -39
t-16 -47.5t-15 -45.5l-82 -242h-139zM289 583l154 141h105l155 -141h-115l-127 115h66l-127 -115h-111z" />
    <glyph glyph-name="Ycircumflex" unicode="&#x176;" horiz-adv-x="861" 
d="M354 0v278l-336 409h183l228 -287h10l231 287h173l-337 -409v-278h-152zM224 736l154 141h105l155 -141h-115l-127 115h66l-127 -115h-111z" />
    <glyph glyph-name="ycircumflex" unicode="&#x177;" horiz-adv-x="653" 
d="M140 -198q-28 0 -51 4.5t-43 12.5v90h69q46 0 73 10.5t43.5 30.5t31.5 50l-258 527h151l114 -255q9 -18 20.5 -44.5t23.5 -53.5t21 -47h8l5.5 15.5t15 39t19.5 48.5l18 45l102 252h145l-214 -477q-27 -59 -52.5 -105t-57.5 -78t-76.5 -48.5t-107.5 -16.5zM120 583
l154 141h105l155 -141h-115l-127 115h66l-127 -115h-111z" />
    <glyph glyph-name="Ydieresis" unicode="&#x178;" horiz-adv-x="861" 
d="M354 0v278l-336 409h183l228 -287h10l231 287h173l-337 -409v-278h-152zM239 759v117h130v-117h-130zM492 759v117h131v-117h-131z" />
    <glyph glyph-name="Zacute" unicode="&#x179;" horiz-adv-x="834" 
d="M46 0v70l460 490h-429v127h686v-69l-462 -491h466v-127h-721zM318 744l116 133h160v-5l-160 -128h-116z" />
    <glyph glyph-name="zacute" unicode="&#x17a;" horiz-adv-x="631" 
d="M31 0v59l332 361h-309v107h533v-56l-335 -364h348v-107h-569zM214 591l116 133h160v-5l-160 -128h-116z" />
    <glyph glyph-name="Zdotaccent" unicode="&#x17b;" horiz-adv-x="834" 
d="M46 0v70l460 490h-429v127h686v-69l-462 -491h466v-127h-721zM346 759v117h130v-117h-130z" />
    <glyph glyph-name="zdotaccent" unicode="&#x17c;" horiz-adv-x="631" 
d="M31 0v59l332 361h-309v107h533v-56l-335 -364h348v-107h-569zM257 604v116h130v-116h-130z" />
    <glyph glyph-name="Zcaron" unicode="&#x17d;" horiz-adv-x="834" 
d="M46 0v70l460 490h-429v127h686v-69l-462 -491h466v-127h-721zM204 877h111l127 -115h-66l127 115h115l-155 -141h-105z" />
    <glyph glyph-name="zcaron" unicode="&#x17e;" horiz-adv-x="631" 
d="M31 0v59l332 361h-309v107h533v-56l-335 -364h348v-107h-569zM115 724h111l127 -115h-66l127 115h115l-155 -141h-105z" />
    <glyph glyph-name="longs" unicode="&#x17f;" horiz-adv-x="429" 
d="M122 0v420h-108v107h108v46q0 51 19 87.5t57 55.5t95 19q20 0 41.5 -2t41.5 -5.5t36 -9.5v-90h-68q-46 0 -65 -13t-19 -44v-571h-138z" />
    <glyph glyph-name="uni018F" unicode="&#x18f;" horiz-adv-x="1003" 
d="M504 -12q-102 0 -183 21.5t-137.5 65.5t-86.5 111t-30 158v37h710q-1 63 -36.5 105.5t-98.5 64t-149 21.5q-48 0 -94 -7.5t-84.5 -22.5t-63 -38t-28.5 -53h-156q5 62 41.5 108t96 77.5t135 47t158.5 15.5q142 0 239.5 -41.5t148 -120.5t50.5 -193t-52.5 -193.5
t-149.5 -121t-230 -41.5zM504 115q72 0 129.5 18t94.5 55.5t44 95.5h-542q5 -47 26.5 -79.5t57.5 -52t84.5 -28.5t105.5 -9z" />
    <glyph glyph-name="florin" unicode="&#x192;" horiz-adv-x="760" 
d="M190 -199q-20 0 -41 2t-40 6t-34 9l19 90h68q45 0 66.5 13t28.5 44l84 396h-108l23 107h108l22 105q11 51 37.5 87.5t69 55.5t99.5 19q20 0 41 -2t40 -5.5t34 -9.5l-19 -90h-68q-46 0 -67.5 -13t-28.5 -44l-22 -103h152l-23 -107h-152l-84 -398q-11 -51 -37.5 -87
t-68.5 -55.5t-99 -19.5z" />
    <glyph glyph-name="uni019D" unicode="&#x19d;" horiz-adv-x="965" 
d="M60 -198q-13 0 -28.5 2t-30.5 5t-26 6v94h47q36 0 55.5 18.5t19.5 51.5v708h143l376 -361q13 -11 31 -30t37.5 -39t33.5 -36h8q-1 22 -2.5 53.5t-1.5 51.5v361h146v-687h-140l-377 365q-27 26 -56.5 57.5t-47.5 50.5h-7q1 -13 2 -45.5t1 -74.5v-343q0 -42 -4 -80
t-20.5 -66.5t-54 -45t-104.5 -16.5z" />
    <glyph glyph-name="Ohorn" unicode="&#x1a0;" horiz-adv-x="1018" 
d="M509 -12q-137 0 -236 41.5t-152.5 121t-53.5 193.5t53.5 193t152.5 120.5t236 41.5t236 -41.5t152.5 -120.5t53.5 -193t-53.5 -193.5t-152.5 -121t-236 -41.5zM509 115q62 0 114 14t90.5 41t60 68t21.5 95v23q0 54 -21.5 94.5t-60 67.5t-90.5 40.5t-114 13.5t-114 -13.5
t-90.5 -40.5t-59.5 -67.5t-21 -94.5v-23q0 -54 21 -95t59.5 -68t90.5 -41t114 -14zM690 563v58q86 0 136.5 23.5t50.5 63.5h-66v113h140v-88q0 -54 -31.5 -92t-90 -58t-139.5 -20z" />
    <glyph glyph-name="ohorn" unicode="&#x1a1;" horiz-adv-x="746" 
d="M373 -12q-101 0 -173.5 31t-111 92.5t-38.5 152.5q0 92 38.5 153t111 91.5t173.5 30.5t173.5 -30.5t111 -91.5t38.5 -153q0 -91 -38.5 -152.5t-111 -92.5t-173.5 -31zM373 95q56 0 96.5 18.5t62 54t21.5 86.5v20q0 52 -21.5 87t-62 53t-96.5 18t-96.5 -18t-62 -53
t-21.5 -87v-20q0 -51 21.5 -86.5t62 -54t96.5 -18.5zM505 429v58q77 0 122 23.5t45 63.5h-66v113h140v-88q0 -54 -29 -92t-83 -58t-129 -20z" />
    <glyph glyph-name="Uhorn" unicode="&#x1af;" horiz-adv-x="944" 
d="M472 -12q-129 0 -213.5 40t-126 113.5t-41.5 173.5v372h152v-365q0 -99 59.5 -153t169.5 -54t169.5 54t59.5 153v365h152v-372q0 -100 -41.5 -173.5t-125.5 -113.5t-214 -40zM701 629v58q86 0 136.5 23.5t50.5 63.5h-66v113h140v-88q0 -54 -31.5 -92t-90 -58t-139.5 -20z
" />
    <glyph glyph-name="uhorn" unicode="&#x1b0;" horiz-adv-x="716" 
d="M290 -12q-110 0 -166.5 52t-56.5 161v326h138v-302q0 -34 9.5 -57.5t27 -37.5t42 -20t54.5 -6q44 0 82.5 18t62.5 50t24 75v280h138v-527h-111l-10 90h-9q-28 -39 -65.5 -61t-78.5 -31.5t-81 -9.5zM507 469v58q77 0 122 23.5t45 63.5h-66v113h140v-88q0 -54 -29 -92
t-83 -58t-129 -20z" />
    <glyph glyph-name="uni01C4" unicode="&#x1c4;" horiz-adv-x="1758" 
d="M97 0v687h366q126 0 216.5 -39.5t139 -116t48.5 -188.5q0 -111 -48.5 -187.5t-139 -116t-216.5 -39.5h-366zM249 127h206q55 0 101.5 13t81 38.5t53.5 64t19 89.5v23q0 51 -19 89.5t-53.5 64t-81 38.5t-101.5 13h-206v-433zM970 0v70l460 490h-429v127h686v-69l-462 -491
h466v-127h-721zM1128 877h111l127 -115h-66l127 115h115l-155 -141h-105z" />
    <glyph glyph-name="uni01C5" unicode="&#x1c5;" horiz-adv-x="1565" 
d="M97 0v687h366q126 0 216.5 -39.5t139 -116t48.5 -188.5q0 -111 -48.5 -187.5t-139 -116t-216.5 -39.5h-366zM249 127h206q55 0 101.5 13t81 38.5t53.5 64t19 89.5v23q0 51 -19 89.5t-53.5 64t-81 38.5t-101.5 13h-206v-433zM965 0v59l332 361h-309v107h533v-56l-335 -364
h348v-107h-569zM1049 724h111l127 -115h-66l127 115h115l-155 -141h-105z" />
    <glyph glyph-name="uni01C6" unicode="&#x1c6;" horiz-adv-x="1360" 
d="M320 -12q-82 0 -142.5 30t-94 91.5t-33.5 153.5q0 94 33 155t91.5 91t136.5 30q42 0 80 -9t69 -26.5t53 -43.5h7v264h138v-724h-111l-12 83h-8q-37 -52 -90 -73.5t-117 -21.5zM355 104q52 0 89 18t57 52.5t20 84.5v8q0 38 -11.5 67t-33.5 48.5t-53 30t-70 10.5
q-50 0 -86.5 -18t-56 -51.5t-19.5 -82.5v-15q0 -49 20 -83t56.5 -51.5t87.5 -17.5zM760 0v59l332 361h-309v107h533v-56l-335 -364h348v-107h-569zM844 724h111l127 -115h-66l127 115h115l-155 -141h-105z" />
    <glyph glyph-name="uni01C7" unicode="&#x1c7;" horiz-adv-x="1384" 
d="M97 0v687h152v-553h436v-134h-588zM1010 -12q-91 0 -155.5 26.5t-99 81.5t-34.5 141v14h147v-19q0 -58 36.5 -87.5t100.5 -29.5q70 0 109 36.5t39 112.5v423h151v-415q0 -98 -35.5 -161t-101 -93t-157.5 -30z" />
    <glyph glyph-name="uni01C8" unicode="&#x1c8;" horiz-adv-x="993" 
d="M97 0v687h152v-553h436v-134h-588zM786 613v111h138v-111h-138zM758 -199q-16 0 -34 2t-35 6t-31 9v90h53q36 0 55.5 19t19.5 53v547h138v-550q0 -53 -15 -93t-51 -61.5t-100 -21.5z" />
    <glyph glyph-name="uni01C9" unicode="&#x1c9;" horiz-adv-x="558" 
d="M71 0v724h138v-724h-138zM351 613v111h138v-111h-138zM323 -199q-16 0 -34 2t-35 6t-31 9v90h53q36 0 55.5 19t19.5 53v547h138v-550q0 -53 -15 -93t-51 -61.5t-100 -21.5z" />
    <glyph glyph-name="uni01CA" unicode="&#x1ca;" horiz-adv-x="1664" 
d="M97 0v687h143l376 -361q13 -11 31 -30t37.5 -39t33.5 -36h8q-1 22 -2.5 53.5t-1.5 51.5v361h146v-687h-140l-377 365q-27 26 -56.5 57.5t-47.5 50.5h-7q1 -13 2 -45.5t1 -74.5v-353h-146zM1290 -12q-91 0 -155.5 26.5t-99 81.5t-34.5 141v14h147v-19q0 -58 36.5 -87.5
t100.5 -29.5q70 0 109 36.5t39 112.5v423h151v-415q0 -98 -35.5 -161t-101 -93t-157.5 -30z" />
    <glyph glyph-name="uni01CB" unicode="&#x1cb;" horiz-adv-x="1243" 
d="M97 0v687h143l376 -361q13 -11 31 -30t37.5 -39t33.5 -36h8q-1 22 -2.5 53.5t-1.5 51.5v361h146v-687h-140l-377 365q-27 26 -56.5 57.5t-47.5 50.5h-7q1 -13 2 -45.5t1 -74.5v-353h-146zM1036 613v111h138v-111h-138zM1008 -199q-16 0 -34 2t-35 6t-31 9v90h53
q36 0 55.5 19t19.5 53v547h138v-550q0 -53 -15 -93t-51 -61.5t-100 -21.5z" />
    <glyph glyph-name="uni01CC" unicode="&#x1cc;" horiz-adv-x="994" 
d="M71 0v527h111l10 -90h9q29 39 66 61t78.5 31.5t80.5 9.5q74 0 123.5 -23t74.5 -70t25 -120v-326h-138v302q0 34 -9.5 57.5t-27 37.5t-42 20t-54.5 6q-44 0 -82.5 -18t-62.5 -50t-24 -75v-280h-138zM787 613v111h138v-111h-138zM759 -199q-16 0 -34 2t-35 6t-31 9v90h53
q36 0 55.5 19t19.5 53v547h138v-550q0 -53 -15 -93t-51 -61.5t-100 -21.5z" />
    <glyph glyph-name="uni01CD" unicode="&#x1cd;" horiz-adv-x="908" 
d="M24 0l344 687h172l344 -687h-167l-65 133h-407l-65 -133h-156zM305 256h287l-80 168q-5 11 -14.5 32.5t-19 44t-17 39t-8.5 17.5h-8q-9 -20 -20.5 -46t-22 -50t-17.5 -38zM247 877h111l127 -115h-66l127 115h115l-155 -141h-105z" />
    <glyph glyph-name="uni01CE" unicode="&#x1ce;" horiz-adv-x="739" 
d="M270 -12q-47 0 -87.5 7.5t-71 25t-47.5 47.5t-17 75q0 64 35 100t99 52t149.5 20t185.5 4v22q0 34 -16.5 54t-51 28.5t-90.5 8.5q-45 0 -79 -6t-53 -18t-19 -30v-12h-138q-1 4 -1.5 8t-0.5 9q0 47 34 82t101 54.5t167 19.5q93 0 156.5 -17t96 -56t32.5 -105v-227
q0 -19 7.5 -29t26.5 -10h51v-90q-10 -4 -36.5 -10.5t-58.5 -6.5q-44 0 -68.5 11t-35 30t-14.5 42h-8q-28 -26 -67 -45t-85 -28.5t-96 -9.5zM304 95q32 0 68.5 7t69.5 20.5t53.5 34t20.5 47.5v27q-112 0 -185.5 -7.5t-109.5 -25.5t-36 -51q0 -22 17.5 -33t45 -15t56.5 -4z
M156 724h111l127 -115h-66l127 115h115l-155 -141h-105z" />
    <glyph glyph-name="uni01CF" unicode="&#x1cf;" horiz-adv-x="346" 
d="M97 0v687h152v-687h-152zM-34 877h111l127 -115h-66l127 115h115l-155 -141h-105z" />
    <glyph glyph-name="uni01D0" unicode="&#x1d0;" horiz-adv-x="280" 
d="M71 0v527h138v-527h-138zM-67 724h111l127 -115h-66l127 115h115l-155 -141h-105z" />
    <glyph glyph-name="uni01D1" unicode="&#x1d1;" horiz-adv-x="1018" 
d="M509 -12q-137 0 -236 41.5t-152.5 121t-53.5 193.5t53.5 193t152.5 120.5t236 41.5t236 -41.5t152.5 -120.5t53.5 -193t-53.5 -193.5t-152.5 -121t-236 -41.5zM509 115q62 0 114 14t90.5 41t60 68t21.5 95v23q0 54 -21.5 94.5t-60 67.5t-90.5 40.5t-114 13.5t-114 -13.5
t-90.5 -40.5t-59.5 -67.5t-21 -94.5v-23q0 -54 21 -95t59.5 -68t90.5 -41t114 -14zM302 877h111l127 -115h-66l127 115h115l-155 -141h-105z" />
    <glyph glyph-name="uni01D2" unicode="&#x1d2;" horiz-adv-x="746" 
d="M373 -12q-101 0 -173.5 31t-111 92.5t-38.5 152.5q0 92 38.5 153t111 91.5t173.5 30.5t173.5 -30.5t111 -91.5t38.5 -153q0 -91 -38.5 -152.5t-111 -92.5t-173.5 -31zM373 95q56 0 96.5 18.5t62 54t21.5 86.5v20q0 52 -21.5 87t-62 53t-96.5 18t-96.5 -18t-62 -53
t-21.5 -87v-20q0 -51 21.5 -86.5t62 -54t96.5 -18.5zM166 724h111l127 -115h-66l127 115h115l-155 -141h-105z" />
    <glyph glyph-name="uni01D3" unicode="&#x1d3;" horiz-adv-x="944" 
d="M472 -12q-129 0 -213.5 40t-126 113.5t-41.5 173.5v372h152v-365q0 -99 59.5 -153t169.5 -54t169.5 54t59.5 153v365h152v-372q0 -100 -41.5 -173.5t-125.5 -113.5t-214 -40zM265 877h111l127 -115h-66l127 115h115l-155 -141h-105z" />
    <glyph glyph-name="uni01D4" unicode="&#x1d4;" horiz-adv-x="716" 
d="M290 -12q-110 0 -166.5 52t-56.5 161v326h138v-302q0 -34 9.5 -57.5t27 -37.5t42 -20t54.5 -6q44 0 82.5 18t62.5 50t24 75v280h138v-527h-111l-10 90h-9q-28 -39 -65.5 -61t-78.5 -31.5t-81 -9.5zM151 724h111l127 -115h-66l127 115h115l-155 -141h-105z" />
    <glyph glyph-name="uni01D5" unicode="&#x1d5;" horiz-adv-x="944" 
d="M472 -12q-129 0 -213.5 40t-126 113.5t-41.5 173.5v372h152v-365q0 -99 59.5 -153t169.5 -54t169.5 54t59.5 153v365h152v-372q0 -100 -41.5 -173.5t-125.5 -113.5t-214 -40zM280 759v117h130v-117h-130zM533 759v117h131v-117h-131zM280 934v77h383v-77h-383z" />
    <glyph glyph-name="uni01D6" unicode="&#x1d6;" horiz-adv-x="716" 
d="M290 -12q-110 0 -166.5 52t-56.5 161v326h138v-302q0 -34 9.5 -57.5t27 -37.5t42 -20t54.5 -6q44 0 82.5 18t62.5 50t24 75v280h138v-527h-111l-10 90h-9q-28 -39 -65.5 -61t-78.5 -31.5t-81 -9.5zM166 604v117h130v-117h-130zM419 604v117h131v-117h-131zM166 796v77
h383v-77h-383z" />
    <glyph glyph-name="uni01D7" unicode="&#x1d7;" horiz-adv-x="944" 
d="M472 -12q-129 0 -213.5 40t-126 113.5t-41.5 173.5v372h152v-365q0 -99 59.5 -153t169.5 -54t169.5 54t59.5 153v365h152v-372q0 -100 -41.5 -173.5t-125.5 -113.5t-214 -40zM280 759v117h130v-117h-130zM533 759v117h131v-117h-131zM379 917l116 133h160v-5l-160 -128
h-116z" />
    <glyph glyph-name="uni01D8" unicode="&#x1d8;" horiz-adv-x="716" 
d="M290 -12q-110 0 -166.5 52t-56.5 161v326h138v-302q0 -34 9.5 -57.5t27 -37.5t42 -20t54.5 -6q44 0 82.5 18t62.5 50t24 75v280h138v-527h-111l-10 90h-9q-28 -39 -65.5 -61t-78.5 -31.5t-81 -9.5zM166 604v117h130v-117h-130zM419 604v117h131v-117h-131zM250 764
l116 133h160v-5l-160 -128h-116z" />
    <glyph glyph-name="uni01D9" unicode="&#x1d9;" horiz-adv-x="944" 
d="M472 -12q-129 0 -213.5 40t-126 113.5t-41.5 173.5v372h152v-365q0 -99 59.5 -153t169.5 -54t169.5 54t59.5 153v365h152v-372q0 -100 -41.5 -173.5t-125.5 -113.5t-214 -40zM280 759v117h130v-117h-130zM533 759v117h131v-117h-131zM265 1050h111l127 -115h-66l127 115
h115l-155 -141h-105z" />
    <glyph glyph-name="uni01DA" unicode="&#x1da;" horiz-adv-x="716" 
d="M290 -12q-110 0 -166.5 52t-56.5 161v326h138v-302q0 -34 9.5 -57.5t27 -37.5t42 -20t54.5 -6q44 0 82.5 18t62.5 50t24 75v280h138v-527h-111l-10 90h-9q-28 -39 -65.5 -61t-78.5 -31.5t-81 -9.5zM166 604v117h130v-117h-130zM419 604v117h131v-117h-131zM151 897h111
l127 -115h-66l127 115h115l-155 -141h-105z" />
    <glyph glyph-name="uni01DB" unicode="&#x1db;" horiz-adv-x="944" 
d="M472 -12q-129 0 -213.5 40t-126 113.5t-41.5 173.5v372h152v-365q0 -99 59.5 -153t169.5 -54t169.5 54t59.5 153v365h152v-372q0 -100 -41.5 -173.5t-125.5 -113.5t-214 -40zM280 759v117h130v-117h-130zM533 759v117h131v-117h-131zM556 917h-116l-160 128v5h160z" />
    <glyph glyph-name="uni01DC" unicode="&#x1dc;" horiz-adv-x="716" 
d="M290 -12q-110 0 -166.5 52t-56.5 161v326h138v-302q0 -34 9.5 -57.5t27 -37.5t42 -20t54.5 -6q44 0 82.5 18t62.5 50t24 75v280h138v-527h-111l-10 90h-9q-28 -39 -65.5 -61t-78.5 -31.5t-81 -9.5zM166 604v117h130v-117h-130zM419 604v117h131v-117h-131zM466 764h-116
l-160 128v5h160z" />
    <glyph glyph-name="Gcaron" unicode="&#x1e6;" horiz-adv-x="1013" 
d="M483 -12q-208 0 -312 88t-104 267q0 117 53 196.5t153.5 119.5t240.5 40q91 0 166 -15.5t129.5 -47t84 -79.5t29.5 -113h-148q0 36 -21 61t-57 39.5t-81.5 21t-95.5 6.5q-64 0 -118.5 -12.5t-94.5 -39t-62 -67.5t-22 -97v-24q0 -78 34 -125.5t96.5 -69.5t147.5 -22
q94 0 154.5 17t90 49t29.5 75v8h-278v120h427v-384h-94l-16 90q-37 -36 -88.5 -58.5t-113 -33t-129.5 -10.5zM300 877h111l127 -115h-66l127 115h115l-155 -141h-105z" />
    <glyph glyph-name="gcaron" unicode="&#x1e7;" horiz-adv-x="729" 
d="M190 -198q-46 0 -85.5 12t-63.5 40t-24 76q0 38 27.5 68t70.5 44q-31 16 -45.5 42.5t-14.5 57.5q0 40 27.5 70t75.5 37q-40 22 -63 54t-23 69q0 60 33.5 97t99 53.5t161.5 16.5q37 0 70 -3.5t62 -9.5q48 20 73.5 45.5t30.5 47.5h129q-1 -36 -17 -63t-44.5 -45t-69.5 -27
q29 -20 44.5 -48t15.5 -64q0 -56 -30 -93t-88.5 -55t-145.5 -18h-139q-29 0 -45 -10.5t-16 -29.5t16 -30.5t50 -11.5h305q76 0 116.5 -44t40.5 -111q0 -50 -26 -87.5t-69 -58.5t-96 -21h-343zM214 -101h312q16 0 29.5 6.5t21.5 19.5t8 30q0 26 -17.5 40t-41.5 14h-307
q-27 0 -45 -13.5t-18 -39.5t16.5 -41.5t41.5 -15.5zM366 301q71 0 113 15t42 56t-42 56.5t-113 15.5t-113 -15.5t-42 -56.5q0 -29 19 -44.5t54 -21t82 -5.5zM155 724h111l127 -115h-66l127 115h115l-155 -141h-105z" />
    <glyph glyph-name="uni01EA" unicode="&#x1ea;" horiz-adv-x="1018" 
d="M509 -12q-137 0 -236 41.5t-152.5 121t-53.5 193.5t53.5 193t152.5 120.5t236 41.5t236 -41.5t152.5 -120.5t53.5 -193t-53.5 -193.5t-152.5 -121t-236 -41.5zM509 115q62 0 114 14t90.5 41t60 68t21.5 95v23q0 54 -21.5 94.5t-60 67.5t-90.5 40.5t-114 13.5t-114 -13.5
t-90.5 -40.5t-59.5 -67.5t-21 -94.5v-23q0 -54 21 -95t59.5 -68t90.5 -41t114 -14zM658 -195q-30 0 -58.5 10t-47 32.5t-18.5 59.5q0 35 16.5 60.5t39.5 44.5h85v-4q-18 -12 -32.5 -31.5t-14.5 -42.5q0 -22 15.5 -39t47.5 -17h69v-59q-22 -7 -50.5 -10.5t-51.5 -3.5z" />
    <glyph glyph-name="uni01EB" unicode="&#x1eb;" horiz-adv-x="746" 
d="M373 -12q-101 0 -173.5 31t-111 92.5t-38.5 152.5q0 92 38.5 153t111 91.5t173.5 30.5t173.5 -30.5t111 -91.5t38.5 -153q0 -91 -38.5 -152.5t-111 -92.5t-173.5 -31zM373 95q56 0 96.5 18.5t62 54t21.5 86.5v20q0 52 -21.5 87t-62 53t-96.5 18t-96.5 -18t-62 -53
t-21.5 -87v-20q0 -51 21.5 -86.5t62 -54t96.5 -18.5zM499 -195q-30 0 -58.5 10t-47 32.5t-18.5 59.5q0 35 16.5 60.5t39.5 44.5h85v-4q-18 -12 -32.5 -31.5t-14.5 -42.5q0 -22 15.5 -39t47.5 -17h69v-59q-22 -7 -50.5 -10.5t-51.5 -3.5z" />
    <glyph glyph-name="Aringacute" unicode="&#x1fa;" horiz-adv-x="908" 
d="M24 0l344 687h172l344 -687h-167l-65 133h-407l-65 -133h-156zM305 256h287l-80 168q-5 11 -14.5 32.5t-19 44t-17 39t-8.5 17.5h-8q-9 -20 -20.5 -46t-22 -50t-17.5 -38zM453 719q-46 0 -76 29.5t-30 74.5q0 46 30 75.5t76 29.5q47 0 77 -29.5t30 -75.5q0 -45 -30 -74.5
t-77 -29.5zM453 773q23 0 38 14t15 36q0 23 -15 37t-38 14q-22 0 -37 -14t-15 -36q0 -23 15 -37t37 -14zM361 967l116 133h160v-5l-160 -128h-116z" />
    <glyph glyph-name="aringacute" unicode="&#x1fb;" horiz-adv-x="739" 
d="M270 -12q-47 0 -87.5 7.5t-71 25t-47.5 47.5t-17 75q0 64 35 100t99 52t149.5 20t185.5 4v22q0 34 -16.5 54t-51 28.5t-90.5 8.5q-45 0 -79 -6t-53 -18t-19 -30v-12h-138q-1 4 -1.5 8t-0.5 9q0 47 34 82t101 54.5t167 19.5q93 0 156.5 -17t96 -56t32.5 -105v-227
q0 -19 7.5 -29t26.5 -10h51v-90q-10 -4 -36.5 -10.5t-58.5 -6.5q-44 0 -68.5 11t-35 30t-14.5 42h-8q-28 -26 -67 -45t-85 -28.5t-96 -9.5zM304 95q32 0 68.5 7t69.5 20.5t53.5 34t20.5 47.5v27q-112 0 -185.5 -7.5t-109.5 -25.5t-36 -51q0 -22 17.5 -33t45 -15t56.5 -4z
M362 567q-45 0 -76.5 31.5t-31.5 76.5t31.5 77t76.5 32t77 -32t32 -77t-32 -76.5t-77 -31.5zM362 621q23 0 39 16t16 38q0 23 -16 39t-39 16q-22 0 -38 -16t-16 -39q0 -22 16 -38t38 -16zM255 819l116 133h160v-5l-160 -128h-116z" />
    <glyph glyph-name="AEacute" unicode="&#x1fc;" horiz-adv-x="1283" 
d="M0 0l441 687h768v-127h-556l52 -147h444v-127h-399l57 -159h410v-127h-522l-46 133h-407l-84 -133h-158zM323 260h282l-56 164q-4 11 -10 31t-12.5 41t-11.5 36.5t-6 16.5h-8q-8 -14 -18.5 -31.5t-21 -35.5t-20 -33.5t-15.5 -25.5zM594 744l116 133h160v-5l-160 -128
h-116z" />
    <glyph glyph-name="aeacute" unicode="&#x1fd;" horiz-adv-x="1205" 
d="M290 -12q-51 0 -95.5 7t-77.5 24t-51.5 45t-18.5 70q0 67 35 105t99 55t149.5 21t185.5 4v22q0 34 -16.5 54t-51 28.5t-90.5 8.5q-45 0 -79 -6t-53 -18t-19 -30v-12h-138q-1 4 -1.5 8t-0.5 9q0 47 34 82t101 54.5t167 19.5q84 0 144.5 -18t94.5 -59q41 38 98.5 57.5
t128.5 19.5q105 0 176.5 -30.5t107.5 -89t36 -142.5v-48h-499q3 -49 26.5 -78.5t65 -42.5t96.5 -13q22 0 49.5 5t53 15t43.5 26.5t21 40.5h140q0 -40 -20.5 -75.5t-60.5 -62t-98 -41.5t-132 -15q-86 0 -151.5 22.5t-107.5 68.5q-33 -29 -79 -49.5t-100 -31t-112 -10.5z
M304 95q32 0 68.5 7t69.5 20.5t53.5 34t20.5 47.5v27q-112 0 -185.5 -7.5t-109.5 -25.5t-36 -51q0 -22 17.5 -33t45 -15t56.5 -4zM656 321h353q0 29 -13.5 50t-37.5 34.5t-55 20t-66 6.5q-51 0 -90.5 -12.5t-62.5 -37.5t-28 -61zM495 591l116 133h160v-5l-160 -128h-116z
" />
    <glyph glyph-name="Oslashacute" unicode="&#x1fe;" horiz-adv-x="1018" 
d="M509 -12q-137 0 -236 41.5t-152.5 121t-53.5 193.5t53.5 193t152.5 120.5t236 41.5t236 -41.5t152.5 -120.5t53.5 -193t-53.5 -193.5t-152.5 -121t-236 -41.5zM509 115q62 0 114 14t90.5 41t60 68t21.5 95v23q0 54 -21.5 94.5t-60 67.5t-90.5 40.5t-114 13.5t-114 -13.5
t-90.5 -40.5t-59.5 -67.5t-21 -94.5v-23q0 -54 21 -95t59.5 -68t90.5 -41t114 -14zM86 -43l729 773h117l-730 -773h-116zM416 744l116 133h160v-5l-160 -128h-116z" />
    <glyph glyph-name="oslashacute" unicode="&#x1ff;" horiz-adv-x="746" 
d="M373 -12q-101 0 -173.5 31t-111 92.5t-38.5 152.5q0 92 38.5 153t111 91.5t173.5 30.5t173.5 -30.5t111 -91.5t38.5 -153q0 -91 -38.5 -152.5t-111 -92.5t-173.5 -31zM373 95q56 0 96.5 18.5t62 54t21.5 86.5v20q0 52 -21.5 87t-62 53t-96.5 18t-96.5 -18t-62 -53
t-21.5 -87v-20q0 -51 21.5 -86.5t62 -54t96.5 -18.5zM49 -42l559 612h89l-557 -612h-91zM265 591l116 133h160v-5l-160 -128h-116z" />
    <glyph glyph-name="uni0200" unicode="&#x200;" horiz-adv-x="908" 
d="M24 0l344 687h172l344 -687h-167l-65 133h-407l-65 -133h-156zM305 256h287l-80 168q-5 11 -14.5 32.5t-19 44t-17 39t-8.5 17.5h-8q-9 -20 -20.5 -46t-22 -50t-17.5 -38zM535 744l-127 126v7h148l78 -133h-99zM303 744l-127 126v7h148l78 -133h-99z" />
    <glyph glyph-name="uni0201" unicode="&#x201;" horiz-adv-x="739" 
d="M270 -12q-47 0 -87.5 7.5t-71 25t-47.5 47.5t-17 75q0 64 35 100t99 52t149.5 20t185.5 4v22q0 34 -16.5 54t-51 28.5t-90.5 8.5q-45 0 -79 -6t-53 -18t-19 -30v-12h-138q-1 4 -1.5 8t-0.5 9q0 47 34 82t101 54.5t167 19.5q93 0 156.5 -17t96 -56t32.5 -105v-227
q0 -19 7.5 -29t26.5 -10h51v-90q-10 -4 -36.5 -10.5t-58.5 -6.5q-44 0 -68.5 11t-35 30t-14.5 42h-8q-28 -26 -67 -45t-85 -28.5t-96 -9.5zM304 95q32 0 68.5 7t69.5 20.5t53.5 34t20.5 47.5v27q-112 0 -185.5 -7.5t-109.5 -25.5t-36 -51q0 -22 17.5 -33t45 -15t56.5 -4z
M433 592l-127 126v7h148l78 -133h-99zM201 592l-127 126v7h148l78 -133h-99z" />
    <glyph glyph-name="uni0202" unicode="&#x202;" horiz-adv-x="908" 
d="M24 0l344 687h172l344 -687h-167l-65 133h-407l-65 -133h-156zM305 256h287l-80 168q-5 11 -14.5 32.5t-19 44t-17 39t-8.5 17.5h-8q-9 -20 -20.5 -46t-22 -50t-17.5 -38zM255 744q0 30 20.5 60t64.5 50t113 20t113 -20t65 -50t21 -60h-82q-2 11 -15 23t-37.5 21t-64.5 9
q-35 0 -60 -8t-39 -20t-17 -25h-82z" />
    <glyph glyph-name="uni0203" unicode="&#x203;" horiz-adv-x="739" 
d="M270 -12q-47 0 -87.5 7.5t-71 25t-47.5 47.5t-17 75q0 64 35 100t99 52t149.5 20t185.5 4v22q0 34 -16.5 54t-51 28.5t-90.5 8.5q-45 0 -79 -6t-53 -18t-19 -30v-12h-138q-1 4 -1.5 8t-0.5 9q0 47 34 82t101 54.5t167 19.5q93 0 156.5 -17t96 -56t32.5 -105v-227
q0 -19 7.5 -29t26.5 -10h51v-90q-10 -4 -36.5 -10.5t-58.5 -6.5q-44 0 -68.5 11t-35 30t-14.5 42h-8q-28 -26 -67 -45t-85 -28.5t-96 -9.5zM304 95q32 0 68.5 7t69.5 20.5t53.5 34t20.5 47.5v27q-112 0 -185.5 -7.5t-109.5 -25.5t-36 -51q0 -22 17.5 -33t45 -15t56.5 -4z
M363 722q69 0 113 -20t65 -50t21 -60h-82q-2 11 -15 23t-37.5 21t-64.5 9q-35 0 -60 -8t-39 -20t-17 -25h-82q0 30 20.5 60t64.5 50t113 20z" />
    <glyph glyph-name="uni0204" unicode="&#x204;" horiz-adv-x="866" 
d="M97 0v687h695v-127h-543v-147h483v-127h-483v-159h551v-127h-703zM529 744l-127 126v7h148l78 -133h-99zM297 744l-127 126v7h148l78 -133h-99z" />
    <glyph glyph-name="uni0205" unicode="&#x205;" horiz-adv-x="744" 
d="M379 -12q-102 0 -175.5 29.5t-113.5 90.5t-40 155q0 92 39 153.5t112 92t173 30.5q105 0 176.5 -30.5t107.5 -89t36 -142.5v-48h-499q3 -49 26.5 -78.5t65 -42.5t96.5 -13q22 0 49.5 5t53 15t43.5 26.5t21 40.5h140q0 -40 -20.5 -75.5t-60.5 -62t-98 -41.5t-132 -15z
M195 321h353q0 29 -13.5 50t-37.5 34.5t-55 20t-66 6.5q-51 0 -90.5 -12.5t-62.5 -37.5t-28 -61zM442 592l-127 126v7h148l78 -133h-99zM210 592l-127 126v7h148l78 -133h-99z" />
    <glyph glyph-name="uni0206" unicode="&#x206;" horiz-adv-x="866" 
d="M97 0v687h695v-127h-543v-147h483v-127h-483v-159h551v-127h-703zM249 744q0 30 20.5 60t64.5 50t113 20t113 -20t65 -50t21 -60h-82q-2 11 -15 23t-37.5 21t-64.5 9q-35 0 -60 -8t-39 -20t-17 -25h-82z" />
    <glyph glyph-name="uni0207" unicode="&#x207;" horiz-adv-x="744" 
d="M379 -12q-102 0 -175.5 29.5t-113.5 90.5t-40 155q0 92 39 153.5t112 92t173 30.5q105 0 176.5 -30.5t107.5 -89t36 -142.5v-48h-499q3 -49 26.5 -78.5t65 -42.5t96.5 -13q22 0 49.5 5t53 15t43.5 26.5t21 40.5h140q0 -40 -20.5 -75.5t-60.5 -62t-98 -41.5t-132 -15z
M195 321h353q0 29 -13.5 50t-37.5 34.5t-55 20t-66 6.5q-51 0 -90.5 -12.5t-62.5 -37.5t-28 -61zM372 722q69 0 113 -20t65 -50t21 -60h-82q-2 11 -15 23t-37.5 21t-64.5 9q-35 0 -60 -8t-39 -20t-17 -25h-82q0 30 20.5 60t64.5 50t113 20z" />
    <glyph glyph-name="uni0208" unicode="&#x208;" horiz-adv-x="346" 
d="M97 0v687h152v-687h-152zM254 744l-127 126v7h148l78 -133h-99zM22 744l-127 126v7h148l78 -133h-99z" />
    <glyph glyph-name="uni0209" unicode="&#x209;" horiz-adv-x="280" 
d="M71 0v527h138v-527h-138zM210 592l-127 126v7h148l78 -133h-99zM-22 592l-127 126v7h148l78 -133h-99z" />
    <glyph glyph-name="uni020A" unicode="&#x20a;" horiz-adv-x="346" 
d="M97 0v687h152v-687h-152zM-26 744q0 30 20.5 60t64.5 50t113 20t113 -20t65 -50t21 -60h-82q-2 11 -15 23t-37.5 21t-64.5 9q-35 0 -60 -8t-39 -20t-17 -25h-82z" />
    <glyph glyph-name="uni020B" unicode="&#x20b;" horiz-adv-x="280" 
d="M71 0v527h138v-527h-138zM140 722q69 0 113 -20t65 -50t21 -60h-82q-2 11 -15 23t-37.5 21t-64.5 9q-35 0 -60 -8t-39 -20t-17 -25h-82q0 30 20.5 60t64.5 50t113 20z" />
    <glyph glyph-name="uni020C" unicode="&#x20c;" horiz-adv-x="1018" 
d="M509 -12q-137 0 -236 41.5t-152.5 121t-53.5 193.5t53.5 193t152.5 120.5t236 41.5t236 -41.5t152.5 -120.5t53.5 -193t-53.5 -193.5t-152.5 -121t-236 -41.5zM509 115q62 0 114 14t90.5 41t60 68t21.5 95v23q0 54 -21.5 94.5t-60 67.5t-90.5 40.5t-114 13.5t-114 -13.5
t-90.5 -40.5t-59.5 -67.5t-21 -94.5v-23q0 -54 21 -95t59.5 -68t90.5 -41t114 -14zM590 744l-127 126v7h148l78 -133h-99zM358 744l-127 126v7h148l78 -133h-99z" />
    <glyph glyph-name="uni020D" unicode="&#x20d;" horiz-adv-x="746" 
d="M373 -12q-101 0 -173.5 31t-111 92.5t-38.5 152.5q0 92 38.5 153t111 91.5t173.5 30.5t173.5 -30.5t111 -91.5t38.5 -153q0 -91 -38.5 -152.5t-111 -92.5t-173.5 -31zM373 95q56 0 96.5 18.5t62 54t21.5 86.5v20q0 52 -21.5 87t-62 53t-96.5 18t-96.5 -18t-62 -53
t-21.5 -87v-20q0 -51 21.5 -86.5t62 -54t96.5 -18.5zM443 592l-127 126v7h148l78 -133h-99zM211 592l-127 126v7h148l78 -133h-99z" />
    <glyph glyph-name="uni020E" unicode="&#x20e;" horiz-adv-x="1018" 
d="M509 -12q-137 0 -236 41.5t-152.5 121t-53.5 193.5t53.5 193t152.5 120.5t236 41.5t236 -41.5t152.5 -120.5t53.5 -193t-53.5 -193.5t-152.5 -121t-236 -41.5zM509 115q62 0 114 14t90.5 41t60 68t21.5 95v23q0 54 -21.5 94.5t-60 67.5t-90.5 40.5t-114 13.5t-114 -13.5
t-90.5 -40.5t-59.5 -67.5t-21 -94.5v-23q0 -54 21 -95t59.5 -68t90.5 -41t114 -14zM310 744q0 30 20.5 60t64.5 50t113 20t113 -20t65 -50t21 -60h-82q-2 11 -15 23t-37.5 21t-64.5 9q-35 0 -60 -8t-39 -20t-17 -25h-82z" />
    <glyph glyph-name="uni020F" unicode="&#x20f;" horiz-adv-x="746" 
d="M373 -12q-101 0 -173.5 31t-111 92.5t-38.5 152.5q0 92 38.5 153t111 91.5t173.5 30.5t173.5 -30.5t111 -91.5t38.5 -153q0 -91 -38.5 -152.5t-111 -92.5t-173.5 -31zM373 95q56 0 96.5 18.5t62 54t21.5 86.5v20q0 52 -21.5 87t-62 53t-96.5 18t-96.5 -18t-62 -53
t-21.5 -87v-20q0 -51 21.5 -86.5t62 -54t96.5 -18.5zM373 722q69 0 113 -20t65 -50t21 -60h-82q-2 11 -15 23t-37.5 21t-64.5 9q-35 0 -60 -8t-39 -20t-17 -25h-82q0 30 20.5 60t64.5 50t113 20z" />
    <glyph glyph-name="uni0210" unicode="&#x210;" horiz-adv-x="920" 
d="M97 0v687h544q73 0 119.5 -29.5t69.5 -78t23 -107.5q0 -61 -31.5 -114.5t-97.5 -83.5l146 -274h-171l-126 245h-324v-245h-152zM249 371h350q47 0 72.5 27.5t25.5 70.5q0 29 -11 49.5t-33 31t-54 10.5h-350v-189zM541 744l-127 126v7h148l78 -133h-99zM309 744l-127 126
v7h148l78 -133h-99z" />
    <glyph glyph-name="uni0211" unicode="&#x211;" horiz-adv-x="438" 
d="M71 0v527h111l10 -93h8q11 28 32 52t52.5 38.5t71.5 14.5q18 0 35.5 -2.5t31.5 -7.5v-121h-69q-40 0 -67.5 -13.5t-44.5 -36.5t-25 -50.5t-8 -56.5v-251h-138zM289 592l-127 126v7h148l78 -133h-99zM57 592l-127 126v7h148l78 -133h-99z" />
    <glyph glyph-name="uni0212" unicode="&#x212;" horiz-adv-x="920" 
d="M97 0v687h544q73 0 119.5 -29.5t69.5 -78t23 -107.5q0 -61 -31.5 -114.5t-97.5 -83.5l146 -274h-171l-126 245h-324v-245h-152zM249 371h350q47 0 72.5 27.5t25.5 70.5q0 29 -11 49.5t-33 31t-54 10.5h-350v-189zM261 744q0 30 20.5 60t64.5 50t113 20t113 -20t65 -50
t21 -60h-82q-2 11 -15 23t-37.5 21t-64.5 9q-35 0 -60 -8t-39 -20t-17 -25h-82z" />
    <glyph glyph-name="uni0213" unicode="&#x213;" horiz-adv-x="438" 
d="M71 0v527h111l10 -93h8q11 28 32 52t52.5 38.5t71.5 14.5q18 0 35.5 -2.5t31.5 -7.5v-121h-69q-40 0 -67.5 -13.5t-44.5 -36.5t-25 -50.5t-8 -56.5v-251h-138zM219 722q69 0 113 -20t65 -50t21 -60h-82q-2 11 -15 23t-37.5 21t-64.5 9q-35 0 -60 -8t-39 -20t-17 -25h-82
q0 30 20.5 60t64.5 50t113 20z" />
    <glyph glyph-name="uni0214" unicode="&#x214;" horiz-adv-x="944" 
d="M472 -12q-129 0 -213.5 40t-126 113.5t-41.5 173.5v372h152v-365q0 -99 59.5 -153t169.5 -54t169.5 54t59.5 153v365h152v-372q0 -100 -41.5 -173.5t-125.5 -113.5t-214 -40zM553 744l-127 126v7h148l78 -133h-99zM321 744l-127 126v7h148l78 -133h-99z" />
    <glyph glyph-name="uni0215" unicode="&#x215;" horiz-adv-x="716" 
d="M290 -12q-110 0 -166.5 52t-56.5 161v326h138v-302q0 -34 9.5 -57.5t27 -37.5t42 -20t54.5 -6q44 0 82.5 18t62.5 50t24 75v280h138v-527h-111l-10 90h-9q-28 -39 -65.5 -61t-78.5 -31.5t-81 -9.5zM428 592l-127 126v7h148l78 -133h-99zM196 592l-127 126v7h148l78 -133
h-99z" />
    <glyph glyph-name="uni0216" unicode="&#x216;" horiz-adv-x="944" 
d="M472 -12q-129 0 -213.5 40t-126 113.5t-41.5 173.5v372h152v-365q0 -99 59.5 -153t169.5 -54t169.5 54t59.5 153v365h152v-372q0 -100 -41.5 -173.5t-125.5 -113.5t-214 -40zM273 744q0 30 20.5 60t64.5 50t113 20t113 -20t65 -50t21 -60h-82q-2 11 -15 23t-37.5 21
t-64.5 9q-35 0 -60 -8t-39 -20t-17 -25h-82z" />
    <glyph glyph-name="uni0217" unicode="&#x217;" horiz-adv-x="716" 
d="M290 -12q-110 0 -166.5 52t-56.5 161v326h138v-302q0 -34 9.5 -57.5t27 -37.5t42 -20t54.5 -6q44 0 82.5 18t62.5 50t24 75v280h138v-527h-111l-10 90h-9q-28 -39 -65.5 -61t-78.5 -31.5t-81 -9.5zM358 722q69 0 113 -20t65 -50t21 -60h-82q-2 11 -15 23t-37.5 21
t-64.5 9q-35 0 -60 -8t-39 -20t-17 -25h-82q0 30 20.5 60t64.5 50t113 20z" />
    <glyph glyph-name="uni0218" unicode="&#x218;" horiz-adv-x="850" 
d="M432 -12q-78 0 -146 9.5t-119 34t-79.5 68.5t-28.5 113v5t1 5h150q-1 -4 -1.5 -9.5t-0.5 -12.5q0 -31 27 -50.5t77 -28.5t117 -9q29 0 58.5 2.5t56.5 7.5t48.5 14t34 22.5t12.5 31.5q0 26 -23.5 41.5t-63.5 25.5t-90 17t-103.5 15.5t-103.5 23t-90 37.5t-63.5 59.5
t-23.5 89.5q0 48 23 85t68 62.5t110.5 38.5t150.5 13q86 0 150 -14t106 -40t62.5 -62.5t20.5 -81.5v-16h-148v13q0 22 -24 39t-65 27t-93 10q-72 0 -117 -9t-66 -24.5t-21 -34.5q0 -23 23.5 -37t63.5 -22.5t90 -15.5t103.5 -16t103.5 -23t90 -37.5t63.5 -59t23.5 -87.5
q0 -80 -46 -128.5t-128 -70t-190 -21.5zM340 -384v68q38 5 57.5 29t19.5 64h-68v146h152v-128q0 -56 -17 -94t-52.5 -58.5t-91.5 -26.5z" />
    <glyph glyph-name="uni0219" unicode="&#x219;" horiz-adv-x="666" 
d="M331 -12q-58 0 -111 9.5t-93.5 28.5t-64 49.5t-23.5 72.5q0 5 0.5 9t1.5 8h141q0 -1 -0.5 -4t-0.5 -5q0 -25 21.5 -40t56 -21.5t73.5 -6.5t74.5 4.5t57.5 17t22 37.5q0 26 -24 37.5t-69.5 18t-110.5 15.5q-48 7 -88.5 18t-71 28.5t-47 45t-16.5 67.5q0 43 19.5 73.5
t56 50t88.5 29t117 9.5q58 0 106.5 -9.5t84.5 -28.5t56.5 -47t20.5 -64v-7.5t-1 -7.5h-141v4q0 22 -18 35t-46.5 19t-62.5 6q-12 0 -35.5 -1t-48 -5.5t-41.5 -14t-17 -27.5q0 -22 25 -33t65.5 -16.5t87.5 -12.5q51 -7 96.5 -16t79.5 -26t53.5 -46.5t19.5 -77.5
q0 -49 -19.5 -82.5t-57 -54t-92 -29.5t-124.5 -9zM261 -346v62q34 4 51.5 26t17.5 57h-61v132h137v-115q0 -51 -15.5 -85t-47.5 -53t-82 -24z" />
    <glyph glyph-name="uni021A" unicode="&#x21a;" horiz-adv-x="814" 
d="M331 0v553h-305v134h762v-134h-305v-553h-152zM322 -384v68q38 5 57.5 29t19.5 64h-68v146h152v-128q0 -56 -17 -94t-52.5 -58.5t-91.5 -26.5z" />
    <glyph glyph-name="uni021B" unicode="&#x21b;" horiz-adv-x="449" 
d="M287 -12q-58 0 -94 16t-52.5 53.5t-16.5 102.5v260h-101v107h105l28 154h106v-154h143v-107h-143v-250q0 -37 13.5 -56t60.5 -19h69v-90q-14 -5 -35.5 -9t-43.5 -6t-39 -2zM184 -346v62q34 4 51.5 26t17.5 57h-61v132h137v-115q0 -51 -15.5 -85t-47.5 -53t-82 -24z" />
    <glyph glyph-name="uni022A" unicode="&#x22a;" horiz-adv-x="1018" 
d="M509 -12q-137 0 -236 41.5t-152.5 121t-53.5 193.5t53.5 193t152.5 120.5t236 41.5t236 -41.5t152.5 -120.5t53.5 -193t-53.5 -193.5t-152.5 -121t-236 -41.5zM509 115q62 0 114 14t90.5 41t60 68t21.5 95v23q0 54 -21.5 94.5t-60 67.5t-90.5 40.5t-114 13.5t-114 -13.5
t-90.5 -40.5t-59.5 -67.5t-21 -94.5v-23q0 -54 21 -95t59.5 -68t90.5 -41t114 -14zM317 759v117h130v-117h-130zM570 759v117h131v-117h-131zM317 934v77h383v-77h-383z" />
    <glyph glyph-name="uni022B" unicode="&#x22b;" horiz-adv-x="746" 
d="M373 -12q-101 0 -173.5 31t-111 92.5t-38.5 152.5q0 92 38.5 153t111 91.5t173.5 30.5t173.5 -30.5t111 -91.5t38.5 -153q0 -91 -38.5 -152.5t-111 -92.5t-173.5 -31zM373 95q56 0 96.5 18.5t62 54t21.5 86.5v20q0 52 -21.5 87t-62 53t-96.5 18t-96.5 -18t-62 -53
t-21.5 -87v-20q0 -51 21.5 -86.5t62 -54t96.5 -18.5zM181 604v117h130v-117h-130zM434 604v117h131v-117h-131zM181 796v77h383v-77h-383z" />
    <glyph glyph-name="uni022C" unicode="&#x22c;" horiz-adv-x="1018" 
d="M509 -12q-137 0 -236 41.5t-152.5 121t-53.5 193.5t53.5 193t152.5 120.5t236 41.5t236 -41.5t152.5 -120.5t53.5 -193t-53.5 -193.5t-152.5 -121t-236 -41.5zM509 115q62 0 114 14t90.5 41t60 68t21.5 95v23q0 54 -21.5 94.5t-60 67.5t-90.5 40.5t-114 13.5t-114 -13.5
t-90.5 -40.5t-59.5 -67.5t-21 -94.5v-23q0 -54 21 -95t59.5 -68t90.5 -41t114 -14zM281 745q2 28 17.5 56.5t45 47.5t72.5 19q36 0 70 -10t66.5 -20.5t62.5 -10.5q23 0 35 12.5t16 28.5h72q-1 -28 -18 -57t-47 -48t-72 -19q-34 0 -68.5 10.5t-67 20.5t-61.5 10
q-24 0 -36.5 -12.5t-17.5 -27.5h-69zM317 924v77h383v-77h-383z" />
    <glyph glyph-name="uni022D" unicode="&#x22d;" horiz-adv-x="746" 
d="M373 -12q-101 0 -173.5 31t-111 92.5t-38.5 152.5q0 92 38.5 153t111 91.5t173.5 30.5t173.5 -30.5t111 -91.5t38.5 -153q0 -91 -38.5 -152.5t-111 -92.5t-173.5 -31zM373 95q56 0 96.5 18.5t62 54t21.5 86.5v20q0 52 -21.5 87t-62 53t-96.5 18t-96.5 -18t-62 -53
t-21.5 -87v-20q0 -51 21.5 -86.5t62 -54t96.5 -18.5zM144 601q2 28 17.5 56.5t45 47.5t72.5 19q36 0 70 -10t66.5 -20.5t62.5 -10.5q23 0 35 12.5t16 28.5h72q-1 -28 -18 -57t-47 -48t-72 -19q-34 0 -68.5 10.5t-67 20.5t-61.5 10q-24 0 -36.5 -12.5t-17.5 -27.5h-69z
M181 786v77h383v-77h-383z" />
    <glyph glyph-name="uni0230" unicode="&#x230;" horiz-adv-x="1018" 
d="M509 -12q-137 0 -236 41.5t-152.5 121t-53.5 193.5t53.5 193t152.5 120.5t236 41.5t236 -41.5t152.5 -120.5t53.5 -193t-53.5 -193.5t-152.5 -121t-236 -41.5zM509 115q62 0 114 14t90.5 41t60 68t21.5 95v23q0 54 -21.5 94.5t-60 67.5t-90.5 40.5t-114 13.5t-114 -13.5
t-90.5 -40.5t-59.5 -67.5t-21 -94.5v-23q0 -54 21 -95t59.5 -68t90.5 -41t114 -14zM444 759v117h130v-117h-130zM317 934v77h383v-77h-383z" />
    <glyph glyph-name="uni0231" unicode="&#x231;" horiz-adv-x="746" 
d="M373 -12q-101 0 -173.5 31t-111 92.5t-38.5 152.5q0 92 38.5 153t111 91.5t173.5 30.5t173.5 -30.5t111 -91.5t38.5 -153q0 -91 -38.5 -152.5t-111 -92.5t-173.5 -31zM373 95q56 0 96.5 18.5t62 54t21.5 86.5v20q0 52 -21.5 87t-62 53t-96.5 18t-96.5 -18t-62 -53
t-21.5 -87v-20q0 -51 21.5 -86.5t62 -54t96.5 -18.5zM308 604v116h130v-116h-130zM181 796v77h383v-77h-383z" />
    <glyph glyph-name="uni0232" unicode="&#x232;" horiz-adv-x="861" 
d="M354 0v278l-336 409h183l228 -287h10l231 287h173l-337 -409v-278h-152zM239 761v77h383v-77h-383z" />
    <glyph glyph-name="uni0233" unicode="&#x233;" horiz-adv-x="653" 
d="M140 -198q-28 0 -51 4.5t-43 12.5v90h69q46 0 73 10.5t43.5 30.5t31.5 50l-258 527h151l114 -255q9 -18 20.5 -44.5t23.5 -53.5t21 -47h8l5.5 15.5t15 39t19.5 48.5l18 45l102 252h145l-214 -477q-27 -59 -52.5 -105t-57.5 -78t-76.5 -48.5t-107.5 -16.5zM135 623v77h383
v-77h-383z" />
    <glyph glyph-name="uni0237" unicode="&#x237;" horiz-adv-x="278" 
d="M43 -199q-16 0 -34 2t-35 6t-31 9v90h53q36 0 55.5 19t19.5 53v547h138v-550q0 -53 -15 -93t-51 -61.5t-100 -21.5z" />
    <glyph glyph-name="uni0259" unicode="&#x259;" horiz-adv-x="745" 
d="M370 -12q-105 0 -176 30.5t-107.5 89.5t-36.5 142v48h499q-2 50 -26 79t-65 42t-97 13q-22 0 -49.5 -5t-53 -15t-43.5 -26.5t-21 -40.5h-140q0 41 20.5 76t60.5 61.5t98 41.5t132 15q102 0 176 -29.5t113.5 -90.5t39.5 -155q0 -92 -39 -153.5t-111.5 -92t-173.5 -30.5z
M368 95q52 0 91 13t62.5 37.5t27.5 60.5h-353q0 -29 13.5 -50t37.5 -34.5t55 -20t66 -6.5z" />
    <glyph glyph-name="uni0272" unicode="&#x272;" horiz-adv-x="716" 
d="M27 -198q-13 0 -28.5 2t-30 5t-25.5 6v93h53q36 0 55.5 19t19.5 53v547h111l10 -90h9q29 39 66 61t78.5 31.5t80.5 9.5q74 0 123.5 -23t74.5 -70t25 -120v-326h-138v302q0 34 -9.5 57.5t-27 37.5t-42 20t-54.5 6q-44 0 -82.5 -18t-62.5 -50t-24 -75v-277q0 -44 -5 -81
t-23 -64t-54.5 -41.5t-99.5 -14.5z" />
    <glyph glyph-name="uni02B9" unicode="&#x2b9;" horiz-adv-x="244" 
d="M0 527l95 197h148l1 -3l-130 -194h-114z" />
    <glyph glyph-name="uni02BA" unicode="&#x2ba;" horiz-adv-x="440" 
d="M0 527l95 197h148l1 -3l-130 -194h-114zM196 527l95 197h148l1 -3l-130 -194h-114z" />
    <glyph glyph-name="uni02BC" unicode="&#x2bc;" horiz-adv-x="145" 
d="M0 522v59q34 2 51.5 20.5t17.5 46.5h-62v132h138v-98q0 -53 -16 -87.5t-48 -52.5t-81 -20z" />
    <glyph glyph-name="circumflex" unicode="&#x2c6;" horiz-adv-x="414" 
d="M0 583l154 141h105l155 -141h-115l-127 115h66l-127 -115h-111z" />
    <glyph glyph-name="caron" unicode="&#x2c7;" horiz-adv-x="414" 
d="M0 724h111l127 -115h-66l127 115h115l-155 -141h-105z" />
    <glyph glyph-name="uni02C9" unicode="&#x2c9;" horiz-adv-x="578" 
d="M0 576v111h578v-111h-578z" />
    <glyph glyph-name="breve" unicode="&#x2d8;" horiz-adv-x="397" 
d="M198 594q-69 0 -113 20t-64.5 50t-20.5 60h82q3 -13 17 -25t39 -20t60 -8q40 0 64.5 9t37.5 21.5t15 22.5h82q0 -30 -21 -60t-65 -50t-113 -20z" />
    <glyph glyph-name="dotaccent" unicode="&#x2d9;" horiz-adv-x="130" 
d="M0 604v116h130v-116h-130z" />
    <glyph glyph-name="ring" unicode="&#x2da;" horiz-adv-x="217" 
d="M108 567q-45 0 -76.5 31.5t-31.5 76.5t31.5 77t76.5 32t77 -32t32 -77t-32 -76.5t-77 -31.5zM108 621q23 0 39 16t16 38q0 23 -16 39t-39 16q-22 0 -38 -16t-16 -39q0 -22 16 -38t38 -16z" />
    <glyph glyph-name="ogonek" unicode="&#x2db;" horiz-adv-x="226" 
d="M124 -195q-30 0 -58.5 10t-47 32.5t-18.5 59.5q0 35 16.5 60.5t39.5 44.5h85v-4q-18 -12 -32.5 -31.5t-14.5 -42.5q0 -22 15.5 -39t47.5 -17h69v-59q-22 -7 -50.5 -10.5t-51.5 -3.5z" />
    <glyph glyph-name="tilde" unicode="&#x2dc;" horiz-adv-x="457" 
d="M0 601q2 28 17.5 56.5t45 47.5t72.5 19q36 0 70 -10t66.5 -20.5t62.5 -10.5q23 0 35 12.5t16 28.5h72q-1 -28 -18 -57t-47 -48t-72 -19q-34 0 -68.5 10.5t-67 20.5t-61.5 10q-24 0 -36.5 -12.5t-17.5 -27.5h-69z" />
    <glyph glyph-name="hungarumlaut" unicode="&#x2dd;" horiz-adv-x="458" 
d="M0 592l78 133h148v-7l-127 -126h-99zM232 592l78 133h148v-7l-127 -126h-99z" />
    <glyph glyph-name="gravecomb" unicode="&#x300;" 
d="M276 591h-116l-160 128v5h160z" />
    <glyph glyph-name="acutecomb" unicode="&#x301;" 
d="M0 591l116 133h160v-5l-160 -128h-116z" />
    <glyph glyph-name="uni0302" unicode="&#x302;" 
d="M0 583l154 141h105l155 -141h-115l-127 115h66l-127 -115h-111z" />
    <glyph glyph-name="tildecomb" unicode="&#x303;" 
d="M0 601q2 28 17.5 56.5t45 47.5t72.5 19q36 0 70 -10t66.5 -20.5t62.5 -10.5q23 0 35 12.5t16 28.5h72q-1 -28 -18 -57t-47 -48t-72 -19q-34 0 -68.5 10.5t-67 20.5t-61.5 10q-24 0 -36.5 -12.5t-17.5 -27.5h-69z" />
    <glyph glyph-name="uni0304" unicode="&#x304;" 
d="M0 623v77h383v-77h-383z" />
    <glyph glyph-name="uni0306" unicode="&#x306;" 
d="M198 594q-69 0 -113 20t-64.5 50t-20.5 60h82q3 -13 17 -25t39 -20t60 -8q40 0 64.5 9t37.5 21.5t15 22.5h82q0 -30 -21 -60t-65 -50t-113 -20z" />
    <glyph glyph-name="uni0307" unicode="&#x307;" 
d="M0 604v116h130v-116h-130z" />
    <glyph glyph-name="uni0308" unicode="&#x308;" 
d="M0 604v117h130v-117h-130zM253 604v117h131v-117h-131z" />
    <glyph glyph-name="hookabovecomb" unicode="&#x309;" 
d="M70 591v59h7q30 0 39 3t9 11q0 13 -11 15.5t-32 2.5h-82v48q13 3 33 5t41 3t33 1q20 0 42.5 -3t42 -10.5t32 -20t12.5 -32.5q0 -18 -12.5 -30.5t-32.5 -18.5t-45 -7v-26h-76z" />
    <glyph glyph-name="uni030A" unicode="&#x30a;" 
d="M108 567q-45 0 -76.5 31.5t-31.5 76.5t31.5 77t76.5 32t77 -32t32 -77t-32 -76.5t-77 -31.5zM108 621q23 0 39 16t16 38q0 23 -16 39t-39 16q-22 0 -38 -16t-16 -39q0 -22 16 -38t38 -16z" />
    <glyph glyph-name="uni030B" unicode="&#x30b;" 
d="M0 592l78 133h148v-7l-127 -126h-99zM232 592l78 133h148v-7l-127 -126h-99z" />
    <glyph glyph-name="uni030C" unicode="&#x30c;" 
d="M0 724h111l127 -115h-66l127 115h115l-155 -141h-105z" />
    <glyph glyph-name="uni030F" unicode="&#x30f;" 
d="M359 592l-127 126v7h148l78 -133h-99zM127 592l-127 126v7h148l78 -133h-99z" />
    <glyph glyph-name="uni0311" unicode="&#x311;" 
d="M198 722q69 0 113 -20t65 -50t21 -60h-82q-2 11 -15 23t-37.5 21t-64.5 9q-35 0 -60 -8t-39 -20t-17 -25h-82q0 30 20.5 60t64.5 50t113 20z" />
    <glyph glyph-name="uni0312" unicode="&#x312;" 
d="M161 924v-68q-37 -5 -57 -29t-20 -64h68v-146h-152v128q0 56 17 94t53 59t91 26z" />
    <glyph glyph-name="uni0313" unicode="&#x313;" 
d="M0 471v68q38 5 57.5 29t19.5 64h-68v146h152v-128q0 -56 -17 -94t-52.5 -58.5t-91.5 -26.5z" />
    <glyph glyph-name="uni031B" unicode="&#x31b;" 
d="M0 429v58q77 0 122 23.5t45 63.5h-66v113h140v-88q0 -54 -29 -92t-83 -58t-129 -20z" />
    <glyph glyph-name="dotbelowcomb" unicode="&#x323;" 
d="M0 -196v116h130v-116h-130z" />
    <glyph glyph-name="uni0324" unicode="&#x324;" 
d="M0 -196v117h130v-117h-130zM253 -196v117h131v-117h-131z" />
    <glyph glyph-name="uni0326" unicode="&#x326;" 
d="M0 -384v68q38 5 57.5 29t19.5 64h-68v146h152v-128q0 -56 -17 -94t-52.5 -58.5t-91.5 -26.5z" />
    <glyph glyph-name="uni0327" unicode="&#x327;" 
d="M131 -195q-34 0 -70 3t-61 9v47h133q20 0 32 5t12 21q0 14 -9.5 19t-32.5 5h-68l23 114h78l-12 -62q30 -1 55 -8.5t40 -24t15 -46.5q0 -25 -12 -41.5t-32 -25t-44 -12t-47 -3.5z" />
    <glyph glyph-name="uni0328" unicode="&#x328;" 
d="M124 -195q-30 0 -58.5 10t-47 32.5t-18.5 59.5q0 35 16.5 60.5t39.5 44.5h85v-4q-18 -12 -32.5 -31.5t-14.5 -42.5q0 -22 15.5 -39t47.5 -17h69v-59q-22 -7 -50.5 -10.5t-51.5 -3.5z" />
    <glyph glyph-name="uni032E" unicode="&#x32e;" 
d="M198 -206q-69 0 -113 20t-64.5 50t-20.5 60h82q3 -13 17 -25t39 -20t60 -8q40 0 64.5 9t37.5 21.5t15 22.5h82q0 -30 -21 -60t-65 -50t-113 -20z" />
    <glyph glyph-name="uni0331" unicode="&#x331;" 
d="M0 -150v77h383v-77h-383z" />
    <glyph glyph-name="uni0335" unicode="&#x335;" 
d="M0 326v90h462v-90h-462z" />
    <glyph glyph-name="uni0336" unicode="&#x336;" 
d="M0 322v97h965v-97h-965z" />
    <glyph glyph-name="uni0337" unicode="&#x337;" 
d="M0 210v81l307 208v-83z" />
    <glyph glyph-name="uni0338" unicode="&#x338;" 
d="M0 -47l559 612h89l-557 -612h-91z" />
    <glyph glyph-name="uni0394" unicode="&#x394;" horiz-adv-x="860" 
d="M18 0l325 687h176l327 -687h-828zM210 121h433q-11 18 -28.5 50.5t-29.5 57.5l-114 239q-7 17 -15 35t-14.5 35t-10.5 28h-8q-3 -9 -8 -21t-10.5 -26t-11 -27t-10.5 -24l-113 -239q-8 -18 -19.5 -38.5t-22 -39t-18.5 -30.5z" />
    <glyph glyph-name="uni03A9" unicode="&#x3a9;" horiz-adv-x="986" 
d="M61 0v127h42q17 -2 38 -4.5t43.5 -4.5t41.5 -4q-73 41 -112.5 106t-39.5 153q0 105 50.5 177.5t144.5 110.5t224 38t224 -38t144.5 -110.5t50.5 -177.5q0 -88 -39.5 -153t-112.5 -106q20 3 43 5t44 4t36 4h42v-127h-378v111q63 9 110 35.5t72.5 72t25.5 109.5v22
q0 74 -33 123t-92 74t-137 25t-137 -25t-92 -74t-33 -123v-22q0 -64 26 -109.5t73 -72t109 -35.5v-111h-378z" />
    <glyph glyph-name="uni03BC" unicode="&#x3bc;" horiz-adv-x="720" 
d="M71 -187v714h138v-302q0 -34 9.5 -57.5t27 -37.5t42 -20t54.5 -6q44 0 82.5 18t62.5 50t24 75v280h138v-527h-111l-10 90h-9q-26 -38 -61.5 -60.5t-74 -32t-75.5 -9.5q-29 0 -55.5 6.5t-48.5 19.5q2 -13 3.5 -34t1.5 -39v-128h-138z" />
    <glyph glyph-name="pi" unicode="&#x3c0;" horiz-adv-x="816" 
d="M102 0q17 39 32.5 92t27.5 111.5t19.5 114t7.5 98.5q-49 0 -84.5 -2.5t-58.5 -8.5l-18 89q23 16 77 24.5t142 8.5h542l-14 -111h-109v-255q0 -58 5 -97.5t14 -63.5h-133q-12 14 -17.5 54.5t-5.5 96.5v265h-202q-3 -53 -10.5 -113t-19 -117.5t-26.5 -106t-32 -79.5h-137z
" />
    <glyph glyph-name="uni1E24" unicode="&#x1e24;" horiz-adv-x="965" 
d="M97 0v687h152v-270h467v270h152v-687h-152v283h-467v-283h-152zM418 -196v116h130v-116h-130z" />
    <glyph glyph-name="uni1E25" unicode="&#x1e25;" horiz-adv-x="716" 
d="M71 0v724h138v-270h7q28 33 63 51.5t73 26t74 7.5q74 0 123.5 -23t74.5 -70t25 -120v-326h-138v302q0 34 -9.5 57.5t-27 37.5t-42 20t-54.5 6q-44 0 -82.5 -18t-62.5 -50t-24 -75v-280h-138zM293 -196v116h130v-116h-130z" />
    <glyph glyph-name="uni1E62" unicode="&#x1e62;" horiz-adv-x="850" 
d="M432 -12q-78 0 -146 9.5t-119 34t-79.5 68.5t-28.5 113v5t1 5h150q-1 -4 -1.5 -9.5t-0.5 -12.5q0 -31 27 -50.5t77 -28.5t117 -9q29 0 58.5 2.5t56.5 7.5t48.5 14t34 22.5t12.5 31.5q0 26 -23.5 41.5t-63.5 25.5t-90 17t-103.5 15.5t-103.5 23t-90 37.5t-63.5 59.5
t-23.5 89.5q0 48 23 85t68 62.5t110.5 38.5t150.5 13q86 0 150 -14t106 -40t62.5 -62.5t20.5 -81.5v-16h-148v13q0 22 -24 39t-65 27t-93 10q-72 0 -117 -9t-66 -24.5t-21 -34.5q0 -23 23.5 -37t63.5 -22.5t90 -15.5t103.5 -16t103.5 -23t90 -37.5t63.5 -59t23.5 -87.5
q0 -80 -46 -128.5t-128 -70t-190 -21.5zM360 -196v116h130v-116h-130z" />
    <glyph glyph-name="uni1E63" unicode="&#x1e63;" horiz-adv-x="666" 
d="M331 -12q-58 0 -111 9.5t-93.5 28.5t-64 49.5t-23.5 72.5q0 5 0.5 9t1.5 8h141q0 -1 -0.5 -4t-0.5 -5q0 -25 21.5 -40t56 -21.5t73.5 -6.5t74.5 4.5t57.5 17t22 37.5q0 26 -24 37.5t-69.5 18t-110.5 15.5q-48 7 -88.5 18t-71 28.5t-47 45t-16.5 67.5q0 43 19.5 73.5
t56 50t88.5 29t117 9.5q58 0 106.5 -9.5t84.5 -28.5t56.5 -47t20.5 -64v-7.5t-1 -7.5h-141v4q0 22 -18 35t-46.5 19t-62.5 6q-12 0 -35.5 -1t-48 -5.5t-41.5 -14t-17 -27.5q0 -22 25 -33t65.5 -16.5t87.5 -12.5q51 -7 96.5 -16t79.5 -26t53.5 -46.5t19.5 -77.5
q0 -49 -19.5 -82.5t-57 -54t-92 -29.5t-124.5 -9zM272 -196v116h130v-116h-130z" />
    <glyph glyph-name="uni1E6C" unicode="&#x1e6c;" horiz-adv-x="814" 
d="M331 0v553h-305v134h762v-134h-305v-553h-152zM342 -196v116h130v-116h-130z" />
    <glyph glyph-name="uni1E6D" unicode="&#x1e6d;" horiz-adv-x="449" 
d="M287 -12q-58 0 -94 16t-52.5 53.5t-16.5 102.5v260h-101v107h105l28 154h106v-154h143v-107h-143v-250q0 -37 13.5 -56t60.5 -19h69v-90q-14 -5 -35.5 -9t-43.5 -6t-39 -2zM195 -196v116h130v-116h-130z" />
    <glyph glyph-name="Wgrave" unicode="&#x1e80;" horiz-adv-x="1192" 
d="M245 0l-233 687h165l138 -442q4 -10 8.5 -27.5t9.5 -36.5t8 -34h6q2 12 5.5 26t6.5 28t6 25.5t5 18.5l128 442h209l129 -442q3 -10 7.5 -27.5t9 -36.5t6.5 -34h6q3 11 6.5 24.5t7.5 27t7 25.5t6 21l139 442h149l-234 -687h-186l-137 450q-4 14 -9 32.5t-8.5 37t-5.5 32.5
h-5q-2 -15 -7 -34.5t-9.5 -37.5t-8.5 -30l-132 -450h-193zM680 744h-116l-160 128v5h160z" />
    <glyph glyph-name="wgrave" unicode="&#x1e81;" horiz-adv-x="972" 
d="M218 0l-213 527h148l95 -259q9 -23 16 -45t12.5 -39.5t7.5 -28.5h8q3 10 8.5 27t13 39t15.5 46l87 260h152l87 -260q3 -7 9 -26.5t13 -42.5t13 -43h8q5 17 11.5 38t13.5 41t11 33l94 260h139l-214 -527h-135l-83 243q-8 23 -16.5 48t-16 47t-12.5 36h-7q-5 -16 -13 -39
t-16 -47.5t-15 -45.5l-82 -242h-139zM604 591h-116l-160 128v5h160z" />
    <glyph glyph-name="Wacute" unicode="&#x1e82;" horiz-adv-x="1192" 
d="M245 0l-233 687h165l138 -442q4 -10 8.5 -27.5t9.5 -36.5t8 -34h6q2 12 5.5 26t6.5 28t6 25.5t5 18.5l128 442h209l129 -442q3 -10 7.5 -27.5t9 -36.5t6.5 -34h6q3 11 6.5 24.5t7.5 27t7 25.5t6 21l139 442h149l-234 -687h-186l-137 450q-4 14 -9 32.5t-8.5 37t-5.5 32.5
h-5q-2 -15 -7 -34.5t-9.5 -37.5t-8.5 -30l-132 -450h-193zM503 744l116 133h160v-5l-160 -128h-116z" />
    <glyph glyph-name="wacute" unicode="&#x1e83;" horiz-adv-x="972" 
d="M218 0l-213 527h148l95 -259q9 -23 16 -45t12.5 -39.5t7.5 -28.5h8q3 10 8.5 27t13 39t15.5 46l87 260h152l87 -260q3 -7 9 -26.5t13 -42.5t13 -43h8q5 17 11.5 38t13.5 41t11 33l94 260h139l-214 -527h-135l-83 243q-8 23 -16.5 48t-16 47t-12.5 36h-7q-5 -16 -13 -39
t-16 -47.5t-15 -45.5l-82 -242h-139zM388 591l116 133h160v-5l-160 -128h-116z" />
    <glyph glyph-name="Wdieresis" unicode="&#x1e84;" horiz-adv-x="1192" 
d="M245 0l-233 687h165l138 -442q4 -10 8.5 -27.5t9.5 -36.5t8 -34h6q2 12 5.5 26t6.5 28t6 25.5t5 18.5l128 442h209l129 -442q3 -10 7.5 -27.5t9 -36.5t6.5 -34h6q3 11 7 24.5t7.5 27t6.5 25.5t6 21l139 442h149l-234 -687h-186l-137 450q-4 14 -9 32.5t-8.5 37t-5.5 32.5
h-5q-2 -15 -7 -34.5t-9.5 -37.5t-8.5 -30l-132 -450h-193zM404 759v117h130v-117h-130zM657 759v117h131v-117h-131z" />
    <glyph glyph-name="wdieresis" unicode="&#x1e85;" horiz-adv-x="972" 
d="M218 0l-213 527h148l95 -259q9 -23 16 -45t12.5 -39.5t7.5 -28.5h8q3 10 8.5 27t13 39t15.5 46l87 260h152l87 -260q3 -7 9 -26.5t13 -42.5t13 -43h8q5 17 11.5 38t13.5 41t11 33l94 260h139l-214 -527h-135l-83 243q-8 23 -16.5 48t-16 47t-12.5 36h-7q-5 -16 -13 -39
t-16 -47.5t-15 -45.5l-82 -242h-139zM304 604v117h130v-117h-130zM557 604v117h131v-117h-131z" />
    <glyph glyph-name="uni1E9E" unicode="&#x1e9e;" horiz-adv-x="986" 
d="M89 0v423q0 88 50 149.5t146.5 94t235.5 32.5q83 0 151.5 -11.5t118 -35.5t76 -61t26.5 -88q0 -39 -15 -69t-40 -50.5t-54 -31.5v-7q69 -13 107.5 -54t38.5 -103q0 -54 -25.5 -96.5t-75.5 -67t-125 -24.5h-342v128h312q34 0 56 9.5t33.5 27t11.5 39.5q0 27 -16.5 43.5
t-41 23.5t-47.5 7h-308v123h265q48 0 80 21.5t32 58.5q0 48 -52 69.5t-171 21.5q-94 0 -155 -17t-90.5 -52.5t-29.5 -91.5v-411h-152z" />
    <glyph glyph-name="uni1EA0" unicode="&#x1ea0;" horiz-adv-x="908" 
d="M24 0l344 687h172l344 -687h-167l-65 133h-407l-65 -133h-156zM305 256h287l-80 168q-5 11 -14.5 32.5t-19 44t-17 39t-8.5 17.5h-8q-9 -20 -20.5 -46t-22 -50t-17.5 -38zM389 -196v116h130v-116h-130z" />
    <glyph glyph-name="uni1EA1" unicode="&#x1ea1;" horiz-adv-x="739" 
d="M270 -12q-47 0 -87.5 7.5t-71 25t-47.5 47.5t-17 75q0 64 35 100t99 52t149.5 20t185.5 4v22q0 34 -16.5 54t-51 28.5t-90.5 8.5q-45 0 -79 -6t-53 -18t-19 -30v-12h-138q-1 4 -1.5 8t-0.5 9q0 47 34 82t101 54.5t167 19.5q93 0 156.5 -17t96 -56t32.5 -105v-227
q0 -19 7.5 -29t26.5 -10h51v-90q-10 -4 -36.5 -10.5t-58.5 -6.5q-44 0 -68.5 11t-35 30t-14.5 42h-8q-28 -26 -67 -45t-85 -28.5t-96 -9.5zM304 95q32 0 68.5 7t69.5 20.5t53.5 34t20.5 47.5v27q-112 0 -185.5 -7.5t-109.5 -25.5t-36 -51q0 -22 17.5 -33t45 -15t56.5 -4z
M298 -196v116h130v-116h-130z" />
    <glyph glyph-name="uni1EA2" unicode="&#x1ea2;" horiz-adv-x="908" 
d="M24 0l344 687h172l344 -687h-167l-65 133h-407l-65 -133h-156zM305 256h287l-80 168q-5 11 -14.5 32.5t-19 44t-17 39t-8.5 17.5h-8q-9 -20 -20.5 -46t-22 -50t-17.5 -38zM416 739v59h7q30 0 39 3t9 11q0 13 -11 15.5t-32 2.5h-82v48q13 3 33.5 5t41 3t32.5 1
q20 0 42.5 -3t42 -10.5t32 -20t12.5 -32.5q0 -18 -12.5 -30.5t-32.5 -18.5t-45 -7v-26h-76z" />
    <glyph glyph-name="uni1EA3" unicode="&#x1ea3;" horiz-adv-x="739" 
d="M270 -12q-47 0 -87.5 7.5t-71 25t-47.5 47.5t-17 75q0 64 35 100t99 52t149.5 20t185.5 4v22q0 34 -16.5 54t-51 28.5t-90.5 8.5q-45 0 -79 -6t-53 -18t-19 -30v-12h-138q-1 4 -1.5 8t-0.5 9q0 47 34 82t101 54.5t167 19.5q93 0 156.5 -17t96 -56t32.5 -105v-227
q0 -19 7.5 -29t26.5 -10h51v-90q-10 -4 -36.5 -10.5t-58.5 -6.5q-44 0 -68.5 11t-35 30t-14.5 42h-8q-28 -26 -67 -45t-85 -28.5t-96 -9.5zM304 95q32 0 68.5 7t69.5 20.5t53.5 34t20.5 47.5v27q-112 0 -185.5 -7.5t-109.5 -25.5t-36 -51q0 -22 17.5 -33t45 -15t56.5 -4z
M325 591v59h7q30 0 39 3t9 11q0 13 -11 15.5t-32 2.5h-82v48q13 3 33.5 5t41 3t32.5 1q20 0 42.5 -3t42 -10.5t32 -20t12.5 -32.5q0 -18 -12.5 -30.5t-32.5 -18.5t-45 -7v-26h-76z" />
    <glyph glyph-name="uni1EA4" unicode="&#x1ea4;" horiz-adv-x="908" 
d="M24 0l344 687h172l344 -687h-167l-65 133h-407l-65 -133h-156zM305 256h287l-80 168q-5 11 -14.5 32.5t-19 44t-17 39t-8.5 17.5h-8q-9 -20 -20.5 -46t-22 -50t-17.5 -38zM247 736l154 141h105l155 -141h-115l-127 115h66l-127 -115h-111zM361 907l116 133h160v-5
l-160 -128h-116z" />
    <glyph glyph-name="uni1EA5" unicode="&#x1ea5;" horiz-adv-x="739" 
d="M270 -12q-47 0 -87.5 7.5t-71 25t-47.5 47.5t-17 75q0 64 35 100t99 52t149.5 20t185.5 4v22q0 34 -16.5 54t-51 28.5t-90.5 8.5q-45 0 -79 -6t-53 -18t-19 -30v-12h-138q-1 4 -1.5 8t-0.5 9q0 47 34 82t101 54.5t167 19.5q93 0 156.5 -17t96 -56t32.5 -105v-227
q0 -19 7.5 -29t26.5 -10h51v-90q-10 -4 -36.5 -10.5t-58.5 -6.5q-44 0 -68.5 11t-35 30t-14.5 42h-8q-28 -26 -67 -45t-85 -28.5t-96 -9.5zM304 95q32 0 68.5 7t69.5 20.5t53.5 34t20.5 47.5v27q-112 0 -185.5 -7.5t-109.5 -25.5t-36 -51q0 -22 17.5 -33t45 -15t56.5 -4z
M156 583l154 141h105l155 -141h-115l-127 115h66l-127 -115h-111zM255 774l116 133h160v-5l-160 -128h-116z" />
    <glyph glyph-name="uni1EA6" unicode="&#x1ea6;" horiz-adv-x="908" 
d="M24 0l344 687h172l344 -687h-167l-65 133h-407l-65 -133h-156zM305 256h287l-80 168q-5 11 -14.5 32.5t-19 44t-17 39t-8.5 17.5h-8q-9 -20 -20.5 -46t-22 -50t-17.5 -38zM247 736l154 141h105l155 -141h-115l-127 115h66l-127 -115h-111zM538 907h-116l-160 128v5h160z
" />
    <glyph glyph-name="uni1EA7" unicode="&#x1ea7;" horiz-adv-x="739" 
d="M270 -12q-47 0 -87.5 7.5t-71 25t-47.5 47.5t-17 75q0 64 35 100t99 52t149.5 20t185.5 4v22q0 34 -16.5 54t-51 28.5t-90.5 8.5q-45 0 -79 -6t-53 -18t-19 -30v-12h-138q-1 4 -1.5 8t-0.5 9q0 47 34 82t101 54.5t167 19.5q93 0 156.5 -17t96 -56t32.5 -105v-227
q0 -19 7.5 -29t26.5 -10h51v-90q-10 -4 -36.5 -10.5t-58.5 -6.5q-44 0 -68.5 11t-35 30t-14.5 42h-8q-28 -26 -67 -45t-85 -28.5t-96 -9.5zM304 95q32 0 68.5 7t69.5 20.5t53.5 34t20.5 47.5v27q-112 0 -185.5 -7.5t-109.5 -25.5t-36 -51q0 -22 17.5 -33t45 -15t56.5 -4z
M156 583l154 141h105l155 -141h-115l-127 115h66l-127 -115h-111zM471 774h-116l-160 128v5h160z" />
    <glyph glyph-name="uni1EA8" unicode="&#x1ea8;" horiz-adv-x="908" 
d="M24 0l344 687h172l344 -687h-167l-65 133h-407l-65 -133h-156zM305 256h287l-80 168q-5 11 -14.5 32.5t-19 44t-17 39t-8.5 17.5h-8q-9 -20 -20.5 -46t-22 -50t-17.5 -38zM247 736l154 141h105l155 -141h-115l-127 115h66l-127 -115h-111zM416 902v59h7q30 0 39 3t9 11
q0 13 -11 15.5t-32 2.5h-82v48q13 3 33.5 5t41 3t32.5 1q20 0 42.5 -3t42 -10.5t32 -20t12.5 -32.5q0 -18 -12.5 -30.5t-32.5 -18.5t-45 -7v-26h-76z" />
    <glyph glyph-name="uni1EA9" unicode="&#x1ea9;" horiz-adv-x="739" 
d="M270 -12q-47 0 -87.5 7.5t-71 25t-47.5 47.5t-17 75q0 64 35 100t99 52t149.5 20t185.5 4v22q0 34 -16.5 54t-51 28.5t-90.5 8.5q-45 0 -79 -6t-53 -18t-19 -30v-12h-138q-1 4 -1.5 8t-0.5 9q0 47 34 82t101 54.5t167 19.5q93 0 156.5 -17t96 -56t32.5 -105v-227
q0 -19 7.5 -29t26.5 -10h51v-90q-10 -4 -36.5 -10.5t-58.5 -6.5q-44 0 -68.5 11t-35 30t-14.5 42h-8q-28 -26 -67 -45t-85 -28.5t-96 -9.5zM304 95q32 0 68.5 7t69.5 20.5t53.5 34t20.5 47.5v27q-112 0 -185.5 -7.5t-109.5 -25.5t-36 -51q0 -22 17.5 -33t45 -15t56.5 -4z
M156 583l154 141h105l155 -141h-115l-127 115h66l-127 -115h-111zM325 774v59h7q30 0 39 3t9 11q0 13 -11 15.5t-32 2.5h-82v48q13 3 33.5 5t41 3t32.5 1q20 0 42.5 -3t42 -10.5t32 -20t12.5 -32.5q0 -18 -12.5 -30.5t-32.5 -18.5t-45 -7v-26h-76z" />
    <glyph glyph-name="uni1EAA" unicode="&#x1eaa;" horiz-adv-x="908" 
d="M24 0l344 687h172l344 -687h-167l-65 133h-407l-65 -133h-156zM305 256h287l-80 168q-5 11 -14.5 32.5t-19 44t-17 39t-8.5 17.5h-8q-9 -20 -20.5 -46t-22 -50t-17.5 -38zM247 736l154 141h105l155 -141h-115l-127 115h66l-127 -115h-111zM226 908q2 28 17.5 56.5
t45 47.5t72.5 19q36 0 70 -10t66.5 -20.5t62.5 -10.5q23 0 35 12.5t16 28.5h72q-1 -28 -18 -57t-47 -48t-72 -19q-34 0 -68.5 10.5t-67 20.5t-61.5 10q-24 0 -36.5 -12.5t-17.5 -27.5h-69z" />
    <glyph glyph-name="uni1EAB" unicode="&#x1eab;" horiz-adv-x="739" 
d="M270 -12q-47 0 -87.5 7.5t-71 25t-47.5 47.5t-17 75q0 64 35 100t99 52t149.5 20t185.5 4v22q0 34 -16.5 54t-51 28.5t-90.5 8.5q-45 0 -79 -6t-53 -18t-19 -30v-12h-138q-1 4 -1.5 8t-0.5 9q0 47 34 82t101 54.5t167 19.5q93 0 156.5 -17t96 -56t32.5 -105v-227
q0 -19 7.5 -29t26.5 -10h51v-90q-10 -4 -36.5 -10.5t-58.5 -6.5q-44 0 -68.5 11t-35 30t-14.5 42h-8q-28 -26 -67 -45t-85 -28.5t-96 -9.5zM304 95q32 0 68.5 7t69.5 20.5t53.5 34t20.5 47.5v27q-112 0 -185.5 -7.5t-109.5 -25.5t-36 -51q0 -22 17.5 -33t45 -15t56.5 -4z
M156 583l154 141h105l155 -141h-115l-127 115h66l-127 -115h-111zM134 784q2 28 17.5 56.5t45 47.5t72.5 19q36 0 70 -10t66.5 -20.5t62.5 -10.5q23 0 35 12.5t16 28.5h72q-1 -28 -18 -57t-47 -48t-72 -19q-34 0 -68.5 10.5t-67 20.5t-61.5 10q-24 0 -36.5 -12.5
t-17.5 -27.5h-69z" />
    <glyph glyph-name="uni1EAC" unicode="&#x1eac;" horiz-adv-x="908" 
d="M24 0l344 687h172l344 -687h-167l-65 133h-407l-65 -133h-156zM305 256h287l-80 168q-5 11 -14.5 32.5t-19 44t-17 39t-8.5 17.5h-8q-9 -20 -20.5 -46t-22 -50t-17.5 -38zM389 -196v116h130v-116h-130zM247 736l154 141h105l155 -141h-115l-127 115h66l-127 -115h-111z
" />
    <glyph glyph-name="uni1EAD" unicode="&#x1ead;" horiz-adv-x="739" 
d="M270 -12q-47 0 -87.5 7.5t-71 25t-47.5 47.5t-17 75q0 64 35 100t99 52t149.5 20t185.5 4v22q0 34 -16.5 54t-51 28.5t-90.5 8.5q-45 0 -79 -6t-53 -18t-19 -30v-12h-138q-1 4 -1.5 8t-0.5 9q0 47 34 82t101 54.5t167 19.5q93 0 156.5 -17t96 -56t32.5 -105v-227
q0 -19 7.5 -29t26.5 -10h51v-90q-10 -4 -36.5 -10.5t-58.5 -6.5q-44 0 -68.5 11t-35 30t-14.5 42h-8q-28 -26 -67 -45t-85 -28.5t-96 -9.5zM304 95q32 0 68.5 7t69.5 20.5t53.5 34t20.5 47.5v27q-112 0 -185.5 -7.5t-109.5 -25.5t-36 -51q0 -22 17.5 -33t45 -15t56.5 -4z
M298 -196v116h130v-116h-130zM156 583l154 141h105l155 -141h-115l-127 115h66l-127 -115h-111z" />
    <glyph glyph-name="uni1EAE" unicode="&#x1eae;" horiz-adv-x="908" 
d="M24 0l344 687h172l344 -687h-167l-65 133h-407l-65 -133h-156zM305 256h287l-80 168q-5 11 -14.5 32.5t-19 44t-17 39t-8.5 17.5h-8q-9 -20 -20.5 -46t-22 -50t-17.5 -38zM453 747q-69 0 -113 20t-64.5 50t-20.5 60h82q3 -13 17 -25t39 -20t60 -8q40 0 64.5 9t37.5 21.5
t15 22.5h82q0 -30 -21 -60t-65 -50t-113 -20zM361 897l116 133h160v-5l-160 -128h-116z" />
    <glyph glyph-name="uni1EAF" unicode="&#x1eaf;" horiz-adv-x="739" 
d="M270 -12q-47 0 -87.5 7.5t-71 25t-47.5 47.5t-17 75q0 64 35 100t99 52t149.5 20t185.5 4v22q0 34 -16.5 54t-51 28.5t-90.5 8.5q-45 0 -79 -6t-53 -18t-19 -30v-12h-138q-1 4 -1.5 8t-0.5 9q0 47 34 82t101 54.5t167 19.5q93 0 156.5 -17t96 -56t32.5 -105v-227
q0 -19 7.5 -29t26.5 -10h51v-90q-10 -4 -36.5 -10.5t-58.5 -6.5q-44 0 -68.5 11t-35 30t-14.5 42h-8q-28 -26 -67 -45t-85 -28.5t-96 -9.5zM304 95q32 0 68.5 7t69.5 20.5t53.5 34t20.5 47.5v27q-112 0 -185.5 -7.5t-109.5 -25.5t-36 -51q0 -22 17.5 -33t45 -15t56.5 -4z
M362 594q-69 0 -113 20t-64.5 50t-20.5 60h82q3 -13 17 -25t39 -20t60 -8q40 0 64.5 9t37.5 21.5t15 22.5h82q0 -30 -21 -60t-65 -50t-113 -20zM255 774l116 133h160v-5l-160 -128h-116z" />
    <glyph glyph-name="uni1EB0" unicode="&#x1eb0;" horiz-adv-x="908" 
d="M24 0l344 687h172l344 -687h-167l-65 133h-407l-65 -133h-156zM305 256h287l-80 168q-5 11 -14.5 32.5t-19 44t-17 39t-8.5 17.5h-8q-9 -20 -20.5 -46t-22 -50t-17.5 -38zM453 747q-69 0 -113 20t-64.5 50t-20.5 60h82q3 -13 17 -25t39 -20t60 -8q40 0 64.5 9t37.5 21.5
t15 22.5h82q0 -30 -21 -60t-65 -50t-113 -20zM538 897h-116l-160 128v5h160z" />
    <glyph glyph-name="uni1EB1" unicode="&#x1eb1;" horiz-adv-x="739" 
d="M270 -12q-47 0 -87.5 7.5t-71 25t-47.5 47.5t-17 75q0 64 35 100t99 52t149.5 20t185.5 4v22q0 34 -16.5 54t-51 28.5t-90.5 8.5q-45 0 -79 -6t-53 -18t-19 -30v-12h-138q-1 4 -1.5 8t-0.5 9q0 47 34 82t101 54.5t167 19.5q93 0 156.5 -17t96 -56t32.5 -105v-227
q0 -19 7.5 -29t26.5 -10h51v-90q-10 -4 -36.5 -10.5t-58.5 -6.5q-44 0 -68.5 11t-35 30t-14.5 42h-8q-28 -26 -67 -45t-85 -28.5t-96 -9.5zM304 95q32 0 68.5 7t69.5 20.5t53.5 34t20.5 47.5v27q-112 0 -185.5 -7.5t-109.5 -25.5t-36 -51q0 -22 17.5 -33t45 -15t56.5 -4z
M362 594q-69 0 -113 20t-64.5 50t-20.5 60h82q3 -13 17 -25t39 -20t60 -8q40 0 64.5 9t37.5 21.5t15 22.5h82q0 -30 -21 -60t-65 -50t-113 -20zM471 774h-116l-160 128v5h160z" />
    <glyph glyph-name="uni1EB2" unicode="&#x1eb2;" horiz-adv-x="908" 
d="M24 0l344 687h172l344 -687h-167l-65 133h-407l-65 -133h-156zM305 256h287l-80 168q-5 11 -14.5 32.5t-19 44t-17 39t-8.5 17.5h-8q-9 -20 -20.5 -46t-22 -50t-17.5 -38zM453 747q-69 0 -113 20t-64.5 50t-20.5 60h82q3 -13 17 -25t39 -20t60 -8q40 0 64.5 9t37.5 21.5
t15 22.5h82q0 -30 -21 -60t-65 -50t-113 -20zM416 892v59h7q30 0 39 3t9 11q0 13 -11 15.5t-32 2.5h-82v48q13 3 33.5 5t41 3t32.5 1q20 0 42.5 -3t42 -10.5t32 -20t12.5 -32.5q0 -18 -12.5 -30.5t-32.5 -18.5t-45 -7v-26h-76z" />
    <glyph glyph-name="uni1EB3" unicode="&#x1eb3;" horiz-adv-x="739" 
d="M270 -12q-47 0 -87.5 7.5t-71 25t-47.5 47.5t-17 75q0 64 35 100t99 52t149.5 20t185.5 4v22q0 34 -16.5 54t-51 28.5t-90.5 8.5q-45 0 -79 -6t-53 -18t-19 -30v-12h-138q-1 4 -1.5 8t-0.5 9q0 47 34 82t101 54.5t167 19.5q93 0 156.5 -17t96 -56t32.5 -105v-227
q0 -19 7.5 -29t26.5 -10h51v-90q-10 -4 -36.5 -10.5t-58.5 -6.5q-44 0 -68.5 11t-35 30t-14.5 42h-8q-28 -26 -67 -45t-85 -28.5t-96 -9.5zM304 95q32 0 68.5 7t69.5 20.5t53.5 34t20.5 47.5v27q-112 0 -185.5 -7.5t-109.5 -25.5t-36 -51q0 -22 17.5 -33t45 -15t56.5 -4z
M362 594q-69 0 -113 20t-64.5 50t-20.5 60h82q3 -13 17 -25t39 -20t60 -8q40 0 64.5 9t37.5 21.5t15 22.5h82q0 -30 -21 -60t-65 -50t-113 -20zM325 774v59h7q30 0 39 3t9 11q0 13 -11 15.5t-32 2.5h-82v48q13 3 33.5 5t41 3t32.5 1q20 0 42.5 -3t42 -10.5t32 -20
t12.5 -32.5q0 -18 -12.5 -30.5t-32.5 -18.5t-45 -7v-26h-76z" />
    <glyph glyph-name="uni1EB4" unicode="&#x1eb4;" horiz-adv-x="908" 
d="M24 0l344 687h172l344 -687h-167l-65 133h-407l-65 -133h-156zM305 256h287l-80 168q-5 11 -14.5 32.5t-19 44t-17 39t-8.5 17.5h-8q-9 -20 -20.5 -46t-22 -50t-17.5 -38zM453 747q-69 0 -113 20t-64.5 50t-20.5 60h82q3 -13 17 -25t39 -20t60 -8q40 0 64.5 9t37.5 21.5
t15 22.5h82q0 -30 -21 -60t-65 -50t-113 -20zM226 898q2 28 17.5 56.5t45 47.5t72.5 19q36 0 70 -10t66.5 -20.5t62.5 -10.5q23 0 35 12.5t16 28.5h72q-1 -28 -18 -57t-47 -48t-72 -19q-34 0 -68.5 10.5t-67 20.5t-61.5 10q-24 0 -36.5 -12.5t-17.5 -27.5h-69z" />
    <glyph glyph-name="uni1EB5" unicode="&#x1eb5;" horiz-adv-x="739" 
d="M270 -12q-47 0 -87.5 7.5t-71 25t-47.5 47.5t-17 75q0 64 35 100t99 52t149.5 20t185.5 4v22q0 34 -16.5 54t-51 28.5t-90.5 8.5q-45 0 -79 -6t-53 -18t-19 -30v-12h-138q-1 4 -1.5 8t-0.5 9q0 47 34 82t101 54.5t167 19.5q93 0 156.5 -17t96 -56t32.5 -105v-227
q0 -19 7.5 -29t26.5 -10h51v-90q-10 -4 -36.5 -10.5t-58.5 -6.5q-44 0 -68.5 11t-35 30t-14.5 42h-8q-28 -26 -67 -45t-85 -28.5t-96 -9.5zM304 95q32 0 68.5 7t69.5 20.5t53.5 34t20.5 47.5v27q-112 0 -185.5 -7.5t-109.5 -25.5t-36 -51q0 -22 17.5 -33t45 -15t56.5 -4z
M362 594q-69 0 -113 20t-64.5 50t-20.5 60h82q3 -13 17 -25t39 -20t60 -8q40 0 64.5 9t37.5 21.5t15 22.5h82q0 -30 -21 -60t-65 -50t-113 -20zM134 784q2 28 17.5 56.5t45 47.5t72.5 19q36 0 70 -10t66.5 -20.5t62.5 -10.5q23 0 35 12.5t16 28.5h72q-1 -28 -18 -57t-47 -48
t-72 -19q-34 0 -68.5 10.5t-67 20.5t-61.5 10q-24 0 -36.5 -12.5t-17.5 -27.5h-69z" />
    <glyph glyph-name="uni1EB6" unicode="&#x1eb6;" horiz-adv-x="908" 
d="M24 0l344 687h172l344 -687h-167l-65 133h-407l-65 -133h-156zM305 256h287l-80 168q-5 11 -14.5 32.5t-19 44t-17 39t-8.5 17.5h-8q-9 -20 -20.5 -46t-22 -50t-17.5 -38zM389 -196v116h130v-116h-130zM453 747q-69 0 -113 20t-64.5 50t-20.5 60h82q3 -13 17 -25t39 -20
t60 -8q40 0 64.5 9t37.5 21.5t15 22.5h82q0 -30 -21 -60t-65 -50t-113 -20z" />
    <glyph glyph-name="uni1EB7" unicode="&#x1eb7;" horiz-adv-x="739" 
d="M270 -12q-47 0 -87.5 7.5t-71 25t-47.5 47.5t-17 75q0 64 35 100t99 52t149.5 20t185.5 4v22q0 34 -16.5 54t-51 28.5t-90.5 8.5q-45 0 -79 -6t-53 -18t-19 -30v-12h-138q-1 4 -1.5 8t-0.5 9q0 47 34 82t101 54.5t167 19.5q93 0 156.5 -17t96 -56t32.5 -105v-227
q0 -19 7.5 -29t26.5 -10h51v-90q-10 -4 -36.5 -10.5t-58.5 -6.5q-44 0 -68.5 11t-35 30t-14.5 42h-8q-28 -26 -67 -45t-85 -28.5t-96 -9.5zM304 95q32 0 68.5 7t69.5 20.5t53.5 34t20.5 47.5v27q-112 0 -185.5 -7.5t-109.5 -25.5t-36 -51q0 -22 17.5 -33t45 -15t56.5 -4z
M298 -196v116h130v-116h-130zM362 594q-69 0 -113 20t-64.5 50t-20.5 60h82q3 -13 17 -25t39 -20t60 -8q40 0 64.5 9t37.5 21.5t15 22.5h82q0 -30 -21 -60t-65 -50t-113 -20z" />
    <glyph glyph-name="uni1EB8" unicode="&#x1eb8;" horiz-adv-x="866" 
d="M97 0v687h695v-127h-543v-147h483v-127h-483v-159h551v-127h-703zM383 -196v116h130v-116h-130z" />
    <glyph glyph-name="uni1EB9" unicode="&#x1eb9;" horiz-adv-x="744" 
d="M379 -12q-102 0 -175.5 29.5t-113.5 90.5t-40 155q0 92 39 153.5t112 92t173 30.5q105 0 176.5 -30.5t107.5 -89t36 -142.5v-48h-499q3 -49 26.5 -78.5t65 -42.5t96.5 -13q22 0 49.5 5t53 15t43.5 26.5t21 40.5h140q0 -40 -20.5 -75.5t-60.5 -62t-98 -41.5t-132 -15z
M195 321h353q0 29 -13.5 50t-37.5 34.5t-55 20t-66 6.5q-51 0 -90.5 -12.5t-62.5 -37.5t-28 -61zM307 -196v116h130v-116h-130z" />
    <glyph glyph-name="uni1EBA" unicode="&#x1eba;" horiz-adv-x="866" 
d="M97 0v687h695v-127h-543v-147h483v-127h-483v-159h551v-127h-703zM410 739v59h7q30 0 39 3t9 11q0 13 -11 15.5t-32 2.5h-82v48q13 3 33.5 5t41 3t32.5 1q20 0 42.5 -3t42 -10.5t32 -20t12.5 -32.5q0 -18 -12.5 -30.5t-32.5 -18.5t-45 -7v-26h-76z" />
    <glyph glyph-name="uni1EBB" unicode="&#x1ebb;" horiz-adv-x="744" 
d="M379 -12q-102 0 -175.5 29.5t-113.5 90.5t-40 155q0 92 39 153.5t112 92t173 30.5q105 0 176.5 -30.5t107.5 -89t36 -142.5v-48h-499q3 -49 26.5 -78.5t65 -42.5t96.5 -13q22 0 49.5 5t53 15t43.5 26.5t21 40.5h140q0 -40 -20.5 -75.5t-60.5 -62t-98 -41.5t-132 -15z
M195 321h353q0 29 -13.5 50t-37.5 34.5t-55 20t-66 6.5q-51 0 -90.5 -12.5t-62.5 -37.5t-28 -61zM334 591v59h7q30 0 39 3t9 11q0 13 -11 15.5t-32 2.5h-82v48q13 3 33.5 5t41 3t32.5 1q20 0 42.5 -3t42 -10.5t32 -20t12.5 -32.5q0 -18 -12.5 -30.5t-32.5 -18.5t-45 -7v-26
h-76z" />
    <glyph glyph-name="uni1EBC" unicode="&#x1ebc;" horiz-adv-x="866" 
d="M97 0v687h695v-127h-543v-147h483v-127h-483v-159h551v-127h-703zM220 745q2 28 17.5 56.5t45 47.5t72.5 19q36 0 70 -10t66.5 -20.5t62.5 -10.5q23 0 35 12.5t16 28.5h72q-1 -28 -18 -57t-47 -48t-72 -19q-34 0 -68.5 10.5t-67 20.5t-61.5 10q-24 0 -36.5 -12.5
t-17.5 -27.5h-69z" />
    <glyph glyph-name="uni1EBD" unicode="&#x1ebd;" horiz-adv-x="744" 
d="M379 -12q-102 0 -175.5 29.5t-113.5 90.5t-40 155q0 92 39 153.5t112 92t173 30.5q105 0 176.5 -30.5t107.5 -89t36 -142.5v-48h-499q3 -49 26.5 -78.5t65 -42.5t96.5 -13q22 0 49.5 5t53 15t43.5 26.5t21 40.5h140q0 -40 -20.5 -75.5t-60.5 -62t-98 -41.5t-132 -15z
M195 321h353q0 29 -13.5 50t-37.5 34.5t-55 20t-66 6.5q-51 0 -90.5 -12.5t-62.5 -37.5t-28 -61zM143 601q2 28 17.5 56.5t45 47.5t72.5 19q36 0 70 -10t66.5 -20.5t62.5 -10.5q23 0 35 12.5t16 28.5h72q-1 -28 -18 -57t-47 -48t-72 -19q-34 0 -68.5 10.5t-67 20.5t-61.5 10
q-24 0 -36.5 -12.5t-17.5 -27.5h-69z" />
    <glyph glyph-name="uni1EBE" unicode="&#x1ebe;" horiz-adv-x="866" 
d="M97 0v687h695v-127h-543v-147h483v-127h-483v-159h551v-127h-703zM241 736l154 141h105l155 -141h-115l-127 115h66l-127 -115h-111zM355 907l116 133h160v-5l-160 -128h-116z" />
    <glyph glyph-name="uni1EBF" unicode="&#x1ebf;" horiz-adv-x="744" 
d="M379 -12q-102 0 -175.5 29.5t-113.5 90.5t-40 155q0 92 39 153.5t112 92t173 30.5q105 0 176.5 -30.5t107.5 -89t36 -142.5v-48h-499q3 -49 26.5 -78.5t65 -42.5t96.5 -13q22 0 49.5 5t53 15t43.5 26.5t21 40.5h140q0 -40 -20.5 -75.5t-60.5 -62t-98 -41.5t-132 -15z
M195 321h353q0 29 -13.5 50t-37.5 34.5t-55 20t-66 6.5q-51 0 -90.5 -12.5t-62.5 -37.5t-28 -61zM165 583l154 141h105l155 -141h-115l-127 115h66l-127 -115h-111zM264 774l116 133h160v-5l-160 -128h-116z" />
    <glyph glyph-name="uni1EC0" unicode="&#x1ec0;" horiz-adv-x="866" 
d="M97 0v687h695v-127h-543v-147h483v-127h-483v-159h551v-127h-703zM241 736l154 141h105l155 -141h-115l-127 115h66l-127 -115h-111zM532 907h-116l-160 128v5h160z" />
    <glyph glyph-name="uni1EC1" unicode="&#x1ec1;" horiz-adv-x="744" 
d="M379 -12q-102 0 -175.5 29.5t-113.5 90.5t-40 155q0 92 39 153.5t112 92t173 30.5q105 0 176.5 -30.5t107.5 -89t36 -142.5v-48h-499q3 -49 26.5 -78.5t65 -42.5t96.5 -13q22 0 49.5 5t53 15t43.5 26.5t21 40.5h140q0 -40 -20.5 -75.5t-60.5 -62t-98 -41.5t-132 -15z
M195 321h353q0 29 -13.5 50t-37.5 34.5t-55 20t-66 6.5q-51 0 -90.5 -12.5t-62.5 -37.5t-28 -61zM165 583l154 141h105l155 -141h-115l-127 115h66l-127 -115h-111zM480 774h-116l-160 128v5h160z" />
    <glyph glyph-name="uni1EC2" unicode="&#x1ec2;" horiz-adv-x="866" 
d="M97 0v687h695v-127h-543v-147h483v-127h-483v-159h551v-127h-703zM241 736l154 141h105l155 -141h-115l-127 115h66l-127 -115h-111zM410 902v59h7q30 0 39 3t9 11q0 13 -11 15.5t-32 2.5h-82v48q13 3 33.5 5t41 3t32.5 1q20 0 42.5 -3t42 -10.5t32 -20t12.5 -32.5
q0 -18 -12.5 -30.5t-32.5 -18.5t-45 -7v-26h-76z" />
    <glyph glyph-name="uni1EC3" unicode="&#x1ec3;" horiz-adv-x="744" 
d="M379 -12q-102 0 -175.5 29.5t-113.5 90.5t-40 155q0 92 39 153.5t112 92t173 30.5q105 0 176.5 -30.5t107.5 -89t36 -142.5v-48h-499q3 -49 26.5 -78.5t65 -42.5t96.5 -13q22 0 49.5 5t53 15t43.5 26.5t21 40.5h140q0 -40 -20.5 -75.5t-60.5 -62t-98 -41.5t-132 -15z
M195 321h353q0 29 -13.5 50t-37.5 34.5t-55 20t-66 6.5q-51 0 -90.5 -12.5t-62.5 -37.5t-28 -61zM165 583l154 141h105l155 -141h-115l-127 115h66l-127 -115h-111zM334 774v59h7q30 0 39 3t9 11q0 13 -11 15.5t-32 2.5h-82v48q13 3 33.5 5t41 3t32.5 1q20 0 42.5 -3
t42 -10.5t32 -20t12.5 -32.5q0 -18 -12.5 -30.5t-32.5 -18.5t-45 -7v-26h-76z" />
    <glyph glyph-name="uni1EC4" unicode="&#x1ec4;" horiz-adv-x="866" 
d="M97 0v687h695v-127h-543v-147h483v-127h-483v-159h551v-127h-703zM241 736l154 141h105l155 -141h-115l-127 115h66l-127 -115h-111zM220 908q2 28 17.5 56.5t45 47.5t72.5 19q36 0 70 -10t66.5 -20.5t62.5 -10.5q23 0 35 12.5t16 28.5h72q-1 -28 -18 -57t-47 -48
t-72 -19q-34 0 -68.5 10.5t-67 20.5t-61.5 10q-24 0 -36.5 -12.5t-17.5 -27.5h-69z" />
    <glyph glyph-name="uni1EC5" unicode="&#x1ec5;" horiz-adv-x="744" 
d="M379 -12q-102 0 -175.5 29.5t-113.5 90.5t-40 155q0 92 39 153.5t112 92t173 30.5q105 0 176.5 -30.5t107.5 -89t36 -142.5v-48h-499q3 -49 26.5 -78.5t65 -42.5t96.5 -13q22 0 49.5 5t53 15t43.5 26.5t21 40.5h140q0 -40 -20.5 -75.5t-60.5 -62t-98 -41.5t-132 -15z
M195 321h353q0 29 -13.5 50t-37.5 34.5t-55 20t-66 6.5q-51 0 -90.5 -12.5t-62.5 -37.5t-28 -61zM165 583l154 141h105l155 -141h-115l-127 115h66l-127 -115h-111zM143 784q2 28 17.5 56.5t45 47.5t72.5 19q36 0 70 -10t66.5 -20.5t62.5 -10.5q23 0 35 12.5t16 28.5h72
q-1 -28 -18 -57t-47 -48t-72 -19q-34 0 -68.5 10.5t-67 20.5t-61.5 10q-24 0 -36.5 -12.5t-17.5 -27.5h-69z" />
    <glyph glyph-name="uni1EC6" unicode="&#x1ec6;" horiz-adv-x="866" 
d="M97 0v687h695v-127h-543v-147h483v-127h-483v-159h551v-127h-703zM383 -196v116h130v-116h-130zM241 736l154 141h105l155 -141h-115l-127 115h66l-127 -115h-111z" />
    <glyph glyph-name="uni1EC7" unicode="&#x1ec7;" horiz-adv-x="744" 
d="M379 -12q-102 0 -175.5 29.5t-113.5 90.5t-40 155q0 92 39 153.5t112 92t173 30.5q105 0 176.5 -30.5t107.5 -89t36 -142.5v-48h-499q3 -49 26.5 -78.5t65 -42.5t96.5 -13q22 0 49.5 5t53 15t43.5 26.5t21 40.5h140q0 -40 -20.5 -75.5t-60.5 -62t-98 -41.5t-132 -15z
M195 321h353q0 29 -13.5 50t-37.5 34.5t-55 20t-66 6.5q-51 0 -90.5 -12.5t-62.5 -37.5t-28 -61zM307 -196v116h130v-116h-130zM165 583l154 141h105l155 -141h-115l-127 115h66l-127 -115h-111z" />
    <glyph glyph-name="uni1EC8" unicode="&#x1ec8;" horiz-adv-x="346" 
d="M97 0v687h152v-687h-152zM135 739v59h7q30 0 39 3t9 11q0 13 -11 15.5t-32 2.5h-82v48q13 3 33.5 5t41 3t32.5 1q20 0 42.5 -3t42 -10.5t32 -20t12.5 -32.5q0 -18 -12.5 -30.5t-32.5 -18.5t-45 -7v-26h-76z" />
    <glyph glyph-name="uni1EC9" unicode="&#x1ec9;" horiz-adv-x="280" 
d="M71 0v527h138v-527h-138zM102 591v59h7q30 0 39 3t9 11q0 13 -11 15.5t-32 2.5h-82v48q13 3 33.5 5t40.5 3t33 1q20 0 42.5 -3t42 -10.5t32 -20t12.5 -32.5q0 -18 -12.5 -30.5t-32.5 -18.5t-45 -7v-26h-76z" />
    <glyph glyph-name="uni1ECA" unicode="&#x1eca;" horiz-adv-x="346" 
d="M97 0v687h152v-687h-152zM108 -196v116h130v-116h-130z" />
    <glyph glyph-name="uni1ECB" unicode="&#x1ecb;" horiz-adv-x="280" 
d="M71 613v111h138v-111h-138zM71 0v527h138v-527h-138zM75 -196v116h130v-116h-130z" />
    <glyph glyph-name="uni1ECC" unicode="&#x1ecc;" horiz-adv-x="1018" 
d="M509 -12q-137 0 -236 41.5t-152.5 121t-53.5 193.5t53.5 193t152.5 120.5t236 41.5t236 -41.5t152.5 -120.5t53.5 -193t-53.5 -193.5t-152.5 -121t-236 -41.5zM509 115q62 0 114 14t90.5 41t60 68t21.5 95v23q0 54 -21.5 94.5t-60 67.5t-90.5 40.5t-114 13.5t-114 -13.5
t-90.5 -40.5t-59.5 -67.5t-21 -94.5v-23q0 -54 21 -95t59.5 -68t90.5 -41t114 -14zM444 -196v116h130v-116h-130z" />
    <glyph glyph-name="uni1ECD" unicode="&#x1ecd;" horiz-adv-x="746" 
d="M373 -12q-101 0 -173.5 31t-111 92.5t-38.5 152.5q0 92 38.5 153t111 91.5t173.5 30.5t173.5 -30.5t111 -91.5t38.5 -153q0 -91 -38.5 -152.5t-111 -92.5t-173.5 -31zM373 95q56 0 96.5 18.5t62 54t21.5 86.5v20q0 52 -21.5 87t-62 53t-96.5 18t-96.5 -18t-62 -53
t-21.5 -87v-20q0 -51 21.5 -86.5t62 -54t96.5 -18.5zM308 -196v116h130v-116h-130z" />
    <glyph glyph-name="uni1ECE" unicode="&#x1ece;" horiz-adv-x="1018" 
d="M509 -12q-137 0 -236 41.5t-152.5 121t-53.5 193.5t53.5 193t152.5 120.5t236 41.5t236 -41.5t152.5 -120.5t53.5 -193t-53.5 -193.5t-152.5 -121t-236 -41.5zM509 115q62 0 114 14t90.5 41t60 68t21.5 95v23q0 54 -21.5 94.5t-60 67.5t-90.5 40.5t-114 13.5t-114 -13.5
t-90.5 -40.5t-59.5 -67.5t-21 -94.5v-23q0 -54 21 -95t59.5 -68t90.5 -41t114 -14zM471 739v59h7q30 0 39 3t9 11q0 13 -11 15.5t-32 2.5h-82v48q13 3 33.5 5t41 3t32.5 1q20 0 42.5 -3t42 -10.5t32 -20t12.5 -32.5q0 -18 -12.5 -30.5t-32.5 -18.5t-45 -7v-26h-76z" />
    <glyph glyph-name="uni1ECF" unicode="&#x1ecf;" horiz-adv-x="746" 
d="M373 -12q-101 0 -173.5 31t-111 92.5t-38.5 152.5q0 92 38.5 153t111 91.5t173.5 30.5t173.5 -30.5t111 -91.5t38.5 -153q0 -91 -38.5 -152.5t-111 -92.5t-173.5 -31zM373 95q56 0 96.5 18.5t62 54t21.5 86.5v20q0 52 -21.5 87t-62 53t-96.5 18t-96.5 -18t-62 -53
t-21.5 -87v-20q0 -51 21.5 -86.5t62 -54t96.5 -18.5zM335 591v59h7q30 0 39 3t9 11q0 13 -11 15.5t-32 2.5h-82v48q13 3 33.5 5t41 3t32.5 1q20 0 42.5 -3t42 -10.5t32 -20t12.5 -32.5q0 -18 -12.5 -30.5t-32.5 -18.5t-45 -7v-26h-76z" />
    <glyph glyph-name="uni1ED0" unicode="&#x1ed0;" horiz-adv-x="1018" 
d="M509 -12q-137 0 -236 41.5t-152.5 121t-53.5 193.5t53.5 193t152.5 120.5t236 41.5t236 -41.5t152.5 -120.5t53.5 -193t-53.5 -193.5t-152.5 -121t-236 -41.5zM509 115q62 0 114 14t90.5 41t60 68t21.5 95v23q0 54 -21.5 94.5t-60 67.5t-90.5 40.5t-114 13.5t-114 -13.5
t-90.5 -40.5t-59.5 -67.5t-21 -94.5v-23q0 -54 21 -95t59.5 -68t90.5 -41t114 -14zM302 736l154 141h105l155 -141h-115l-127 115h66l-127 -115h-111zM416 907l116 133h160v-5l-160 -128h-116z" />
    <glyph glyph-name="uni1ED1" unicode="&#x1ed1;" horiz-adv-x="746" 
d="M373 -12q-101 0 -173.5 31t-111 92.5t-38.5 152.5q0 92 38.5 153t111 91.5t173.5 30.5t173.5 -30.5t111 -91.5t38.5 -153q0 -91 -38.5 -152.5t-111 -92.5t-173.5 -31zM373 95q56 0 96.5 18.5t62 54t21.5 86.5v20q0 52 -21.5 87t-62 53t-96.5 18t-96.5 -18t-62 -53
t-21.5 -87v-20q0 -51 21.5 -86.5t62 -54t96.5 -18.5zM166 583l154 141h105l155 -141h-115l-127 115h66l-127 -115h-111zM265 774l116 133h160v-5l-160 -128h-116z" />
    <glyph glyph-name="uni1ED2" unicode="&#x1ed2;" horiz-adv-x="1018" 
d="M509 -12q-137 0 -236 41.5t-152.5 121t-53.5 193.5t53.5 193t152.5 120.5t236 41.5t236 -41.5t152.5 -120.5t53.5 -193t-53.5 -193.5t-152.5 -121t-236 -41.5zM509 115q62 0 114 14t90.5 41t60 68t21.5 95v23q0 54 -21.5 94.5t-60 67.5t-90.5 40.5t-114 13.5t-114 -13.5
t-90.5 -40.5t-59.5 -67.5t-21 -94.5v-23q0 -54 21 -95t59.5 -68t90.5 -41t114 -14zM302 736l154 141h105l155 -141h-115l-127 115h66l-127 -115h-111zM593 907h-116l-160 128v5h160z" />
    <glyph glyph-name="uni1ED3" unicode="&#x1ed3;" horiz-adv-x="746" 
d="M373 -12q-101 0 -173.5 31t-111 92.5t-38.5 152.5q0 92 38.5 153t111 91.5t173.5 30.5t173.5 -30.5t111 -91.5t38.5 -153q0 -91 -38.5 -152.5t-111 -92.5t-173.5 -31zM373 95q56 0 96.5 18.5t62 54t21.5 86.5v20q0 52 -21.5 87t-62 53t-96.5 18t-96.5 -18t-62 -53
t-21.5 -87v-20q0 -51 21.5 -86.5t62 -54t96.5 -18.5zM166 583l154 141h105l155 -141h-115l-127 115h66l-127 -115h-111zM481 774h-116l-160 128v5h160z" />
    <glyph glyph-name="uni1ED4" unicode="&#x1ed4;" horiz-adv-x="1018" 
d="M509 -12q-137 0 -236 41.5t-152.5 121t-53.5 193.5t53.5 193t152.5 120.5t236 41.5t236 -41.5t152.5 -120.5t53.5 -193t-53.5 -193.5t-152.5 -121t-236 -41.5zM509 115q62 0 114 14t90.5 41t60 68t21.5 95v23q0 54 -21.5 94.5t-60 67.5t-90.5 40.5t-114 13.5t-114 -13.5
t-90.5 -40.5t-59.5 -67.5t-21 -94.5v-23q0 -54 21 -95t59.5 -68t90.5 -41t114 -14zM302 736l154 141h105l155 -141h-115l-127 115h66l-127 -115h-111zM471 902v59h7q30 0 39 3t9 11q0 13 -11 15.5t-32 2.5h-82v48q13 3 33.5 5t41 3t32.5 1q20 0 42.5 -3t42 -10.5t32 -20
t12.5 -32.5q0 -18 -12.5 -30.5t-32.5 -18.5t-45 -7v-26h-76z" />
    <glyph glyph-name="uni1ED5" unicode="&#x1ed5;" horiz-adv-x="746" 
d="M373 -12q-101 0 -173.5 31t-111 92.5t-38.5 152.5q0 92 38.5 153t111 91.5t173.5 30.5t173.5 -30.5t111 -91.5t38.5 -153q0 -91 -38.5 -152.5t-111 -92.5t-173.5 -31zM373 95q56 0 96.5 18.5t62 54t21.5 86.5v20q0 52 -21.5 87t-62 53t-96.5 18t-96.5 -18t-62 -53
t-21.5 -87v-20q0 -51 21.5 -86.5t62 -54t96.5 -18.5zM166 583l154 141h105l155 -141h-115l-127 115h66l-127 -115h-111zM335 774v59h7q30 0 39 3t9 11q0 13 -11 15.5t-32 2.5h-82v48q13 3 33.5 5t41 3t32.5 1q20 0 42.5 -3t42 -10.5t32 -20t12.5 -32.5q0 -18 -12.5 -30.5
t-32.5 -18.5t-45 -7v-26h-76z" />
    <glyph glyph-name="uni1ED6" unicode="&#x1ed6;" horiz-adv-x="1018" 
d="M509 -12q-137 0 -236 41.5t-152.5 121t-53.5 193.5t53.5 193t152.5 120.5t236 41.5t236 -41.5t152.5 -120.5t53.5 -193t-53.5 -193.5t-152.5 -121t-236 -41.5zM509 115q62 0 114 14t90.5 41t60 68t21.5 95v23q0 54 -21.5 94.5t-60 67.5t-90.5 40.5t-114 13.5t-114 -13.5
t-90.5 -40.5t-59.5 -67.5t-21 -94.5v-23q0 -54 21 -95t59.5 -68t90.5 -41t114 -14zM302 736l154 141h105l155 -141h-115l-127 115h66l-127 -115h-111zM281 908q2 28 17.5 56.5t45 47.5t72.5 19q36 0 70 -10t66.5 -20.5t62.5 -10.5q23 0 35 12.5t16 28.5h72q-1 -28 -18 -57
t-47 -48t-72 -19q-34 0 -68.5 10.5t-67 20.5t-61.5 10q-24 0 -36.5 -12.5t-17.5 -27.5h-69z" />
    <glyph glyph-name="uni1ED7" unicode="&#x1ed7;" horiz-adv-x="746" 
d="M373 -12q-101 0 -173.5 31t-111 92.5t-38.5 152.5q0 92 38.5 153t111 91.5t173.5 30.5t173.5 -30.5t111 -91.5t38.5 -153q0 -91 -38.5 -152.5t-111 -92.5t-173.5 -31zM373 95q56 0 96.5 18.5t62 54t21.5 86.5v20q0 52 -21.5 87t-62 53t-96.5 18t-96.5 -18t-62 -53
t-21.5 -87v-20q0 -51 21.5 -86.5t62 -54t96.5 -18.5zM166 583l154 141h105l155 -141h-115l-127 115h66l-127 -115h-111zM144 784q2 28 17.5 56.5t45 47.5t72.5 19q36 0 70 -10t66.5 -20.5t62.5 -10.5q23 0 35 12.5t16 28.5h72q-1 -28 -18 -57t-47 -48t-72 -19
q-34 0 -68.5 10.5t-67 20.5t-61.5 10q-24 0 -36.5 -12.5t-17.5 -27.5h-69z" />
    <glyph glyph-name="uni1ED8" unicode="&#x1ed8;" horiz-adv-x="1018" 
d="M509 -12q-137 0 -236 41.5t-152.5 121t-53.5 193.5t53.5 193t152.5 120.5t236 41.5t236 -41.5t152.5 -120.5t53.5 -193t-53.5 -193.5t-152.5 -121t-236 -41.5zM509 115q62 0 114 14t90.5 41t60 68t21.5 95v23q0 54 -21.5 94.5t-60 67.5t-90.5 40.5t-114 13.5t-114 -13.5
t-90.5 -40.5t-59.5 -67.5t-21 -94.5v-23q0 -54 21 -95t59.5 -68t90.5 -41t114 -14zM444 -196v116h130v-116h-130zM302 736l154 141h105l155 -141h-115l-127 115h66l-127 -115h-111z" />
    <glyph glyph-name="uni1ED9" unicode="&#x1ed9;" horiz-adv-x="746" 
d="M373 -12q-101 0 -173.5 31t-111 92.5t-38.5 152.5q0 92 38.5 153t111 91.5t173.5 30.5t173.5 -30.5t111 -91.5t38.5 -153q0 -91 -38.5 -152.5t-111 -92.5t-173.5 -31zM373 95q56 0 96.5 18.5t62 54t21.5 86.5v20q0 52 -21.5 87t-62 53t-96.5 18t-96.5 -18t-62 -53
t-21.5 -87v-20q0 -51 21.5 -86.5t62 -54t96.5 -18.5zM308 -196v116h130v-116h-130zM166 583l154 141h105l155 -141h-115l-127 115h66l-127 -115h-111z" />
    <glyph glyph-name="uni1EDA" unicode="&#x1eda;" horiz-adv-x="1018" 
d="M509 -12q-137 0 -236 41.5t-152.5 121t-53.5 193.5t53.5 193t152.5 120.5t236 41.5t236 -41.5t152.5 -120.5t53.5 -193t-53.5 -193.5t-152.5 -121t-236 -41.5zM509 115q62 0 114 14t90.5 41t60 68t21.5 95v23q0 54 -21.5 94.5t-60 67.5t-90.5 40.5t-114 13.5t-114 -13.5
t-90.5 -40.5t-59.5 -67.5t-21 -94.5v-23q0 -54 21 -95t59.5 -68t90.5 -41t114 -14zM690 563v58q86 0 136.5 23.5t50.5 63.5h-66v113h140v-88q0 -54 -31.5 -92t-90 -58t-139.5 -20zM416 744l116 133h160v-5l-160 -128h-116z" />
    <glyph glyph-name="uni1EDB" unicode="&#x1edb;" horiz-adv-x="746" 
d="M373 -12q-101 0 -173.5 31t-111 92.5t-38.5 152.5q0 92 38.5 153t111 91.5t173.5 30.5t173.5 -30.5t111 -91.5t38.5 -153q0 -91 -38.5 -152.5t-111 -92.5t-173.5 -31zM373 95q56 0 96.5 18.5t62 54t21.5 86.5v20q0 52 -21.5 87t-62 53t-96.5 18t-96.5 -18t-62 -53
t-21.5 -87v-20q0 -51 21.5 -86.5t62 -54t96.5 -18.5zM505 429v58q77 0 122 23.5t45 63.5h-66v113h140v-88q0 -54 -29 -92t-83 -58t-129 -20zM265 591l116 133h160v-5l-160 -128h-116z" />
    <glyph glyph-name="uni1EDC" unicode="&#x1edc;" horiz-adv-x="1018" 
d="M509 -12q-137 0 -236 41.5t-152.5 121t-53.5 193.5t53.5 193t152.5 120.5t236 41.5t236 -41.5t152.5 -120.5t53.5 -193t-53.5 -193.5t-152.5 -121t-236 -41.5zM509 115q62 0 114 14t90.5 41t60 68t21.5 95v23q0 54 -21.5 94.5t-60 67.5t-90.5 40.5t-114 13.5t-114 -13.5
t-90.5 -40.5t-59.5 -67.5t-21 -94.5v-23q0 -54 21 -95t59.5 -68t90.5 -41t114 -14zM690 563v58q86 0 136.5 23.5t50.5 63.5h-66v113h140v-88q0 -54 -31.5 -92t-90 -58t-139.5 -20zM593 744h-116l-160 128v5h160z" />
    <glyph glyph-name="uni1EDD" unicode="&#x1edd;" horiz-adv-x="746" 
d="M373 -12q-101 0 -173.5 31t-111 92.5t-38.5 152.5q0 92 38.5 153t111 91.5t173.5 30.5t173.5 -30.5t111 -91.5t38.5 -153q0 -91 -38.5 -152.5t-111 -92.5t-173.5 -31zM373 95q56 0 96.5 18.5t62 54t21.5 86.5v20q0 52 -21.5 87t-62 53t-96.5 18t-96.5 -18t-62 -53
t-21.5 -87v-20q0 -51 21.5 -86.5t62 -54t96.5 -18.5zM505 429v58q77 0 122 23.5t45 63.5h-66v113h140v-88q0 -54 -29 -92t-83 -58t-129 -20zM481 591h-116l-160 128v5h160z" />
    <glyph glyph-name="uni1EDE" unicode="&#x1ede;" horiz-adv-x="1018" 
d="M509 -12q-137 0 -236 41.5t-152.5 121t-53.5 193.5t53.5 193t152.5 120.5t236 41.5t236 -41.5t152.5 -120.5t53.5 -193t-53.5 -193.5t-152.5 -121t-236 -41.5zM509 115q62 0 114 14t90.5 41t60 68t21.5 95v23q0 54 -21.5 94.5t-60 67.5t-90.5 40.5t-114 13.5t-114 -13.5
t-90.5 -40.5t-59.5 -67.5t-21 -94.5v-23q0 -54 21 -95t59.5 -68t90.5 -41t114 -14zM690 563v58q86 0 136.5 23.5t50.5 63.5h-66v113h140v-88q0 -54 -31.5 -92t-90 -58t-139.5 -20zM471 739v59h7q30 0 39 3t9 11q0 13 -11 15.5t-32 2.5h-82v48q13 3 33.5 5t41 3t32.5 1
q20 0 42.5 -3t42 -10.5t32 -20t12.5 -32.5q0 -18 -12.5 -30.5t-32.5 -18.5t-45 -7v-26h-76z" />
    <glyph glyph-name="uni1EDF" unicode="&#x1edf;" horiz-adv-x="746" 
d="M373 -12q-101 0 -173.5 31t-111 92.5t-38.5 152.5q0 92 38.5 153t111 91.5t173.5 30.5t173.5 -30.5t111 -91.5t38.5 -153q0 -91 -38.5 -152.5t-111 -92.5t-173.5 -31zM373 95q56 0 96.5 18.5t62 54t21.5 86.5v20q0 52 -21.5 87t-62 53t-96.5 18t-96.5 -18t-62 -53
t-21.5 -87v-20q0 -51 21.5 -86.5t62 -54t96.5 -18.5zM505 429v58q77 0 122 23.5t45 63.5h-66v113h140v-88q0 -54 -29 -92t-83 -58t-129 -20zM335 591v59h7q30 0 39 3t9 11q0 13 -11 15.5t-32 2.5h-82v48q13 3 33.5 5t41 3t32.5 1q20 0 42.5 -3t42 -10.5t32 -20t12.5 -32.5
q0 -18 -12.5 -30.5t-32.5 -18.5t-45 -7v-26h-76z" />
    <glyph glyph-name="uni1EE0" unicode="&#x1ee0;" horiz-adv-x="1018" 
d="M509 -12q-137 0 -236 41.5t-152.5 121t-53.5 193.5t53.5 193t152.5 120.5t236 41.5t236 -41.5t152.5 -120.5t53.5 -193t-53.5 -193.5t-152.5 -121t-236 -41.5zM509 115q62 0 114 14t90.5 41t60 68t21.5 95v23q0 54 -21.5 94.5t-60 67.5t-90.5 40.5t-114 13.5t-114 -13.5
t-90.5 -40.5t-59.5 -67.5t-21 -94.5v-23q0 -54 21 -95t59.5 -68t90.5 -41t114 -14zM690 563v58q86 0 136.5 23.5t50.5 63.5h-66v113h140v-88q0 -54 -31.5 -92t-90 -58t-139.5 -20zM281 745q2 28 17.5 56.5t45 47.5t72.5 19q36 0 70 -10t66.5 -20.5t62.5 -10.5q23 0 35 12.5
t16 28.5h72q-1 -28 -18 -57t-47 -48t-72 -19q-34 0 -68.5 10.5t-67 20.5t-61.5 10q-24 0 -36.5 -12.5t-17.5 -27.5h-69z" />
    <glyph glyph-name="uni1EE1" unicode="&#x1ee1;" horiz-adv-x="746" 
d="M373 -12q-101 0 -173.5 31t-111 92.5t-38.5 152.5q0 92 38.5 153t111 91.5t173.5 30.5t173.5 -30.5t111 -91.5t38.5 -153q0 -91 -38.5 -152.5t-111 -92.5t-173.5 -31zM373 95q56 0 96.5 18.5t62 54t21.5 86.5v20q0 52 -21.5 87t-62 53t-96.5 18t-96.5 -18t-62 -53
t-21.5 -87v-20q0 -51 21.5 -86.5t62 -54t96.5 -18.5zM505 429v58q77 0 122 23.5t45 63.5h-66v113h140v-88q0 -54 -29 -92t-83 -58t-129 -20zM167 601q1 28 15.5 56.5t41 47.5t65.5 19q31 0 62 -10t60.5 -20.5t56.5 -10.5q20 0 30.5 12.5t15.5 28.5h64q-1 -28 -16 -57
t-42 -48t-65 -19q-31 0 -62 10.5t-60.5 20.5t-54.5 10q-22 0 -33.5 -12.5t-15.5 -27.5h-62z" />
    <glyph glyph-name="uni1EE2" unicode="&#x1ee2;" horiz-adv-x="1018" 
d="M509 -12q-137 0 -236 41.5t-152.5 121t-53.5 193.5t53.5 193t152.5 120.5t236 41.5t236 -41.5t152.5 -120.5t53.5 -193t-53.5 -193.5t-152.5 -121t-236 -41.5zM509 115q62 0 114 14t90.5 41t60 68t21.5 95v23q0 54 -21.5 94.5t-60 67.5t-90.5 40.5t-114 13.5t-114 -13.5
t-90.5 -40.5t-59.5 -67.5t-21 -94.5v-23q0 -54 21 -95t59.5 -68t90.5 -41t114 -14zM690 563v58q86 0 136.5 23.5t50.5 63.5h-66v113h140v-88q0 -54 -31.5 -92t-90 -58t-139.5 -20zM444 -196v116h130v-116h-130z" />
    <glyph glyph-name="uni1EE3" unicode="&#x1ee3;" horiz-adv-x="746" 
d="M373 -12q-101 0 -173.5 31t-111 92.5t-38.5 152.5q0 92 38.5 153t111 91.5t173.5 30.5t173.5 -30.5t111 -91.5t38.5 -153q0 -91 -38.5 -152.5t-111 -92.5t-173.5 -31zM373 95q56 0 96.5 18.5t62 54t21.5 86.5v20q0 52 -21.5 87t-62 53t-96.5 18t-96.5 -18t-62 -53
t-21.5 -87v-20q0 -51 21.5 -86.5t62 -54t96.5 -18.5zM505 429v58q77 0 122 23.5t45 63.5h-66v113h140v-88q0 -54 -29 -92t-83 -58t-129 -20zM308 -196v116h130v-116h-130z" />
    <glyph glyph-name="uni1EE4" unicode="&#x1ee4;" horiz-adv-x="944" 
d="M472 -12q-129 0 -213.5 40t-126 113.5t-41.5 173.5v372h152v-365q0 -99 59.5 -153t169.5 -54t169.5 54t59.5 153v365h152v-372q0 -100 -41.5 -173.5t-125.5 -113.5t-214 -40zM407 -196v116h130v-116h-130z" />
    <glyph glyph-name="uni1EE5" unicode="&#x1ee5;" horiz-adv-x="716" 
d="M290 -12q-110 0 -166.5 52t-56.5 161v326h138v-302q0 -34 9.5 -57.5t27 -37.5t42 -20t54.5 -6q44 0 82.5 18t62.5 50t24 75v280h138v-527h-111l-10 90h-9q-28 -39 -65.5 -61t-78.5 -31.5t-81 -9.5zM293 -196v116h130v-116h-130z" />
    <glyph glyph-name="uni1EE6" unicode="&#x1ee6;" horiz-adv-x="944" 
d="M472 -12q-129 0 -213.5 40t-126 113.5t-41.5 173.5v372h152v-365q0 -99 59.5 -153t169.5 -54t169.5 54t59.5 153v365h152v-372q0 -100 -41.5 -173.5t-125.5 -113.5t-214 -40zM434 739v59h7q30 0 39 3t9 11q0 13 -11 15.5t-32 2.5h-82v48q13 3 33.5 5t41 3t32.5 1
q20 0 42.5 -3t42 -10.5t32 -20t12.5 -32.5q0 -18 -12.5 -30.5t-32.5 -18.5t-45 -7v-26h-76z" />
    <glyph glyph-name="uni1EE7" unicode="&#x1ee7;" horiz-adv-x="716" 
d="M290 -12q-110 0 -166.5 52t-56.5 161v326h138v-302q0 -34 9.5 -57.5t27 -37.5t42 -20t54.5 -6q44 0 82.5 18t62.5 50t24 75v280h138v-527h-111l-10 90h-9q-28 -39 -65.5 -61t-78.5 -31.5t-81 -9.5zM320 591v59h7q30 0 39 3t9 11q0 13 -11 15.5t-32 2.5h-82v48
q13 3 33.5 5t41 3t32.5 1q20 0 42.5 -3t42 -10.5t32 -20t12.5 -32.5q0 -18 -12.5 -30.5t-32.5 -18.5t-45 -7v-26h-76z" />
    <glyph glyph-name="uni1EE8" unicode="&#x1ee8;" horiz-adv-x="944" 
d="M472 -12q-129 0 -213.5 40t-126 113.5t-41.5 173.5v372h152v-365q0 -99 59.5 -153t169.5 -54t169.5 54t59.5 153v365h152v-372q0 -100 -41.5 -173.5t-125.5 -113.5t-214 -40zM701 629v58q86 0 136.5 23.5t50.5 63.5h-66v113h140v-88q0 -54 -31.5 -92t-90 -58t-139.5 -20z
M379 744l116 133h160v-5l-160 -128h-116z" />
    <glyph glyph-name="uni1EE9" unicode="&#x1ee9;" horiz-adv-x="716" 
d="M290 -12q-110 0 -166.5 52t-56.5 161v326h138v-302q0 -34 9.5 -57.5t27 -37.5t42 -20t54.5 -6q44 0 82.5 18t62.5 50t24 75v280h138v-527h-111l-10 90h-9q-28 -39 -65.5 -61t-78.5 -31.5t-81 -9.5zM507 469v58q77 0 122 23.5t45 63.5h-66v113h140v-88q0 -54 -29 -92
t-83 -58t-129 -20zM250 591l116 133h160v-5l-160 -128h-116z" />
    <glyph glyph-name="uni1EEA" unicode="&#x1eea;" horiz-adv-x="944" 
d="M472 -12q-129 0 -213.5 40t-126 113.5t-41.5 173.5v372h152v-365q0 -99 59.5 -153t169.5 -54t169.5 54t59.5 153v365h152v-372q0 -100 -41.5 -173.5t-125.5 -113.5t-214 -40zM701 629v58q86 0 136.5 23.5t50.5 63.5h-66v113h140v-88q0 -54 -31.5 -92t-90 -58t-139.5 -20z
M556 744h-116l-160 128v5h160z" />
    <glyph glyph-name="uni1EEB" unicode="&#x1eeb;" horiz-adv-x="716" 
d="M290 -12q-110 0 -166.5 52t-56.5 161v326h138v-302q0 -34 9.5 -57.5t27 -37.5t42 -20t54.5 -6q44 0 82.5 18t62.5 50t24 75v280h138v-527h-111l-10 90h-9q-28 -39 -65.5 -61t-78.5 -31.5t-81 -9.5zM507 469v58q77 0 122 23.5t45 63.5h-66v113h140v-88q0 -54 -29 -92
t-83 -58t-129 -20zM466 591h-116l-160 128v5h160z" />
    <glyph glyph-name="uni1EEC" unicode="&#x1eec;" horiz-adv-x="944" 
d="M472 -12q-129 0 -213.5 40t-126 113.5t-41.5 173.5v372h152v-365q0 -99 59.5 -153t169.5 -54t169.5 54t59.5 153v365h152v-372q0 -100 -41.5 -173.5t-125.5 -113.5t-214 -40zM701 629v58q86 0 136.5 23.5t50.5 63.5h-66v113h140v-88q0 -54 -31.5 -92t-90 -58t-139.5 -20z
M434 739v59h7q30 0 39 3t9 11q0 13 -11 15.5t-32 2.5h-82v48q13 3 33.5 5t41 3t32.5 1q20 0 42.5 -3t42 -10.5t32 -20t12.5 -32.5q0 -18 -12.5 -30.5t-32.5 -18.5t-45 -7v-26h-76z" />
    <glyph glyph-name="uni1EED" unicode="&#x1eed;" horiz-adv-x="716" 
d="M290 -12q-110 0 -166.5 52t-56.5 161v326h138v-302q0 -34 9.5 -57.5t27 -37.5t42 -20t54.5 -6q44 0 82.5 18t62.5 50t24 75v280h138v-527h-111l-10 90h-9q-28 -39 -65.5 -61t-78.5 -31.5t-81 -9.5zM507 469v58q77 0 122 23.5t45 63.5h-66v113h140v-88q0 -54 -29 -92
t-83 -58t-129 -20zM320 591v59h7q30 0 39 3t9 11q0 13 -11 15.5t-32 2.5h-82v48q13 3 33.5 5t41 3t32.5 1q20 0 42.5 -3t42 -10.5t32 -20t12.5 -32.5q0 -18 -12.5 -30.5t-32.5 -18.5t-45 -7v-26h-76z" />
    <glyph glyph-name="uni1EEE" unicode="&#x1eee;" horiz-adv-x="944" 
d="M472 -12q-129 0 -213.5 40t-126 113.5t-41.5 173.5v372h152v-365q0 -99 59.5 -153t169.5 -54t169.5 54t59.5 153v365h152v-372q0 -100 -41.5 -173.5t-125.5 -113.5t-214 -40zM701 629v58q86 0 136.5 23.5t50.5 63.5h-66v113h140v-88q0 -54 -31.5 -92t-90 -58t-139.5 -20z
M244 745q2 28 17.5 56.5t45 47.5t72.5 19q36 0 70 -10t66.5 -20.5t62.5 -10.5q23 0 35 12.5t16 28.5h72q-1 -28 -18 -57t-47 -48t-72 -19q-34 0 -68.5 10.5t-67 20.5t-61.5 10q-24 0 -36.5 -12.5t-17.5 -27.5h-69z" />
    <glyph glyph-name="uni1EEF" unicode="&#x1eef;" horiz-adv-x="716" 
d="M290 -12q-110 0 -166.5 52t-56.5 161v326h138v-302q0 -34 9.5 -57.5t27 -37.5t42 -20t54.5 -6q44 0 82.5 18t62.5 50t24 75v280h138v-527h-111l-10 90h-9q-28 -39 -65.5 -61t-78.5 -31.5t-81 -9.5zM507 469v58q77 0 122 23.5t45 63.5h-66v113h140v-88q0 -54 -29 -92
t-83 -58t-129 -20zM152 601q1 28 15.5 56.5t41 47.5t65.5 19q31 0 62 -10t60.5 -20.5t56.5 -10.5q20 0 30.5 12.5t15.5 28.5h64q-1 -28 -16 -57t-42 -48t-65 -19q-31 0 -62 10.5t-60.5 20.5t-54.5 10q-22 0 -33.5 -12.5t-15.5 -27.5h-62z" />
    <glyph glyph-name="uni1EF0" unicode="&#x1ef0;" horiz-adv-x="944" 
d="M472 -12q-129 0 -213.5 40t-126 113.5t-41.5 173.5v372h152v-365q0 -99 59.5 -153t169.5 -54t169.5 54t59.5 153v365h152v-372q0 -100 -41.5 -173.5t-125.5 -113.5t-214 -40zM701 629v58q86 0 136.5 23.5t50.5 63.5h-66v113h140v-88q0 -54 -31.5 -92t-90 -58t-139.5 -20z
M407 -196v116h130v-116h-130z" />
    <glyph glyph-name="uni1EF1" unicode="&#x1ef1;" horiz-adv-x="716" 
d="M290 -12q-110 0 -166.5 52t-56.5 161v326h138v-302q0 -34 9.5 -57.5t27 -37.5t42 -20t54.5 -6q44 0 82.5 18t62.5 50t24 75v280h138v-527h-111l-10 90h-9q-28 -39 -65.5 -61t-78.5 -31.5t-81 -9.5zM507 469v58q77 0 122 23.5t45 63.5h-66v113h140v-88q0 -54 -29 -92
t-83 -58t-129 -20zM293 -196v116h130v-116h-130z" />
    <glyph glyph-name="Ygrave" unicode="&#x1ef2;" horiz-adv-x="861" 
d="M354 0v278l-336 409h183l228 -287h10l231 287h173l-337 -409v-278h-152zM515 744h-116l-160 128v5h160z" />
    <glyph glyph-name="ygrave" unicode="&#x1ef3;" horiz-adv-x="653" 
d="M140 -198q-28 0 -51 4.5t-43 12.5v90h69q46 0 73 10.5t43.5 30.5t31.5 50l-258 527h151l114 -255q9 -18 20.5 -44.5t23.5 -53.5t21 -47h8l5.5 15.5t15 39t19.5 48.5l18 45l102 252h145l-214 -477q-27 -59 -52.5 -105t-57.5 -78t-76.5 -48.5t-107.5 -16.5zM435 591h-116
l-160 128v5h160z" />
    <glyph glyph-name="uni1EF4" unicode="&#x1ef4;" horiz-adv-x="861" 
d="M354 0v278l-336 409h183l228 -287h10l231 287h173l-337 -409v-278h-152zM366 -196v116h130v-116h-130z" />
    <glyph glyph-name="uni1EF5" unicode="&#x1ef5;" horiz-adv-x="653" 
d="M140 -198q-28 0 -51 4.5t-43 12.5v90h69q46 0 73 10.5t43.5 30.5t31.5 50l-258 527h151l114 -255q9 -18 20.5 -44.5t23.5 -53.5t21 -47h8l5.5 15.5t15 39t19.5 48.5l18 45l102 252h145l-214 -477q-27 -59 -52.5 -105t-57.5 -78t-76.5 -48.5t-107.5 -16.5zM463 -196v116
h130v-116h-130z" />
    <glyph glyph-name="uni1EF6" unicode="&#x1ef6;" horiz-adv-x="861" 
d="M354 0v278l-336 409h183l228 -287h10l231 287h173l-337 -409v-278h-152zM393 739v59h7q30 0 39 3t9 11q0 13 -11 15.5t-32 2.5h-82v48q13 3 33.5 5t41 3t32.5 1q20 0 42.5 -3t42 -10.5t32 -20t12.5 -32.5q0 -18 -12.5 -30.5t-32.5 -18.5t-45 -7v-26h-76z" />
    <glyph glyph-name="uni1EF7" unicode="&#x1ef7;" horiz-adv-x="653" 
d="M140 -198q-28 0 -51 4.5t-43 12.5v90h69q46 0 73 10.5t43.5 30.5t31.5 50l-258 527h151l114 -255q9 -18 20.5 -44.5t23.5 -53.5t21 -47h8l5.5 15.5t15 39t19.5 48.5l18 45l102 252h145l-214 -477q-27 -59 -52.5 -105t-57.5 -78t-76.5 -48.5t-107.5 -16.5zM289 591v59h7
q30 0 39 3t9 11q0 13 -11 15.5t-32 2.5h-82v48q13 3 33.5 5t41 3t32.5 1q20 0 42.5 -3t42 -10.5t32 -20t12.5 -32.5q0 -18 -12.5 -30.5t-32.5 -18.5t-45 -7v-26h-76z" />
    <glyph glyph-name="uni1EF8" unicode="&#x1ef8;" horiz-adv-x="861" 
d="M354 0v278l-336 409h183l228 -287h10l231 287h173l-337 -409v-278h-152zM203 745q2 28 17.5 56.5t45 47.5t72.5 19q36 0 70 -10t66.5 -20.5t62.5 -10.5q23 0 35 12.5t16 28.5h72q-1 -28 -18 -57t-47 -48t-72 -19q-34 0 -68.5 10.5t-67 20.5t-61.5 10q-24 0 -36.5 -12.5
t-17.5 -27.5h-69z" />
    <glyph glyph-name="uni1EF9" unicode="&#x1ef9;" horiz-adv-x="653" 
d="M140 -198q-28 0 -51 4.5t-43 12.5v90h69q46 0 73 10.5t43.5 30.5t31.5 50l-258 527h151l114 -255q9 -18 20.5 -44.5t23.5 -53.5t21 -47h8l5.5 15.5t15 39t19.5 48.5l18 45l102 252h145l-214 -477q-27 -59 -52.5 -105t-57.5 -78t-76.5 -48.5t-107.5 -16.5zM98 601
q2 28 17.5 56.5t45 47.5t72.5 19q36 0 70 -10t66.5 -20.5t62.5 -10.5q23 0 35 12.5t16 28.5h72q-1 -28 -18 -57t-47 -48t-72 -19q-34 0 -68.5 10.5t-67 20.5t-61.5 10q-24 0 -36.5 -12.5t-17.5 -27.5h-69z" />
    <glyph glyph-name="uni2009" unicode="&#x2009;" horiz-adv-x="205" 
 />
    <glyph glyph-name="uni2010" unicode="&#x2010;" horiz-adv-x="600" 
d="M49 216v114h240v-114h-240z" />
    <glyph glyph-name="uni2011" unicode="&#x2011;" horiz-adv-x="416" 
d="M50 209v130h316v-130h-316z" />
    <glyph glyph-name="endash" unicode="&#x2013;" horiz-adv-x="625" 
d="M0 212v111h625v-111h-625z" />
    <glyph glyph-name="emdash" unicode="&#x2014;" horiz-adv-x="1250" 
d="M0 212v110h1250v-110h-1250z" />
    <glyph glyph-name="uni2015" unicode="&#x2015;" horiz-adv-x="875" 
d="M15 217v99h845v-99h-845z" />
    <glyph glyph-name="underscoredbl" unicode="&#x2017;" horiz-adv-x="627" 
d="M0 -136v79h627v-79h-627zM0 -274v79h627v-79h-627z" />
    <glyph glyph-name="quoteleft" unicode="&#x2018;" horiz-adv-x="283" 
d="M226 687v-66q-21 -3 -38 -16.5t-27 -36t-10 -53.5h66v-145h-150v128q0 68 24 108t60.5 59t74.5 22z" />
    <glyph glyph-name="quoteright" unicode="&#x2019;" horiz-adv-x="283" 
d="M57 370v66q21 3 38 16.5t27 36t10 53.5h-66v145h150v-128q0 -67 -24 -107.5t-60.5 -59t-74.5 -22.5z" />
    <glyph glyph-name="quotesinglbase" unicode="&#x201a;" horiz-adv-x="283" 
d="M57 -172v66q21 3 38 16.5t27 36t10 53.5h-66v145h150v-128q0 -67 -24 -107.5t-60.5 -59t-74.5 -22.5z" />
    <glyph glyph-name="quotedblleft" unicode="&#x201c;" horiz-adv-x="498" 
d="M441 687v-66q-21 -3 -38 -16.5t-27 -36t-10 -53.5h66v-145h-150v128q0 68 24 108t60.5 59t74.5 22zM226 687v-66q-21 -3 -38 -16.5t-27 -36t-10 -53.5h66v-145h-150v128q0 68 24 108t60.5 59t74.5 22z" />
    <glyph glyph-name="quotedblright" unicode="&#x201d;" horiz-adv-x="498" 
d="M57 370v66q21 3 38 16.5t27 36t10 53.5h-66v145h150v-128q0 -67 -24 -107.5t-60.5 -59t-74.5 -22.5zM272 370v66q21 3 38 16.5t27 36t10 53.5h-66v145h150v-128q0 -67 -24 -107.5t-60.5 -59t-74.5 -22.5z" />
    <glyph glyph-name="quotedblbase" unicode="&#x201e;" horiz-adv-x="498" 
d="M57 -172v66q21 3 38 16.5t27 36t10 53.5h-66v145h150v-128q0 -67 -24 -107.5t-60.5 -59t-74.5 -22.5zM272 -172v66q21 3 38 16.5t27 36t10 53.5h-66v145h150v-128q0 -67 -24 -107.5t-60.5 -59t-74.5 -22.5z" />
    <glyph glyph-name="dagger" unicode="&#x2020;" horiz-adv-x="736" 
d="M310 -178l17 577l-262 -19v126l262 -19l-19 200h121l-19 -199l262 18v-126l-262 19l18 -577h-118z" />
    <glyph glyph-name="daggerdbl" unicode="&#x2021;" horiz-adv-x="736" 
d="M308 -188l19 200l-262 -18v126l262 -19l-18 149l19 148l-263 -19v127l262 -19l-19 200h121l-19 -200l262 19v-127l-263 19l20 -148l-20 -149l263 19v-126l-262 18l19 -200h-121z" />
    <glyph glyph-name="bullet" unicode="&#x2022;" horiz-adv-x="425" 
d="M212 202q-39 0 -70 18.5t-49 50.5t-18 73q0 42 18 74t49 50.5t70 18.5q40 0 71 -18.5t49 -50.5t18 -74q0 -41 -18 -73t-49 -50.5t-71 -18.5z" />
    <glyph glyph-name="ellipsis" unicode="&#x2026;" horiz-adv-x="925" 
d="M73 0v156h166v-156h-166zM379 0v156h166v-156h-166zM686 0v156h166v-156h-166z" />
    </font>
</defs>
</svg>
