<?xml version="1.0" standalone="no"?>
<!DOCTYPE svg PUBLIC "-//W3C//DTD SVG 1.1//EN" "http://www.w3.org/Graphics/SVG/1.1/DTD/svg11.dtd" >
<svg xmlns="http://www.w3.org/2000/svg" xmlns:xlink="http://www.w3.org/1999/xlink" version="1.1">
<metadata>
Created by FontForge 20190801 at Wed Nov 10 15:28:37 2021
 By www-data
(c) 2014 - 2021 Adobe Systems Incorporated (http://www.adobe.com/), with Reserved Font Name `Source'.
</metadata>
<defs>
<font id="SourceSerif4_48ptSemiBoldItalic" horiz-adv-x="0" >
  <font-face 
    font-family="SourceSerif4_48ptSemiBoldItalic"
    font-weight="600"
    font-style="italic"
    font-stretch="normal"
    units-per-em="1000"
    panose-1="2 4 5 3 4 4 5 2 2 4"
    ascent="800"
    descent="-200"
    x-height="476"
    cap-height="664"
    bbox="-231 -314 2175 998"
    underline-thickness="50"
    underline-position="-75"
    slope="-12"
    unicode-range="U+0021-1F16B"
  />
<missing-glyph horiz-adv-x="640" 
d="M98 0l405 664h75l-405 -664h-75zM578 0h-75l-405 664h75zM165 58h345v548h-345v-548zM98 0v664h480v-664h-480z" />
    <glyph glyph-name="uniFB00" unicode="ff" horiz-adv-x="570" 
d="M-74 -250q-26 0 -46.5 6.5t-33.5 20t-18 33.5q3 20 18.5 31t34.5 11q17 0 29.5 -5.5t24 -16t22.5 -24.5l23 -28l-3 -3l-19 -2v6q14 11 26 26.5t22 36.5q15 26 24.5 58.5t17 67t12.5 67.5q17 108 33 215.5t32 217.5q12 73 34.5 125.5t53 86.5t65.5 50t71 16q27 0 51 -8
t40.5 -23t20.5 -36q-3 -21 -15 -30.5t-29 -9.5q-21 0 -37.5 12.5t-33.5 34.5l-32 41v8h35v-7q-19 -8 -37 -24t-34 -43t-28.5 -67.5t-22.5 -97.5q-17 -113 -35 -228.5t-36 -227.5q-7 -43 -20.5 -84.5t-32.5 -77.5t-45 -63q-19 -20 -40 -34.5t-44 -22.5t-48 -8zM36 428l3 26
l117 14v-6h282l-7 -34h-283h-112zM194 -250q-26 0 -46.5 6.5t-33.5 20t-18 33.5q3 20 18.5 31t34.5 11q17 0 29.5 -5.5t24 -16t22.5 -24.5l21 -26v-4h-18v4q15 12 28 29.5t23 38.5q13 27 22 58t15.5 64t11.5 65q17 108 33 215.5t32 217.5q12 76 35.5 129t54.5 86t66 48
t70 15q28 0 53 -9t42.5 -25t21.5 -38q-2 -21 -16 -32t-31 -11q-21 0 -36.5 12.5t-33.5 35.5l-35 46v6h24v-6q-18 -8 -35 -24.5t-31 -43t-26 -66t-21 -95.5q-17 -113 -35 -228.5t-36 -227.5q-7 -42 -19.5 -81.5t-30.5 -74.5t-42 -63q-19 -22 -41.5 -37.5t-46.5 -24.5t-50 -9z
M304 428l3 26l117 14v-6h184l-8 -36l-183 2h-113z" />
    <glyph glyph-name="uniFB01" unicode="fi" horiz-adv-x="545" 
d="M-74 -250q-26 0 -46.5 6.5t-33.5 20t-18 33.5q3 20 18.5 31t34.5 11q17 0 29.5 -5.5t24 -16t22.5 -24.5l21 -26v-4h-18v4q15 12 28 29.5t23 38.5q13 27 22 58t15.5 64t11.5 65q17 108 33 215.5t32 217.5q12 73 37.5 125.5t61 86.5t76.5 50t83 16q30 0 56.5 -9t45 -25.5
t23.5 -38.5q-3 -21 -16.5 -31.5t-31.5 -10.5q-21 0 -36.5 13t-33.5 35l-39 47v8h20v-12q-30 -8 -59 -34.5t-51.5 -73.5t-33.5 -120q-17 -112 -35 -227t-36 -227q-7 -42 -19.5 -81.5t-30.5 -74.5t-42 -63q-19 -22 -41.5 -37.5t-46.5 -24.5t-50 -9zM369 -14q-25 0 -43 14
t-18 40q0 14 3.5 33.5t8.5 43.5l64 310l-223 1h-125l3 26l117 14v-6h270l52 14l12 -10l-72 -344q-3 -16 -5 -28t-2 -20q0 -9 5 -14t12 -5q14 0 34.5 16t45.5 46l18 -13q-17 -29 -40 -56t-52 -44.5t-65 -17.5z" />
    <glyph glyph-name="uniFB02" unicode="fl" horiz-adv-x="548" 
d="M371 -14q-25 0 -42.5 14.5t-17.5 41.5q0 14 3.5 33.5t8.5 45.5l75 362q7 31 14 70t13 79t10 73l99 30l12 -10l-125 -602q-3 -17 -5.5 -29t-2.5 -20q0 -9 5.5 -14t12.5 -5q14 0 34.5 16t45.5 46l18 -13q-17 -28 -40 -55.5t-52.5 -45t-65.5 -17.5zM-74 -250
q-26 0 -46.5 6.5t-33.5 20t-18 33.5q3 20 18.5 31t34.5 11q17 0 29.5 -5.5t24 -16t22.5 -24.5l21 -26v-4h-18v4q15 12 28 29.5t23 38.5q13 27 22 58t15.5 64t11.5 65q17 108 33 215.5t32 217.5q12 73 34.5 125.5t53 86.5t65.5 50t71 16q27 0 50.5 -8t39.5 -22.5t20 -36.5
q-4 -19 -15.5 -28.5t-27.5 -9.5q-21 0 -35.5 12t-31.5 34l-30 38v9h25v-8q-18 -8 -35 -24.5t-32.5 -43.5t-27.5 -66.5t-22 -95.5q-17 -113 -35 -228.5t-36 -227.5q-7 -42 -19.5 -81.5t-30.5 -74.5t-42 -63q-19 -22 -41.5 -37.5t-46.5 -24.5t-50 -9zM36 428l3 26l117 14v-6
h184l-7 -36l-185 2h-112z" />
    <glyph glyph-name="uniFB03" unicode="ffi" horiz-adv-x="813" 
d="M-74 -250q-26 0 -46.5 6.5t-33.5 20t-18 33.5q3 20 18.5 31t34.5 11q17 0 29.5 -5.5t24 -16t22.5 -24.5l21 -26v-4h-18v4q15 12 28 29.5t23 38.5q13 27 22 58t15.5 64t11.5 65q17 108 33 215.5t32 217.5q12 73 34.5 125.5t53 86.5t65.5 50t71 16q27 0 50.5 -8t39.5 -22.5
t20 -36.5q-4 -19 -15.5 -28.5t-27.5 -9.5q-21 0 -35.5 12t-31.5 34l-30 38v9h25v-8q-18 -8 -35 -24.5t-32.5 -43.5t-27.5 -66.5t-22 -95.5q-17 -113 -35 -228.5t-36 -227.5q-7 -42 -19.5 -81.5t-30.5 -74.5t-42 -63q-19 -22 -41.5 -37.5t-46.5 -24.5t-50 -9zM36 428l3 26
l117 14v-6h282l-7 -34h-283h-112zM194 -250q-26 0 -46.5 6.5t-33.5 20t-18 33.5q3 20 18.5 31t34.5 11q17 0 29.5 -5.5t24 -16t22.5 -24.5l21 -26v-4h-18v4q15 12 28 29.5t23 38.5q13 27 22 58t15.5 64t11.5 65q17 108 33 215.5t32 217.5q12 73 37.5 125.5t61 86.5t76.5 50
t83 16q30 0 56.5 -9t45 -25.5t23.5 -38.5q-3 -21 -16.5 -31.5t-31.5 -10.5q-21 0 -36.5 13t-33.5 35l-39 47v8h20v-12q-30 -8 -59 -34.5t-51.5 -73.5t-33.5 -120q-17 -112 -35 -227t-36 -227q-7 -42 -19.5 -81.5t-30.5 -74.5t-42 -63q-19 -22 -41.5 -37.5t-46.5 -24.5
t-50 -9zM637 -14q-25 0 -43 14t-18 40q0 14 3.5 33.5t8.5 43.5l64 310l-223 1h-125l3 26l117 14v-6h270l52 14l12 -10l-72 -344q-3 -16 -5 -28t-2 -20q0 -9 5 -14t12 -5q14 0 34.5 16t45.5 46l18 -13q-17 -29 -40 -56t-51.5 -44.5t-65.5 -17.5z" />
    <glyph glyph-name="uniFB04" unicode="ffl" horiz-adv-x="816" 
d="M-74 -250q-26 0 -46.5 6.5t-33.5 20t-18 33.5q3 20 18.5 31t34.5 11q17 0 29.5 -5.5t24 -16t22.5 -24.5l21 -26v-4h-18v4q15 12 28 29.5t23 38.5q13 27 22 58t15.5 64t11.5 65q17 108 33 215.5t32 217.5q12 73 34.5 125.5t53 86.5t65.5 50t71 16q27 0 50.5 -8t39.5 -22.5
t20 -36.5q-4 -19 -15.5 -28.5t-27.5 -9.5q-21 0 -35.5 12t-31.5 34l-30 38v9h25v-8q-18 -8 -35 -24.5t-32.5 -43.5t-27.5 -66.5t-22 -95.5q-17 -113 -35 -228.5t-36 -227.5q-7 -42 -19.5 -81.5t-30.5 -74.5t-42 -63q-19 -22 -41.5 -37.5t-46.5 -24.5t-50 -9zM36 428l3 26
l117 14v-6h282l-7 -34h-283h-112zM639 -14q-25 0 -42.5 14.5t-17.5 41.5q0 14 3.5 33.5t8.5 45.5l75 362q7 31 14 70t13 79t10 73l99 30l12 -10l-125 -602q-3 -17 -5.5 -29t-2.5 -20q0 -9 5.5 -14t12.5 -5q14 0 34.5 16t45.5 46l18 -13q-17 -28 -40 -55.5t-52.5 -45
t-65.5 -17.5zM194 -250q-26 0 -46.5 6.5t-33.5 20t-18 33.5q3 20 18.5 31t34.5 11q17 0 29.5 -5.5t24 -16t22.5 -24.5l21 -26v-4h-18v4q15 12 28 29.5t23 38.5q13 27 22 58t15.5 64t11.5 65q17 108 33 215.5t32 217.5q12 73 34.5 125.5t53 86.5t65.5 50t71 16q27 0 50.5 -8
t39.5 -22.5t20 -36.5q-4 -19 -15.5 -28.5t-27.5 -9.5q-21 0 -35.5 12t-31.5 34l-30 38v9h25v-8q-18 -8 -35 -24.5t-32.5 -43.5t-27.5 -66.5t-22 -95.5q-17 -113 -35 -228.5t-36 -227.5q-7 -42 -19.5 -81.5t-30.5 -74.5t-42 -63q-19 -22 -41.5 -37.5t-46.5 -24.5t-50 -9z
M304 428l3 26l117 14v-6h184l-7 -36l-184 2h-113z" />
    <glyph glyph-name="f_b.liga" unicode="fb" horiz-adv-x="762" 
d="M434 -14q-22 0 -41.5 6.5t-35 20t-24 34.5t-8.5 51q0 31 7.5 68t14.5 73l51 248q8 36 14 72.5t11.5 73.5t10.5 73l99 29l12 -10l-79 -379l-1 -13l-23 -107q-5 -20 -9.5 -42t-8 -42t-3.5 -38q0 -26 12.5 -43.5t40.5 -17.5t52 15t45 41q23 30 39 68.5t24.5 79t8.5 74.5
q0 41 -12.5 63t-40.5 22q-27 0 -64 -25.5t-84 -83.5l-11 16h7q30 47 64 84t70.5 58t72.5 21q27 0 49 -12.5t35.5 -40t13.5 -72.5q0 -48 -17 -99t-47.5 -98.5t-70 -85t-84 -60t-90.5 -22.5zM-74 -250q-26 0 -46.5 6.5t-33.5 20t-18 33.5q3 20 18.5 31t34.5 11q17 0 29.5 -5.5
t24 -16t22.5 -24.5l21 -26v-4h-18v4q15 12 28 29.5t23 38.5q13 27 22 58t15.5 64t11.5 65q17 108 33 215.5t32 217.5q12 73 34.5 125.5t53 86.5t65.5 50t71 16q27 0 50.5 -8t39.5 -22.5t20 -36.5q-4 -19 -15.5 -28.5t-27.5 -9.5q-21 0 -35.5 12t-31.5 34l-30 38v9h25v-8
q-18 -8 -35 -24.5t-32.5 -43.5t-27.5 -66.5t-22 -95.5q-17 -113 -35 -228.5t-36 -227.5q-7 -42 -19.5 -81.5t-30.5 -74.5t-42 -63q-19 -22 -41.5 -37.5t-46.5 -24.5t-50 -9zM36 428l3 26l117 14v-6h184l-7 -36l-185 2h-112z" />
    <glyph glyph-name="f_h.liga" unicode="fh" horiz-adv-x="801" 
d="M310 -8l-12 10l101 481q5 23 10 48.5t9 53t8.5 58t8.5 62.5l100 30l11 -10l-78 -372l-2 -10l-28 -138q-8 -35 -14 -68.5t-11.5 -67.5t-10.5 -69zM622 -14q-26 0 -43 14t-17 39q0 15 3.5 34t8.5 43l40 169q5 23 10 46.5t5 36.5q0 19 -8.5 27.5t-22.5 8.5q-17 0 -39 -9
t-48.5 -27t-57.5 -46l-12 25h12q34 37 69.5 66t71.5 46t69 17q31 0 49.5 -18.5t18.5 -55.5q0 -22 -4 -45t-10 -46l-44 -189q-4 -16 -6.5 -28.5t-2.5 -19.5q0 -9 5 -14t12 -5q14 0 35.5 16t45.5 46l19 -13q-17 -28 -40.5 -55.5t-53.5 -45t-65 -17.5zM-74 -250
q-26 0 -46.5 6.5t-33.5 20t-18 33.5q3 20 18.5 31t34.5 11q17 0 29.5 -5.5t24 -16t22.5 -24.5l21 -26v-4h-18v4q15 12 28 29.5t23 38.5q13 27 22 58t15.5 64t11.5 65q17 108 33 215.5t32 217.5q12 73 34.5 125.5t53 86.5t65.5 50t71 16q27 0 50.5 -8t39.5 -22.5t20 -36.5
q-4 -19 -15.5 -28.5t-27.5 -9.5q-21 0 -35.5 12t-31.5 34l-30 38v9h25v-8q-18 -8 -35 -24.5t-32.5 -43.5t-27.5 -66.5t-22 -95.5q-17 -113 -35 -228.5t-36 -227.5q-7 -42 -19.5 -81.5t-30.5 -74.5t-42 -63q-19 -22 -41.5 -37.5t-46.5 -24.5t-50 -9zM36 428l3 26l117 14v-6
h184l-7 -36l-185 2h-112z" />
    <glyph glyph-name="f_j.liga" unicode="fj" horiz-adv-x="511" 
d="M-74 -250q-26 0 -46.5 6.5t-33.5 20t-18 33.5q3 20 18.5 31t34.5 11q17 0 29.5 -5.5t24 -16t22.5 -24.5l21 -26v-4h-18v4q15 12 28 29.5t23 38.5q13 27 22 58t15.5 64t11.5 65q17 108 33 215.5t32 217.5q12 73 37.5 125.5t61 86.5t76.5 50t83 16q30 0 56.5 -9t45 -25.5
t23.5 -38.5q-3 -21 -16.5 -31.5t-31.5 -10.5q-21 0 -36.5 13t-33.5 35l-39 47v8h20v-12q-30 -8 -59 -34.5t-51.5 -73.5t-33.5 -120q-17 -112 -35 -227t-36 -227q-7 -42 -19.5 -81.5t-30.5 -74.5t-42 -63q-19 -22 -41.5 -37.5t-46.5 -24.5t-50 -9zM164 -251l-6 22
q25 10 43.5 23t32.5 31q17 22 29 52t22 68t19 84l80 398l-223 1h-125l3 26l117 14v-6h270l51 14l13 -10l-90 -442q-9 -43 -22.5 -82t-32.5 -71.5t-46 -57.5q-24 -25 -57.5 -41.5t-77.5 -22.5z" />
    <glyph glyph-name="f_k.liga" unicode="fk" horiz-adv-x="741" 
d="M299 2l100 481q4 23 9 48t9.5 52t9 57.5t9.5 64.5l99 30l11 -10l-109 -520q-7 -35 -13.5 -68.5t-11.5 -67.5t-10 -69l-92 -8zM723 2q-16 -7 -34 -11t-40 -4q-38 0 -66 15.5t-47 68.5l-29 81q-10 26 -17.5 42t-17.5 26t-26 15l-12 4l-1 14l260 219q19 -2 32 -16t13 -34
q0 -23 -16 -37.5t-53 -29.5l-222 -108l2 7l32 -4q31 -5 54.5 -17t41.5 -32.5t32 -52.5l25 -59q14 -32 26.5 -46.5t35.5 -17.5l31 -3zM-74 -250q-26 0 -46.5 6.5t-33.5 20t-18 33.5q3 20 18.5 31t34.5 11q17 0 29.5 -5.5t24 -16t22.5 -24.5l21 -26v-4h-18v4q15 12 28 29.5
t23 38.5q13 27 22 58t15.5 64t11.5 65q17 108 33 215.5t32 217.5q12 73 34.5 125.5t53 86.5t65.5 50t71 16q27 0 50.5 -8t39.5 -22.5t20 -36.5q-4 -19 -15.5 -28.5t-27.5 -9.5q-21 0 -35.5 12t-31.5 34l-30 38v9h25v-8q-18 -8 -35 -24.5t-32.5 -43.5t-27.5 -66.5t-22 -95.5
q-17 -113 -35 -228.5t-36 -227.5q-7 -42 -19.5 -81.5t-30.5 -74.5t-42 -63q-19 -22 -41.5 -37.5t-46.5 -24.5t-50 -9zM36 428l3 26l117 14v-6h184l-7 -36l-185 2h-112z" />
    <glyph glyph-name="f_t.liga" unicode="ft" horiz-adv-x="583" 
d="M-74 -250q-26 0 -46.5 6.5t-33.5 20t-18 33.5q3 20 18.5 31t34.5 11q17 0 29.5 -5.5t24 -16t22.5 -24.5l21 -26v-4h-18v4q15 12 28 29.5t23 38.5q13 27 22 58t15.5 64t11.5 65q17 108 33 215.5t32 217.5q12 73 34.5 125.5t53 86.5t65.5 50t71 16q27 0 50.5 -8t39.5 -22.5
t20 -36.5q-4 -19 -15.5 -28.5t-27.5 -9.5q-21 0 -35.5 12t-31.5 34l-30 38v9h25v-8q-18 -8 -35 -24.5t-32.5 -43.5t-27.5 -66.5t-22 -95.5q-17 -113 -35 -228.5t-36 -227.5q-7 -42 -19.5 -81.5t-30.5 -74.5t-42 -63q-19 -22 -41.5 -37.5t-46.5 -24.5t-50 -9zM36 428l3 26
l117 14v-6h282l-7 -34h-283h-112zM309 428l4 26l117 14v-6h178l-8 -36l-173 2h-4h-114zM377 -14q-26 0 -43 15t-17 41q0 14 3.5 33.5t8.5 43.5l69 328l87 162h44l-103 -489q-3 -16 -5 -27t-2 -20t4.5 -13.5t12.5 -4.5q10 0 22.5 7t27 21t31.5 34l18 -13q-17 -29 -40.5 -56
t-53 -44.5t-64.5 -17.5z" />
    <glyph glyph-name="f_f_b.liga" unicode="ffb" horiz-adv-x="1030" 
d="M-74 -250q-26 0 -46.5 6.5t-33.5 20t-18 33.5q3 20 18.5 31t34.5 11q17 0 29.5 -5.5t24 -16t22.5 -24.5l21 -26v-4h-18v4q15 12 28 29.5t23 38.5q13 27 22 58t15.5 64t11.5 65q17 108 33 215.5t32 217.5q12 73 34.5 125.5t53 86.5t65.5 50t71 16q27 0 50.5 -8t39.5 -22.5
t20 -36.5q-4 -19 -15.5 -28.5t-27.5 -9.5q-21 0 -35.5 12t-31.5 34l-30 38v9h25v-8q-18 -8 -35 -24.5t-32.5 -43.5t-27.5 -66.5t-22 -95.5q-17 -113 -35 -228.5t-36 -227.5q-7 -42 -19.5 -81.5t-30.5 -74.5t-42 -63q-19 -22 -41.5 -37.5t-46.5 -24.5t-50 -9zM36 428l3 26
l117 14v-6h282l-7 -34h-283h-112zM702 -14q-22 0 -41.5 6.5t-35 20t-24 34.5t-8.5 51q0 31 7.5 68t14.5 73l51 248q8 36 14 72.5t11.5 73.5t10.5 73l99 29l12 -10l-79 -379l-1 -13l-23 -107q-5 -20 -9.5 -42t-8 -42t-3.5 -38q0 -26 12.5 -43.5t40.5 -17.5t52 15t45 41
q23 30 39 68.5t24.5 79t8.5 74.5q0 41 -12.5 63t-40.5 22q-27 0 -64 -25.5t-84 -83.5l-11 16h7q30 47 64 84t70.5 58t72.5 21q27 0 49 -12.5t35.5 -40t13.5 -72.5q0 -48 -17 -99t-47.5 -98.5t-70 -85t-84 -60t-90.5 -22.5zM194 -250q-26 0 -46.5 6.5t-33.5 20t-18 33.5
q3 20 18.5 31t34.5 11q17 0 29.5 -5.5t24 -16t22.5 -24.5l21 -26v-4h-18v4q15 12 28 29.5t23 38.5q13 27 22 58t15.5 64t11.5 65q17 108 33 215.5t32 217.5q12 73 34.5 125.5t53 86.5t65.5 50t71 16q27 0 50.5 -8t39.5 -22.5t20 -36.5q-4 -19 -15.5 -28.5t-27.5 -9.5
q-21 0 -35.5 12t-31.5 34l-30 38v9h25v-8q-18 -8 -35 -24.5t-32.5 -43.5t-27.5 -66.5t-22 -95.5q-17 -113 -35 -228.5t-36 -227.5q-7 -42 -19.5 -81.5t-30.5 -74.5t-42 -63q-19 -22 -41.5 -37.5t-46.5 -24.5t-50 -9zM304 428l3 26l117 14v-6h184l-7 -36l-184 2h-113z" />
    <glyph glyph-name="f_f_f.liga" unicode="fff" horiz-adv-x="838" 
d="M-74 -250q-26 0 -46.5 6.5t-33.5 20t-18 33.5q3 20 18.5 31t34.5 11q17 0 29.5 -5.5t24 -16t22.5 -24.5l21 -26v-4h-18v4q15 12 28 29.5t23 38.5q13 27 22 58t15.5 64t11.5 65q17 108 33 215.5t32 217.5q12 73 34.5 125.5t53 86.5t65.5 50t71 16q27 0 50.5 -8t39.5 -22.5
t20 -36.5q-4 -19 -15.5 -28.5t-27.5 -9.5q-21 0 -35.5 12t-31.5 34l-30 38v9h25v-8q-18 -8 -35 -24.5t-32.5 -43.5t-27.5 -66.5t-22 -95.5q-17 -113 -35 -228.5t-36 -227.5q-7 -42 -19.5 -81.5t-30.5 -74.5t-42 -63q-19 -22 -41.5 -37.5t-46.5 -24.5t-50 -9zM36 428l3 26
l117 14v-6h282l-7 -34h-283h-112zM194 -250q-26 0 -46.5 6.5t-33.5 20t-18 33.5q3 20 18.5 31t34.5 11q17 0 29.5 -5.5t24 -16t22.5 -24.5l23 -28l-3 -3l-19 -2v6q14 11 26 26.5t22 36.5q15 26 24.5 58.5t17 67t12.5 67.5q17 108 33 215.5t32 217.5q12 73 34.5 125.5
t53 86.5t65.5 50t71 16q27 0 51 -8t40.5 -23t20.5 -36q-3 -21 -15 -30.5t-29 -9.5q-21 0 -37.5 12.5t-33.5 34.5l-32 41v8h35v-7q-19 -8 -37 -24t-34 -43t-28.5 -67.5t-22.5 -97.5q-17 -113 -35 -228.5t-36 -227.5q-7 -43 -20.5 -84.5t-32.5 -77.5t-45 -63
q-18 -20 -39.5 -34.5t-44.5 -22.5t-48 -8zM304 428l3 26l117 14v-6h282l-7 -34h-282h-113zM462 -250q-26 0 -46.5 6.5t-33.5 20t-18 33.5q3 20 18.5 31t34.5 11q17 0 29.5 -5.5t24 -16t22.5 -24.5l21 -26v-4h-18v4q15 12 28 29.5t23 38.5q13 27 22 58t15.5 64t11.5 65
q17 108 33 215.5t32 217.5q12 76 35.5 129t54.5 86t66 48t70 15q28 0 53 -9t42.5 -25t21.5 -38q-2 -21 -16 -32t-31 -11q-21 0 -36.5 12.5t-33.5 35.5l-35 46v6h24v-6q-18 -8 -35 -24.5t-31 -43t-26 -66t-21 -95.5q-17 -113 -35 -228.5t-36 -227.5q-7 -42 -19.5 -81.5
t-30.5 -74.5t-42 -63q-19 -22 -41.5 -37.5t-46.5 -24.5t-50 -9zM572 428l4 26l116 14v-6h184l-8 -36l-183 2h-113z" />
    <glyph glyph-name="f_f_h.liga" unicode="ffh" horiz-adv-x="1069" 
d="M-74 -250q-26 0 -46.5 6.5t-33.5 20t-18 33.5q3 20 18.5 31t34.5 11q17 0 29.5 -5.5t24 -16t22.5 -24.5l21 -26v-4h-18v4q15 12 28 29.5t23 38.5q13 27 22 58t15.5 64t11.5 65q17 108 33 215.5t32 217.5q12 73 34.5 125.5t53 86.5t65.5 50t71 16q27 0 50.5 -8t39.5 -22.5
t20 -36.5q-4 -19 -15.5 -28.5t-27.5 -9.5q-21 0 -35.5 12t-31.5 34l-30 38v9h25v-8q-18 -8 -35 -24.5t-32.5 -43.5t-27.5 -66.5t-22 -95.5q-17 -113 -35 -228.5t-36 -227.5q-7 -42 -19.5 -81.5t-30.5 -74.5t-42 -63q-19 -22 -41.5 -37.5t-46.5 -24.5t-50 -9zM36 428l3 26
l117 14v-6h282l-7 -34h-283h-112zM578 -8l-12 10l101 481q5 23 10 48.5t9.5 53t8.5 58t8 62.5l100 30l11 -10l-78 -372l-1 -10l-29 -138q-8 -35 -14 -68.5t-11.5 -67.5t-10.5 -69zM890 -14q-26 0 -43 14t-17 39q0 15 3.5 34t8.5 43l40 169q5 23 10 46.5t5 36.5
q0 19 -8.5 27.5t-22.5 8.5q-17 0 -39 -9t-48.5 -27t-57.5 -46l-12 25h12q34 37 69.5 66t71.5 46t69 17q31 0 49.5 -18.5t18.5 -55.5q0 -22 -4 -45t-10 -46l-44 -189q-4 -16 -6.5 -28.5t-2.5 -19.5q0 -9 5 -14t12 -5q14 0 35.5 16t45.5 46l19 -13q-17 -28 -40.5 -55.5
t-53.5 -45t-65 -17.5zM194 -250q-26 0 -46.5 6.5t-33.5 20t-18 33.5q3 20 18.5 31t34.5 11q17 0 29.5 -5.5t24 -16t22.5 -24.5l21 -26v-4h-18v4q15 12 28 29.5t23 38.5q13 27 22 58t15.5 64t11.5 65q17 108 33 215.5t32 217.5q12 73 34.5 125.5t53 86.5t65.5 50t71 16
q27 0 50.5 -8t39.5 -22.5t20 -36.5q-4 -19 -15.5 -28.5t-27.5 -9.5q-21 0 -35.5 12t-31.5 34l-30 38v9h25v-8q-18 -8 -35 -24.5t-32.5 -43.5t-27.5 -66.5t-22 -95.5q-17 -113 -35 -228.5t-36 -227.5q-7 -42 -19.5 -81.5t-30.5 -74.5t-42 -63q-19 -22 -41.5 -37.5
t-46.5 -24.5t-50 -9zM304 428l3 26l117 14v-6h184l-7 -36l-184 2h-113z" />
    <glyph glyph-name="f_f_j.liga" unicode="ffj" horiz-adv-x="779" 
d="M-74 -250q-26 0 -46.5 6.5t-33.5 20t-18 33.5q3 20 18.5 31t34.5 11q17 0 29.5 -5.5t24 -16t22.5 -24.5l21 -26v-4h-18v4q15 12 28 29.5t23 38.5q13 27 22 58t15.5 64t11.5 65q17 108 33 215.5t32 217.5q12 73 34.5 125.5t53 86.5t65.5 50t71 16q27 0 50.5 -8t39.5 -22.5
t20 -36.5q-4 -19 -15.5 -28.5t-27.5 -9.5q-21 0 -35.5 12t-31.5 34l-30 38v9h25v-8q-18 -8 -35 -24.5t-32.5 -43.5t-27.5 -66.5t-22 -95.5q-17 -113 -35 -228.5t-36 -227.5q-7 -42 -19.5 -81.5t-30.5 -74.5t-42 -63q-19 -22 -41.5 -37.5t-46.5 -24.5t-50 -9zM36 428l3 26
l117 14v-6h282l-7 -34h-283h-112zM194 -250q-26 0 -46.5 6.5t-33.5 20t-18 33.5q3 20 18.5 31t34.5 11q17 0 29.5 -5.5t24 -16t22.5 -24.5l21 -26v-4h-18v4q15 12 28 29.5t23 38.5q13 27 22 58t15.5 64t11.5 65q17 108 33 215.5t32 217.5q12 73 37.5 125.5t61 86.5t76.5 50
t83 16q30 0 56.5 -9t45 -25.5t23.5 -38.5q-3 -21 -16.5 -31.5t-31.5 -10.5q-21 0 -36.5 13t-33.5 35l-39 47v8h20v-12q-30 -8 -59 -34.5t-51.5 -73.5t-33.5 -120q-17 -112 -35 -227t-36 -227q-7 -42 -19.5 -81.5t-30.5 -74.5t-42 -63q-19 -22 -41.5 -37.5t-46.5 -24.5
t-50 -9zM432 -251l-6 22q25 10 43.5 23t32.5 31q17 22 29 52t22 68t19 84l80 398l-223 1h-125l3 26l117 14v-6h270l51 14l13 -10l-90 -442q-9 -43 -22.5 -82t-32.5 -71.5t-46 -57.5q-24 -25 -57.5 -41.5t-77.5 -22.5z" />
    <glyph glyph-name="f_f_k.liga" unicode="ffk" horiz-adv-x="1009" 
d="M-74 -250q-26 0 -46.5 6.5t-33.5 20t-18 33.5q3 20 18.5 31t34.5 11q17 0 29.5 -5.5t24 -16t22.5 -24.5l21 -26v-4h-18v4q15 12 28 29.5t23 38.5q13 27 22 58t15.5 64t11.5 65q17 108 33 215.5t32 217.5q12 73 34.5 125.5t53 86.5t65.5 50t71 16q27 0 50.5 -8t39.5 -22.5
t20 -36.5q-4 -19 -15.5 -28.5t-27.5 -9.5q-21 0 -35.5 12t-31.5 34l-30 38v9h25v-8q-18 -8 -35 -24.5t-32.5 -43.5t-27.5 -66.5t-22 -95.5q-17 -113 -35 -228.5t-36 -227.5q-7 -42 -19.5 -81.5t-30.5 -74.5t-42 -63q-19 -22 -41.5 -37.5t-46.5 -24.5t-50 -9zM36 428l3 26
l117 14v-6h282l-7 -34h-283h-112zM567 2l100 481q4 23 9 48t9.5 52t9 57.5t9.5 64.5l99 30l11 -10l-108 -520q-8 -35 -14.5 -68.5t-11.5 -67.5t-10 -69l-92 -8zM991 2q-16 -7 -34 -11t-40 -4q-38 0 -66 15.5t-47 68.5l-29 81q-10 26 -17.5 42t-17.5 26t-26 15l-12 4l-1 14
l260 219q19 -2 32.5 -16t13.5 -34q0 -23 -16.5 -37.5t-53.5 -29.5l-222 -108l2 7l32 -4q31 -5 54.5 -17t41.5 -32.5t32 -52.5l25 -59q14 -32 26.5 -46.5t35.5 -17.5l31 -3zM194 -250q-26 0 -46.5 6.5t-33.5 20t-18 33.5q3 20 18.5 31t34.5 11q17 0 29.5 -5.5t24 -16
t22.5 -24.5l21 -26v-4h-18v4q15 12 28 29.5t23 38.5q13 27 22 58t15.5 64t11.5 65q17 108 33 215.5t32 217.5q12 73 34.5 125.5t53 86.5t65.5 50t71 16q27 0 50.5 -8t39.5 -22.5t20 -36.5q-4 -19 -15.5 -28.5t-27.5 -9.5q-21 0 -35.5 12t-31.5 34l-30 38v9h25v-8
q-18 -8 -35 -24.5t-32.5 -43.5t-27.5 -66.5t-22 -95.5q-17 -113 -35 -228.5t-36 -227.5q-7 -42 -19.5 -81.5t-30.5 -74.5t-42 -63q-19 -22 -41.5 -37.5t-46.5 -24.5t-50 -9zM304 428l3 26l117 14v-6h184l-7 -36l-184 2h-113z" />
    <glyph glyph-name="f_f_t.liga" unicode="fft" horiz-adv-x="851" 
d="M-74 -250q-26 0 -46.5 6.5t-33.5 20t-18 33.5q3 20 18.5 31t34.5 11q17 0 29.5 -5.5t24 -16t22.5 -24.5l21 -26v-4h-18v4q15 12 28 29.5t23 38.5q13 27 22 58t15.5 64t11.5 65q17 108 33 215.5t32 217.5q12 73 34.5 125.5t53 86.5t65.5 50t71 16q27 0 50.5 -8t39.5 -22.5
t20 -36.5q-4 -19 -15.5 -28.5t-27.5 -9.5q-21 0 -35.5 12t-31.5 34l-30 38v9h25v-8q-18 -8 -35 -24.5t-32.5 -43.5t-27.5 -66.5t-22 -95.5q-17 -113 -35 -228.5t-36 -227.5q-7 -42 -19.5 -81.5t-30.5 -74.5t-42 -63q-19 -22 -41.5 -37.5t-46.5 -24.5t-50 -9zM36 428l3 26
l117 14v-6h282l-7 -34h-283h-112zM577 428l4 26l117 14v-6h178l-8 -36l-173 2h-4h-114zM645 -14q-26 0 -43 15t-17 41q0 14 3.5 33.5t8.5 43.5l69 328l87 162h44l-103 -489q-3 -16 -5 -27t-2 -20t4.5 -13.5t12.5 -4.5q10 0 22.5 7t27 21t31.5 34l18 -13q-17 -29 -40.5 -56
t-53 -44.5t-64.5 -17.5zM194 -250q-26 0 -46.5 6.5t-33.5 20t-18 33.5q3 20 18.5 31t34.5 11q17 0 29.5 -5.5t24 -16t22.5 -24.5l21 -26v-4h-18v4q15 12 28 29.5t23 38.5q13 27 22 58t15.5 64t11.5 65q17 108 33 215.5t32 217.5q12 73 34.5 125.5t53 86.5t65.5 50t71 16
q27 0 50.5 -8t39.5 -22.5t20 -36.5q-4 -19 -15.5 -28.5t-27.5 -9.5q-21 0 -35.5 12t-31.5 34l-30 38v9h25v-8q-18 -8 -35 -24.5t-32.5 -43.5t-27.5 -66.5t-22 -95.5q-17 -113 -35 -228.5t-36 -227.5q-7 -42 -19.5 -81.5t-30.5 -74.5t-42 -63q-19 -22 -41.5 -37.5
t-46.5 -24.5t-50 -9zM304 428l3 26l117 14v-6h282l-7 -34h-282h-113z" />
    <glyph glyph-name=".notdef" horiz-adv-x="640" 
d="M98 0l405 664h75l-405 -664h-75zM578 0h-75l-405 664h75zM165 58h345v548h-345v-548zM98 0v664h480v-664h-480z" />
    <glyph glyph-name=".null" 
 />
    <glyph glyph-name="nonmarkingreturn" horiz-adv-x="333" 
 />
    <glyph glyph-name="uni00A0" unicode="&#xa0;" horiz-adv-x="207" 
 />
    <glyph glyph-name="uni00A0" unicode=" " horiz-adv-x="207" 
 />
    <glyph glyph-name="exclam" unicode="!" horiz-adv-x="272" 
d="M118 205l8 127q3 67 6.5 122t7.5 93.5t7 55.5q9 42 28 59.5t49 17.5q26 0 39.5 -13.5t13.5 -39.5q0 -17 -7.5 -48.5t-23.5 -81.5t-40.5 -122t-57.5 -170h-30zM42 48q0 30 22 51t51 21q26 0 42.5 -18t16.5 -42q0 -30 -21.5 -50.5t-51.5 -20.5q-26 0 -42.5 17.5t-16.5 41.5
z" />
    <glyph glyph-name="quotedbl" unicode="&#x22;" horiz-adv-x="397" 
d="M197 731q21 0 32.5 -11.5t11.5 -33.5q0 -19 -11.5 -57.5t-31 -93t-44.5 -122.5h-26l-1 84q1 13 1 35.5t1 49t2.5 50.5t4.5 39q6 32 21 46t40 14zM376 731q21 0 32.5 -11.5t11.5 -33.5q0 -19 -11.5 -57.5t-31 -93t-44.5 -122.5h-26l-1 84q1 13 1 35.5t1 49t2.5 50.5
t4.5 39q6 32 21 46t40 14z" />
    <glyph glyph-name="numbersign" unicode="#" horiz-adv-x="554" 
d="M79 0l173 646h46l-173 -646h-46zM33 256h473l-12 -78h-472zM552 391h-474l12 79h474zM291 0l173 646h45l-173 -646h-45z" />
    <glyph glyph-name="dollar" unicode="$" horiz-adv-x="501" 
d="M162 -116l88 434h33l-88 -434h-33zM197 -13q-50 0 -89.5 15.5t-61.5 49t-23 85.5q5 17 18 26.5t28 9.5q20 0 33 -13.5t15 -50.5l3 -96l-32 35q18 -13 35.5 -20t37 -9.5t41.5 -2.5q42 0 75.5 17t52.5 48t19 73q0 30 -13.5 51t-36 37.5t-49.5 32.5l-22 13
q-33 21 -62.5 44.5t-47 54.5t-17.5 73q0 62 29 105t80 65t117 22q49 0 86.5 -13.5t59 -43t22.5 -77.5q-4 -20 -15.5 -29.5t-28.5 -9.5q-20 0 -34 12.5t-15 49.5l-2 90l33 -36q-14 11 -32 17t-37.5 8.5t-39.5 2.5q-33 0 -63.5 -13.5t-50 -42.5t-19.5 -75q0 -30 13.5 -51
t35.5 -37t47 -31l22 -13q37 -22 67 -45.5t48.5 -54.5t18.5 -75q0 -49 -18 -86t-50 -62t-77 -37.5t-101 -12.5zM254 318l86 424h33l-86 -424h-33z" />
    <glyph glyph-name="percent" unicode="%" horiz-adv-x="851" 
d="M185 254q-51 0 -85.5 31t-34.5 101q0 49 12.5 99.5t36 93t59.5 68.5t83 26q52 0 85.5 -31t33.5 -100q0 -50 -12 -100.5t-36 -93t-59.5 -68.5t-82.5 -26zM185 275q20 0 37 20.5t30.5 54t23.5 74t15.5 80t5.5 71.5q0 46 -12.5 61.5t-29.5 15.5q-19 0 -35.5 -19.5
t-30.5 -52.5t-24 -72.5t-15.5 -79.5t-5.5 -74q0 -47 12.5 -63t28.5 -16zM208 -21l-32 25l499 656l31 -25zM631 -9q-51 0 -85.5 31t-34.5 101q0 49 12.5 99.5t36 93t59.5 68.5t83 26q52 0 85.5 -31t33.5 -100q0 -50 -12 -100.5t-36 -93t-59.5 -68.5t-82.5 -26zM631 12
q20 0 37 20.5t30.5 54t23.5 74t15.5 80t5.5 71.5q0 46 -12.5 61.5t-29.5 15.5q-19 0 -35.5 -19.5t-30.5 -52.5t-24 -72.5t-15.5 -79.5t-5.5 -74q0 -47 12.5 -63t28.5 -16z" />
    <glyph glyph-name="ampersand" unicode="&#x26;" horiz-adv-x="671" 
d="M297 -16q-81 0 -138.5 27.5t-88 76t-30.5 111.5q0 46 18.5 89t55.5 77.5t92 52.5l-3 -13q-17 25 -25 48.5t-8 48.5q0 45 23.5 85.5t69.5 66.5t113 26q40 0 70.5 -11t50.5 -31.5t26 -48.5q-2 -17 -12.5 -28.5t-30.5 -11.5q-18 0 -32.5 12t-27.5 40l-32 64l59 -26
q-15 6 -30 9.5t-32 3.5q-45 0 -76.5 -19t-48 -51t-16.5 -71q0 -23 6.5 -45t23.5 -47l-33 10q15 2 26 2.5t22 0.5q43 0 66 -13.5t23 -34.5q0 -20 -14 -31t-40 -11q-29 0 -56 12.5t-53 37.5l19 -4q-37 -19 -58 -45t-30.5 -56t-9.5 -61q0 -55 24.5 -91t65.5 -54t90 -18
q51 0 87 16t55.5 43t19.5 60q0 36 -22.5 62.5t-73.5 31.5l6 33q61 4 104 28t73 66.5t51 101.5l77 -35q-39 -92 -105 -135t-165 -53v12q34 -5 58 -23t36.5 -43.5t12.5 -55.5q0 -39 -15.5 -73.5t-45.5 -60t-73 -40t-99 -14.5z" />
    <glyph glyph-name="quotesingle" unicode="'" horiz-adv-x="218" 
d="M197 731q21 0 32.5 -11.5t11.5 -33.5q0 -19 -11.5 -57.5t-31 -93t-44.5 -122.5h-26l-1 84q1 13 1 35.5t1 49t2.5 50.5t4.5 39q6 32 21 46t40 14z" />
    <glyph glyph-name="parenleft" unicode="(" horiz-adv-x="353" 
d="M213 -188q-45 51 -77 107.5t-49.5 119.5t-17.5 132q0 108 37.5 208t108 188.5t168.5 161.5l17 -20q-79 -80 -133.5 -168.5t-83 -185t-28.5 -198.5q0 -95 21 -175.5t61 -153.5z" />
    <glyph glyph-name="parenright" unicode=")" horiz-adv-x="353" 
d="M150 729q45 -51 77 -107.5t49.5 -119.5t17.5 -132q0 -108 -37.5 -208t-108 -188.5t-168.5 -161.5l-17 20q79 80 133.5 168.5t83 185t28.5 198.5q0 95 -21 175.5t-61 153.5z" />
    <glyph glyph-name="asterisk" unicode="*" horiz-adv-x="438" 
d="M210 702q0 17 11 28t31 11q15 0 24.5 -9.5t11.5 -27.5q2 -10 2.5 -28.5t0.5 -52.5t-2 -91h-9q-26 55 -41 88.5t-22 52.5t-7 29zM82 561q0 18 12 28.5t26 10.5q12 0 30 -5t52 -16.5t92 -32.5l-2 -9q-60 -8 -100 -12t-64 -2.5t-35 10.5t-11 28zM174 392q0 13 10 30.5
t33.5 48.5t64.5 83l8 -3q-14 -76 -24.5 -118t-21.5 -59.5t-30 -17.5q-16 0 -28 10t-12 26zM271 547l6 5q64 -34 99 -55t50 -34.5t15 -28.5t-11 -28t-28 -14q-14 0 -29.5 14t-38.5 48t-63 93zM424 661q14 0 26.5 -10.5t12.5 -31.5q0 -14 -10.5 -23.5t-33 -18.5t-58.5 -19
t-87 -25l-4 8q50 46 79.5 72.5t46 37t28.5 10.5z" />
    <glyph glyph-name="plus" unicode="+" horiz-adv-x="514" 
d="M246 85v477h49v-477h-49zM492 303h-443v48h443v-48z" />
    <glyph glyph-name="comma" unicode="," horiz-adv-x="276" 
d="M9 -147l-11 25q31 17 52 33t35.5 36.5t25.5 47.5l5 -20l-35 16q-23 11 -33 26.5t-10 35.5q0 27 18 47.5t49 20.5q17 0 29 -5t23 -15q4 -8 6 -17t2 -22q0 -49 -19 -89t-54 -70t-83 -50z" />
    <glyph glyph-name="uni2010" unicode="&#x2010;" horiz-adv-x="308" 
d="M39 231v52h233v-52h-233z" />
    <glyph glyph-name="uni2010" unicode="&#xad;" horiz-adv-x="308" 
d="M39 231v52h233v-52h-233z" />
    <glyph glyph-name="uni2010" unicode="-" horiz-adv-x="308" 
d="M39 231v52h233v-52h-233z" />
    <glyph glyph-name="period" unicode="." horiz-adv-x="276" 
d="M98 -10q-27 0 -44 17.5t-17 41.5q0 21 10.5 37.5t27.5 26t36 9.5q27 0 43.5 -18t16.5 -42q0 -21 -10 -37.5t-26.5 -25.5t-36.5 -9z" />
    <glyph glyph-name="slash" unicode="/" horiz-adv-x="336" 
d="M-78 -160l426 869h66l-427 -869h-65z" />
    <glyph glyph-name="zero" unicode="0" horiz-adv-x="501" 
d="M207 -13q-47 0 -84.5 21.5t-58.5 66.5t-21 115q0 64 12 129.5t35 125t57 106.5t78 74t98 27q49 0 86 -21t57.5 -65t20.5 -114q0 -65 -12 -131.5t-35 -126t-57 -106.5t-78 -74t-98 -27zM210 17q25 0 48 21.5t43 59t36.5 85t28 99.5t18 104.5t6.5 97.5q0 54 -9.5 83.5
t-25 41.5t-34.5 12q-25 0 -47.5 -21t-43 -58t-37 -84t-28 -99t-18 -104t-6.5 -98q0 -55 9 -85t25 -42.5t35 -12.5z" />
    <glyph glyph-name="one" unicode="1" horiz-adv-x="501" 
d="M29 0l5 25l156 20h48l156 -20l-6 -25h-359zM155 0l122 599l24 -26l-150 -12l5 24l221 62l10 -9l-41 -182l-50 -246q-6 -33 -13.5 -71.5t-14 -75t-10.5 -63.5h-103z" />
    <glyph glyph-name="two" unicode="2" horiz-adv-x="501" 
d="M19 0l11 58l148 144q57 55 96.5 97t64.5 76.5t36 66.5t11 68q0 40 -13 64.5t-36.5 35.5t-52.5 11q-18 0 -35 -3.5t-33 -11t-33 -20.5l42 43l-17 -96q-6 -40 -19 -55.5t-36 -15.5q-15 0 -26.5 9t-16.5 27q8 50 35.5 84t69.5 52t92 18q57 0 96.5 -19t60 -52t20.5 -76
q0 -41 -18.5 -78t-53.5 -75t-85 -79.5t-114 -92.5l-139 -115l18 35v-13h329l-17 -87h-385z" />
    <glyph glyph-name="three" unicode="3" horiz-adv-x="501" 
d="M203 -14q-49 0 -88 16.5t-61 51.5t-23 89q7 18 19.5 26.5t26.5 7.5q21 0 33.5 -13.5t13.5 -49.5l2 -100l-26 31q22 -16 46 -22t49 -6q45 0 78 22.5t51 59.5t18 81q0 37 -14 67t-41.5 48t-69.5 18h-28l7 33h33q48 0 83 23t53.5 59.5t18.5 78.5q0 34 -11.5 59.5t-34 40.5
t-55.5 15q-15 0 -30 -2t-31 -7.5t-33 -16.5l38 34l-18 -88q-6 -35 -19 -49.5t-35 -14.5q-14 0 -25.5 8t-16.5 23q6 45 32 77t66.5 49t90.5 17q61 0 100 -20t58.5 -52.5t19.5 -71.5q0 -47 -26.5 -87.5t-76 -66t-120.5 -28.5l-4 8q63 -2 106 -22t65 -54.5t22 -80.5
q0 -53 -29.5 -96t-83.5 -69t-130 -26z" />
    <glyph glyph-name="four" unicode="4" horiz-adv-x="501" 
d="M234 -13l41 203l4 22l71 348h-10l36 17l-158 -178l-158 -179l8 33v-16h413l-17 -79h-451l14 68l363 413h71l-132 -652h-95z" />
    <glyph glyph-name="five" unicode="5" horiz-adv-x="501" 
d="M188 -14q-48 0 -85.5 17t-58 51.5t-20.5 86.5q6 17 19 25.5t27 8.5q23 0 34.5 -15t12.5 -52l3 -97l-22 31q14 -11 27.5 -16.5t27.5 -7.5t28 -2q46 0 82 23t57 64t21 95q0 43 -14 75t-39.5 50t-62.5 18q-28 0 -51 -5.5t-42 -14.5l-19 10l75 308h315l-17 -87h-301l27 52
l-64 -261l-15 8q18 10 39 16.5t44 10t46 3.5q56 0 97 -21t63 -59t22 -91q0 -76 -35 -125.5t-93 -74t-128 -24.5z" />
    <glyph glyph-name="six" unicode="6" horiz-adv-x="501" 
d="M227 -14q-58 0 -99.5 24.5t-63.5 71t-22 111.5q0 91 35 171.5t98.5 143.5t149.5 101t189 43l2 -25q-89 -10 -158 -50t-117 -102t-73 -141t-25 -168q0 -52 10 -85t30.5 -49t51.5 -16q25 0 47.5 16.5t40 44.5t27.5 64.5t10 77.5q0 59 -25.5 86.5t-69.5 27.5
q-29 0 -62.5 -14.5t-64.5 -43.5l-8 26h14q41 43 81 63t86 20q47 0 80.5 -20.5t51.5 -57t18 -84.5q0 -54 -19.5 -97t-52.5 -74t-75 -48t-87 -17z" />
    <glyph glyph-name="seven" unicode="7" horiz-adv-x="501" 
d="M79 0l-6 13l407 568v-28h-368l17 86h398l-11 -57l-335 -582h-102z" />
    <glyph glyph-name="eight" unicode="8" horiz-adv-x="501" 
d="M209 -13q-55 0 -94.5 16.5t-60.5 47t-21 70.5q0 44 23.5 81t66.5 66.5t101 52.5v8l22 -18q-40 -23 -68 -51t-42.5 -61.5t-14.5 -72.5q0 -32 10.5 -57t31.5 -39t52 -14q32 0 59 14.5t44 44t17 72.5q0 33 -14.5 58t-40.5 49t-60 51q-29 24 -53.5 49t-38.5 54t-14 63
q0 54 27 95t73 63.5t103 22.5q50 0 86.5 -16.5t56 -45.5t19.5 -67t-18.5 -70.5t-58 -60t-103.5 -53.5v-8l-19 18q47 30 72 58t34.5 57t9.5 60q0 29 -9.5 51t-28 35t-44.5 13q-28 0 -52.5 -13t-40 -40t-15.5 -68q0 -28 13.5 -52t37 -46.5t54.5 -47.5q35 -27 62.5 -54
t44 -57.5t16.5 -68.5q0 -57 -30.5 -99.5t-81.5 -66t-113 -23.5z" />
    <glyph glyph-name="nine" unicode="9" horiz-adv-x="501" 
d="M43 10q84 22 149 64.5t110 103t68.5 136t23.5 161.5q0 50 -10 82.5t-29 49t-49 16.5q-29 0 -53 -19t-42 -48.5t-27.5 -64.5t-9.5 -68q0 -35 11 -61.5t33 -42t55 -15.5q28 0 61 15.5t65 42.5l7 -25h-12q-40 -42 -81 -61.5t-84 -19.5q-51 0 -85 22t-51 58.5t-17 80.5
q0 45 16.5 87t47.5 75.5t74.5 53t96.5 19.5q57 0 97.5 -24.5t62.5 -71t22 -111.5q0 -86 -32.5 -162t-92 -137t-140.5 -102.5t-179 -59.5z" />
    <glyph glyph-name="colon" unicode=":" horiz-adv-x="276" 
d="M98 -10q-27 0 -44 17.5t-17 41.5q0 21 10.5 37.5t27.5 26t36 9.5q27 0 43.5 -18t16.5 -42q0 -21 -10 -37.5t-26.5 -25.5t-36.5 -9zM158 333q-27 0 -44 17.5t-17 41.5q0 21 10.5 37.5t27.5 26t36 9.5q27 0 43.5 -18t16.5 -42q0 -21 -10 -37.5t-26.5 -25.5t-36.5 -9z" />
    <glyph glyph-name="semicolon" unicode=";" horiz-adv-x="276" 
d="M9 -147l-11 25q31 17 52 33t35.5 36.5t25.5 47.5l5 -20l-35 16q-23 11 -33 26.5t-10 35.5q0 27 18 47.5t49 20.5q17 0 29 -5t23 -15q4 -8 6 -17t2 -22q0 -49 -19 -89t-54 -70t-83 -50zM158 333q-27 0 -44 17.5t-17 41.5q0 21 10.5 37.5t27.5 26t36 9.5q27 0 43.5 -18
t16.5 -42q0 -21 -10 -37.5t-26.5 -25.5t-36.5 -9z" />
    <glyph glyph-name="less" unicode="&#x3c;" horiz-adv-x="514" 
d="M67 310v34l382 220l23 -44l-365 -206v26l365 -209l-23 -44z" />
    <glyph glyph-name="equal" unicode="=" horiz-adv-x="514" 
d="M49 200v52h443v-52h-443zM49 406v52h443v-52h-443z" />
    <glyph glyph-name="greater" unicode="&#x3e;" horiz-adv-x="514" 
d="M481 341v-34l-382 -220l-23 44l365 206v-26l-365 209l23 44z" />
    <glyph glyph-name="question" unicode="?" horiz-adv-x="431" 
d="M111 194q0 44 2 74t9.5 51t20.5 38q10 13 23 25t36.5 28t65.5 39q36 21 57.5 40t31.5 38.5t10 39.5q0 40 -25 61t-67 21q-25 0 -48 -5t-44 -18l43 32l-22 -87q-7 -31 -21 -43.5t-36 -12.5q-15 0 -26.5 9.5t-15.5 27.5q6 37 29.5 65.5t62.5 45.5t90 17q50 0 87.5 -15.5
t58 -43.5t20.5 -68q0 -37 -13.5 -66.5t-44 -55.5t-78.5 -54q-47 -26 -74 -42t-42 -26t-24 -19q-10 -10 -16.5 -23t-11 -31t-8.5 -47zM46 47q0 30 22 50.5t51 20.5q25 0 41 -17.5t16 -41.5q0 -30 -21 -50t-49 -20q-27 0 -43.5 17t-16.5 41z" />
    <glyph glyph-name="at" unicode="@" horiz-adv-x="850" 
d="M328 43q-24 0 -45.5 11t-35 36t-13.5 65q0 45 16.5 91.5t44 88.5t61.5 75.5t71.5 53t73.5 19.5q30 0 53 -15t41 -43l-46 -34q-12 16 -29.5 28.5t-43.5 12.5q-30 0 -57 -23t-48 -60.5t-33.5 -80.5t-12.5 -83q0 -38 12 -58t37 -20q16 0 34 8.5t41 28.5t52 54l13 -17h-7
q-27 -40 -56 -71t-60 -49t-63 -18zM579 43q-39 0 -64.5 16.5t-35.5 44.5t-2 63l56 268l86 53l10 -9l-63 -300q-7 -34 -4 -55t15.5 -30.5t31.5 -9.5q24 0 52 16t53 48t41.5 80.5t16.5 113.5q0 88 -33.5 151.5t-94.5 98.5t-146 35q-90 0 -163 -35t-125.5 -95t-80.5 -137.5
t-28 -163.5q0 -104 38 -174.5t105.5 -106.5t153.5 -36q47 0 89.5 8t86.5 26l8 -21q-43 -22 -92.5 -34t-99.5 -12q-77 0 -141 23.5t-109.5 68t-70 109t-24.5 145.5q0 74 22 142.5t62 127t96.5 102.5t126.5 68.5t150 24.5q106 0 178 -42t109 -113.5t37 -159.5q0 -74 -24 -130
t-61.5 -93.5t-80.5 -56.5t-81 -19z" />
    <glyph glyph-name="A" unicode="A" horiz-adv-x="621" 
d="M-34 0l5 27l84 12h20l88 -12l-5 -27h-192zM25 0l342 667h53l94 -667h-107l-72 557h8l-3 -6l-275 -551h-40zM167 226l5 33h258l-1 -33h-262zM314 0l5 27l118 14h45l96 -14l-6 -27h-258z" />
    <glyph glyph-name="B" unicode="B" horiz-adv-x="572" 
d="M-5 0l5 27l112 14h34l-6 -41h-145zM69 0l67 354q14 77 27 155t25 155h110l-67 -354q-15 -78 -28 -155.5t-25 -154.5h-109zM107 636l6 28h145l-5 -42h-36zM113 0l7 33h113q59 0 101.5 19.5t65.5 57.5t23 93q0 59 -38 92.5t-107 33.5h-106l6 32h94q53 0 92 18.5t60 55.5
t21 90q0 35 -13.5 58t-39 35t-62.5 12h-104l7 34h115q69 0 112.5 -18.5t63.5 -50t20 -71.5q0 -50 -30 -90t-84.5 -65t-130.5 -28l5 10q70 -2 120 -21.5t77.5 -54t27.5 -81.5q0 -36 -15.5 -71t-49 -62.5t-88.5 -44t-133 -16.5h-130z" />
    <glyph glyph-name="C" unicode="C" horiz-adv-x="568" 
d="M306 -16q-79 0 -137.5 32t-90.5 91.5t-32 143.5q0 61 16 122t46.5 116t75.5 98t102 68t125 25q27 0 55 -4.5t56 -14.5t53 -28l-20 -154h-33l-27 165l31 -29q-25 18 -53 25.5t-57 7.5q-50 0 -91.5 -25.5t-73 -68t-53.5 -96.5t-33.5 -112.5t-11.5 -113.5q0 -70 20.5 -118.5
t57.5 -73t86 -24.5q31 0 64.5 8t69.5 30l-53 -39l79 173h33l-26 -160q-41 -22 -84 -33t-94 -11z" />
    <glyph glyph-name="D" unicode="D" horiz-adv-x="639" 
d="M-5 0l5 27l111 14h35l-6 -41h-145zM69 0l67 354q14 77 27 155t25 155h110l-67 -354q-15 -78 -28 -155.5t-25 -154.5h-109zM107 636l6 28h146l-6 -42h-35zM125 0l7 33h106q61 0 111 29t87 80t57 119t20 146q0 114 -48 168.5t-140 54.5h-87l7 34h98q88 0 150.5 -32
t96 -90.5t33.5 -142.5q0 -95 -30.5 -169t-84.5 -125t-123.5 -78t-147.5 -27h-112z" />
    <glyph glyph-name="E" unicode="E" horiz-adv-x="545" 
d="M-5 0l5 27l112 14h34l-6 -41h-145zM69 0l67 354q14 77 27 155t25 155h110l-67 -354q-15 -78 -28 -155.5t-25 -154.5h-109zM107 636l6 28h145l-5 -42h-36zM119 0l6 34h305l-47 -26l83 176h33l-39 -184h-341zM179 322l7 34h195l-6 -34h-196zM229 630l6 34h317l-21 -178h-33
l-26 169l38 -25h-281zM367 228l-9 103l3 18l47 102h27l-41 -223h-27z" />
    <glyph glyph-name="F" unicode="F" horiz-adv-x="513" 
d="M-5 0l6 27l111 14h41l115 -14l-6 -27h-267zM69 0l67 354q14 77 27 155t25 155h110l-67 -354q-15 -78 -28 -155.5t-25 -154.5h-109zM107 636l6 28h148l-8 -42h-35zM179 322l7 34h193l-7 -34h-193zM229 630l6 34h318l-23 -178h-32l-27 169l39 -25h-281zM364 225l-9 104
l3 20l47 102h28l-42 -226h-27z" />
    <glyph glyph-name="G" unicode="G" horiz-adv-x="615" 
d="M46 251q0 63 16.5 124.5t47.5 116.5t75.5 97t102 66.5t125.5 24.5q28 0 58 -4.5t59.5 -14.5t54.5 -29l-22 -154h-33l-27 164l30 -26q-26 18 -55 25t-58 7q-51 0 -93 -25t-74.5 -68t-54.5 -96.5t-33 -112t-11 -114.5q0 -70 21 -118.5t58.5 -73t87.5 -24.5q27 0 55 6t58 19
l-36 -27l13 71q12 62 21.5 121.5t17.5 115.5h103l-55 -290q-44 -24 -90 -36t-97 -12q-82 0 -141.5 32t-91.5 92t-32 143zM361 295l5 27h245l-5 -27l-100 -14h-31z" />
    <glyph glyph-name="H" unicode="H" horiz-adv-x="695" 
d="M-5 0l5 27l112 14h37l110 -14l-5 -27h-259zM69 0l67 353q14 77 27 155.5t25 155.5h110l-67 -354q-15 -78 -28 -155.5t-25 -154.5h-109zM107 636l6 28h259l-5 -28l-111 -14h-38zM185 322v34h363v-34h-363zM359 0l5 27l112 14h37l110 -14l-6 -27h-258zM432 0l67 353
q15 77 28 155.5t25 155.5h109l-67 -354q-14 -78 -27 -155.5t-25 -154.5h-110zM471 636l5 28h260l-6 -28l-111 -14h-38z" />
    <glyph glyph-name="I" unicode="I" horiz-adv-x="331" 
d="M-5 0l5 27l112 14h37l110 -14l-5 -27h-259zM69 0l67 353q14 77 27 155.5t25 155.5h110l-67 -354q-15 -78 -28 -155.5t-25 -154.5h-109zM107 636l6 28h259l-5 -28l-111 -14h-38z" />
    <glyph glyph-name="J" unicode="J" horiz-adv-x="330" 
d="M-121 -90q5 22 23 35t44 13q13 0 25.5 -5t29.5 -19.5t42 -43.5v-7h-27v7q20 13 34 34t25 53t19 74q4 18 7.5 39.5t8.5 49.5t11.5 67t15.5 91q15 88 33 179t34 187h109l-85 -424q-12 -57 -22.5 -103t-23 -82.5t-28.5 -65.5t-40 -53q-21 -26 -44 -44t-48.5 -27.5
t-55.5 -9.5q-34 0 -59.5 14t-27.5 41zM112 636l5 28h271l-5 -28l-115 -14h-37z" />
    <glyph glyph-name="K" unicode="K" horiz-adv-x="638" 
d="M-6 0l5 27l114 14h35l106 -14l-5 -27h-255zM68 0l67 354q14 77 27 155t25 155h110l-67 -354q-14 -78 -27.5 -155.5t-24.5 -154.5h-110zM107 636l5 28h259l-5 -28l-113 -14h-36zM153 184l-4 54h20l24 24l391 402h45zM439 0l-140 348l77 80l179 -428h-116zM358 0l4 27
l106 14h37l97 -14l-5 -27h-239zM467 636l5 28h210l-6 -28l-99 -14h-20z" />
    <glyph glyph-name="L" unicode="L" horiz-adv-x="526" 
d="M-5 0l5 27l112 14h34l-6 -41h-145zM69 0l67 354q14 77 27 155t25 155h110l-67 -354q-15 -78 -28 -155.5t-25 -154.5h-109zM107 636l6 28h262l-5 -28l-112 -14h-41zM119 0l6 34h295l-50 -26l86 181h33l-39 -189h-331z" />
    <glyph glyph-name="M" unicode="M" horiz-adv-x="835" 
d="M-19 0l5 27l90 12h21l91 -12l-6 -27h-201zM62 0l148 655h33l-76 -344l-70 -311h-35zM325 0l-107 593l-2 12l-3 20l-91 11l6 28h186l95 -547h-19l7 12l286 535h35v-62h-30l-9 -15l-314 -587h-40zM510 0l4 28l110 14h39l110 -14l-5 -28h-258zM585 0l87 608l26 56h87
l-52 -352q-11 -78 -21 -156.5t-19 -155.5h-108zM708 622l6 42h151l-4 -28l-113 -14h-40z" />
    <glyph glyph-name="N" unicode="N" horiz-adv-x="656" 
d="M-12 0l5 27l90 12h20l98 -12l-5 -27h-208zM66 0l122 652h37l-60 -323l-61 -329h-38zM499 636l6 28h206l-6 -28l-83 -11h-20zM534 148l-38 -49l43 230l62 335h37l-124 -670h-41l-281 584l-3 6l-21 44l-65 8l6 28h163l248 -516h14z" />
    <glyph glyph-name="O" unicode="O" horiz-adv-x="629" 
d="M273 -16q-65 0 -116 28.5t-80.5 85t-29.5 139.5q0 73 16.5 139t47.5 121t73.5 96.5t94.5 64t111 22.5q66 0 117.5 -29.5t81 -86t29.5 -139.5q0 -73 -17 -138.5t-47.5 -121t-73.5 -96t-95 -63t-112 -22.5zM276 16q35 0 66 18.5t57 50.5t47 75t35 92.5t22 103t8 105.5
q0 57 -12.5 99t-39.5 64.5t-71 22.5q-35 0 -66 -18t-57 -50t-46.5 -75t-35 -92.5t-22 -102.5t-7.5 -106q0 -56 12.5 -98.5t39.5 -65.5t70 -23z" />
    <glyph glyph-name="P" unicode="P" horiz-adv-x="529" 
d="M-5 0l6 27l111 14h42l114 -14l-6 -27h-267zM69 0l67 354q14 77 27 155t25 155h110l-67 -354q-15 -78 -28 -155.5t-25 -154.5h-109zM107 636l6 28h147l-6 -42h-37zM156 274l7 33h104q54 0 94 24.5t62 69t22 101.5q0 59 -32.5 93.5t-94.5 34.5h-97l7 34h96
q76 0 126.5 -20.5t75 -57t24.5 -85.5q0 -62 -30.5 -114t-93.5 -82.5t-160 -30.5h-110z" />
    <glyph glyph-name="Q" unicode="Q" horiz-adv-x="629" 
d="M435 -246q-68 0 -120 29.5t-79.5 87t-20.5 141.5h92q-6 -67 13 -113t58 -69t92 -23q34 0 60.5 8t54.5 24l12 -22q-31 -28 -70.5 -45.5t-91.5 -17.5zM273 -16q-65 0 -116 28.5t-80.5 85t-29.5 139.5q0 73 16.5 139t47.5 121t73.5 96.5t94.5 64t111 22.5q66 0 117.5 -29.5
t81 -86t29.5 -139.5q0 -73 -17 -138.5t-47.5 -121t-73.5 -96t-95 -63t-112 -22.5zM276 16q35 0 66 18.5t57 50.5t47 75t35 92.5t22 103t8 105.5q0 57 -12.5 99t-39.5 64.5t-71 22.5q-35 0 -66 -18t-57 -50t-46.5 -75t-35 -92.5t-22 -102.5t-7.5 -106q0 -56 12.5 -98.5
t39.5 -65.5t70 -23z" />
    <glyph glyph-name="R" unicode="R" horiz-adv-x="617" 
d="M-5 0l5 27l111 14h38l113 -14l-6 -27h-261zM69 0l67 353q14 77 27 155.5t25 155.5h110l-67 -354q-15 -78 -28 -155.5t-25 -154.5h-109zM107 636l6 28h136l-2 -42h-30zM502 -10q-33 0 -54.5 7.5t-34 25t-19.5 47.5l-37 140q-10 39 -21 60t-30 29.5t-53 8.5h-82l7 33l111 1
q56 0 93 23t55.5 63t18.5 90q0 52 -27.5 82t-81.5 30h-113l4 34h124q97 0 148 -41t51 -108q0 -40 -18 -74.5t-52 -61.5t-81.5 -43.5t-105.5 -21.5l-1 13q41 -4 68 -12.5t45 -24t29.5 -39.5t22.5 -58l52 -175l-54 25l120 -16l-5 -27q-14 -3 -25.5 -5.5t-24 -3.5t-29.5 -1z
" />
    <glyph glyph-name="S" unicode="S" horiz-adv-x="466" 
d="M14 31l30 154h35l15 -169l-37 34q28 -15 60.5 -23.5t65.5 -8.5q42 0 73 17t48 45.5t17 62.5q0 32 -14 58.5t-38 51t-56 50.5q-35 28 -61.5 56t-40.5 60t-14 70q0 56 26.5 99t75 67.5t113.5 24.5q29 0 58.5 -5.5t57 -15.5t50.5 -27l-29 -144h-35l-17 157l32 -31
q-28 17 -53.5 24.5t-52.5 7.5q-36 0 -67.5 -13t-50 -39t-18.5 -66q0 -29 12.5 -53.5t34 -46.5t49.5 -45q38 -30 68 -59.5t47 -63t17 -76.5q0 -61 -28 -105.5t-80 -69.5t-122 -25q-29 0 -61 5.5t-60 16t-50 25.5z" />
    <glyph glyph-name="T" unicode="T" horiz-adv-x="563" 
d="M67 477l39 187h511l-23 -187h-32l-27 178l39 -25h-437l50 25l-86 -178h-34zM101 0l6 27l123 14h40l118 -14l-5 -27h-282zM187 0l67 354q14 77 27.5 155t25.5 155h109l-67 -354q-14 -78 -27.5 -155.5t-25.5 -154.5h-109z" />
    <glyph glyph-name="U" unicode="U" horiz-adv-x="645" 
d="M205 622l-106 14l6 28h255l-5 -28l-114 -14h-36zM291 -16q-55 0 -99.5 18t-70 58.5t-25.5 109.5q0 23 3.5 50.5t8.5 56.5l15 76q10 58 19 109t17 100.5t16 101.5h109l-70 -387q-5 -26 -8.5 -50.5t-3.5 -47.5q0 -45 16 -74.5t44 -43t65 -13.5q50 0 86.5 19t62 66t40.5 129
l75 402h38l-76 -407q-18 -100 -53 -160t-87.5 -86.5t-121.5 -26.5zM593 625l-91 11l5 28h195l-6 -28l-85 -11h-18z" />
    <glyph glyph-name="V" unicode="V" horiz-adv-x="598" 
d="M74 636l5 28h260l-6 -27l-117 -15h-47zM230 -6l-97 670h111l73 -562h-18l7 15l274 547h40l-341 -670h-49zM483 637l5 27h190l-5 -28l-82 -11h-18z" />
    <glyph glyph-name="W" unicode="W" horiz-adv-x="871" 
d="M173 622l-101 14l5 28h257l-5 -28l-122 -14h-34zM183 -5l-52 669h110l32 -545h-18l9 18l247 527h63l50 -545h-17l7 16l235 529h40l-304 -669h-50l-56 563h20l-7 -16l-258 -547h-51zM505 624l-92 12l5 28h248l-6 -28l-114 -14zM841 625l-93 11l6 28h195l-6 -28l-84 -11
h-18z" />
    <glyph glyph-name="X" unicode="X" horiz-adv-x="616" 
d="M-30 0l6 27l87 12h26l86 -12l-5 -27h-200zM22 0l279 348l34 -32h-22l-11 -14l-236 -302h-44zM93 636l5 28h256l-6 -28l-114 -14h-39zM307 0l6 27l119 14h38l102 -14l-6 -27h-259zM348 329l-29 36h20l12 15l220 284h43zM461 636l5 28h201l-6 -28l-87 -11h-27zM404 0
l-260 664h112l260 -664h-112z" />
    <glyph glyph-name="Y" unicode="Y" horiz-adv-x="577" 
d="M74 636l5 28h259l-5 -28l-114 -14h-42zM109 0l5 27l121 14h42l118 -14l-5 -27h-281zM262 212l-135 452h116l100 -359h-9l3 5l224 354h39l-290 -452h-48zM194 0l57 303h104q-11 -57 -19.5 -106t-16.5 -97t-16 -100h-109zM459 636l6 28h189l-6 -28l-83 -11h-21z" />
    <glyph glyph-name="Z" unicode="Z" horiz-adv-x="526" 
d="M-7 0l5 24l450 625l-12 -30l1 11h-135h-142l40 18l-84 -164h-34l39 180h439l-4 -25l-450 -624l11 30l-1 -11h155h143l-40 -18l88 170h34l-45 -186h-458z" />
    <glyph glyph-name="bracketleft" unicode="[" horiz-adv-x="327" 
d="M26 -161l107 566q10 52 20 107t19 107t15 95h93l-106 -561q-9 -52 -19.5 -108t-19.5 -109.5t-16 -96.5h-93zM64 -161l8 42h26l120 -15l-5 -27h-149zM221 672l8 42h149l-5 -27l-125 -15h-27z" />
    <glyph glyph-name="backslash" unicode="\" horiz-adv-x="331" 
d="M251 -160h-61l-96 869h62z" />
    <glyph glyph-name="bracketright" unicode="]" horiz-adv-x="327" 
d="M314 714l-107 -566q-10 -52 -20 -107t-19 -107t-15 -95h-93l106 561q9 52 19.5 108t19.5 109.5t16 96.5h93zM276 714l-8 -42h-26l-120 15l5 27h149zM119 -119l-8 -42h-149l5 27l125 15h27z" />
    <glyph glyph-name="asciicircum" unicode="^" horiz-adv-x="513" 
d="M85 233l162 267h38l163 -267l-39 -25l-158 256h30l-158 -256z" />
    <glyph glyph-name="underscore" unicode="_" horiz-adv-x="501" 
d="M-14 -52v52h426v-52h-426z" />
    <glyph glyph-name="grave" unicode="`" horiz-adv-x="400" 
d="M317 545l-19 -12q-17 19 -33.5 36t-33 35t-34.5 36q-18 17 -27 32t-9 28q0 19 12 31t29 12q20 0 34 -14t25 -44q10 -23 19 -46.5t18.5 -46.5t18.5 -47z" />
    <glyph glyph-name="a" unicode="a" horiz-adv-x="523" 
d="M126 -14q-25 0 -47 13t-36 40.5t-14 71.5q0 47 18.5 98t49 98.5t69.5 85.5t80.5 60.5t81.5 22.5q22 0 41.5 -7.5t36 -21.5t28.5 -34l-51 -39q-15 16 -35.5 30.5t-46.5 14.5q-17 0 -33.5 -6.5t-31.5 -18t-29 -27.5q-24 -29 -41.5 -68t-26.5 -80.5t-9 -76.5q0 -41 12 -63.5
t39 -22.5q18 0 39 11t47.5 35.5t58.5 64.5l6 -19h-3q-28 -42 -61 -79t-68.5 -60t-73.5 -23zM353 -14q-27 0 -45.5 17t-18.5 47q0 8 0.5 15.5t3 20.5t7.5 34l-1 3l63 300l6 3l89 55l13 -10l-75 -354q-3 -14 -5 -24.5t-2 -20.5q0 -8 5 -12.5t12 -4.5q15 0 36.5 16.5t44.5 45.5
l19 -13q-17 -28 -39.5 -55t-51 -45t-61.5 -18z" />
    <glyph glyph-name="b" unicode="b" horiz-adv-x="492" 
d="M164 -14q-21 0 -41 6.5t-35 20t-24 34.5t-9 51q0 31 7.5 68t14.5 73l89 429l18 -21l-100 18l4 21l175 49l12 -10l-78 -379l-2 -13l-23 -107q-4 -20 -9 -42t-8 -42t-3 -38q0 -26 12 -43.5t41 -17.5q28 0 51.5 14.5t44.5 40.5q23 30 39 68.5t25 79.5t9 75q0 41 -12.5 63
t-40.5 22q-19 0 -41 -11t-49 -35t-59 -63l-8 16h5q30 47 63.5 84t70.5 58t73 21q27 0 49 -12.5t35.5 -40t13.5 -72.5q0 -48 -17.5 -99t-47.5 -98.5t-70 -85t-84.5 -60t-90.5 -22.5z" />
    <glyph glyph-name="c" unicode="c" horiz-adv-x="412" 
d="M186 -14q-45 0 -81 20.5t-56 60t-20 97.5q0 62 21 118t57.5 99.5t83 69t98.5 25.5q28 0 52.5 -9t42 -26.5t23.5 -42.5q-2 -23 -16.5 -34t-33.5 -11q-21 0 -36 12.5t-28 31.5l-46 65h59v-9h-13q-35 -5 -65.5 -28.5t-53 -61t-35 -83t-12.5 -94.5q0 -64 29 -95.5t74 -31.5
q25 0 47.5 10.5t43 27t35.5 34.5l18 -13q-15 -28 -34 -52.5t-43 -42t-51.5 -27.5t-59.5 -10z" />
    <glyph glyph-name="d" unicode="d" horiz-adv-x="525" 
d="M126 -14q-25 0 -47 13t-35.5 41t-13.5 73q0 46 17.5 97t48 98t69 85t80.5 60.5t82 22.5q21 0 40 -6.5t36 -19.5t30 -32l-52 -45q-15 19 -34.5 32.5t-45.5 13.5q-16 0 -31 -5t-29 -14t-26 -22q-20 -21 -36 -50t-26.5 -61.5t-16.5 -64.5t-6 -59q0 -41 12 -64t40 -23
q17 0 38 11t47.5 35t58.5 64l8 -18h-5q-28 -43 -60.5 -80t-68.5 -59.5t-74 -22.5zM351 -14q-27 0 -44.5 16t-17.5 42q0 10 1.5 23.5t5.5 35.5l3 17l63 304l7 15l46 231l18 -23l-101 18l4 21l174 49l12 -10l-125 -605q-3 -16 -5 -27t-2 -21q0 -8 4.5 -12.5t11.5 -4.5
q15 0 36.5 16.5t45.5 45.5l18 -13q-16 -29 -39.5 -56t-52 -44.5t-63.5 -17.5z" />
    <glyph glyph-name="e" unicode="e" horiz-adv-x="410" 
d="M178 -14q-44 0 -78.5 19.5t-54 57.5t-19.5 93q0 62 22 119.5t59.5 102.5t85.5 71.5t101 26.5t82 -23t29 -64q0 -30 -16.5 -58.5t-54 -55.5t-98.5 -51.5t-150 -46.5l-3 24q92 25 143.5 56t73 65.5t21.5 69.5q0 25 -11.5 38.5t-30.5 13.5q-22 0 -49.5 -20t-51.5 -56
t-39.5 -84t-15.5 -103q0 -61 29.5 -90.5t73.5 -29.5q25 0 49 10t44 26t34 34l18 -13q-15 -28 -34.5 -52t-43 -42t-52 -28t-63.5 -10z" />
    <glyph glyph-name="f" unicode="f" horiz-adv-x="302" 
d="M-74 -250q-26 0 -46.5 6.5t-33.5 20t-18 33.5q3 20 18.5 31t34.5 11q17 0 29.5 -5.5t24 -16t22.5 -24.5l21 -26v-4h-18v4q15 12 28 29.5t23 38.5q13 27 22 58t15.5 64t11.5 65q17 108 33 215.5t32 217.5q12 76 35.5 129t54.5 86t66 48t70 15q28 0 53 -9t42.5 -25
t21.5 -38q-2 -21 -16 -32t-31 -11q-21 0 -37 12.5t-33 35.5l-35 46v6h24v-6q-18 -8 -35 -24.5t-31 -43t-26 -66t-21 -95.5q-17 -113 -35 -228.5t-36 -227.5q-7 -42 -19.5 -81.5t-30.5 -74.5t-42 -63q-19 -22 -41.5 -37.5t-46.5 -24.5t-50 -9zM36 428l3 26l117 14v-6h184
l-8 -36l-184 2h-112z" />
    <glyph glyph-name="g" unicode="g" horiz-adv-x="484" 
d="M115 -248q-50 0 -85 12.5t-54 35t-19 54.5q0 35 21 63.5t55.5 50t74.5 35.5l10 -8q-36 -23 -58.5 -51.5t-22.5 -63.5q0 -40 34 -63.5t90 -23.5q51 0 87 13.5t55 37t19 51.5q0 20 -8.5 34.5t-29.5 24.5t-60 14l-98 10q-9 1 -18 3l-18 4v2q-30 9 -44.5 27.5t-14.5 42.5
q0 38 30 68t80 59v6l8 -14q-28 -28 -36 -44t-8 -28q0 -14 12.5 -25.5t42.5 -14.5l108 -11q52 -6 82 -20.5t43.5 -36.5t13.5 -52q0 -38 -21.5 -72.5t-61 -61.5t-92.5 -42.5t-117 -15.5zM199 144q-41 0 -74 14.5t-51.5 43.5t-18.5 70q0 43 14.5 80t40.5 65t61.5 44.5
t77.5 16.5q38 0 68 -13.5t48 -39.5t19 -64l-4 3q10 51 23.5 78.5t31.5 38t39 10.5q10 0 18 -1t14 -5q3 -4 5 -10.5t2 -12.5q0 -36 -30.5 -49.5t-84.5 -22.5l21 21q-4 -11 -9.5 -28t-11 -36.5t-10.5 -38.5q-8 -36 -25 -66t-40.5 -52t-54.5 -34t-69 -12zM213 171
q18 0 34.5 10.5t29 31.5t19.5 52t7 72q0 57 -17.5 85.5t-46.5 28.5q-21 0 -37.5 -12t-28.5 -33t-18 -51t-6 -66q0 -34 7 -61t21 -42t36 -15z" />
    <glyph glyph-name="h" unicode="h" horiz-adv-x="535" 
d="M44 -8l-11 10l100 481q10 47 19 94t15 94l25 -24l-103 18l4 21l177 49l11 -10l-78 -374l-2 -9l-29 -137q-7 -35 -13.5 -68.5t-11.5 -67.5t-10 -69zM357 -14q-26 0 -43.5 14t-17.5 39q0 15 3.5 34t9.5 43l40 169q5 23 10 46.5t5 36.5q0 19 -8.5 27.5t-23.5 8.5
q-16 0 -38 -9t-48.5 -27t-58.5 -46l-5 25h5q35 37 70.5 66t71.5 46t69 17q31 0 49.5 -18.5t18.5 -55.5q0 -22 -4.5 -45t-9.5 -46l-44 -189q-4 -16 -6.5 -28.5t-2.5 -19.5q0 -9 5 -14t12 -5q13 0 35 16t46 46l18 -13q-16 -28 -40 -55.5t-53.5 -45t-64.5 -17.5z" />
    <glyph glyph-name="i" unicode="i" horiz-adv-x="294" 
d="M57 40q0 14 3.5 33.5t8.5 43.5l60 286l16 -14l-97 17l4 21l175 49l12 -10l-71 -344q-4 -16 -6 -28t-2 -20q0 -9 5 -14t12 -5q14 0 34.5 16t45.5 46l18 -13q-17 -29 -40 -56t-52 -44.5t-64 -17.5q-26 0 -44 14t-18 40zM218 577q-23 0 -39 15t-16 40q0 31 20.5 51.5
t47.5 20.5q26 0 41 -15.5t15 -39.5q0 -31 -20.5 -51.5t-48.5 -20.5z" />
    <glyph glyph-name="j" unicode="j" horiz-adv-x="264" 
d="M-83 -249l-6 21q16 7 27.5 15t22 18t19.5 22q17 22 29 52t22 67.5t19 84.5l75 373l22 -15l-101 17l3 21l174 49l13 -10l-91 -440q-8 -44 -22 -83t-32.5 -71t-45.5 -57q-23 -25 -54.5 -42t-73.5 -22zM214 577q-23 0 -39 15t-16 40q0 31 20.5 51.5t48.5 20.5q25 0 40 -15.5
t15 -39.5q0 -31 -20.5 -51.5t-48.5 -20.5z" />
    <glyph glyph-name="k" unicode="k" horiz-adv-x="476" 
d="M34 2l99 481q10 47 19 94t15 94l25 -24l-103 18l4 21l176 49l11 -10l-108 -520q-7 -35 -13.5 -68.5t-11.5 -67.5t-10 -69l-92 -8zM457 2q-16 -7 -34 -11t-39 -4q-39 0 -66.5 15.5t-47.5 68.5l-29 81q-9 26 -17 42t-17.5 26t-26.5 15l-18 6v12h6l9 7l251 212
q18 -2 31.5 -16t13.5 -34q0 -23 -16 -37.5t-53 -29.5l-222 -108l1 7l32 -4q32 -5 55.5 -17t41.5 -32.5t31 -52.5l26 -59q14 -32 26.5 -46.5t34.5 -17.5l31 -3z" />
    <glyph glyph-name="l" unicode="l" horiz-adv-x="283" 
d="M105 -14q-25 0 -42 14.5t-17 41.5q0 14 3 33.5t8 45.5l75 362q10 47 19 94t14 94l25 -24l-101 18l3 21l177 49l11 -10l-125 -602q-3 -17 -5.5 -29t-2.5 -20q0 -9 5.5 -14t13.5 -5q13 0 33.5 16t45.5 46l18 -13q-17 -28 -40 -55.5t-52.5 -45t-65.5 -17.5z" />
    <glyph glyph-name="m" unicode="m" horiz-adv-x="791" 
d="M56 -8l-11 10l84 401l21 -14l-102 17l4 21l174 49l13 -10l-24 -111l1 -2l-31 -148q-10 -50 -19 -101.5t-17 -103.5zM308 -8l-12 10l60 291q5 20 9.5 41.5t4.5 34.5q0 18 -8.5 26.5t-22.5 8.5q-17 0 -39 -9t-48.5 -27t-57.5 -45l-6 23h6q34 37 69.5 66.5t71.5 46.5t69 17
q31 0 49 -18.5t18 -55.5q0 -14 -2 -25.5t-4 -25.5v-3l-30 -143q-10 -50 -19 -101.5t-17 -103.5zM612 -14q-25 0 -42.5 14t-17.5 39q0 15 3.5 34t9.5 43l39 169q6 23 10.5 46.5t4.5 36.5q0 19 -8.5 27.5t-22.5 8.5q-16 0 -37.5 -9t-47.5 -27t-58 -46l-6 24h6q35 37 70 66.5
t70.5 46.5t68.5 17q31 0 49 -18.5t18 -55.5q0 -22 -4 -45t-9 -46l-44 -189q-5 -16 -7 -28.5t-2 -19.5q0 -9 5 -14t12 -5q14 0 35 16t46 46l18 -13q-17 -29 -40.5 -56t-52.5 -44.5t-66 -17.5z" />
    <glyph glyph-name="n" unicode="n" horiz-adv-x="548" 
d="M56 -8l-11 10l84 401l21 -14l-102 17l4 21l174 49l13 -10l-24 -114l-1 -8l-29 -139q-10 -50 -19 -101.5t-17 -103.5zM369 -14q-26 0 -43 14t-17 39q0 15 3.5 34t9.5 43l39 169q6 23 10.5 46.5t4.5 36.5q0 19 -8.5 27.5t-22.5 8.5q-17 0 -38.5 -9t-48 -27t-58.5 -46l-6 25
h6q34 37 70 66t72 46t69 17q31 0 49 -18.5t18 -55.5q0 -22 -4 -45t-10 -46l-44 -189q-4 -16 -6 -28.5t-2 -19.5q0 -9 4.5 -14t11.5 -5q14 0 36 16t46 46l18 -13q-17 -28 -40.5 -55.5t-53 -45t-65.5 -17.5z" />
    <glyph glyph-name="o" unicode="o" horiz-adv-x="476" 
d="M196 -14q-45 0 -84 19.5t-62 59.5t-23 100q0 61 18.5 116.5t52.5 99.5t81 69.5t104 25.5q46 0 84 -19.5t61 -59t23 -99.5q0 -61 -18.5 -117t-52 -100t-80.5 -69.5t-104 -25.5zM200 17q25 0 47.5 17t41 47t32.5 69t21.5 83.5t7.5 89.5q0 65 -18 94t-53 29q-25 0 -47.5 -17
t-41.5 -47t-33 -69t-21.5 -83t-7.5 -90q0 -65 19 -94t53 -29z" />
    <glyph glyph-name="p" unicode="p" horiz-adv-x="506" 
d="M-81 -247l5 24l101 16h55l105 -16l-5 -24h-261zM-7 -247l136 650l21 -14l-102 17l4 21l174 49l13 -10l-26 -124l-2 -8l-62 -299l-5 -18q-11 -55 -20.5 -102t-16.5 -87.5t-13 -74.5h-101zM191 -14q-30 0 -58.5 15t-48.5 44l47 51q17 -21 38 -36.5t49 -15.5q18 0 34 6
t30.5 17.5t27.5 27.5q25 28 41.5 67.5t25.5 82t9 76.5q0 40 -11 62.5t-41 22.5q-17 0 -39.5 -11t-49 -35t-57.5 -63l-9 16h6q27 44 60 81t70 59.5t74 22.5q26 0 48 -12.5t35.5 -40t13.5 -72.5q0 -48 -17.5 -98.5t-47 -98t-68 -85.5t-80 -60.5t-82.5 -22.5z" />
    <glyph glyph-name="q" unicode="q" horiz-adv-x="499" 
d="M126 -14q-25 0 -47 13t-35.5 41t-13.5 73q0 46 18 97t48.5 98t69.5 85t81 60.5t82 22.5q21 0 40.5 -6.5t36.5 -19.5t30 -32l-52 -44q-16 18 -36 31.5t-45 13.5q-19 0 -36 -6.5t-32.5 -18.5t-28.5 -27q-24 -29 -41 -68.5t-26 -81t-9 -75.5q0 -40 11.5 -63t40.5 -23
q17 0 39 11t49.5 35.5t58.5 64.5l12 -19h-9q-27 -43 -60.5 -80t-70.5 -59.5t-75 -22.5zM138 -247l5 24l108 15h58l99 -15l-5 -24h-265zM223 -247l77 361l1 12l64 299l7 4l85 52l15 -10l-114 -537q-10 -46 -18.5 -91t-16.5 -90h-100z" />
    <glyph glyph-name="r" unicode="r" horiz-adv-x="410" 
d="M185 233l-11 43h10q27 60 55 105t59 70t65 25q21 0 38.5 -9.5t25.5 -32.5q-1 -26 -17 -45t-43 -19q-21 0 -36 10.5t-33 29.5l-13 15l30 4v-6q-27 -23 -50 -52.5t-42.5 -64.5t-37.5 -73zM46 2l83 401l21 -14l-102 17l4 21l168 49l12 -10l-32 -173l2 -7l-17 -81
q-10 -50 -19 -101.5t-17 -103.5l-92 -8z" />
    <glyph glyph-name="s" unicode="s" horiz-adv-x="373" 
d="M140 -14q-36 0 -63.5 11.5t-44.5 32.5t-21 50q3 18 14 28t28 10q22 0 35 -12t20 -36l21 -66l-53 18q16 -4 30 -6t32 -2q27 0 47 11t31 30t11 40q0 32 -21 55.5t-53 49.5q-21 17 -39.5 35.5t-30 42t-11.5 53.5q0 40 20 73t56 52.5t86 19.5q35 0 61 -10t42.5 -29t22.5 -48
q-3 -17 -14 -26t-29 -9q-19 0 -32.5 12.5t-23.5 37.5l-22 55l46 -15q-9 1 -20 2.5t-24 1.5q-42 0 -63 -25.5t-21 -54.5q0 -32 20.5 -55.5t51.5 -48.5q24 -19 44 -38.5t31.5 -42.5t11.5 -54q0 -40 -20.5 -72.5t-60 -51.5t-95.5 -19z" />
    <glyph glyph-name="t" unicode="t" horiz-adv-x="315" 
d="M41 428l3 26l118 14v-6h178l-8 -36l-173 2h-4h-114zM109 -14q-27 0 -43.5 15t-16.5 41q0 14 3.5 33.5t8.5 43.5l69 328l87 162h44l-103 -489q-3 -16 -5 -27t-2 -20t4.5 -13.5t11.5 -4.5q11 0 23.5 7t27 21t31.5 34l18 -13q-17 -29 -40.5 -56t-53 -44.5t-64.5 -17.5z" />
    <glyph glyph-name="u" unicode="u" horiz-adv-x="549" 
d="M130 -14q-21 0 -37 9t-25 25.5t-9 40.5t5 48.5t10 48.5l55 247l14 -15l-96 16l4 21l177 49l12 -10l-64 -287q-3 -15 -6 -31t-5.5 -29.5t-2.5 -23.5q0 -18 9 -27t23 -9q19 0 40 9t48 27.5t60 47.5l8 -26h-11q-35 -38 -71 -67t-70.5 -46.5t-67.5 -17.5zM371 -14
q-26 0 -43 16t-17 44q0 10 2 24t8 41v4l32 150q10 47 18 92t14 92l95 27l12 -10l-72 -346q-3 -16 -5.5 -27t-2.5 -21q0 -8 5 -12.5t12 -4.5q15 0 36 16t45 46l19 -13q-17 -28 -40.5 -55.5t-53 -45t-64.5 -17.5z" />
    <glyph glyph-name="v" unicode="v" horiz-adv-x="466" 
d="M141 1q-3 74 -6 135t-8 115.5t-12 109.5q-3 26 -9.5 34.5t-15.5 8.5q-12 0 -26 -14t-35 -50l-17 14q28 62 58.5 92t67.5 30t52.5 -22t21.5 -67t10 -100.5t6.5 -114.5t3.5 -115h-12l6 7q24 29 46.5 59t42 60t37.5 61.5t34 63.5q5 11 10 21t9 20l-17 -72l-14 51
q-9 33 -12.5 51.5t-3.5 32.5q0 35 16 50t40 15q12 0 22.5 -3.5t16.5 -9.5q5 -8 6.5 -17.5t1.5 -22.5q0 -19 -6 -40t-15.5 -43t-21.5 -45q-16 -32 -38.5 -68t-50 -74.5t-60 -77.5t-68.5 -77l-52 -5z" />
    <glyph glyph-name="w" unicode="w" horiz-adv-x="724" 
d="M140 1q-1 56 -3.5 104t-5.5 91t-7 84t-9 81q-3 27 -9.5 35t-15.5 8q-12 0 -26 -14.5t-35 -49.5l-17 14q28 62 58 92t67 30t53 -21.5t21 -64.5q6 -43 10 -97t6.5 -113t2.5 -117l-15 1l5 9q36 59 68.5 122t61.5 129.5t53 134.5h64q4 -50 7.5 -100t6.5 -100l6 -100t6 -99
l-16 2l6 8q30 37 57.5 74.5t52.5 78t48 86.5q5 9 9 19l8 20l-13 -75l-16 54q-6 22 -10 38t-5 27t-1 20q0 35 16 50t41 15q12 0 22 -3.5t16 -9.5q4 -8 6 -17.5t2 -22.5q0 -19 -6 -40.5t-16 -43t-22 -44.5q-16 -32 -38 -68t-49.5 -74.5t-60 -77.5t-69.5 -77l-46 -5l-9 7
q-3 43 -5.5 86l-5 86t-5 85.5t-5.5 85.5l15 3l-6 -16q-15 -37 -34.5 -79t-43.5 -86t-51 -86.5t-57 -80.5l-53 -5z" />
    <glyph glyph-name="x" unicode="x" horiz-adv-x="512" 
d="M340 -14q-20 0 -35 7t-27 24.5t-21 50.5l-33 113l-1 6l-50 169q-7 25 -13 36t-19 11q-9 0 -25.5 -13.5t-36.5 -49.5l-17 12q16 37 35 65t41 43.5t48 15.5q35 0 50.5 -20.5t28.5 -65.5l31 -109l2 -5l50 -171q6 -23 14.5 -36.5t23.5 -13.5q17 0 37.5 20.5t42.5 50.5l19 -12
q-28 -53 -65 -90.5t-80 -37.5zM-15 60q4 22 18.5 32.5t32.5 10.5q19 0 32.5 -10t26.5 -38l15 -36l-21 -2v10q8 4 16 10.5t18 18.5q20 26 40.5 56.5t42 65.5t44.5 75l9 -25q-33 -66 -60.5 -112.5t-50.5 -77.5q-19 -26 -37.5 -39t-44.5 -13t-50.5 17t-30.5 57zM272 211l-10 24
q34 66 62 113t48 74q21 29 40.5 41.5t44.5 12.5q24 0 47 -15.5t29 -51.5q-3 -22 -16 -34.5t-32 -12.5q-20 0 -34 11t-26 34l-19 36l27 1v-9q-8 -4 -17 -10.5t-19 -20.5q-19 -25 -39.5 -55t-42 -64.5t-43.5 -73.5z" />
    <glyph glyph-name="y" unicode="y" horiz-adv-x="479" 
d="M-35 -247q-34 0 -59 16t-30 46q4 22 20.5 33t36.5 11q25 0 44 -13t38 -35l20 -20v-8h-28v7q15 8 31 20t31 26t28 27q42 34 74 76t64 87q24 40 43 80t34 80.5t27 83.5t22 89q11 46 20 72t22 37t33 11t31.5 -12.5t11.5 -32.5t-9 -43t-21 -46q-16 -32 -34.5 -65.5
t-42.5 -74.5q-13 -23 -26.5 -46.5t-28.5 -49t-32 -52.5t-37 -55q-20 -30 -45.5 -64t-55.5 -67t-64 -59q-19 -18 -38.5 -31t-39 -20.5t-40.5 -7.5zM164 -76q-5 77 -13 150.5t-16.5 140.5t-17.5 124q-3 28 -7 42t-9 18.5t-11 4.5q-13 0 -27 -15.5t-34 -48.5l-17 14
q29 63 59.5 92.5t66.5 29.5q25 0 39.5 -10.5t23.5 -32t13 -56.5q5 -36 9.5 -81.5t9 -94.5t7 -96t3.5 -88h7z" />
    <glyph glyph-name="z" unicode="z" horiz-adv-x="448" 
d="M251 -24q-32 0 -60.5 12t-54.5 39.5t-53 72.5l23 29q36 -26 63.5 -40t54 -20t56.5 -6q19 0 37 3.5t34.5 10t28.5 13.5l6 -8l-16 -10q-28 23 -39 42t-11 35q0 26 14.5 40.5t36.5 16.5q19 -6 29.5 -23.5t10.5 -38.5q0 -31 -13 -61t-36 -54.5t-51.5 -38.5t-59.5 -14zM64 0
l-68 -8l-6 8q15 29 34.5 55t51.5 57q34 33 69 64.5t70.5 63t70.5 64t68 65.5l34 95l64 9l7 -9q-10 -25 -34.5 -57t-62.5 -69q-33 -32 -67 -63t-67.5 -60.5t-66.5 -59t-65 -59.5zM53 261l17 155l76 62q44 -13 79.5 -27t70 -31.5t73.5 -41.5l-35 -44q-42 11 -79 19.5t-75.5 16
t-87.5 15.5l62 43l-77 -171z" />
    <glyph glyph-name="braceleft" unicode="{" horiz-adv-x="341" 
d="M57 264l6 27q48 8 74.5 23t37 37t10.5 51q0 23 -5.5 48t-10.5 52t-5 55q0 50 20.5 85t62 54t105.5 19h32l-5 -27l-25 -3q-43 -3 -64 -23.5t-28 -53t-7 -73.5q0 -13 0.5 -28.5t0.5 -30.5v-27q0 -51 -15.5 -89t-53 -60t-102.5 -27l2 9q64 -5 93 -30.5t29 -66.5
q0 -26 -10 -60.5t-23.5 -70t-23.5 -69t-10 -57.5q0 -25 14 -39.5t48 -18.5l27 -3l-6 -27h-35q-69 0 -103.5 23t-34.5 66q0 36 14 72t33 70t33.5 65.5t14.5 59.5q0 16 -8.5 29.5t-28 23t-53.5 15.5z" />
    <glyph glyph-name="bar" unicode="|" horiz-adv-x="291" 
d="M116 -251v1000h62v-1000h-62z" />
    <glyph glyph-name="braceright" unicode="}" horiz-adv-x="341" 
d="M296 291l-6 -27q-48 -8 -74.5 -23t-37 -37t-10.5 -51q0 -23 5.5 -48t10.5 -52t5 -55q0 -50 -20.5 -85t-62 -54t-105.5 -19h-32l5 27l25 3q43 3 64 23.5t28 53t7 73.5q0 13 -0.5 28.5t-0.5 30.5v27q0 51 15.5 89t53 60t102.5 27l-2 -9q-64 5 -93 30.5t-29 66.5
q0 26 10 60.5t23.5 70t23.5 69t10 57.5q0 25 -14 39.5t-48 18.5l-27 3l6 27h35q69 0 103.5 -23t34.5 -66q0 -36 -14 -72t-33 -70t-33.5 -65.5t-14.5 -59.5q0 -16 8.5 -29.5t28 -23t53.5 -15.5z" />
    <glyph glyph-name="asciitilde" unicode="~" horiz-adv-x="514" 
d="M285 362q23 -19 42 -31.5t41 -12.5q24 0 42 19t25 70l40 -6q-4 -42 -18.5 -71.5t-38 -44t-54.5 -14.5t-56 15t-49 36q-22 19 -41 31t-41 12q-23 0 -41.5 -19t-24.5 -70l-40 6q4 43 18 72t37.5 44t54.5 15q32 0 56 -15t48 -36z" />
    <glyph glyph-name="exclamdown" unicode="&#xa1;" horiz-adv-x="272" 
d="M147 260l-8 -127q-3 -67 -6.5 -122t-7.5 -93.5t-7 -55.5q-9 -42 -28 -59.5t-49 -17.5q-26 0 -39.5 13.5t-13.5 39.5q0 17 7.5 48.5t23.5 81.5t40.5 122t57.5 170h30zM223 417q0 -30 -22 -51t-51 -21q-26 0 -42.5 18t-16.5 42q0 30 21.5 50.5t51.5 20.5q26 0 42.5 -17.5
t16.5 -41.5z" />
    <glyph glyph-name="cent" unicode="&#xa2;" horiz-adv-x="501" 
d="M66 246q0 63 21 118.5t57.5 98.5t85.5 68t106 25q45 0 77 -15t50.5 -44.5t21.5 -73.5q-5 -20 -17 -29.5t-28 -9.5q-21 0 -33 13.5t-14 45.5l-4 87l31 -29q-16 14 -37 19t-45 5q-41 0 -73 -24t-55 -63t-35 -85t-12 -90q0 -62 31.5 -99t89.5 -37q42 0 75.5 19t60.5 48
l17 -13q-22 -37 -51.5 -64t-66 -42t-78.5 -15q-51 0 -90.5 21.5t-62 63.5t-22.5 101zM235 -44h-33l143 700h32z" />
    <glyph glyph-name="sterling" unicode="&#xa3;" horiz-adv-x="501" 
d="M5 0l11 63q65 38 102 93t37 118q0 22 -6 44t-13.5 45t-13.5 46.5t-6 47.5q0 62 29 106t79.5 66.5t113.5 22.5q52 0 88 -15t55.5 -47t19.5 -81q-7 -19 -19.5 -27.5t-28.5 -8.5q-21 0 -33.5 13.5t-14.5 50.5l-3 93l33 -27q-20 11 -40.5 15t-38.5 4q-41 0 -71.5 -18
t-47 -51.5t-16.5 -80.5q0 -32 4.5 -60.5t9.5 -54t5 -49.5q0 -56 -23.5 -101t-63 -78t-88.5 -56l7 15h356l-18 -88h-405zM59 293l7 33h329l-6 -33h-330z" />
    <glyph glyph-name="currency" unicode="&#xa4;" horiz-adv-x="501" 
d="M373 425l-12 12l27 47q15 27 28 46t31 19q14 0 23.5 -10t9.5 -23q0 -19 -18 -32.5t-43 -30.5zM156 328q0 -33 15 -60t40.5 -42.5t56.5 -15.5q32 0 57 15.5t40 42.5t15 60t-15 59.5t-40 42t-57 15.5q-31 0 -56.5 -15.5t-40.5 -42t-15 -59.5zM109 328q0 46 22 82t58 56.5
t79 20.5q44 0 79.5 -20.5t57.5 -56.5t22 -82t-22 -82.5t-57.5 -57t-79.5 -20.5q-43 0 -79 20.5t-58 57t-22 82.5zM175 437l-12 -12l-46 28q-25 16 -43 30t-18 33q0 12 9.5 22.5t23.5 10.5q18 0 31 -19t28 -46zM163 230l12 -12l-27 -48q-15 -26 -28 -45t-31 -19
q-14 0 -23.5 10.5t-9.5 22.5q0 20 18 33.5t43 29.5zM361 218l12 12l46 -28q25 -16 43 -29.5t18 -33.5q0 -12 -9.5 -22.5t-23.5 -10.5q-18 0 -31 19t-28 45z" />
    <glyph glyph-name="yen" unicode="&#xa5;" horiz-adv-x="501" 
d="M40 160l7 32h387l-6 -32h-388zM61 0l5 27l118 14h46l113 -14l-5 -27h-277zM62 267l7 32h387l-6 -32h-388zM149 0l61 299h100q-11 -53 -19 -93t-14 -73t-12 -65t-12 -68h-104zM156 598l-88 14l5 27h237l-5 -27l-109 -14h-40zM221 213l-109 426h107l79 -334h-7l2 4l203 330
h40l-269 -426h-46zM482 600l-81 12l6 27h171l-5 -27l-71 -12h-20z" />
    <glyph glyph-name="brokenbar" unicode="&#xa6;" horiz-adv-x="291" 
d="M116 -251v451h62v-451h-62zM178 320h-62v429h62v-429z" />
    <glyph glyph-name="section" unicode="&#xa7;" horiz-adv-x="475" 
d="M165 -122q-40 0 -70 12.5t-48 35t-25 51.5q5 18 16 27.5t29 9.5q20 0 33 -12.5t23 -39.5l23 -69l-43 24q12 -2 23.5 -6.5t30.5 -4.5q45 0 70 25.5t25 62.5q0 29 -21 53.5t-53 50.5l-42 33q-22 18 -39.5 37.5t-27.5 43t-10 53.5q0 40 20 73t61.5 54.5t105.5 25.5l7 14
l21 -30q-45 -3 -74 -18.5t-42.5 -37.5t-13.5 -48q0 -31 20 -55.5t53 -51.5l42 -34q24 -19 41.5 -38t28 -41.5t10.5 -51.5q0 -40 -19.5 -74t-58.5 -54t-96 -20zM324 680q39 0 67.5 -11t46.5 -32.5t25 -52.5q-4 -17 -15 -27t-30 -10q-18 0 -31 13t-24 40l-26 66l43 -23
q-9 2 -20 5t-27 3q-41 0 -64.5 -25t-23.5 -62q0 -20 10.5 -38t28.5 -34.5t39 -34.5l42 -33q22 -18 38.5 -37t26 -41.5t9.5 -51.5q0 -40 -20.5 -72.5t-62 -53.5t-106.5 -26l-7 -14l-24 31q45 4 74.5 18.5t44.5 36t15 46.5q0 30 -19 54.5t-51 50.5l-45 36q-21 17 -38.5 36
t-29 42t-11.5 52q0 41 19 75t56 54t90 20z" />
    <glyph glyph-name="dieresis" unicode="&#xa8;" horiz-adv-x="400" 
d="M181 583q-20 0 -35.5 13t-15.5 36q0 29 19.5 46t42.5 17q21 0 35.5 -13.5t14.5 -34.5q0 -30 -18.5 -47t-42.5 -17zM370 583q-19 0 -34 13t-15 36q0 29 19 46t42 17q21 0 35.5 -13.5t14.5 -34.5q0 -30 -18.5 -47t-43.5 -17z" />
    <glyph glyph-name="copyright" unicode="&#xa9;" horiz-adv-x="756" 
d="M357 -16q-86 0 -155.5 35.5t-110 102t-40.5 157.5q0 93 31.5 167t86 126t124 80t144.5 28q87 0 156 -36t109.5 -102t40.5 -157q0 -93 -31.5 -167t-86 -126.5t-123.5 -80t-145 -27.5zM359 17q67 0 128.5 25.5t109.5 73.5t76 115.5t28 151.5q0 82 -34.5 140.5t-94.5 90
t-136 31.5q-68 0 -129.5 -25t-109.5 -72.5t-76 -115t-28 -151.5q0 -81 34.5 -140.5t95 -91.5t136.5 -32zM388 132q-56 0 -94 22.5t-57.5 61t-19.5 86.5q0 45 15.5 87.5t45.5 77t72 54.5t96 20q27 0 53 -7t49 -21l-12 -98h-23l-20 103l20 -21q-15 10 -31 15t-35 5
q-35 0 -63 -19t-46.5 -50.5t-28.5 -70t-10 -77.5q0 -40 11.5 -73t33.5 -52.5t52 -19.5q20 0 36.5 5t34.5 13l-28 -20l51 104h24l-19 -99q-23 -11 -49 -18.5t-58 -7.5z" />
    <glyph glyph-name="ordfeminine" unicode="&#xaa;" horiz-adv-x="364" 
d="M162 413q-26 0 -48 19t-22 63q0 38 19 79t49.5 76.5t67 57.5t71.5 22q23 0 43.5 -11t34.5 -30l-43 -26q-10 11 -23.5 19t-30.5 8q-24 0 -44 -16.5t-35 -43.5t-22.5 -57.5t-7.5 -57.5q0 -25 8 -38.5t25 -13.5t39 14.5t52 48.5l4 -16h-4q-17 -24 -38 -46.5t-45 -36.5
t-50 -14zM319 413q-19 0 -33 12t-14 34q0 7 1.5 17t4.5 27l1 3l39 185l5 4l70 37l10 -7l-49 -226q-1 -7 -2.5 -14t-1.5 -13q0 -5 3.5 -7.5t8.5 -2.5q9 0 22 9.5t28 28.5l14 -9q-17 -29 -44 -53.5t-63 -24.5z" />
    <glyph glyph-name="guillemotleft" unicode="&#xab;" horiz-adv-x="508" 
d="M218 35l-186 188l8 40l250 189l14 -19l-211 -218l9 52l137 -213zM418 35l-186 188l8 40l250 189l14 -19l-211 -218l9 52l137 -213z" />
    <glyph glyph-name="logicalnot" unicode="&#xac;" horiz-adv-x="514" 
d="M43 342v47h443v-223h-49v203l23 -27h-417z" />
    <glyph glyph-name="registered" unicode="&#xae;" horiz-adv-x="465" 
d="M179 419l1 10l38 4h22l35 -4l-1 -10h-95zM201 419l38 199h49l-38 -199h-49zM250 603l-36 5l2 10h57l-3 -15h-20zM267 340q49 0 92.5 25t70 70.5t26.5 106.5q0 46 -19 78t-52 49t-75 17q-50 0 -93.5 -25t-70 -70.5t-26.5 -106.5q0 -45 19 -77.5t52.5 -49.5t75.5 -17z
M264 313q-49 0 -89.5 20.5t-64 59t-23.5 90.5q0 72 32 123.5t83.5 79t109.5 27.5q50 0 90 -20.5t64 -58.5t24 -91q0 -71 -32.5 -122.5t-84 -79.5t-109.5 -28zM348 415q-18 0 -27.5 6t-12.5 22l-6 38q-2 14 -7.5 22t-19.5 8h-31l2 12h35q24 0 35.5 14t11.5 34q0 17 -7.5 26
t-23.5 9h-35l2 12h37q37 0 55 -12.5t18 -34.5q0 -20 -12.5 -32.5t-33 -18t-43.5 -6.5l1 4q35 0 47 -11.5t17 -34.5l12 -49l-16 11l36 -5l-1 -10q-9 -2 -16.5 -3t-16.5 -1z" />
    <glyph glyph-name="macron" unicode="&#xaf;" horiz-adv-x="400" 
d="M156 576l12 63h233l-12 -63h-233z" />
    <glyph glyph-name="degree" unicode="&#xb0;" horiz-adv-x="328" 
d="M227 456q37 0 62.5 25.5t25.5 67.5q0 41 -25.5 67t-62.5 26t-62 -26t-25 -67q0 -42 25 -67.5t62 -25.5zM227 417q-35 0 -65 16t-48 46t-18 70q0 41 18.5 70t48.5 45t64 16q36 0 65.5 -16t47.5 -45t18 -70q0 -40 -18 -70t-47.5 -46t-65.5 -16z" />
    <glyph glyph-name="plusminus" unicode="&#xb1;" horiz-adv-x="514" 
d="M239 115v438h50v-438h-50zM485 314h-443v47h443v-47zM485 0h-443v47h443v-47z" />
    <glyph glyph-name="uni00B2" unicode="&#xb2;" horiz-adv-x="349" 
d="M86 422l7 42q71 61 116 104t69.5 73.5t34 54.5t9.5 48q0 35 -18.5 50.5t-45.5 15.5q-16 0 -32 -4.5t-33 -15.5l32 27l-9 -63q-4 -28 -14 -38.5t-27 -10.5q-12 0 -21 6.5t-13 20.5q9 50 47.5 75t91.5 25q57 0 89 -26t32 -67q0 -26 -13 -51t-44 -54.5t-83 -68t-130 -92.5
l7 14h228l-12 -65h-268z" />
    <glyph glyph-name="uni00B3" unicode="&#xb3;" horiz-adv-x="349" 
d="M209 413q-52 0 -84.5 24.5t-33.5 74.5q5 13 14.5 19t19.5 6q16 0 25.5 -10t11.5 -36l2 -63l-21 21q13 -9 27.5 -12t29.5 -3q30 0 51 14t32.5 37t11.5 49t-9 44.5t-30.5 28.5t-58.5 10l4 23q46 0 72.5 12.5t38.5 35.5t12 52q0 31 -17 51t-51 20q-13 0 -28 -3t-32 -12
l31 23l-12 -56q-4 -25 -14 -34.5t-26 -9.5q-10 0 -19 5.5t-12 15.5q3 30 21 50t46.5 31t62.5 11q43 0 71.5 -12.5t42.5 -33.5t14 -46q0 -29 -18.5 -54.5t-53.5 -41.5t-86 -18v6q64 -2 100 -28t36 -71q0 -33 -20 -60t-58 -43.5t-93 -16.5z" />
    <glyph glyph-name="acute" unicode="&#xb4;" horiz-adv-x="400" 
d="M223 545q10 24 19.5 47t19.5 46.5t19 46.5q8 19 16.5 31.5t19 19t23.5 6.5q16 0 29 -10.5t13 -29.5q0 -13 -9 -29.5t-28 -34.5l-34.5 -34.5t-34.5 -35t-34 -35.5z" />
    <glyph glyph-name="uni03BC" unicode="&#x3bc;" horiz-adv-x="533" 
d="M2 -206l-11 10l73 280l57 365l105 25l9 -11q-17 -70 -30 -123.5t-23 -95.5t-17.5 -77.5t-13.5 -69.5l-19 -21l-28 -264zM196 -13q-22 0 -42 11.5t-33.5 33t-17.5 51.5l44 42q8 -34 27.5 -49.5t45.5 -15.5q20 0 41 8.5t42 25.5t40 43l12 -18h-8q-19 -45 -45.5 -74
t-54 -43.5t-51.5 -14.5zM399 -14q-34 0 -54 22.5t-20 62.5q0 8 1.5 19t4.5 25v4l60 330l104 25l10 -11l-62 -245q-6 -24 -11 -43.5t-7.5 -35t-3.5 -27.5t-1 -20q0 -18 7 -27.5t21 -9.5q13 0 26 6.5t26 16.5l13 -17q-27 -37 -55 -56t-59 -19z" />
    <glyph glyph-name="uni03BC" unicode="&#xb5;" horiz-adv-x="533" 
d="M2 -206l-11 10l73 280l57 365l105 25l9 -11q-17 -70 -30 -123.5t-23 -95.5t-17.5 -77.5t-13.5 -69.5l-19 -21l-28 -264zM196 -13q-22 0 -42 11.5t-33.5 33t-17.5 51.5l44 42q8 -34 27.5 -49.5t45.5 -15.5q20 0 41 8.5t42 25.5t40 43l12 -18h-8q-19 -45 -45.5 -74
t-54 -43.5t-51.5 -14.5zM399 -14q-34 0 -54 22.5t-20 62.5q0 8 1.5 19t4.5 25v4l60 330l104 25l10 -11l-62 -245q-6 -24 -11 -43.5t-7.5 -35t-3.5 -27.5t-1 -20q0 -18 7 -27.5t21 -9.5q13 0 26 6.5t26 16.5l13 -17q-27 -37 -55 -56t-59 -19z" />
    <glyph glyph-name="paragraph" unicode="&#xb6;" horiz-adv-x="590" 
d="M508 664h142l-5 -28l-122 -15h-23zM327 -124l144 788h94l-89 -476q-10 -52 -20 -107.5t-19 -108.5t-15 -96h-95zM400 630l-92 -493q-74 4 -130 29t-87.5 71.5t-31.5 112.5q0 73 27.5 131.5t76.5 99t115.5 62t145.5 21.5h99l-6 -34h-117z" />
    <glyph glyph-name="periodcentered" unicode="&#xb7;" horiz-adv-x="276" 
d="M155 255q-27 0 -44 17.5t-17 41.5q0 21 10.5 37.5t27.5 26t36 9.5q27 0 43.5 -18t16.5 -42q0 -21 -10 -37.5t-26.5 -25.5t-36.5 -9z" />
    <glyph glyph-name="cedilla" unicode="&#xb8;" horiz-adv-x="400" 
d="M105 -79l31 79h27l-26 -70l-11 19q51 -8 77.5 -29.5t26.5 -55.5q0 -38 -32 -62.5t-88 -24.5q-23 0 -41 4.5t-31 11.5l10 24l24 -6t27 -3q31 0 48 16.5t17 42.5q0 22 -14.5 35.5t-44.5 18.5z" />
    <glyph glyph-name="uni00B9" unicode="&#xb9;" horiz-adv-x="349" 
d="M96 422l4 19l104 13h40l103 -13l-4 -19h-247zM177 422l75 373l17 -17l-94 -7l3 17l158 42l7 -7l-27 -116l-58 -285h-81z" />
    <glyph glyph-name="ordmasculine" unicode="&#xba;" horiz-adv-x="335" 
d="M213 413q-33 0 -60.5 12.5t-45 38.5t-17.5 66q0 51 22 96.5t61.5 74.5t94.5 29q33 0 60.5 -12.5t44.5 -38.5t17 -66q0 -51 -22 -97t-61.5 -74.5t-93.5 -28.5zM214 434q21 0 39 18t31 47.5t20 66t7 72.5q0 38 -12.5 54t-33.5 16q-20 0 -37.5 -18t-31 -47.5t-20.5 -66
t-7 -72.5q0 -38 12.5 -54t32.5 -16z" />
    <glyph glyph-name="guillemotright" unicode="&#xbb;" horiz-adv-x="508" 
d="M288 452l186 -188l-8 -40l-250 -189l-14 19l211 218l-9 -52l-137 213zM88 452l186 -188l-8 -40l-250 -189l-14 19l211 218l-9 -52l-137 213z" />
    <glyph glyph-name="onequarter" unicode="&#xbc;" horiz-adv-x="822" 
d="M62 263l4 19l104 13h40l103 -13l-4 -19h-247zM143 263l75 373l17 -17l-94 -7l3 17l158 42l7 -7l-27 -116l-58 -285h-81zM208 -21l-32 25l499 656l31 -25zM611 -3l26 125l2 11l43 214h-9l28 15l-104 -112l-103 -111l9 23v-8h283l-11 -59h-313l11 52l239 260h61l-83 -410
h-79z" />
    <glyph glyph-name="onehalf" unicode="&#xbd;" horiz-adv-x="851" 
d="M62 263l4 19l104 13h40l103 -13l-4 -19h-247zM143 263l75 373l17 -17l-94 -7l3 17l158 42l7 -7l-27 -116l-58 -285h-81zM208 -21l-32 25l499 656l31 -25zM498 0l7 42q71 61 116 104t69.5 73.5t34 54.5t9.5 48q0 35 -18.5 50.5t-45.5 15.5q-16 0 -32 -4.5t-33 -15.5l32 27
l-9 -63q-4 -28 -14 -38.5t-27 -10.5q-12 0 -21 6.5t-13 20.5q9 50 47.5 75t91.5 25q57 0 89 -26t32 -67q0 -26 -13 -51t-44 -54.5t-83 -68t-130 -92.5l7 14h228l-12 -65h-268z" />
    <glyph glyph-name="threequarters" unicode="&#xbe;" horiz-adv-x="822" 
d="M175 254q-52 0 -84.5 24.5t-33.5 74.5q5 13 14.5 19t19.5 6q16 0 25.5 -10t11.5 -36l2 -63l-21 21q13 -9 27.5 -12t29.5 -3q30 0 51 14t32.5 37t11.5 49t-9 44.5t-30.5 28.5t-58.5 10l4 23q46 0 72.5 12.5t38.5 35.5t12 52q0 31 -17 51t-51 20q-13 0 -28 -3t-32 -12
l31 23l-12 -56q-4 -25 -14 -34.5t-26 -9.5q-10 0 -19 5.5t-12 15.5q3 30 21 50t46.5 31t62.5 11q43 0 71.5 -12.5t42.5 -33.5t14 -46q0 -29 -18.5 -54.5t-53.5 -41.5t-86 -18v6q64 -2 100 -28t36 -71q0 -33 -20 -60t-58 -43.5t-93 -16.5zM208 -21l-32 25l499 656l31 -25z
M611 -3l26 125l2 11l43 214h-9l28 15l-104 -112l-103 -111l9 23v-8h283l-11 -59h-313l11 52l239 260h61l-83 -410h-79z" />
    <glyph glyph-name="questiondown" unicode="&#xbf;" horiz-adv-x="431" 
d="M314 271q0 -44 -2 -74t-9.5 -51t-20.5 -38q-10 -13 -23 -25t-36.5 -28t-65.5 -39q-36 -21 -57.5 -40t-31.5 -38.5t-10 -39.5q0 -40 25 -61t67 -21q25 0 48 5t44 18l-43 -32l22 87q7 31 21 43.5t36 12.5q15 0 26.5 -9.5t15.5 -27.5q-6 -37 -29.5 -65.5t-62.5 -45.5
t-90 -17q-50 0 -87.5 15.5t-58 43.5t-20.5 68q0 37 13.5 66.5t44 55.5t78.5 54q47 26 74 42t42 26t24 19q10 10 16.5 23t11 31t8.5 47zM379 418q0 -30 -22 -50.5t-51 -20.5q-25 0 -41 17.5t-16 41.5q0 30 21 50t49 20q27 0 43.5 -17t16.5 -41z" />
    <glyph glyph-name="Agrave" unicode="&#xc0;" horiz-adv-x="621" 
d="M-34 0l5 27l84 12h20l88 -12l-5 -27h-192zM25 0l342 667h53l94 -667h-107l-72 557h8l-3 -6l-275 -551h-40zM167 226l5 33h258l-1 -33h-262zM314 0l5 27l118 14h45l96 -14l-6 -27h-258zM459 733l-14 -21q-34 14 -67.5 28.5t-66.5 29.5q-29 13 -38.5 26.5t-9.5 26.5
q0 14 11 26t28 12q14 0 28.5 -7t35.5 -28q23 -22 46.5 -45.5t46.5 -47.5z" />
    <glyph glyph-name="Aacute" unicode="&#xc1;" horiz-adv-x="621" 
d="M-34 0l5 27l84 12h20l88 -12l-5 -27h-192zM25 0l342 667h53l94 -667h-107l-72 557h8l-3 -6l-275 -551h-40zM167 226l5 33h258l-1 -33h-262zM314 0l5 27l118 14h45l96 -14l-6 -27h-258zM342 731q24 24 49 47.5t49 46.5q21 20 35.5 27t29.5 7q18 0 28.5 -12t10.5 -26
q0 -13 -10 -26.5t-39 -26.5q-35 -15 -70 -29t-70 -29z" />
    <glyph glyph-name="Acircumflex" unicode="&#xc2;" horiz-adv-x="621" 
d="M-34 0l5 27l84 12h20l88 -12l-5 -27h-192zM25 0l342 667h53l94 -667h-107l-72 557h8l-3 -6l-275 -551h-40zM167 226l5 33h258l-1 -33h-262zM314 0l5 27l118 14h45l96 -14l-6 -27h-258zM451 856l108 -130l-18 -18l-142 95h48l-180 -95l-12 20l153 128h43z" />
    <glyph glyph-name="Atilde" unicode="&#xc3;" horiz-adv-x="621" 
d="M-34 0l5 27l84 12h20l88 -12l-5 -27h-192zM25 0l342 667h53l94 -667h-107l-72 557h8l-3 -6l-275 -551h-40zM167 226l5 33h258l-1 -33h-262zM314 0l5 27l118 14h45l96 -14l-6 -27h-258zM247 725q19 61 50 94.5t69 33.5q24 0 38.5 -10.5t27.5 -23.5q14 -14 27 -26.5
t30 -12.5q22 0 41.5 19.5t34.5 51.5l22 -9q-19 -60 -49.5 -94t-68.5 -34q-24 0 -39 11t-28 23q-14 15 -27 27t-30 12q-21 0 -40.5 -19t-35.5 -51z" />
    <glyph glyph-name="Adieresis" unicode="&#xc4;" horiz-adv-x="621" 
d="M-34 0l5 27l84 12h20l88 -12l-5 -27h-192zM25 0l342 667h53l94 -667h-107l-72 557h8l-3 -6l-275 -551h-40zM167 226l5 33h258l-1 -33h-262zM314 0l5 27l118 14h45l96 -14l-6 -27h-258zM307 732q-19 0 -34 12.5t-15 35.5q0 29 19 45.5t41 16.5t36 -13t14 -34
q0 -29 -18.5 -46t-42.5 -17zM515 732q-19 0 -34.5 12.5t-15.5 35.5q0 29 19 45.5t42 16.5q21 0 35 -13t14 -34q0 -29 -18.5 -46t-41.5 -17z" />
    <glyph glyph-name="Aring" unicode="&#xc5;" horiz-adv-x="621" 
d="M-34 0l5 27l84 12h20l88 -12l-5 -27h-192zM25 0l342 667h53l94 -667h-107l-72 557h8l-3 -6l-275 -551h-40zM167 226l5 33h258l-1 -33h-262zM314 0l5 27l118 14h45l96 -14l-6 -27h-258zM412 711q-35 0 -61 22.5t-26 59.5q0 33 15.5 56.5t40.5 36.5t51 13q35 0 60.5 -22
t25.5 -60q0 -33 -15.5 -56.5t-40 -36.5t-50.5 -13zM413 741q31 0 50.5 22.5t19.5 51.5q0 21 -13.5 37.5t-40.5 16.5q-30 0 -49.5 -22.5t-19.5 -51.5q0 -23 14 -38.5t39 -15.5z" />
    <glyph glyph-name="AE" unicode="&#xc6;" horiz-adv-x="849" 
d="M423 0l7 34h305l-48 -26l84 176h33l-39 -184h-342zM803 486l-26 169l38 -25h-281l6 34h317l-21 -178h-33zM-36 0l5 27l84 12h20l92 -12l-5 -27h-196zM373 0l67 354q8 39 15 77.5t13.5 77t13 77.5t12.5 78h108l-67 -354q-14 -78 -27.5 -155.5t-25.5 -154.5h-109zM671 228
l-8 103l3 18l47 102h27l-41 -223h-28zM298 0l6 27l112 14h34l-8 -41h-144zM367 636l5 28h174l-8 -42h-62zM16 0l456 664h38l-291 -428l-161 -236h-42zM198 218v35h273v-35h-273zM490 322v34h203v-34h-203z" />
    <glyph glyph-name="Ccedilla" unicode="&#xc7;" horiz-adv-x="568" 
d="M306 -16q-79 0 -137.5 32t-90.5 91.5t-32 143.5q0 61 16 122t46.5 116t75.5 98t102 68t125 25q27 0 55 -4.5t56 -14.5t53 -28l-20 -154h-33l-27 165l31 -29q-25 18 -53 25.5t-57 7.5q-50 0 -91.5 -25.5t-73 -68t-53.5 -96.5t-33.5 -112.5t-11.5 -113.5q0 -70 20.5 -118.5
t57.5 -73t86 -24.5q31 0 64.5 8t69.5 30l-53 -39l79 173h33l-26 -160q-41 -22 -84 -33t-94 -11zM269 -79l31 79h27l-26 -70l-11 19q51 -8 77.5 -29.5t26.5 -55.5q0 -38 -32 -62.5t-88 -24.5q-23 0 -41 4.5t-31 11.5l10 24l24 -6t27 -3q31 0 48 16.5t17 42.5q0 22 -14.5 35.5
t-44.5 18.5z" />
    <glyph glyph-name="Egrave" unicode="&#xc8;" horiz-adv-x="545" 
d="M-5 0l5 27l112 14h34l-6 -41h-145zM69 0l67 354q14 77 27 155t25 155h110l-67 -354q-15 -78 -28 -155.5t-25 -154.5h-109zM107 636l6 28h145l-5 -42h-36zM119 0l6 34h305l-47 -26l83 176h33l-39 -184h-341zM179 322l7 34h195l-6 -34h-196zM229 630l6 34h317l-21 -178h-33
l-26 169l38 -25h-281zM367 228l-9 103l3 18l47 102h27l-41 -223h-27zM413 733l-14 -21q-34 14 -67.5 28.5t-66.5 29.5q-29 13 -38.5 26.5t-9.5 26.5q0 14 11 26t28 12q14 0 28.5 -7t35.5 -28q23 -22 46.5 -45.5t46.5 -47.5z" />
    <glyph glyph-name="Eacute" unicode="&#xc9;" horiz-adv-x="545" 
d="M-5 0l5 27l112 14h34l-6 -41h-145zM69 0l67 354q14 77 27 155t25 155h110l-67 -354q-15 -78 -28 -155.5t-25 -154.5h-109zM107 636l6 28h145l-5 -42h-36zM119 0l6 34h305l-47 -26l83 176h33l-39 -184h-341zM179 322l7 34h195l-6 -34h-196zM229 630l6 34h317l-21 -178h-33
l-26 169l38 -25h-281zM367 228l-9 103l3 18l47 102h27l-41 -223h-27zM296 731q24 24 49 47.5t49 46.5q21 20 35.5 27t29.5 7q18 0 28.5 -12t10.5 -26q0 -13 -10 -26.5t-39 -26.5q-35 -15 -70 -29t-70 -29z" />
    <glyph glyph-name="Ecircumflex" unicode="&#xca;" horiz-adv-x="545" 
d="M-5 0l5 27l112 14h34l-6 -41h-145zM69 0l67 354q14 77 27 155t25 155h110l-67 -354q-15 -78 -28 -155.5t-25 -154.5h-109zM107 636l6 28h145l-5 -42h-36zM119 0l6 34h305l-47 -26l83 176h33l-39 -184h-341zM179 322l7 34h195l-6 -34h-196zM229 630l6 34h317l-21 -178h-33
l-26 169l38 -25h-281zM367 228l-9 103l3 18l47 102h27l-41 -223h-27zM405 856l108 -130l-18 -18l-142 95h48l-180 -95l-12 20l153 128h43z" />
    <glyph glyph-name="Edieresis" unicode="&#xcb;" horiz-adv-x="545" 
d="M-5 0l5 27l112 14h34l-6 -41h-145zM69 0l67 354q14 77 27 155t25 155h110l-67 -354q-15 -78 -28 -155.5t-25 -154.5h-109zM107 636l6 28h145l-5 -42h-36zM119 0l6 34h305l-47 -26l83 176h33l-39 -184h-341zM179 322l7 34h195l-6 -34h-196zM229 630l6 34h317l-21 -178h-33
l-26 169l38 -25h-281zM367 228l-9 103l3 18l47 102h27l-41 -223h-27zM261 732q-19 0 -34 12.5t-15 35.5q0 29 19 45.5t41 16.5t36 -13t14 -34q0 -29 -18.5 -46t-42.5 -17zM469 732q-19 0 -34.5 12.5t-15.5 35.5q0 29 19 45.5t42 16.5q21 0 35 -13t14 -34q0 -29 -18.5 -46
t-41.5 -17z" />
    <glyph glyph-name="Igrave" unicode="&#xcc;" horiz-adv-x="331" 
d="M-5 0l5 27l112 14h37l110 -14l-5 -27h-259zM69 0l67 353q14 77 27 155.5t25 155.5h110l-67 -354q-15 -78 -28 -155.5t-25 -154.5h-109zM107 636l6 28h259l-5 -28l-111 -14h-38zM307 733l-14 -21q-34 14 -67.5 28.5t-66.5 29.5q-29 13 -38.5 26.5t-9.5 26.5q0 14 11 26
t28 12q14 0 28.5 -7t35.5 -28q23 -22 46.5 -45.5t46.5 -47.5z" />
    <glyph glyph-name="Iacute" unicode="&#xcd;" horiz-adv-x="331" 
d="M-5 0l5 27l112 14h37l110 -14l-5 -27h-259zM69 0l67 353q14 77 27 155.5t25 155.5h110l-67 -354q-15 -78 -28 -155.5t-25 -154.5h-109zM107 636l6 28h259l-5 -28l-111 -14h-38zM190 731q24 24 49 47.5t49 46.5q21 20 35.5 27t29.5 7q18 0 28.5 -12t10.5 -26
q0 -13 -10 -26.5t-39 -26.5q-35 -15 -70 -29t-70 -29z" />
    <glyph glyph-name="Icircumflex" unicode="&#xce;" horiz-adv-x="331" 
d="M-5 0l5 27l112 14h37l110 -14l-5 -27h-259zM69 0l67 353q14 77 27 155.5t25 155.5h110l-67 -354q-15 -78 -28 -155.5t-25 -154.5h-109zM107 636l6 28h259l-5 -28l-111 -14h-38zM299 856l108 -130l-18 -18l-142 95h48l-180 -95l-12 20l153 128h43z" />
    <glyph glyph-name="Idieresis" unicode="&#xcf;" horiz-adv-x="331" 
d="M179 732q-19 0 -34.5 12.5t-15.5 35.5q0 29 19.5 45.5t41.5 16.5q21 0 35.5 -13t14.5 -34q0 -29 -18.5 -46t-42.5 -17zM341 732q-18 0 -33.5 12.5t-15.5 35.5q0 29 19 45.5t42 16.5q21 0 35 -13t14 -34q0 -29 -18.5 -46t-42.5 -17zM-5 0l5 27l112 14h37l110 -14l-5 -27
h-259zM69 0l67 353q14 77 27 155.5t25 155.5h110l-67 -354q-15 -78 -28 -155.5t-25 -154.5h-109zM107 636l6 28h259l-5 -28l-111 -14h-38z" />
    <glyph glyph-name="Eth" unicode="&#xd0;" horiz-adv-x="639" 
d="M388 324h-335l6 32h335zM-5 0l5 27l111 14h35l-6 -41h-145zM69 0l67 354q14 77 27 155t25 155h110l-67 -354q-15 -78 -28 -155.5t-25 -154.5h-109zM107 636l6 28h146l-6 -42h-35zM125 0l7 33h106q61 0 111 29t87 80t57 119t20 146q0 114 -48 168.5t-140 54.5h-87l7 34h98
q88 0 150.5 -32t96 -90.5t33.5 -142.5q0 -95 -30.5 -169t-84.5 -125t-123.5 -78t-147.5 -27h-112z" />
    <glyph glyph-name="Ntilde" unicode="&#xd1;" horiz-adv-x="656" 
d="M-12 0l5 27l90 12h20l98 -12l-5 -27h-208zM66 0l122 652h37l-60 -323l-61 -329h-38zM499 636l6 28h206l-6 -28l-83 -11h-20zM534 148l-38 -49l43 230l62 335h37l-124 -670h-41l-281 584l-3 6l-21 44l-65 8l6 28h163l248 -516h14zM251 725q19 61 50 94.5t69 33.5
q24 0 38.5 -10.5t27.5 -23.5q14 -14 27 -26.5t30 -12.5q22 0 41.5 19.5t34.5 51.5l22 -9q-19 -60 -49.5 -94t-68.5 -34q-24 0 -39 11t-28 23q-14 15 -27 27t-30 12q-21 0 -40.5 -19t-35.5 -51z" />
    <glyph glyph-name="Ograve" unicode="&#xd2;" horiz-adv-x="629" 
d="M273 -16q-65 0 -116 28.5t-80.5 85t-29.5 139.5q0 73 16.5 139t47.5 121t73.5 96.5t94.5 64t111 22.5q66 0 117.5 -29.5t81 -86t29.5 -139.5q0 -73 -17 -138.5t-47.5 -121t-73.5 -96t-95 -63t-112 -22.5zM276 16q35 0 66 18.5t57 50.5t47 75t35 92.5t22 103t8 105.5
q0 57 -12.5 99t-39.5 64.5t-71 22.5q-35 0 -66 -18t-57 -50t-46.5 -75t-35 -92.5t-22 -102.5t-7.5 -106q0 -56 12.5 -98.5t39.5 -65.5t70 -23zM450 733l-14 -21q-34 14 -67.5 28.5t-66.5 29.5q-29 13 -38.5 26.5t-9.5 26.5q0 14 11 26t28 12q14 0 28.5 -7t35.5 -28
q23 -22 46.5 -45.5t46.5 -47.5z" />
    <glyph glyph-name="Oacute" unicode="&#xd3;" horiz-adv-x="629" 
d="M273 -16q-65 0 -116 28.5t-80.5 85t-29.5 139.5q0 73 16.5 139t47.5 121t73.5 96.5t94.5 64t111 22.5q66 0 117.5 -29.5t81 -86t29.5 -139.5q0 -73 -17 -138.5t-47.5 -121t-73.5 -96t-95 -63t-112 -22.5zM276 16q35 0 66 18.5t57 50.5t47 75t35 92.5t22 103t8 105.5
q0 57 -12.5 99t-39.5 64.5t-71 22.5q-35 0 -66 -18t-57 -50t-46.5 -75t-35 -92.5t-22 -102.5t-7.5 -106q0 -56 12.5 -98.5t39.5 -65.5t70 -23zM333 731q24 24 49 47.5t49 46.5q21 20 35.5 27t29.5 7q18 0 28.5 -12t10.5 -26q0 -13 -10 -26.5t-39 -26.5q-35 -15 -70 -29
t-70 -29z" />
    <glyph glyph-name="Ocircumflex" unicode="&#xd4;" horiz-adv-x="629" 
d="M273 -16q-65 0 -116 28.5t-80.5 85t-29.5 139.5q0 73 16.5 139t47.5 121t73.5 96.5t94.5 64t111 22.5q66 0 117.5 -29.5t81 -86t29.5 -139.5q0 -73 -17 -138.5t-47.5 -121t-73.5 -96t-95 -63t-112 -22.5zM276 16q35 0 66 18.5t57 50.5t47 75t35 92.5t22 103t8 105.5
q0 57 -12.5 99t-39.5 64.5t-71 22.5q-35 0 -66 -18t-57 -50t-46.5 -75t-35 -92.5t-22 -102.5t-7.5 -106q0 -56 12.5 -98.5t39.5 -65.5t70 -23zM442 856l108 -130l-18 -18l-142 95h48l-180 -95l-12 20l153 128h43z" />
    <glyph glyph-name="Otilde" unicode="&#xd5;" horiz-adv-x="629" 
d="M273 -16q-65 0 -116 28.5t-80.5 85t-29.5 139.5q0 73 16.5 139t47.5 121t73.5 96.5t94.5 64t111 22.5q66 0 117.5 -29.5t81 -86t29.5 -139.5q0 -73 -17 -138.5t-47.5 -121t-73.5 -96t-95 -63t-112 -22.5zM276 16q35 0 66 18.5t57 50.5t47 75t35 92.5t22 103t8 105.5
q0 57 -12.5 99t-39.5 64.5t-71 22.5q-35 0 -66 -18t-57 -50t-46.5 -75t-35 -92.5t-22 -102.5t-7.5 -106q0 -56 12.5 -98.5t39.5 -65.5t70 -23zM238 725q19 61 50 94.5t69 33.5q24 0 38.5 -10.5t27.5 -23.5q14 -14 27 -26.5t30 -12.5q22 0 41.5 19.5t34.5 51.5l22 -9
q-19 -60 -49.5 -94t-68.5 -34q-24 0 -39 11t-28 23q-14 15 -27 27t-30 12q-21 0 -40.5 -19t-35.5 -51z" />
    <glyph glyph-name="Odieresis" unicode="&#xd6;" horiz-adv-x="629" 
d="M273 -16q-65 0 -116 28.5t-80.5 85t-29.5 139.5q0 73 16.5 139t47.5 121t73.5 96.5t94.5 64t111 22.5q66 0 117.5 -29.5t81 -86t29.5 -139.5q0 -73 -17 -138.5t-47.5 -121t-73.5 -96t-95 -63t-112 -22.5zM276 16q35 0 66 18.5t57 50.5t47 75t35 92.5t22 103t8 105.5
q0 57 -12.5 99t-39.5 64.5t-71 22.5q-35 0 -66 -18t-57 -50t-46.5 -75t-35 -92.5t-22 -102.5t-7.5 -106q0 -56 12.5 -98.5t39.5 -65.5t70 -23zM298 732q-19 0 -34 12.5t-15 35.5q0 29 19 45.5t41 16.5t36 -13t14 -34q0 -29 -18.5 -46t-42.5 -17zM506 732q-19 0 -34.5 12.5
t-15.5 35.5q0 29 19 45.5t42 16.5q21 0 35 -13t14 -34q0 -29 -18.5 -46t-41.5 -17z" />
    <glyph glyph-name="multiply" unicode="&#xd7;" horiz-adv-x="514" 
d="M443 110l-379 398l33 34l380 -398zM476 508l-379 -397l-33 33l379 397z" />
    <glyph glyph-name="Oslash" unicode="&#xd8;" horiz-adv-x="629" 
d="M660 662l-631 -682l-24 22l632 682zM274 -16q-65 0 -116.5 28.5t-81 85t-29.5 139.5q0 73 17 139t48 121t74.5 96.5t95.5 64t111 22.5q66 0 116.5 -29.5t79.5 -86t29 -138.5q0 -73 -17 -139t-47.5 -121.5t-73.5 -96t-95 -63t-111 -22.5zM277 16q35 0 66 18.5t57.5 50.5
t47.5 74.5t35.5 92.5t22 103t7.5 106q0 60 -12 101t-39 63t-72 22q-34 0 -65.5 -18t-58.5 -50t-48 -75t-36 -92.5t-23 -102t-8 -105.5q0 -59 13.5 -101t41.5 -64.5t71 -22.5z" />
    <glyph glyph-name="Ugrave" unicode="&#xd9;" horiz-adv-x="645" 
d="M205 622l-106 14l6 28h255l-5 -28l-114 -14h-36zM291 -16q-55 0 -99.5 18t-70 58.5t-25.5 109.5q0 23 3.5 50.5t8.5 56.5l15 76q10 58 19 109t17 100.5t16 101.5h109l-70 -387q-5 -26 -8.5 -50.5t-3.5 -47.5q0 -45 16 -74.5t44 -43t65 -13.5q50 0 86.5 19t62 66t40.5 129
l75 402h38l-76 -407q-18 -100 -53 -160t-87.5 -86.5t-121.5 -26.5zM593 625l-91 11l5 28h195l-6 -28l-85 -11h-18zM487 733l-14 -21q-34 14 -67.5 28.5t-66.5 29.5q-29 13 -38.5 26.5t-9.5 26.5q0 14 11 26t28 12q14 0 28.5 -7t35.5 -28q23 -22 46.5 -45.5t46.5 -47.5z" />
    <glyph glyph-name="Uacute" unicode="&#xda;" horiz-adv-x="645" 
d="M205 622l-106 14l6 28h255l-5 -28l-114 -14h-36zM291 -16q-55 0 -99.5 18t-70 58.5t-25.5 109.5q0 23 3.5 50.5t8.5 56.5l15 76q10 58 19 109t17 100.5t16 101.5h109l-70 -387q-5 -26 -8.5 -50.5t-3.5 -47.5q0 -45 16 -74.5t44 -43t65 -13.5q50 0 86.5 19t62 66t40.5 129
l75 402h38l-76 -407q-18 -100 -53 -160t-87.5 -86.5t-121.5 -26.5zM593 625l-91 11l5 28h195l-6 -28l-85 -11h-18zM370 731q24 24 49 47.5t49 46.5q21 20 35.5 27t29.5 7q18 0 28.5 -12t10.5 -26q0 -13 -10 -26.5t-39 -26.5q-35 -15 -70 -29t-70 -29z" />
    <glyph glyph-name="Ucircumflex" unicode="&#xdb;" horiz-adv-x="645" 
d="M205 622l-106 14l6 28h255l-5 -28l-114 -14h-36zM291 -16q-55 0 -99.5 18t-70 58.5t-25.5 109.5q0 23 3.5 50.5t8.5 56.5l15 76q10 58 19 109t17 100.5t16 101.5h109l-70 -387q-5 -26 -8.5 -50.5t-3.5 -47.5q0 -45 16 -74.5t44 -43t65 -13.5q50 0 86.5 19t62 66t40.5 129
l75 402h38l-76 -407q-18 -100 -53 -160t-87.5 -86.5t-121.5 -26.5zM593 625l-91 11l5 28h195l-6 -28l-85 -11h-18zM479 856l108 -130l-18 -18l-142 95h48l-180 -95l-12 20l153 128h43z" />
    <glyph glyph-name="Udieresis" unicode="&#xdc;" horiz-adv-x="645" 
d="M205 622l-106 14l6 28h255l-5 -28l-114 -14h-36zM291 -16q-55 0 -99.5 18t-70 58.5t-25.5 109.5q0 23 3.5 50.5t8.5 56.5l15 76q10 58 19 109t17 100.5t16 101.5h109l-70 -387q-5 -26 -8.5 -50.5t-3.5 -47.5q0 -45 16 -74.5t44 -43t65 -13.5q50 0 86.5 19t62 66t40.5 129
l75 402h38l-76 -407q-18 -100 -53 -160t-87.5 -86.5t-121.5 -26.5zM593 625l-91 11l5 28h195l-6 -28l-85 -11h-18zM335 732q-19 0 -34 12.5t-15 35.5q0 29 19 45.5t41 16.5t36 -13t14 -34q0 -29 -18.5 -46t-42.5 -17zM543 732q-19 0 -34.5 12.5t-15.5 35.5q0 29 19 45.5
t42 16.5q21 0 35 -13t14 -34q0 -29 -18.5 -46t-41.5 -17z" />
    <glyph glyph-name="Yacute" unicode="&#xdd;" horiz-adv-x="577" 
d="M74 636l5 28h259l-5 -28l-114 -14h-42zM109 0l5 27l121 14h42l118 -14l-5 -27h-281zM262 212l-135 452h116l100 -359h-9l3 5l224 354h39l-290 -452h-48zM194 0l57 303h104q-11 -57 -19.5 -106t-16.5 -97t-16 -100h-109zM459 636l6 28h189l-6 -28l-83 -11h-21zM343 731
q24 24 49 47.5t49 46.5q21 20 35.5 27t29.5 7q18 0 28.5 -12t10.5 -26q0 -13 -10 -26.5t-39 -26.5q-35 -15 -70 -29t-70 -29z" />
    <glyph glyph-name="Thorn" unicode="&#xde;" horiz-adv-x="529" 
d="M134 160l7 33h103q55 0 94 22.5t60.5 62.5t21.5 92q0 61 -31.5 95t-93.5 34h-97l7 33h95q77 0 127 -19.5t75 -55.5t25 -86q0 -59 -31 -107t-94 -76t-161 -28h-107zM-5 0l5 27l112 14h37l110 -14l-5 -27h-259zM69 0l67 353q14 77 27 155.5t25 155.5h110l-67 -354
q-15 -78 -28 -155.5t-25 -154.5h-109zM107 636l6 28h259l-5 -28l-111 -14h-38z" />
    <glyph glyph-name="germandbls" unicode="&#xdf;" horiz-adv-x="531" 
d="M-77 -250q-25 0 -45.5 6.5t-34 20t-18.5 33.5q3 20 19 31t35 11q16 0 29 -5.5t24 -16t23 -24.5l21 -26l-1 -4h-17v4q15 12 27.5 29.5t23.5 38.5q13 27 21.5 58t15.5 64t11 65q18 107 34.5 214.5t33.5 218.5q11 73 33.5 125.5t56 86.5t75 50t88.5 16q74 0 111.5 -29
t37.5 -78q0 -35 -16 -59t-40.5 -42t-51.5 -36q-28 -19 -47 -42t-19 -57q0 -33 20 -62t50 -60q22 -23 40 -46t28.5 -48.5t10.5 -56.5q0 -40 -20.5 -72.5t-58 -52t-86.5 -19.5q-55 0 -89 25t-40 68q3 18 14.5 28t28.5 10q21 0 33.5 -12t19.5 -35l21 -66l-55 20
q15 -3 26.5 -5.5t27.5 -2.5q42 0 66 25t24 58q0 32 -19 60.5t-49 58.5q-30 33 -52.5 66.5t-22.5 73.5q0 36 14.5 61.5t38 46.5t48.5 42q20 17 35.5 35t24.5 41t9 51q0 39 -18.5 61t-50.5 22q-29 0 -52.5 -14.5t-41 -43t-30.5 -69.5t-22 -95q-18 -110 -35.5 -228t-36.5 -226
q-8 -42 -20 -82.5t-30 -75.5t-43 -63q-18 -22 -40.5 -37.5t-46.5 -24.5t-51 -9z" />
    <glyph glyph-name="agrave" unicode="&#xe0;" horiz-adv-x="523" 
d="M126 -14q-25 0 -47 13t-36 40.5t-14 71.5q0 47 18.5 98t49 98.5t69.5 85.5t80.5 60.5t81.5 22.5q22 0 41.5 -7.5t36 -21.5t28.5 -34l-51 -39q-15 16 -35.5 30.5t-46.5 14.5q-17 0 -33.5 -6.5t-31.5 -18t-29 -27.5q-24 -29 -41.5 -68t-26.5 -80.5t-9 -76.5q0 -41 12 -63.5
t39 -22.5q18 0 39 11t47.5 35.5t58.5 64.5l6 -19h-3q-28 -42 -61 -79t-68.5 -60t-73.5 -23zM353 -14q-27 0 -45.5 17t-18.5 47q0 8 0.5 15.5t3 20.5t7.5 34l-1 3l63 300l6 3l89 55l13 -10l-75 -354q-3 -14 -5 -24.5t-2 -20.5q0 -8 5 -12.5t12 -4.5q15 0 36.5 16.5t44.5 45.5
l19 -13q-17 -28 -39.5 -55t-51 -45t-61.5 -18zM373 545l-19 -12q-17 19 -33.5 36t-33 35t-34.5 36q-18 17 -27 32t-9 28q0 19 12 31t29 12q20 0 34 -14t25 -44q10 -23 19 -46.5t18.5 -46.5t18.5 -47z" />
    <glyph glyph-name="aacute" unicode="&#xe1;" horiz-adv-x="523" 
d="M126 -14q-25 0 -47 13t-36 40.5t-14 71.5q0 47 18.5 98t49 98.5t69.5 85.5t80.5 60.5t81.5 22.5q22 0 41.5 -7.5t36 -21.5t28.5 -34l-51 -39q-15 16 -35.5 30.5t-46.5 14.5q-17 0 -33.5 -6.5t-31.5 -18t-29 -27.5q-24 -29 -41.5 -68t-26.5 -80.5t-9 -76.5q0 -41 12 -63.5
t39 -22.5q18 0 39 11t47.5 35.5t58.5 64.5l6 -19h-3q-28 -42 -61 -79t-68.5 -60t-73.5 -23zM353 -14q-27 0 -45.5 17t-18.5 47q0 8 0.5 15.5t3 20.5t7.5 34l-1 3l63 300l6 3l89 55l13 -10l-75 -354q-3 -14 -5 -24.5t-2 -20.5q0 -8 5 -12.5t12 -4.5q15 0 36.5 16.5t44.5 45.5
l19 -13q-17 -28 -39.5 -55t-51 -45t-61.5 -18zM317 545q10 24 19.5 47t19.5 46.5t19 46.5q8 19 16.5 31.5t19 19t23.5 6.5q16 0 29 -10.5t13 -29.5q0 -13 -9 -29.5t-28 -34.5l-34.5 -34.5t-34.5 -35t-34 -35.5z" />
    <glyph glyph-name="acircumflex" unicode="&#xe2;" horiz-adv-x="523" 
d="M126 -14q-25 0 -47 13t-36 40.5t-14 71.5q0 47 18.5 98t49 98.5t69.5 85.5t80.5 60.5t81.5 22.5q22 0 41.5 -7.5t36 -21.5t28.5 -34l-51 -39q-15 16 -35.5 30.5t-46.5 14.5q-17 0 -33.5 -6.5t-31.5 -18t-29 -27.5q-24 -29 -41.5 -68t-26.5 -80.5t-9 -76.5q0 -41 12 -63.5
t39 -22.5q18 0 39 11t47.5 35.5t58.5 64.5l6 -19h-3q-28 -42 -61 -79t-68.5 -60t-73.5 -23zM353 -14q-27 0 -45.5 17t-18.5 47q0 8 0.5 15.5t3 20.5t7.5 34l-1 3l63 300l6 3l89 55l13 -10l-75 -354q-3 -14 -5 -24.5t-2 -20.5q0 -8 5 -12.5t12 -4.5q15 0 36.5 16.5t44.5 45.5
l19 -13q-17 -28 -39.5 -55t-51 -45t-61.5 -18zM470 535l-128 132h51l-178 -133l-17 19l156 171h42l96 -173z" />
    <glyph glyph-name="atilde" unicode="&#xe3;" horiz-adv-x="523" 
d="M126 -14q-25 0 -47 13t-36 40.5t-14 71.5q0 47 18.5 98t49 98.5t69.5 85.5t80.5 60.5t81.5 22.5q22 0 41.5 -7.5t36 -21.5t28.5 -34l-51 -39q-15 16 -35.5 30.5t-46.5 14.5q-17 0 -33.5 -6.5t-31.5 -18t-29 -27.5q-24 -29 -41.5 -68t-26.5 -80.5t-9 -76.5q0 -41 12 -63.5
t39 -22.5q18 0 39 11t47.5 35.5t58.5 64.5l6 -19h-3q-28 -42 -61 -79t-68.5 -60t-73.5 -23zM353 -14q-27 0 -45.5 17t-18.5 47q0 8 0.5 15.5t3 20.5t7.5 34l-1 3l63 300l6 3l89 55l13 -10l-75 -354q-3 -14 -5 -24.5t-2 -20.5q0 -8 5 -12.5t12 -4.5q15 0 36.5 16.5t44.5 45.5
l19 -13q-17 -28 -39.5 -55t-51 -45t-61.5 -18zM198 566q18 61 47 94.5t65 33.5q22 0 36.5 -9t28.5 -24t26 -27.5t29 -12.5q21 0 38.5 19.5t33.5 50.5l21 -8q-19 -61 -47.5 -94.5t-65.5 -33.5q-22 0 -36.5 9.5t-28.5 24.5q-13 14 -25.5 26.5t-29.5 12.5q-21 0 -38 -19
t-33 -51z" />
    <glyph glyph-name="adieresis" unicode="&#xe4;" horiz-adv-x="523" 
d="M126 -14q-25 0 -47 13t-36 40.5t-14 71.5q0 47 18.5 98t49 98.5t69.5 85.5t80.5 60.5t81.5 22.5q22 0 41.5 -7.5t36 -21.5t28.5 -34l-51 -39q-15 16 -35.5 30.5t-46.5 14.5q-17 0 -33.5 -6.5t-31.5 -18t-29 -27.5q-24 -29 -41.5 -68t-26.5 -80.5t-9 -76.5q0 -41 12 -63.5
t39 -22.5q18 0 39 11t47.5 35.5t58.5 64.5l6 -19h-3q-28 -42 -61 -79t-68.5 -60t-73.5 -23zM353 -14q-27 0 -45.5 17t-18.5 47q0 8 0.5 15.5t3 20.5t7.5 34l-1 3l63 300l6 3l89 55l13 -10l-75 -354q-3 -14 -5 -24.5t-2 -20.5q0 -8 5 -12.5t12 -4.5q15 0 36.5 16.5t44.5 45.5
l19 -13q-17 -28 -39.5 -55t-51 -45t-61.5 -18zM262 583q-20 0 -35.5 13t-15.5 36q0 29 19.5 46t42.5 17q21 0 35.5 -13.5t14.5 -34.5q0 -30 -18.5 -47t-42.5 -17zM451 583q-19 0 -34 13t-15 36q0 29 19 46t42 17q21 0 35.5 -13.5t14.5 -34.5q0 -30 -18.5 -47t-43.5 -17z" />
    <glyph glyph-name="aring" unicode="&#xe5;" horiz-adv-x="523" 
d="M126 -14q-25 0 -47 13t-36 40.5t-14 71.5q0 47 18.5 98t49 98.5t69.5 85.5t80.5 60.5t81.5 22.5q22 0 41.5 -7.5t36 -21.5t28.5 -34l-51 -39q-15 16 -35.5 30.5t-46.5 14.5q-17 0 -33.5 -6.5t-31.5 -18t-29 -27.5q-24 -29 -41.5 -68t-26.5 -80.5t-9 -76.5q0 -41 12 -63.5
t39 -22.5q18 0 39 11t47.5 35.5t58.5 64.5l6 -19h-3q-28 -42 -61 -79t-68.5 -60t-73.5 -23zM353 -14q-27 0 -45.5 17t-18.5 47q0 8 0.5 15.5t3 20.5t7.5 34l-1 3l63 300l6 3l89 55l13 -10l-75 -354q-3 -14 -5 -24.5t-2 -20.5q0 -8 5 -12.5t12 -4.5q15 0 36.5 16.5t44.5 45.5
l19 -13q-17 -28 -39.5 -55t-51 -45t-61.5 -18zM351 537q-37 0 -64 23t-27 61q0 34 16 59t42 38t53 13q36 0 63.5 -22.5t27.5 -61.5q0 -35 -16.5 -59.5t-42 -37.5t-52.5 -13zM351 568q32 0 52.5 23t20.5 53q0 22 -14 39t-42 17q-31 0 -51 -24t-20 -53q0 -23 14 -39t40 -16z
" />
    <glyph glyph-name="ae" unicode="&#xe6;" horiz-adv-x="680" 
d="M126 -14q-25 0 -47 13t-36 40.5t-14 71.5q0 47 18.5 98t49 98.5t69.5 85.5t80.5 60.5t81.5 22.5q34 0 62.5 -17.5t47.5 -51.5l-48 -35q-15 18 -37.5 32.5t-51.5 14.5q-16 0 -32 -5.5t-30.5 -16t-27.5 -25.5q-25 -28 -43.5 -68t-28 -83t-9.5 -79q0 -41 12 -63.5t39 -22.5
q17 0 38 11t46.5 34t56.5 61l14 -22h-10q-27 -41 -59.5 -76t-68 -56.5t-72.5 -21.5zM448 -14q-44 0 -78.5 19.5t-54 57.5t-19.5 93q0 62 22 119.5t59.5 102.5t86 71.5t100.5 26.5q53 0 82 -23t29 -64q0 -30 -16.5 -58.5t-54 -55.5t-98.5 -51.5t-150 -46.5l-3 24
q92 25 143.5 56t73 65.5t21.5 69.5q0 25 -11.5 38.5t-30.5 13.5q-22 0 -49.5 -20t-51.5 -56t-39.5 -84t-15.5 -103q0 -61 29.5 -90.5t73.5 -29.5q25 0 49 10t44 26t35 34l17 -13q-15 -28 -34.5 -52t-43 -42t-52 -28t-63.5 -10z" />
    <glyph glyph-name="ccedilla" unicode="&#xe7;" horiz-adv-x="412" 
d="M186 -14q-45 0 -81 20.5t-56 60t-20 97.5q0 62 21 118t57.5 99.5t83 69t98.5 25.5q28 0 52.5 -9t42 -26.5t23.5 -42.5q-2 -23 -16.5 -34t-33.5 -11q-21 0 -36 12.5t-28 31.5l-46 65h59v-9h-13q-35 -5 -65.5 -28.5t-53 -61t-35 -83t-12.5 -94.5q0 -64 29 -95.5t74 -31.5
q25 0 47.5 10.5t43 27t35.5 34.5l18 -13q-15 -28 -34 -52.5t-43 -42t-51.5 -27.5t-59.5 -10zM144 -79l31 79h27l-26 -70l-11 19q51 -8 77.5 -29.5t26.5 -55.5q0 -38 -32 -62.5t-88 -24.5q-23 0 -41 4.5t-31 11.5l10 24l24 -6t27 -3q31 0 48 16.5t17 42.5q0 22 -14.5 35.5
t-44.5 18.5z" />
    <glyph glyph-name="egrave" unicode="&#xe8;" horiz-adv-x="410" 
d="M178 -14q-44 0 -78.5 19.5t-54 57.5t-19.5 93q0 62 22 119.5t59.5 102.5t85.5 71.5t101 26.5t82 -23t29 -64q0 -30 -16.5 -58.5t-54 -55.5t-98.5 -51.5t-150 -46.5l-3 24q92 25 143.5 56t73 65.5t21.5 69.5q0 25 -11.5 38.5t-30.5 13.5q-22 0 -49.5 -20t-51.5 -56
t-39.5 -84t-15.5 -103q0 -61 29.5 -90.5t73.5 -29.5q25 0 49 10t44 26t34 34l18 -13q-15 -28 -34.5 -52t-43 -42t-52 -28t-63.5 -10zM335 545l-19 -12q-17 19 -33.5 36t-33 35t-34.5 36q-18 17 -27 32t-9 28q0 19 12 31t29 12q20 0 34 -14t25 -44q10 -23 19 -46.5
t18.5 -46.5t18.5 -47z" />
    <glyph glyph-name="eacute" unicode="&#xe9;" horiz-adv-x="410" 
d="M178 -14q-44 0 -78.5 19.5t-54 57.5t-19.5 93q0 62 22 119.5t59.5 102.5t85.5 71.5t101 26.5t82 -23t29 -64q0 -30 -16.5 -58.5t-54 -55.5t-98.5 -51.5t-150 -46.5l-3 24q92 25 143.5 56t73 65.5t21.5 69.5q0 25 -11.5 38.5t-30.5 13.5q-22 0 -49.5 -20t-51.5 -56
t-39.5 -84t-15.5 -103q0 -61 29.5 -90.5t73.5 -29.5q25 0 49 10t44 26t34 34l18 -13q-15 -28 -34.5 -52t-43 -42t-52 -28t-63.5 -10zM279 545q10 24 19.5 47t19.5 46.5t19 46.5q8 19 16.5 31.5t19 19t23.5 6.5q16 0 29 -10.5t13 -29.5q0 -13 -9 -29.5t-28 -34.5l-34.5 -34.5
t-34.5 -35t-34 -35.5z" />
    <glyph glyph-name="ecircumflex" unicode="&#xea;" horiz-adv-x="410" 
d="M178 -14q-44 0 -78.5 19.5t-54 57.5t-19.5 93q0 62 22 119.5t59.5 102.5t85.5 71.5t101 26.5t82 -23t29 -64q0 -30 -16.5 -58.5t-54 -55.5t-98.5 -51.5t-150 -46.5l-3 24q92 25 143.5 56t73 65.5t21.5 69.5q0 25 -11.5 38.5t-30.5 13.5q-22 0 -49.5 -20t-51.5 -56
t-39.5 -84t-15.5 -103q0 -61 29.5 -90.5t73.5 -29.5q25 0 49 10t44 26t34 34l18 -13q-15 -28 -34.5 -52t-43 -42t-52 -28t-63.5 -10zM432 535l-128 132h51l-178 -133l-17 19l156 171h42l96 -173z" />
    <glyph glyph-name="edieresis" unicode="&#xeb;" horiz-adv-x="410" 
d="M178 -14q-44 0 -78.5 19.5t-54 57.5t-19.5 93q0 62 22 119.5t59.5 102.5t85.5 71.5t101 26.5t82 -23t29 -64q0 -30 -16.5 -58.5t-54 -55.5t-98.5 -51.5t-150 -46.5l-3 24q92 25 143.5 56t73 65.5t21.5 69.5q0 25 -11.5 38.5t-30.5 13.5q-22 0 -49.5 -20t-51.5 -56
t-39.5 -84t-15.5 -103q0 -61 29.5 -90.5t73.5 -29.5q25 0 49 10t44 26t34 34l18 -13q-15 -28 -34.5 -52t-43 -42t-52 -28t-63.5 -10zM224 583q-20 0 -35.5 13t-15.5 36q0 29 19.5 46t42.5 17q21 0 35.5 -13.5t14.5 -34.5q0 -30 -18.5 -47t-42.5 -17zM413 583q-19 0 -34 13
t-15 36q0 29 19 46t42 17q21 0 35.5 -13.5t14.5 -34.5q0 -30 -18.5 -47t-43.5 -17z" />
    <glyph glyph-name="igrave" unicode="&#xec;" horiz-adv-x="294" 
d="M57 40q0 14 3.5 33.5t8.5 43.5l60 286l16 -14l-97 17l4 21l175 49l12 -10l-71 -344q-4 -16 -6 -28t-2 -20q0 -9 5 -14t12 -5q14 0 34.5 16t45.5 46l18 -13q-17 -29 -40 -56t-52 -44.5t-64 -17.5q-26 0 -44 14t-18 40zM230 545l-19 -12q-17 19 -33.5 36t-33 35t-34.5 36
q-18 17 -27 32t-9 28q0 19 12 31t29 12q20 0 34 -14t25 -44q10 -23 19 -46.5t18.5 -46.5t18.5 -47z" />
    <glyph glyph-name="iacute" unicode="&#xed;" horiz-adv-x="294" 
d="M57 40q0 14 3.5 33.5t8.5 43.5l60 286l16 -14l-97 17l4 21l175 49l12 -10l-71 -344q-4 -16 -6 -28t-2 -20q0 -9 5 -14t12 -5q14 0 34.5 16t45.5 46l18 -13q-17 -29 -40 -56t-52 -44.5t-64 -17.5q-26 0 -44 14t-18 40zM174 545q10 24 19.5 47t19.5 46.5t19 46.5
q8 19 16.5 31.5t19 19t23.5 6.5q16 0 29 -10.5t13 -29.5q0 -13 -9 -29.5t-28 -34.5l-34.5 -34.5t-34.5 -35t-34 -35.5z" />
    <glyph glyph-name="icircumflex" unicode="&#xee;" horiz-adv-x="294" 
d="M57 40q0 14 3.5 33.5t8.5 43.5l60 286l16 -14l-97 17l4 21l175 49l12 -10l-71 -344q-4 -16 -6 -28t-2 -20q0 -9 5 -14t12 -5q14 0 34.5 16t45.5 46l18 -13q-17 -29 -40 -56t-52 -44.5t-64 -17.5q-26 0 -44 14t-18 40zM327 535l-128 132h51l-178 -133l-17 19l156 171h42
l96 -173z" />
    <glyph glyph-name="idieresis" unicode="&#xef;" horiz-adv-x="294" 
d="M132 583q-20 0 -35 13t-15 36q0 29 19.5 46t41.5 17t36 -13.5t14 -34.5q0 -30 -18 -47t-43 -17zM298 583q-19 0 -34 13t-15 36q0 29 19 46t41 17t36.5 -13.5t14.5 -34.5q0 -30 -18.5 -47t-43.5 -17zM57 40q0 14 3.5 33.5t8.5 43.5l60 286l16 -14l-97 17l4 21l175 49
l12 -10l-71 -344q-4 -16 -6 -28t-2 -20q0 -9 5.5 -14t11.5 -5q14 0 34.5 16t45.5 46l18 -13q-17 -29 -40 -56t-52 -44.5t-64 -17.5q-26 0 -44 14.5t-18 39.5z" />
    <glyph glyph-name="eth" unicode="&#xf0;" horiz-adv-x="477" 
d="M197 -14q-47 0 -85.5 20t-61.5 60.5t-23 100.5q0 61 18.5 116t51.5 98t78 68t99 25q33 0 56.5 -11.5t38 -31.5t20.5 -46l-15 -4q-3 64 -12.5 114t-28.5 90t-49.5 73t-75.5 63l16 23q74 -33 126.5 -86t81 -124.5t28.5 -160.5q0 -79 -19 -149t-54 -123.5t-83.5 -84
t-106.5 -30.5zM199 17q30 0 58 24.5t49.5 67.5t34 100t12.5 121q0 59 -19 86t-54 27q-31 0 -58.5 -24.5t-48.5 -66.5t-33 -96t-12 -112q0 -66 18.5 -96.5t52.5 -30.5zM177 530l-12 26l326 167l12 -27z" />
    <glyph glyph-name="ntilde" unicode="&#xf1;" horiz-adv-x="548" 
d="M56 -8l-11 10l84 401l21 -14l-102 17l4 21l174 49l13 -10l-24 -114l-1 -8l-29 -139q-10 -50 -19 -101.5t-17 -103.5zM369 -14q-26 0 -43 14t-17 39q0 15 3.5 34t9.5 43l39 169q6 23 10.5 46.5t4.5 36.5q0 19 -8.5 27.5t-22.5 8.5q-17 0 -38.5 -9t-48 -27t-58.5 -46l-6 25
h6q34 37 70 66t72 46t69 17q31 0 49 -18.5t18 -55.5q0 -22 -4 -45t-10 -46l-44 -189q-4 -16 -6 -28.5t-2 -19.5q0 -9 4.5 -14t11.5 -5q14 0 36 16t46 46l18 -13q-17 -28 -40.5 -55.5t-53 -45t-65.5 -17.5zM178 566q18 61 47 94.5t65 33.5q22 0 36.5 -9t28.5 -24t26 -27.5
t29 -12.5q21 0 38.5 19.5t33.5 50.5l21 -8q-19 -61 -47.5 -94.5t-65.5 -33.5q-22 0 -36.5 9.5t-28.5 24.5q-13 14 -25.5 26.5t-29.5 12.5q-21 0 -38 -19t-33 -51z" />
    <glyph glyph-name="ograve" unicode="&#xf2;" horiz-adv-x="476" 
d="M196 -14q-45 0 -84 19.5t-62 59.5t-23 100q0 61 18.5 116.5t52.5 99.5t81 69.5t104 25.5q46 0 84 -19.5t61 -59t23 -99.5q0 -61 -18.5 -117t-52 -100t-80.5 -69.5t-104 -25.5zM200 17q25 0 47.5 17t41 47t32.5 69t21.5 83.5t7.5 89.5q0 65 -18 94t-53 29q-25 0 -47.5 -17
t-41.5 -47t-33 -69t-21.5 -83t-7.5 -90q0 -65 19 -94t53 -29zM329 545l-19 -12q-17 19 -33.5 36t-33 35t-34.5 36q-18 17 -27 32t-9 28q0 19 12 31t29 12q20 0 34 -14t25 -44q10 -23 19 -46.5t18.5 -46.5t18.5 -47z" />
    <glyph glyph-name="oacute" unicode="&#xf3;" horiz-adv-x="476" 
d="M196 -14q-45 0 -84 19.5t-62 59.5t-23 100q0 61 18.5 116.5t52.5 99.5t81 69.5t104 25.5q46 0 84 -19.5t61 -59t23 -99.5q0 -61 -18.5 -117t-52 -100t-80.5 -69.5t-104 -25.5zM200 17q25 0 47.5 17t41 47t32.5 69t21.5 83.5t7.5 89.5q0 65 -18 94t-53 29q-25 0 -47.5 -17
t-41.5 -47t-33 -69t-21.5 -83t-7.5 -90q0 -65 19 -94t53 -29zM273 545q10 24 19.5 47t19.5 46.5t19 46.5q8 19 16.5 31.5t19 19t23.5 6.5q16 0 29 -10.5t13 -29.5q0 -13 -9 -29.5t-28 -34.5l-34.5 -34.5t-34.5 -35t-34 -35.5z" />
    <glyph glyph-name="ocircumflex" unicode="&#xf4;" horiz-adv-x="476" 
d="M196 -14q-45 0 -84 19.5t-62 59.5t-23 100q0 61 18.5 116.5t52.5 99.5t81 69.5t104 25.5q46 0 84 -19.5t61 -59t23 -99.5q0 -61 -18.5 -117t-52 -100t-80.5 -69.5t-104 -25.5zM200 17q25 0 47.5 17t41 47t32.5 69t21.5 83.5t7.5 89.5q0 65 -18 94t-53 29q-25 0 -47.5 -17
t-41.5 -47t-33 -69t-21.5 -83t-7.5 -90q0 -65 19 -94t53 -29zM426 535l-128 132h51l-178 -133l-17 19l156 171h42l96 -173z" />
    <glyph glyph-name="otilde" unicode="&#xf5;" horiz-adv-x="476" 
d="M196 -14q-45 0 -84 19.5t-62 59.5t-23 100q0 61 18.5 116.5t52.5 99.5t81 69.5t104 25.5q46 0 84 -19.5t61 -59t23 -99.5q0 -61 -18.5 -117t-52 -100t-80.5 -69.5t-104 -25.5zM200 17q25 0 47.5 17t41 47t32.5 69t21.5 83.5t7.5 89.5q0 65 -18 94t-53 29q-25 0 -47.5 -17
t-41.5 -47t-33 -69t-21.5 -83t-7.5 -90q0 -65 19 -94t53 -29zM154 566q18 61 47 94.5t65 33.5q22 0 36.5 -9t28.5 -24t26 -27.5t29 -12.5q21 0 38.5 19.5t33.5 50.5l21 -8q-19 -61 -47.5 -94.5t-65.5 -33.5q-22 0 -36.5 9.5t-28.5 24.5q-13 14 -25.5 26.5t-29.5 12.5
q-21 0 -38 -19t-33 -51z" />
    <glyph glyph-name="odieresis" unicode="&#xf6;" horiz-adv-x="476" 
d="M196 -14q-45 0 -84 19.5t-62 59.5t-23 100q0 61 18.5 116.5t52.5 99.5t81 69.5t104 25.5q46 0 84 -19.5t61 -59t23 -99.5q0 -61 -18.5 -117t-52 -100t-80.5 -69.5t-104 -25.5zM200 17q25 0 47.5 17t41 47t32.5 69t21.5 83.5t7.5 89.5q0 65 -18 94t-53 29q-25 0 -47.5 -17
t-41.5 -47t-33 -69t-21.5 -83t-7.5 -90q0 -65 19 -94t53 -29zM218 583q-20 0 -35.5 13t-15.5 36q0 29 19.5 46t42.5 17q21 0 35.5 -13.5t14.5 -34.5q0 -30 -18.5 -47t-42.5 -17zM407 583q-19 0 -34 13t-15 36q0 29 19 46t42 17q21 0 35.5 -13.5t14.5 -34.5q0 -30 -18.5 -47
t-43.5 -17z" />
    <glyph glyph-name="divide" unicode="&#xf7;" horiz-adv-x="514" 
d="M270 85q-24 0 -41 16t-17 42t17 41.5t41 15.5t41.5 -15.5t17.5 -41.5t-17.5 -42t-41.5 -16zM270 452q-24 0 -41 16t-17 42t17 41.5t41 15.5t41.5 -15.5t17.5 -41.5t-17.5 -42t-41.5 -16zM49 303v52h443v-52h-443z" />
    <glyph glyph-name="oslash" unicode="&#xf8;" horiz-adv-x="476" 
d="M483 460l-470 -476l-21 19l471 477zM196 -14q-45 0 -84 19.5t-62 59.5t-23 100q0 61 18.5 116.5t52.5 99.5t81 69.5t104 25.5q46 0 84 -19.5t61 -59t23 -99.5q0 -61 -18.5 -117t-52 -100t-80.5 -69.5t-104 -25.5zM199 17q32 0 59.5 25.5t49 69.5t33.5 98t12 111
q0 45 -8.5 72.5t-24.5 40t-40 12.5q-31 0 -59 -26t-50 -69.5t-34 -97.5t-12 -111q0 -44 9 -72.5t25 -40.5t40 -12z" />
    <glyph glyph-name="ugrave" unicode="&#xf9;" horiz-adv-x="549" 
d="M130 -14q-21 0 -37 9t-25 25.5t-9 40.5t5 48.5t10 48.5l55 247l14 -15l-96 16l4 21l177 49l12 -10l-64 -287q-3 -15 -6 -31t-5.5 -29.5t-2.5 -23.5q0 -18 9 -27t23 -9q19 0 40 9t48 27.5t60 47.5l8 -26h-11q-35 -38 -71 -67t-70.5 -46.5t-67.5 -17.5zM371 -14
q-26 0 -43 16t-17 44q0 10 2 24t8 41v4l32 150q10 47 18 92t14 92l95 27l12 -10l-72 -346q-3 -16 -5.5 -27t-2.5 -21q0 -8 5 -12.5t12 -4.5q15 0 36 16t45 46l19 -13q-17 -28 -40.5 -55.5t-53 -45t-64.5 -17.5zM357 545l-19 -12q-17 19 -33.5 36t-33 35t-34.5 36
q-18 17 -27 32t-9 28q0 19 12 31t29 12q20 0 34 -14t25 -44q10 -23 19 -46.5t18.5 -46.5t18.5 -47z" />
    <glyph glyph-name="uacute" unicode="&#xfa;" horiz-adv-x="549" 
d="M130 -14q-21 0 -37 9t-25 25.5t-9 40.5t5 48.5t10 48.5l55 247l14 -15l-96 16l4 21l177 49l12 -10l-64 -287q-3 -15 -6 -31t-5.5 -29.5t-2.5 -23.5q0 -18 9 -27t23 -9q19 0 40 9t48 27.5t60 47.5l8 -26h-11q-35 -38 -71 -67t-70.5 -46.5t-67.5 -17.5zM371 -14
q-26 0 -43 16t-17 44q0 10 2 24t8 41v4l32 150q10 47 18 92t14 92l95 27l12 -10l-72 -346q-3 -16 -5.5 -27t-2.5 -21q0 -8 5 -12.5t12 -4.5q15 0 36 16t45 46l19 -13q-17 -28 -40.5 -55.5t-53 -45t-64.5 -17.5zM301 545q10 24 19.5 47t19.5 46.5t19 46.5q8 19 16.5 31.5
t19 19t23.5 6.5q16 0 29 -10.5t13 -29.5q0 -13 -9 -29.5t-28 -34.5l-34.5 -34.5t-34.5 -35t-34 -35.5z" />
    <glyph glyph-name="ucircumflex" unicode="&#xfb;" horiz-adv-x="549" 
d="M130 -14q-21 0 -37 9t-25 25.5t-9 40.5t5 48.5t10 48.5l55 247l14 -15l-96 16l4 21l177 49l12 -10l-64 -287q-3 -15 -6 -31t-5.5 -29.5t-2.5 -23.5q0 -18 9 -27t23 -9q19 0 40 9t48 27.5t60 47.5l8 -26h-11q-35 -38 -71 -67t-70.5 -46.5t-67.5 -17.5zM371 -14
q-26 0 -43 16t-17 44q0 10 2 24t8 41v4l32 150q10 47 18 92t14 92l95 27l12 -10l-72 -346q-3 -16 -5.5 -27t-2.5 -21q0 -8 5 -12.5t12 -4.5q15 0 36 16t45 46l19 -13q-17 -28 -40.5 -55.5t-53 -45t-64.5 -17.5zM454 535l-128 132h51l-178 -133l-17 19l156 171h42l96 -173z
" />
    <glyph glyph-name="udieresis" unicode="&#xfc;" horiz-adv-x="549" 
d="M130 -14q-21 0 -37 9t-25 25.5t-9 40.5t5 48.5t10 48.5l55 247l14 -15l-96 16l4 21l177 49l12 -10l-64 -287q-3 -15 -6 -31t-5.5 -29.5t-2.5 -23.5q0 -18 9 -27t23 -9q19 0 40 9t48 27.5t60 47.5l8 -26h-11q-35 -38 -71 -67t-70.5 -46.5t-67.5 -17.5zM371 -14
q-26 0 -43 16t-17 44q0 10 2 24t8 41v4l32 150q10 47 18 92t14 92l95 27l12 -10l-72 -346q-3 -16 -5.5 -27t-2.5 -21q0 -8 5 -12.5t12 -4.5q15 0 36 16t45 46l19 -13q-17 -28 -40.5 -55.5t-53 -45t-64.5 -17.5zM246 583q-20 0 -35.5 13t-15.5 36q0 29 19.5 46t42.5 17
q21 0 35.5 -13.5t14.5 -34.5q0 -30 -18.5 -47t-42.5 -17zM435 583q-19 0 -34 13t-15 36q0 29 19 46t42 17q21 0 35.5 -13.5t14.5 -34.5q0 -30 -18.5 -47t-43.5 -17z" />
    <glyph glyph-name="yacute" unicode="&#xfd;" horiz-adv-x="479" 
d="M-35 -247q-34 0 -59 16t-30 46q4 22 20.5 33t36.5 11q25 0 44 -13t38 -35l20 -20v-8h-28v7q15 8 31 20t31 26t28 27q42 34 74 76t64 87q24 40 43 80t34 80.5t27 83.5t22 89q11 46 20 72t22 37t33 11t31.5 -12.5t11.5 -32.5t-9 -43t-21 -46q-16 -32 -34.5 -65.5
t-42.5 -74.5q-13 -23 -26.5 -46.5t-28.5 -49t-32 -52.5t-37 -55q-20 -30 -45.5 -64t-55.5 -67t-64 -59q-19 -18 -38.5 -31t-39 -20.5t-40.5 -7.5zM164 -76q-5 77 -13 150.5t-16.5 140.5t-17.5 124q-3 28 -7 42t-9 18.5t-11 4.5q-13 0 -27 -15.5t-34 -48.5l-17 14
q29 63 59.5 92.5t66.5 29.5q25 0 39.5 -10.5t23.5 -32t13 -56.5q5 -36 9.5 -81.5t9 -94.5t7 -96t3.5 -88h7zM267 545q10 24 19.5 47t19.5 46.5t19 46.5q8 19 16.5 31.5t19 19t23.5 6.5q16 0 29 -10.5t13 -29.5q0 -13 -9 -29.5t-28 -34.5l-34.5 -34.5t-34.5 -35t-34 -35.5z
" />
    <glyph glyph-name="thorn" unicode="&#xfe;" horiz-adv-x="497" 
d="M-90 -247l5 24l101 16h56l104 -16l-4 -24h-262zM-16 -247l151 726q10 46 19 93.5t16 106.5l29 -33l-107 19l4 21l176 49l11 -10l-79 -378l-2 -11l-62 -302l-6 -16q-10 -51 -19.5 -98t-17 -89t-13.5 -78h-100zM182 -14q-31 0 -59 15t-48 44l48 51q16 -21 37 -36.5
t49 -15.5q18 0 34.5 6.5t31.5 18.5t27 28q24 29 41 68.5t25.5 80.5t8.5 75q0 40 -11 62.5t-41 22.5q-18 0 -40 -11t-48.5 -35t-57.5 -63l-12 16h9q27 44 60 81t70 59.5t74 22.5q26 0 48 -12.5t35.5 -40t13.5 -72.5q0 -48 -17.5 -98.5t-47.5 -98t-68 -85.5t-79.5 -60.5
t-82.5 -22.5z" />
    <glyph glyph-name="ydieresis" unicode="&#xff;" horiz-adv-x="479" 
d="M-35 -247q-34 0 -59 16t-30 46q4 22 20.5 33t36.5 11q25 0 44 -13t38 -35l20 -20v-8h-28v7q15 8 31 20t31 26t28 27q42 34 74 76t64 87q24 40 43 80t34 80.5t27 83.5t22 89q11 46 20 72t22 37t33 11t31.5 -12.5t11.5 -32.5t-9 -43t-21 -46q-16 -32 -34.5 -65.5
t-42.5 -74.5q-13 -23 -26.5 -46.5t-28.5 -49t-32 -52.5t-37 -55q-20 -30 -45.5 -64t-55.5 -67t-64 -59q-19 -18 -38.5 -31t-39 -20.5t-40.5 -7.5zM164 -76q-5 77 -13 150.5t-16.5 140.5t-17.5 124q-3 28 -7 42t-9 18.5t-11 4.5q-13 0 -27 -15.5t-34 -48.5l-17 14
q29 63 59.5 92.5t66.5 29.5q25 0 39.5 -10.5t23.5 -32t13 -56.5q5 -36 9.5 -81.5t9 -94.5t7 -96t3.5 -88h7zM212 583q-20 0 -35.5 13t-15.5 36q0 29 19.5 46t42.5 17q21 0 35.5 -13.5t14.5 -34.5q0 -30 -18.5 -47t-42.5 -17zM401 583q-19 0 -34 13t-15 36q0 29 19 46t42 17
q21 0 35.5 -13.5t14.5 -34.5q0 -30 -18.5 -47t-43.5 -17z" />
    <glyph glyph-name="Amacron" unicode="&#x100;" horiz-adv-x="621" 
d="M-34 0l5 27l84 12h20l88 -12l-5 -27h-192zM25 0l342 667h53l94 -667h-107l-72 557h8l-3 -6l-275 -551h-40zM167 226l5 33h258l-1 -33h-262zM314 0l5 27l118 14h45l96 -14l-6 -27h-258zM276 740l13 62h264l-14 -62h-263z" />
    <glyph glyph-name="amacron" unicode="&#x101;" horiz-adv-x="523" 
d="M126 -14q-25 0 -47 13t-36 40.5t-14 71.5q0 47 18.5 98t49 98.5t69.5 85.5t80.5 60.5t81.5 22.5q22 0 41.5 -7.5t36 -21.5t28.5 -34l-51 -39q-15 16 -35.5 30.5t-46.5 14.5q-17 0 -33.5 -6.5t-31.5 -18t-29 -27.5q-24 -29 -41.5 -68t-26.5 -80.5t-9 -76.5q0 -41 12 -63.5
t39 -22.5q18 0 39 11t47.5 35.5t58.5 64.5l6 -19h-3q-28 -42 -61 -79t-68.5 -60t-73.5 -23zM353 -14q-27 0 -45.5 17t-18.5 47q0 8 0.5 15.5t3 20.5t7.5 34l-1 3l63 300l6 3l89 55l13 -10l-75 -354q-3 -14 -5 -24.5t-2 -20.5q0 -8 5 -12.5t12 -4.5q15 0 36.5 16.5t44.5 45.5
l19 -13q-17 -28 -39.5 -55t-51 -45t-61.5 -18zM234 576l12 63h233l-12 -63h-233z" />
    <glyph glyph-name="Abreve" unicode="&#x102;" horiz-adv-x="621" 
d="M-34 0l5 27l84 12h20l88 -12l-5 -27h-192zM25 0l342 667h53l94 -667h-107l-72 557h8l-3 -6l-275 -551h-40zM167 226l5 33h258l-1 -33h-262zM314 0l5 27l118 14h45l96 -14l-6 -27h-258zM410 719q-41 0 -70 17.5t-44 46t-18 60.5l26 11q12 -32 40 -52.5t72 -20.5t76.5 20.5
t54.5 52.5l24 -12q-12 -30 -32.5 -58.5t-52 -46.5t-76.5 -18z" />
    <glyph glyph-name="abreve" unicode="&#x103;" horiz-adv-x="523" 
d="M126 -14q-25 0 -47 13t-36 40.5t-14 71.5q0 47 18.5 98t49 98.5t69.5 85.5t80.5 60.5t81.5 22.5q22 0 41.5 -7.5t36 -21.5t28.5 -34l-51 -39q-15 16 -35.5 30.5t-46.5 14.5q-17 0 -33.5 -6.5t-31.5 -18t-29 -27.5q-24 -29 -41.5 -68t-26.5 -80.5t-9 -76.5q0 -41 12 -63.5
t39 -22.5q18 0 39 11t47.5 35.5t58.5 64.5l6 -19h-3q-28 -42 -61 -79t-68.5 -60t-73.5 -23zM353 -14q-27 0 -45.5 17t-18.5 47q0 8 0.5 15.5t3 20.5t7.5 34l-1 3l63 300l6 3l89 55l13 -10l-75 -354q-3 -14 -5 -24.5t-2 -20.5q0 -8 5 -12.5t12 -4.5q15 0 36.5 16.5t44.5 45.5
l19 -13q-17 -28 -39.5 -55t-51 -45t-61.5 -18zM346 548q-45 0 -72.5 19.5t-39.5 51.5t-12 68l27 10q11 -37 35.5 -61t69.5 -24q46 0 78.5 23.5t54.5 61.5l25 -9q-9 -34 -30.5 -66t-55 -53t-80.5 -21z" />
    <glyph glyph-name="Aogonek" unicode="&#x104;" horiz-adv-x="621" 
d="M-34 0l5 27l84 12h20l88 -12l-5 -27h-192zM25 0l342 667h53l94 -667h-107l-72 557h8l-3 -6l-275 -551h-40zM167 226l5 33h258l-1 -33h-262zM314 0l5 27l118 14h45l96 -14l-6 -27h-258zM427 -233q-38 0 -60.5 21t-22.5 56q0 34 17.5 63.5t45.5 54t61 43.5v8l27 -6
q-25 -18 -44 -40t-29 -45.5t-10 -47.5q0 -27 15 -42t42 -15q8 0 18.5 2.5t21.5 6.5l9 -20q-19 -17 -42.5 -28t-48.5 -11z" />
    <glyph glyph-name="aogonek" unicode="&#x105;" horiz-adv-x="523" 
d="M126 -14q-25 0 -47 13t-36 40.5t-14 71.5q0 47 18.5 98t49 98.5t69.5 85.5t80.5 60.5t81.5 22.5q22 0 41.5 -7.5t36 -21.5t28.5 -34l-51 -39q-15 16 -35.5 30.5t-46.5 14.5q-17 0 -33.5 -6.5t-31.5 -18t-29 -27.5q-24 -29 -41.5 -68t-26.5 -80.5t-9 -76.5q0 -41 12 -63.5
t39 -22.5q18 0 39 11t47.5 35.5t58.5 64.5l10 -19h-7q-28 -42 -61 -79t-68.5 -60t-73.5 -23zM353 -233q-38 0 -60 21.5t-22 54.5q0 46 28.5 81.5t68.5 62.5v31l27 -19q-15 -7 -24 -10t-18 -3q-27 0 -45.5 17t-18.5 47q0 9 0.5 17.5t3 22t6.5 33.5l2 8l61 292l4 3l92 55
l12 -10l-75 -354q-3 -14 -5 -24.5t-2 -20.5q0 -8 5 -12.5t12 -4.5q15 0 36.5 16.5t44.5 45.5l19 -13q-15 -25 -35 -50t-44 -43q-28 -21 -47.5 -43.5t-30 -46t-10.5 -47.5q0 -26 16 -41.5t40 -15.5q10 0 20.5 2t20.5 6l9 -19q-19 -18 -42.5 -28.5t-48.5 -10.5z" />
    <glyph glyph-name="Cacute" unicode="&#x106;" horiz-adv-x="568" 
d="M306 -16q-79 0 -137.5 32t-90.5 91.5t-32 143.5q0 61 16 122t46.5 116t75.5 98t102 68t125 25q27 0 55 -4.5t56 -14.5t53 -28l-20 -154h-33l-27 165l31 -29q-25 18 -53 25.5t-57 7.5q-50 0 -91.5 -25.5t-73 -68t-53.5 -96.5t-33.5 -112.5t-11.5 -113.5q0 -70 20.5 -118.5
t57.5 -73t86 -24.5q31 0 64.5 8t69.5 30l-53 -39l79 173h33l-26 -160q-41 -22 -84 -33t-94 -11zM353 731q24 24 49 47.5t49 46.5q21 20 35.5 27t29.5 7q18 0 28.5 -12t10.5 -26q0 -13 -10 -26.5t-39 -26.5q-35 -15 -70 -29t-70 -29z" />
    <glyph glyph-name="cacute" unicode="&#x107;" horiz-adv-x="412" 
d="M186 -14q-45 0 -81 20.5t-56 60t-20 97.5q0 62 21 118t57.5 99.5t83 69t98.5 25.5q28 0 52.5 -9t42 -26.5t23.5 -42.5q-2 -23 -16.5 -34t-33.5 -11q-21 0 -36 12.5t-28 31.5l-46 65h59v-9h-13q-35 -5 -65.5 -28.5t-53 -61t-35 -83t-12.5 -94.5q0 -64 29 -95.5t74 -31.5
q25 0 47.5 10.5t43 27t35.5 34.5l18 -13q-15 -28 -34 -52.5t-43 -42t-51.5 -27.5t-59.5 -10zM276 545q10 24 19.5 47t19.5 46.5t19 46.5q8 19 16.5 31.5t19 19t23.5 6.5q16 0 29 -10.5t13 -29.5q0 -13 -9 -29.5t-28 -34.5l-34.5 -34.5t-34.5 -35t-34 -35.5z" />
    <glyph glyph-name="Ccircumflex" unicode="&#x108;" horiz-adv-x="568" 
d="M306 -16q-79 0 -137.5 32t-90.5 91.5t-32 143.5q0 61 16 122t46.5 116t75.5 98t102 68t125 25q27 0 55 -4.5t56 -14.5t53 -28l-20 -154h-33l-27 165l31 -29q-25 18 -53 25.5t-57 7.5q-50 0 -91.5 -25.5t-73 -68t-53.5 -96.5t-33.5 -112.5t-11.5 -113.5q0 -70 20.5 -118.5
t57.5 -73t86 -24.5q31 0 64.5 8t69.5 30l-53 -39l79 173h33l-26 -160q-41 -22 -84 -33t-94 -11zM462 856l108 -130l-18 -18l-142 95h48l-180 -95l-12 20l153 128h43z" />
    <glyph glyph-name="ccircumflex" unicode="&#x109;" horiz-adv-x="412" 
d="M186 -14q-45 0 -81 20.5t-56 60t-20 97.5q0 62 21 118t57.5 99.5t83 69t98.5 25.5q28 0 52.5 -9t42 -26.5t23.5 -42.5q-2 -23 -16.5 -34t-33.5 -11q-21 0 -36 12.5t-28 31.5l-46 65h59v-9h-13q-35 -5 -65.5 -28.5t-53 -61t-35 -83t-12.5 -94.5q0 -64 29 -95.5t74 -31.5
q25 0 47.5 10.5t43 27t35.5 34.5l18 -13q-15 -28 -34 -52.5t-43 -42t-51.5 -27.5t-59.5 -10zM429 535l-128 132h51l-178 -133l-17 19l156 171h42l96 -173z" />
    <glyph glyph-name="Cdotaccent" unicode="&#x10a;" horiz-adv-x="568" 
d="M306 -16q-79 0 -137.5 32t-90.5 91.5t-32 143.5q0 61 16 122t46.5 116t75.5 98t102 68t125 25q27 0 55 -4.5t56 -14.5t53 -28l-20 -154h-33l-27 165l31 -29q-25 18 -53 25.5t-57 7.5q-50 0 -91.5 -25.5t-73 -68t-53.5 -96.5t-33.5 -112.5t-11.5 -113.5q0 -70 20.5 -118.5
t57.5 -73t86 -24.5q31 0 64.5 8t69.5 30l-53 -39l79 173h33l-26 -160q-41 -22 -84 -33t-94 -11zM422 726q-23 0 -38 15t-15 39q0 31 21 52t48 21q24 0 39 -15t15 -40q0 -31 -21.5 -51.5t-48.5 -20.5z" />
    <glyph glyph-name="cdotaccent" unicode="&#x10b;" horiz-adv-x="412" 
d="M186 -14q-45 0 -81 20.5t-56 60t-20 97.5q0 62 21 118t57.5 99.5t83 69t98.5 25.5q28 0 52.5 -9t42 -26.5t23.5 -42.5q-2 -23 -16.5 -34t-33.5 -11q-21 0 -36 12.5t-28 31.5l-46 65h59v-9h-13q-35 -5 -65.5 -28.5t-53 -61t-35 -83t-12.5 -94.5q0 -64 29 -95.5t74 -31.5
q25 0 47.5 10.5t43 27t35.5 34.5l18 -13q-15 -28 -34 -52.5t-43 -42t-51.5 -27.5t-59.5 -10zM313 579q-22 0 -37.5 15t-15.5 39q0 32 21 52.5t48 20.5q25 0 39.5 -15t14.5 -39q0 -32 -21 -52.5t-49 -20.5z" />
    <glyph glyph-name="Ccaron" unicode="&#x10c;" horiz-adv-x="568" 
d="M306 -16q-79 0 -137.5 32t-90.5 91.5t-32 143.5q0 61 16 122t46.5 116t75.5 98t102 68t125 25q27 0 55 -4.5t56 -14.5t53 -28l-20 -154h-33l-27 165l31 -29q-25 18 -53 25.5t-57 7.5q-50 0 -91.5 -25.5t-73 -68t-53.5 -96.5t-33.5 -112.5t-11.5 -113.5q0 -70 20.5 -118.5
t57.5 -73t86 -24.5q31 0 64.5 8t69.5 30l-53 -39l79 173h33l-26 -160q-41 -22 -84 -33t-94 -11zM307 863l137 -97h-43l175 97l13 -19l-147 -128h-49l-105 130z" />
    <glyph glyph-name="ccaron" unicode="&#x10d;" horiz-adv-x="412" 
d="M186 -14q-45 0 -81 20.5t-56 60t-20 97.5q0 62 21 118t57.5 99.5t83 69t98.5 25.5q28 0 52.5 -9t42 -26.5t23.5 -42.5q-2 -23 -16.5 -34t-33.5 -11q-21 0 -36 12.5t-28 31.5l-46 65h59v-9h-13q-35 -5 -65.5 -28.5t-53 -61t-35 -83t-12.5 -94.5q0 -64 29 -95.5t74 -31.5
q25 0 47.5 10.5t43 27t35.5 34.5l18 -13q-15 -28 -34 -52.5t-43 -42t-51.5 -27.5t-59.5 -10zM211 733l123 -131h-49l177 131l18 -18l-155 -171h-43l-93 173z" />
    <glyph glyph-name="Dcaron" unicode="&#x10e;" horiz-adv-x="639" 
d="M-5 0l5 27l111 14h35l-6 -41h-145zM69 0l67 354q14 77 27 155t25 155h110l-67 -354q-15 -78 -28 -155.5t-25 -154.5h-109zM107 636l6 28h146l-6 -42h-35zM125 0l7 33h106q61 0 111 29t87 80t57 119t20 146q0 114 -48 168.5t-140 54.5h-87l7 34h98q88 0 150.5 -32
t96 -90.5t33.5 -142.5q0 -95 -30.5 -169t-84.5 -125t-123.5 -78t-147.5 -27h-112zM261 863l137 -97h-43l175 97l13 -19l-147 -128h-49l-105 130z" />
    <glyph glyph-name="dcaron" unicode="&#x10f;" horiz-adv-x="533" 
d="M626 742q19 0 27 -9t8 -20q0 -14 -7.5 -33.5t-18.5 -42t-24 -47.5l-37 -70l-29 2l43 212q9 5 17.5 6.5t20.5 1.5zM126 -14q-25 0 -47 13t-35.5 41t-13.5 73q0 46 17.5 97t48 98t69 85t80.5 60.5t82 22.5q21 0 40 -6.5t36 -19.5t30 -32l-52 -45q-15 19 -34.5 32.5
t-45.5 13.5q-16 0 -31 -5t-29 -14t-26 -22q-20 -21 -36 -50t-26.5 -61.5t-16.5 -64.5t-6 -59q0 -41 12 -64t40 -23q17 0 38 11t47.5 35t58.5 64l8 -18h-5q-28 -43 -60.5 -80t-68.5 -59.5t-74 -22.5zM351 -14q-27 0 -44.5 16t-17.5 42q0 10 1.5 23.5t5.5 35.5l3 17l63 304
l7 15l46 231l18 -23l-101 18l4 21l174 49l12 -10l-125 -605q-3 -16 -5 -27t-2 -21q0 -8 4.5 -12.5t11.5 -4.5q15 0 36.5 16.5t45.5 45.5l18 -13q-16 -29 -39.5 -56t-52 -44.5t-63.5 -17.5z" />
    <glyph glyph-name="Dcroat" unicode="&#x110;" horiz-adv-x="639" 
d="M388 324h-335l6 32h335zM-5 0l5 27l111 14h35l-6 -41h-145zM69 0l67 354q14 77 27 155t25 155h110l-67 -354q-15 -78 -28 -155.5t-25 -154.5h-109zM107 636l6 28h146l-6 -42h-35zM125 0l7 33h106q61 0 111 29t87 80t57 119t20 146q0 114 -48 168.5t-140 54.5h-87l7 34h98
q88 0 150.5 -32t96 -90.5t33.5 -142.5q0 -95 -30.5 -169t-84.5 -125t-123.5 -78t-147.5 -27h-112z" />
    <glyph glyph-name="dcroat" unicode="&#x111;" horiz-adv-x="525" 
d="M126 -14q-25 0 -47 13t-35.5 41t-13.5 73t17.5 94t47.5 94.5t68.5 81.5t80 57t81.5 21q20 0 39.5 -6.5t36.5 -19.5t29 -32l-52 -44q-15 18 -34.5 31.5t-45.5 13.5q-23 0 -45 -11.5t-41 -29.5q-26 -27 -44.5 -65t-28 -79t-9.5 -76q0 -41 12 -64t40 -23q17 0 38 11t47.5 35
t58.5 64l9 -18h-6q-28 -43 -60.5 -80t-68.5 -59.5t-74 -22.5zM236 545l6 29h322l-6 -29h-322zM351 -14q-27 0 -44.5 16t-17.5 42q0 11 1.5 25t5.5 37l7 31l57 274l6 15l49 244l18 -23l-101 18l4 21l174 49l12 -10l-125 -605q-3 -16 -5 -27t-2 -21q0 -8 4.5 -12.5t11.5 -4.5
q15 0 36.5 16.5t45.5 45.5l18 -13q-16 -29 -39.5 -56t-52 -44.5t-63.5 -17.5z" />
    <glyph glyph-name="Emacron" unicode="&#x112;" horiz-adv-x="545" 
d="M-5 0l5 27l112 14h34l-6 -41h-145zM69 0l67 354q14 77 27 155t25 155h110l-67 -354q-15 -78 -28 -155.5t-25 -154.5h-109zM107 636l6 28h145l-5 -42h-36zM119 0l6 34h305l-47 -26l83 176h33l-39 -184h-341zM179 322l7 34h195l-6 -34h-196zM229 630l6 34h317l-21 -178h-33
l-26 169l38 -25h-281zM367 228l-9 103l3 18l47 102h27l-41 -223h-27zM230 740l13 62h264l-14 -62h-263z" />
    <glyph glyph-name="emacron" unicode="&#x113;" horiz-adv-x="410" 
d="M178 -14q-44 0 -78.5 19.5t-54 57.5t-19.5 93q0 62 22 119.5t59.5 102.5t85.5 71.5t101 26.5t82 -23t29 -64q0 -30 -16.5 -58.5t-54 -55.5t-98.5 -51.5t-150 -46.5l-3 24q92 25 143.5 56t73 65.5t21.5 69.5q0 25 -11.5 38.5t-30.5 13.5q-22 0 -49.5 -20t-51.5 -56
t-39.5 -84t-15.5 -103q0 -61 29.5 -90.5t73.5 -29.5q25 0 49 10t44 26t34 34l18 -13q-15 -28 -34.5 -52t-43 -42t-52 -28t-63.5 -10zM196 576l12 63h233l-12 -63h-233z" />
    <glyph glyph-name="Ebreve" unicode="&#x114;" horiz-adv-x="545" 
d="M-5 0l5 27l112 14h34l-6 -41h-145zM69 0l67 354q14 77 27 155t25 155h110l-67 -354q-15 -78 -28 -155.5t-25 -154.5h-109zM107 636l6 28h145l-5 -42h-36zM119 0l6 34h305l-47 -26l83 176h33l-39 -184h-341zM179 322l7 34h195l-6 -34h-196zM229 630l6 34h317l-21 -178h-33
l-26 169l38 -25h-281zM367 228l-9 103l3 18l47 102h27l-41 -223h-27zM364 719q-41 0 -70 17.5t-44 46t-18 60.5l26 11q12 -32 40 -52.5t72 -20.5t76.5 20.5t54.5 52.5l24 -12q-12 -30 -32.5 -58.5t-52 -46.5t-76.5 -18z" />
    <glyph glyph-name="ebreve" unicode="&#x115;" horiz-adv-x="410" 
d="M178 -14q-44 0 -78.5 19.5t-54 57.5t-19.5 93q0 62 22 119.5t59.5 102.5t85.5 71.5t101 26.5t82 -23t29 -64q0 -30 -16.5 -58.5t-54 -55.5t-98.5 -51.5t-150 -46.5l-3 24q92 25 143.5 56t73 65.5t21.5 69.5q0 25 -11.5 38.5t-30.5 13.5q-22 0 -49.5 -20t-51.5 -56
t-39.5 -84t-15.5 -103q0 -61 29.5 -90.5t73.5 -29.5q25 0 49 10t44 26t34 34l18 -13q-15 -28 -34.5 -52t-43 -42t-52 -28t-63.5 -10zM308 548q-45 0 -72.5 19.5t-39.5 51.5t-12 68l27 10q11 -37 35.5 -61t69.5 -24q46 0 78.5 23.5t54.5 61.5l25 -9q-9 -34 -30.5 -66t-55 -53
t-80.5 -21z" />
    <glyph glyph-name="Edotaccent" unicode="&#x116;" horiz-adv-x="545" 
d="M-5 0l5 27l112 14h34l-6 -41h-145zM69 0l67 354q14 77 27 155t25 155h110l-67 -354q-15 -78 -28 -155.5t-25 -154.5h-109zM107 636l6 28h145l-5 -42h-36zM119 0l6 34h305l-47 -26l83 176h33l-39 -184h-341zM179 322l7 34h195l-6 -34h-196zM229 630l6 34h317l-21 -178h-33
l-26 169l38 -25h-281zM367 228l-9 103l3 18l47 102h27l-41 -223h-27zM365 726q-23 0 -38 15t-15 39q0 31 21 52t48 21q24 0 39 -15t15 -40q0 -31 -21.5 -51.5t-48.5 -20.5z" />
    <glyph glyph-name="edotaccent" unicode="&#x117;" horiz-adv-x="410" 
d="M178 -14q-44 0 -78.5 19.5t-54 57.5t-19.5 93q0 62 22 119.5t59.5 102.5t85.5 71.5t101 26.5t82 -23t29 -64q0 -30 -16.5 -58.5t-54 -55.5t-98.5 -51.5t-150 -46.5l-3 24q92 25 143.5 56t73 65.5t21.5 69.5q0 25 -11.5 38.5t-30.5 13.5q-22 0 -49.5 -20t-51.5 -56
t-39.5 -84t-15.5 -103q0 -61 29.5 -90.5t73.5 -29.5q25 0 49 10t44 26t34 34l18 -13q-15 -28 -34.5 -52t-43 -42t-52 -28t-63.5 -10zM316 579q-22 0 -37.5 15t-15.5 39q0 32 21 52.5t48 20.5q25 0 39.5 -15t14.5 -39q0 -32 -21 -52.5t-49 -20.5z" />
    <glyph glyph-name="Eogonek" unicode="&#x118;" horiz-adv-x="545" 
d="M-5 0l5 27l112 14h34l-6 -41h-145zM69 0l67 354q14 77 27 155t25 155h110l-67 -354q-15 -78 -28 -155.5t-25 -154.5h-109zM107 636l6 28h145l-5 -42h-36zM119 0l6 34h305l-47 -26l83 176h33l-39 -184h-341zM179 322l7 34h195l-6 -34h-196zM229 630l6 34h317l-21 -178h-33
l-26 169l38 -25h-281zM367 228l-9 103l3 18l47 102h27l-41 -223h-27zM329 -233q-38 0 -60.5 21t-22.5 56q0 34 17.5 63.5t45.5 54t61 43.5v8l27 -6q-25 -18 -44 -40t-29 -45.5t-10 -47.5q0 -27 15 -42t42 -15q8 0 18.5 2.5t21.5 6.5l9 -20q-19 -17 -42.5 -28t-48.5 -11z" />
    <glyph glyph-name="eogonek" unicode="&#x119;" horiz-adv-x="410" 
d="M204 -233q-38 0 -60 22t-22 55q0 30 14 56.5t38 49.5t53 43v1q-9 -4 -22 -6t-27 -2q-44 0 -78.5 19.5t-54 57.5t-19.5 93q0 62 22 119.5t60 102.5t86.5 71.5t101.5 26.5q52 0 80.5 -23.5t28.5 -63.5q0 -30 -16.5 -58.5t-54 -55.5t-98.5 -51.5t-150 -46.5l-3 24
q92 25 143.5 56t73 65.5t21.5 69.5q0 25 -11.5 38.5t-30.5 13.5q-22 0 -49.5 -20t-51.5 -56t-39.5 -84t-15.5 -103q0 -61 29.5 -90.5t73.5 -29.5q25 0 49 10t44 26t34 34l18 -13q-16 -29 -36.5 -54t-45.5 -45q-49 -37 -74.5 -73.5t-25.5 -70.5q0 -27 16 -42.5t41 -15.5
q9 0 19 2.5t21 6.5l9 -20q-19 -17 -42 -28t-49 -11z" />
    <glyph glyph-name="Ecaron" unicode="&#x11a;" horiz-adv-x="545" 
d="M-5 0l5 27l112 14h34l-6 -41h-145zM69 0l67 354q14 77 27 155t25 155h110l-67 -354q-15 -78 -28 -155.5t-25 -154.5h-109zM107 636l6 28h145l-5 -42h-36zM119 0l6 34h305l-47 -26l83 176h33l-39 -184h-341zM179 322l7 34h195l-6 -34h-196zM229 630l6 34h317l-21 -178h-33
l-26 169l38 -25h-281zM367 228l-9 103l3 18l47 102h27l-41 -223h-27zM250 863l137 -97h-43l175 97l13 -19l-147 -128h-49l-105 130z" />
    <glyph glyph-name="ecaron" unicode="&#x11b;" horiz-adv-x="410" 
d="M178 -14q-44 0 -78.5 19.5t-54 57.5t-19.5 93q0 62 22 119.5t59.5 102.5t85.5 71.5t101 26.5t82 -23t29 -64q0 -30 -16.5 -58.5t-54 -55.5t-98.5 -51.5t-150 -46.5l-3 24q92 25 143.5 56t73 65.5t21.5 69.5q0 25 -11.5 38.5t-30.5 13.5q-22 0 -49.5 -20t-51.5 -56
t-39.5 -84t-15.5 -103q0 -61 29.5 -90.5t73.5 -29.5q25 0 49 10t44 26t34 34l18 -13q-15 -28 -34.5 -52t-43 -42t-52 -28t-63.5 -10zM214 733l123 -131h-49l177 131l18 -18l-155 -171h-43l-93 173z" />
    <glyph glyph-name="Gcircumflex" unicode="&#x11c;" horiz-adv-x="615" 
d="M46 251q0 63 16.5 124.5t47.5 116.5t75.5 97t102 66.5t125.5 24.5q28 0 58 -4.5t59.5 -14.5t54.5 -29l-22 -154h-33l-27 164l30 -26q-26 18 -55 25t-58 7q-51 0 -93 -25t-74.5 -68t-54.5 -96.5t-33 -112t-11 -114.5q0 -70 21 -118.5t58.5 -73t87.5 -24.5q27 0 55 6t58 19
l-36 -27l13 71q12 62 21.5 121.5t17.5 115.5h103l-55 -290q-44 -24 -90 -36t-97 -12q-82 0 -141.5 32t-91.5 92t-32 143zM361 295l5 27h245l-5 -27l-100 -14h-31zM462 856l108 -130l-18 -18l-142 95h48l-180 -95l-12 20l153 128h43z" />
    <glyph glyph-name="gcircumflex" unicode="&#x11d;" horiz-adv-x="484" 
d="M115 -248q-50 0 -85 12.5t-54 35t-19 54.5q0 35 21 63.5t55.5 50t74.5 35.5l10 -8q-36 -23 -58.5 -51.5t-22.5 -63.5q0 -40 34 -63.5t90 -23.5q51 0 87 13.5t55 37t19 51.5q0 20 -8.5 34.5t-29.5 24.5t-60 14l-98 10q-9 1 -18 3l-18 4v2q-30 9 -44.5 27.5t-14.5 42.5
q0 38 30 68t80 59v6l8 -14q-28 -28 -36 -44t-8 -28q0 -14 12.5 -25.5t42.5 -14.5l108 -11q52 -6 82 -20.5t43.5 -36.5t13.5 -52q0 -38 -21.5 -72.5t-61 -61.5t-92.5 -42.5t-117 -15.5zM199 144q-41 0 -74 14.5t-51.5 43.5t-18.5 70q0 43 14.5 80t40.5 65t61.5 44.5
t77.5 16.5q38 0 68 -13.5t48 -39.5t19 -64l-4 3q10 51 23.5 78.5t31.5 38t39 10.5q10 0 18 -1t14 -5q3 -4 5 -10.5t2 -12.5q0 -36 -30.5 -49.5t-84.5 -22.5l21 21q-4 -11 -9.5 -28t-11 -36.5t-10.5 -38.5q-8 -36 -25 -66t-40.5 -52t-54.5 -34t-69 -12zM213 171
q18 0 34.5 10.5t29 31.5t19.5 52t7 72q0 57 -17.5 85.5t-46.5 28.5q-21 0 -37.5 -12t-28.5 -33t-18 -51t-6 -66q0 -34 7 -61t21 -42t36 -15zM404 535l-128 132h51l-178 -133l-17 19l156 171h42l96 -173z" />
    <glyph glyph-name="Gbreve" unicode="&#x11e;" horiz-adv-x="615" 
d="M46 251q0 63 16.5 124.5t47.5 116.5t75.5 97t102 66.5t125.5 24.5q28 0 58 -4.5t59.5 -14.5t54.5 -29l-22 -154h-33l-27 164l30 -26q-26 18 -55 25t-58 7q-51 0 -93 -25t-74.5 -68t-54.5 -96.5t-33 -112t-11 -114.5q0 -70 21 -118.5t58.5 -73t87.5 -24.5q27 0 55 6t58 19
l-36 -27l13 71q12 62 21.5 121.5t17.5 115.5h103l-55 -290q-44 -24 -90 -36t-97 -12q-82 0 -141.5 32t-91.5 92t-32 143zM361 295l5 27h245l-5 -27l-100 -14h-31zM421 719q-41 0 -70 17.5t-44 46t-18 60.5l26 11q12 -32 40 -52.5t72 -20.5t76.5 20.5t54.5 52.5l24 -12
q-12 -30 -32.5 -58.5t-52 -46.5t-76.5 -18z" />
    <glyph glyph-name="gbreve" unicode="&#x11f;" horiz-adv-x="484" 
d="M115 -248q-50 0 -85 12.5t-54 35t-19 54.5q0 35 21 63.5t55.5 50t74.5 35.5l10 -8q-36 -23 -58.5 -51.5t-22.5 -63.5q0 -40 34 -63.5t90 -23.5q51 0 87 13.5t55 37t19 51.5q0 20 -8.5 34.5t-29.5 24.5t-60 14l-98 10q-9 1 -18 3l-18 4v2q-30 9 -44.5 27.5t-14.5 42.5
q0 38 30 68t80 59v6l8 -14q-28 -28 -36 -44t-8 -28q0 -14 12.5 -25.5t42.5 -14.5l108 -11q52 -6 82 -20.5t43.5 -36.5t13.5 -52q0 -38 -21.5 -72.5t-61 -61.5t-92.5 -42.5t-117 -15.5zM199 144q-41 0 -74 14.5t-51.5 43.5t-18.5 70q0 43 14.5 80t40.5 65t61.5 44.5
t77.5 16.5q38 0 68 -13.5t48 -39.5t19 -64l-4 3q10 51 23.5 78.5t31.5 38t39 10.5q10 0 18 -1t14 -5q3 -4 5 -10.5t2 -12.5q0 -36 -30.5 -49.5t-84.5 -22.5l21 21q-4 -11 -9.5 -28t-11 -36.5t-10.5 -38.5q-8 -36 -25 -66t-40.5 -52t-54.5 -34t-69 -12zM213 171
q18 0 34.5 10.5t29 31.5t19.5 52t7 72q0 57 -17.5 85.5t-46.5 28.5q-21 0 -37.5 -12t-28.5 -33t-18 -51t-6 -66q0 -34 7 -61t21 -42t36 -15zM280 548q-45 0 -72.5 19.5t-39.5 51.5t-12 68l27 10q11 -37 35.5 -61t69.5 -24q46 0 78.5 23.5t54.5 61.5l25 -9q-9 -34 -30.5 -66
t-55 -53t-80.5 -21z" />
    <glyph glyph-name="Gdotaccent" unicode="&#x120;" horiz-adv-x="615" 
d="M46 251q0 63 16.5 124.5t47.5 116.5t75.5 97t102 66.5t125.5 24.5q28 0 58 -4.5t59.5 -14.5t54.5 -29l-22 -154h-33l-27 164l30 -26q-26 18 -55 25t-58 7q-51 0 -93 -25t-74.5 -68t-54.5 -96.5t-33 -112t-11 -114.5q0 -70 21 -118.5t58.5 -73t87.5 -24.5q27 0 55 6t58 19
l-36 -27l13 71q12 62 21.5 121.5t17.5 115.5h103l-55 -290q-44 -24 -90 -36t-97 -12q-82 0 -141.5 32t-91.5 92t-32 143zM361 295l5 27h245l-5 -27l-100 -14h-31zM422 726q-23 0 -38 15t-15 39q0 31 21 52t48 21q24 0 39 -15t15 -40q0 -31 -21.5 -51.5t-48.5 -20.5z" />
    <glyph glyph-name="gdotaccent" unicode="&#x121;" horiz-adv-x="484" 
d="M115 -248q-50 0 -85 12.5t-54 35t-19 54.5q0 35 21 63.5t55.5 50t74.5 35.5l10 -8q-36 -23 -58.5 -51.5t-22.5 -63.5q0 -40 34 -63.5t90 -23.5q51 0 87 13.5t55 37t19 51.5q0 20 -8.5 34.5t-29.5 24.5t-60 14l-98 10q-9 1 -18 3l-18 4v2q-30 9 -44.5 27.5t-14.5 42.5
q0 38 30 68t80 59v6l8 -14q-28 -28 -36 -44t-8 -28q0 -14 12.5 -25.5t42.5 -14.5l108 -11q52 -6 82 -20.5t43.5 -36.5t13.5 -52q0 -38 -21.5 -72.5t-61 -61.5t-92.5 -42.5t-117 -15.5zM199 144q-41 0 -74 14.5t-51.5 43.5t-18.5 70q0 43 14.5 80t40.5 65t61.5 44.5
t77.5 16.5q38 0 68 -13.5t48 -39.5t19 -64l-4 3q10 51 23.5 78.5t31.5 38t39 10.5q10 0 18 -1t14 -5q3 -4 5 -10.5t2 -12.5q0 -36 -30.5 -49.5t-84.5 -22.5l21 21q-4 -11 -9.5 -28t-11 -36.5t-10.5 -38.5q-8 -36 -25 -66t-40.5 -52t-54.5 -34t-69 -12zM213 171
q18 0 34.5 10.5t29 31.5t19.5 52t7 72q0 57 -17.5 85.5t-46.5 28.5q-21 0 -37.5 -12t-28.5 -33t-18 -51t-6 -66q0 -34 7 -61t21 -42t36 -15zM288 579q-22 0 -37.5 15t-15.5 39q0 32 21 52.5t48 20.5q25 0 39.5 -15t14.5 -39q0 -32 -21 -52.5t-49 -20.5z" />
    <glyph glyph-name="uni0122" unicode="&#x122;" horiz-adv-x="615" 
d="M46 251q0 63 16.5 124.5t47.5 116.5t75.5 97t102 66.5t125.5 24.5q28 0 58 -4.5t59.5 -14.5t54.5 -29l-22 -154h-33l-27 164l30 -26q-26 18 -55 25t-58 7q-51 0 -93 -25t-74.5 -68t-54.5 -96.5t-33 -112t-11 -114.5q0 -70 21 -118.5t58.5 -73t87.5 -24.5q27 0 55 6t58 19
l-36 -27l13 71q12 62 21.5 121.5t17.5 115.5h103l-55 -290q-44 -24 -90 -36t-97 -12q-82 0 -141.5 32t-91.5 92t-32 143zM361 295l5 27h245l-5 -27l-100 -14h-31zM346 -116q0 -38 -14.5 -64t-39.5 -43t-56 -27l-9 23q19 9 33.5 17.5t24 19.5t15.5 25l2 -18q-27 9 -42 24.5
t-15 37.5q0 23 15 38.5t41 15.5q11 0 20.5 -3.5t18.5 -10.5q3 -9 4.5 -17.5t1.5 -17.5z" />
    <glyph glyph-name="uni0123" unicode="&#x123;" horiz-adv-x="484" 
d="M241 607q0 39 14.5 64.5t39.5 42.5t56 27l9 -23q-19 -8 -33 -17t-24 -20t-16 -25l-2 18q27 -9 42 -24.5t15 -37.5t-15 -38t-41 -16q-11 0 -20 3.5t-19 10.5q-3 9 -4.5 17.5t-1.5 17.5zM115 -248q-50 0 -85 12.5t-54 35t-19 54.5q0 35 21 63.5t55.5 50t74.5 35.5l10 -8
q-36 -23 -58.5 -51.5t-22.5 -63.5q0 -40 34 -63.5t90 -23.5q51 0 87 13.5t55 37t19 51.5q0 20 -8.5 34.5t-29.5 24.5t-60 14l-98 10q-9 1 -18 3l-18 4v2q-30 9 -44.5 27.5t-14.5 42.5q0 38 30 68t80 59v6l8 -14q-28 -28 -36 -44t-8 -28q0 -14 12.5 -25.5t42.5 -14.5l108 -11
q52 -6 82 -20.5t43.5 -36.5t13.5 -52q0 -38 -21.5 -72.5t-61 -61.5t-92.5 -42.5t-117 -15.5zM199 144q-41 0 -74 14.5t-51.5 43.5t-18.5 70q0 43 14.5 80t40.5 65t61.5 44.5t77.5 16.5q38 0 68 -13.5t48 -39.5t19 -64l-4 3q10 51 23.5 78.5t31.5 38t39 10.5q10 0 18 -1
t14 -5q3 -4 5 -10.5t2 -12.5q0 -36 -30.5 -49.5t-84.5 -22.5l21 21q-4 -11 -9.5 -28t-11 -36.5t-10.5 -38.5q-8 -36 -25 -66t-40.5 -52t-54.5 -34t-69 -12zM213 171q18 0 34.5 10.5t29 31.5t19.5 52t7 72q0 57 -17.5 85.5t-46.5 28.5q-21 0 -37.5 -12t-28.5 -33t-18 -51
t-6 -66q0 -34 7 -61t21 -42t36 -15z" />
    <glyph glyph-name="Hcircumflex" unicode="&#x124;" horiz-adv-x="695" 
d="M-5 0l5 27l112 14h37l110 -14l-5 -27h-259zM69 0l67 353q14 77 27 155.5t25 155.5h110l-67 -354q-15 -78 -28 -155.5t-25 -154.5h-109zM107 636l6 28h259l-5 -28l-111 -14h-38zM185 322v34h363v-34h-363zM359 0l5 27l112 14h37l110 -14l-6 -27h-258zM432 0l67 353
q15 77 28 155.5t25 155.5h109l-67 -354q-14 -78 -27 -155.5t-25 -154.5h-110zM471 636l5 28h260l-6 -28l-111 -14h-38zM474 856l108 -130l-18 -18l-142 95h48l-180 -95l-12 20l153 128h43z" />
    <glyph glyph-name="hcircumflex" unicode="&#x125;" horiz-adv-x="535" 
d="M44 -8l-11 10l100 481q10 47 19 94t15 94l25 -24l-103 18l4 21l177 49l11 -10l-78 -374l-2 -9l-29 -137q-7 -35 -13.5 -68.5t-11.5 -67.5t-10 -69zM357 -14q-26 0 -43.5 14t-17.5 39q0 15 3.5 34t9.5 43l40 169q5 23 10 46.5t5 36.5q0 19 -8.5 27.5t-23.5 8.5
q-16 0 -38 -9t-48.5 -27t-58.5 -46l-5 25h5q35 37 70.5 66t71.5 46t69 17q31 0 49.5 -18.5t18.5 -55.5q0 -22 -4.5 -45t-9.5 -46l-44 -189q-4 -16 -6.5 -28.5t-2.5 -19.5q0 -9 5 -14t12 -5q13 0 35 16t46 46l18 -13q-16 -28 -40 -55.5t-53.5 -45t-64.5 -17.5zM416 905
l108 -130l-18 -18l-142 95h48l-180 -95l-12 20l153 128h43z" />
    <glyph glyph-name="Hbar" unicode="&#x126;" horiz-adv-x="695" 
d="M-5 0l5 27l112 14h37l110 -14l-5 -27h-259zM69 0l67 353q14 77 27 155.5t25 155.5h110l-67 -354q-15 -78 -28 -155.5t-25 -154.5h-109zM107 636l6 28h259l-5 -28l-111 -14h-38zM359 0l5 27l112 14h37l110 -14l-6 -27h-258zM432 0l67 353q15 77 28 155.5t25 155.5h109
l-67 -354q-14 -78 -27 -155.5t-25 -154.5h-110zM471 636l5 28h260l-6 -28l-111 -14h-38zM176 305v34h375v-34h-375zM66 468l6 33h654l-6 -33h-654z" />
    <glyph glyph-name="hbar" unicode="&#x127;" horiz-adv-x="535" 
d="M357 -14q-26 0 -43.5 14t-17.5 39q0 15 3.5 34t9.5 43l36 153l10 46t5 37q0 18 -8.5 26.5t-22.5 8.5q-17 0 -39 -8.5t-48.5 -26.5t-58.5 -46l-8 25h9q34 36 69.5 65.5t71.5 46.5t69 17q31 0 49.5 -18.5t18.5 -55.5q0 -22 -4.5 -45t-9.5 -47l-40 -172q-4 -16 -6.5 -28.5
t-2.5 -19.5q0 -9 5 -14t12 -5q13 0 35 16t46 46l18 -13q-16 -28 -40 -55.5t-53.5 -45t-64.5 -17.5zM44 -8l-11 10l100 481q10 47 19 94t15 94l25 -23l-103 18l4 20l177 49l11 -10l-81 -387l-1 -9l-27 -124q-7 -35 -13.5 -69t-11.5 -67.5t-10 -68.5zM68 543l6 33h324l-5 -33
h-325z" />
    <glyph glyph-name="Itilde" unicode="&#x128;" horiz-adv-x="331" 
d="M-5 0l5 27l112 14h37l110 -14l-5 -27h-259zM69 0l67 353q14 77 27 155.5t25 155.5h110l-67 -354q-15 -78 -28 -155.5t-25 -154.5h-109zM107 636l6 28h259l-5 -28l-111 -14h-38zM95 725q19 61 50 94.5t69 33.5q24 0 38.5 -10.5t27.5 -23.5q14 -14 27 -26.5t30 -12.5
q22 0 41.5 19.5t34.5 51.5l22 -9q-19 -60 -49.5 -94t-68.5 -34q-24 0 -39 11t-28 23q-14 15 -27 27t-30 12q-21 0 -40.5 -19t-35.5 -51z" />
    <glyph glyph-name="itilde" unicode="&#x129;" horiz-adv-x="294" 
d="M57 40q0 14 3.5 33.5t8.5 43.5l60 286l16 -14l-97 17l4 21l175 49l12 -10l-71 -344q-4 -16 -6 -28t-2 -20q0 -9 5 -14t12 -5q14 0 34.5 16t45.5 46l18 -13q-17 -29 -40 -56t-52 -44.5t-64 -17.5q-26 0 -44 14t-18 40zM55 566q18 61 47 94.5t65 33.5q22 0 36.5 -9
t28.5 -24t26 -27.5t29 -12.5q21 0 38.5 19.5t33.5 50.5l21 -8q-19 -61 -47.5 -94.5t-65.5 -33.5q-22 0 -36.5 9.5t-28.5 24.5q-13 14 -25.5 26.5t-29.5 12.5q-21 0 -38 -19t-33 -51z" />
    <glyph glyph-name="Imacron" unicode="&#x12a;" horiz-adv-x="331" 
d="M-5 0l5 27l112 14h37l110 -14l-5 -27h-259zM69 0l67 353q14 77 27 155.5t25 155.5h110l-67 -354q-15 -78 -28 -155.5t-25 -154.5h-109zM107 636l6 28h259l-5 -28l-111 -14h-38zM124 740l13 62h264l-14 -62h-263z" />
    <glyph glyph-name="imacron" unicode="&#x12b;" horiz-adv-x="294" 
d="M57 40q0 14 3.5 33.5t8.5 43.5l60 286l16 -14l-97 17l4 21l175 49l12 -10l-71 -344q-4 -16 -6 -28t-2 -20q0 -9 5 -14t12 -5q14 0 34.5 16t45.5 46l18 -13q-17 -29 -40 -56t-52 -44.5t-64 -17.5q-26 0 -44 14t-18 40zM91 576l12 63h233l-12 -63h-233z" />
    <glyph glyph-name="Iogonek" unicode="&#x12e;" horiz-adv-x="331" 
d="M-5 0l5 27l112 14h37l110 -14l-5 -27h-259zM69 0l67 353q14 77 27 155.5t25 155.5h110l-67 -354q-15 -78 -28 -155.5t-25 -154.5h-109zM107 636l6 28h259l-5 -28l-111 -14h-38zM107 -233q-38 0 -60.5 21t-22.5 56q0 34 17.5 63.5t45.5 54t61 43.5v8l27 -6
q-25 -18 -44 -40t-29 -45.5t-10 -47.5q0 -27 15 -42t42 -15q8 0 18.5 2.5t21.5 6.5l9 -20q-19 -17 -42.5 -28t-48.5 -11z" />
    <glyph glyph-name="iogonek" unicode="&#x12f;" horiz-adv-x="294" 
d="M124 -233q-40 0 -62 21.5t-22 54.5q0 29 12.5 55t33.5 49t48 40v1q-3 -1 -7 -1.5t-8 -0.5q-26 0 -44 14t-18 40q0 14 3.5 33.5t8.5 43.5l64 304l24 -34l-109 19l4 21l175 49l12 -10l-71 -344q-4 -16 -6 -28t-2 -20q0 -9 5 -14t12 -5q14 0 34.5 16t45.5 46l18 -13
q-16 -28 -38.5 -53.5t-49.5 -44.5q-25 -17 -42.5 -40t-27.5 -47.5t-10 -46.5q0 -25 16 -40t41 -15q9 0 19 2t21 7l9 -20q-19 -18 -41.5 -28.5t-47.5 -10.5zM218 577q-23 0 -39 15t-16 40q0 31 20.5 51.5t47.5 20.5q26 0 41 -15.5t15 -39.5q0 -31 -20.5 -51.5t-48.5 -20.5z
" />
    <glyph glyph-name="Idotaccent" unicode="&#x130;" horiz-adv-x="331" 
d="M-5 0l5 27l112 14h37l110 -14l-5 -27h-259zM69 0l67 353q14 77 27 155.5t25 155.5h110l-67 -354q-15 -78 -28 -155.5t-25 -154.5h-109zM107 636l6 28h259l-5 -28l-111 -14h-38zM259 726q-23 0 -38 15t-15 39q0 31 21 52t48 21q24 0 39 -15t15 -40q0 -31 -21.5 -51.5
t-48.5 -20.5z" />
    <glyph glyph-name="dotlessi" unicode="&#x131;" horiz-adv-x="294" 
d="M57 40q0 14 3.5 33.5t8.5 43.5l60 286l16 -14l-97 17l4 21l175 49l12 -10l-71 -344q-4 -16 -6 -28t-2 -20q0 -9 5 -14t12 -5q14 0 34.5 16t45.5 46l18 -13q-17 -29 -40 -56t-52 -44.5t-64 -17.5q-26 0 -44 14t-18 40z" />
    <glyph glyph-name="Jcircumflex" unicode="&#x134;" horiz-adv-x="330" 
d="M-121 -90q5 22 23 35t44 13q13 0 25.5 -5t29.5 -19.5t42 -43.5v-7h-27v7q20 13 34 34t25 53t19 74q4 18 7.5 39.5t8.5 49.5t11.5 67t15.5 91q15 88 33 179t34 187h109l-85 -424q-12 -57 -22.5 -103t-23 -82.5t-28.5 -65.5t-40 -53q-21 -26 -44 -44t-48.5 -27.5
t-55.5 -9.5q-34 0 -59.5 14t-27.5 41zM112 636l5 28h271l-5 -28l-115 -14h-37zM313 856l108 -130l-18 -18l-142 95h48l-180 -95l-12 20l153 128h43z" />
    <glyph glyph-name="jcircumflex" unicode="&#x135;" horiz-adv-x="264" 
d="M-83 -249l-6 21q16 7 27.5 15t22 18t19.5 22q17 22 29 52t22 67.5t19 84.5l75 373l22 -15l-101 17l3 21l174 49l13 -10l-91 -440q-8 -44 -22 -83t-32.5 -71t-45.5 -57q-23 -25 -54.5 -42t-73.5 -22zM323 535l-128 132h51l-178 -133l-17 19l156 171h42l96 -173z" />
    <glyph glyph-name="uni0136" unicode="&#x136;" horiz-adv-x="638" 
d="M-6 0l5 27l114 14h35l106 -14l-5 -27h-255zM68 0l67 354q14 77 27 155t25 155h110l-67 -354q-14 -78 -27.5 -155.5t-24.5 -154.5h-110zM107 636l5 28h259l-5 -28l-113 -14h-36zM153 184l-4 54h20l24 24l391 402h45zM439 0l-140 348l77 80l179 -428h-116zM358 0l4 27
l106 14h37l97 -14l-5 -27h-239zM467 636l5 28h210l-6 -28l-99 -14h-20zM327 -116q0 -38 -14.5 -64t-39.5 -43t-56 -27l-9 23q19 9 33.5 17.5t24 19.5t15.5 25l2 -18q-27 9 -42 24.5t-15 37.5q0 23 15 38.5t41 15.5q11 0 20.5 -3.5t18.5 -10.5q3 -9 4.5 -17.5t1.5 -17.5z" />
    <glyph glyph-name="uni0137" unicode="&#x137;" horiz-adv-x="476" 
d="M34 2l99 481q10 47 19 94t15 94l25 -24l-103 18l4 21l176 49l11 -10l-108 -520q-7 -35 -13.5 -68.5t-11.5 -67.5t-10 -69l-92 -8zM457 2q-16 -7 -34 -11t-39 -4q-39 0 -66.5 15.5t-47.5 68.5l-29 81q-9 26 -17 42t-17.5 26t-26.5 15l-18 6v12h6l9 7l251 212
q18 -2 31.5 -16t13.5 -34q0 -23 -16 -37.5t-53 -29.5l-222 -108l1 7l32 -4q32 -5 55.5 -17t41.5 -32.5t31 -52.5l26 -59q14 -32 26.5 -46.5t34.5 -17.5l31 -3zM246 -116q0 -38 -14.5 -64t-39.5 -43t-56 -27l-9 23q19 9 33.5 17.5t24 19.5t15.5 25l2 -18q-27 9 -42 24.5
t-15 37.5q0 23 15 38.5t41 15.5q11 0 20.5 -3.5t18.5 -10.5q3 -9 4.5 -17.5t1.5 -17.5z" />
    <glyph glyph-name="kgreenlandic" unicode="&#x138;" horiz-adv-x="502" 
d="M56 -8l-11 10l84 401l21 -14l-102 17l4 21l174 49l13 -10l-25 -121l-30 -140q-10 -50 -19 -101.5t-16 -103.5zM470 2q-16 -7 -34 -11t-40 -4q-38 0 -65.5 16t-47.5 68l-29 73q-9 24 -17 38.5t-18.5 23t-26.5 13.5l-19 6v12h7l8 7l254 228q18 -2 31.5 -15.5t13.5 -33.5
q0 -16 -7.5 -27t-22.5 -19.5t-39 -21.5l-225 -124l2 7l32 -4q31 -5 54.5 -15.5t41.5 -30t33 -48.5l25 -51q17 -31 28 -46t34 -18l31 -3z" />
    <glyph glyph-name="Lacute" unicode="&#x139;" horiz-adv-x="526" 
d="M-5 0l5 27l112 14h34l-6 -41h-145zM69 0l67 354q14 77 27 155t25 155h110l-67 -354q-15 -78 -28 -155.5t-25 -154.5h-109zM107 636l6 28h262l-5 -28l-112 -14h-41zM119 0l6 34h295l-50 -26l86 181h33l-39 -189h-331zM190 731q24 24 49 47.5t49 46.5q21 20 35.5 27t29.5 7
q18 0 28.5 -12t10.5 -26q0 -13 -10 -26.5t-39 -26.5q-35 -15 -70 -29t-70 -29z" />
    <glyph glyph-name="lacute" unicode="&#x13a;" horiz-adv-x="283" 
d="M105 -14q-25 0 -42 14.5t-17 41.5q0 14 3 33.5t8 45.5l75 362q10 47 19 94t14 94l25 -24l-101 18l3 21l177 49l11 -10l-125 -602q-3 -17 -5.5 -29t-2.5 -20q0 -9 5.5 -14t13.5 -5q13 0 33.5 16t45.5 46l18 -13q-17 -28 -40 -55.5t-52.5 -45t-65.5 -17.5zM205 779
q24 24 49 47.5t49 46.5q21 20 35.5 27t29.5 7q18 0 28.5 -12t10.5 -26q0 -13 -10 -26.5t-39 -26.5q-35 -15 -70 -29t-70 -29z" />
    <glyph glyph-name="uni013B" unicode="&#x13b;" horiz-adv-x="526" 
d="M-5 0l5 27l112 14h34l-6 -41h-145zM69 0l67 354q14 77 27 155t25 155h110l-67 -354q-15 -78 -28 -155.5t-25 -154.5h-109zM107 636l6 28h262l-5 -28l-112 -14h-41zM119 0l6 34h295l-50 -26l86 181h33l-39 -189h-331zM270 -116q0 -38 -14.5 -64t-39.5 -43t-56 -27l-9 23
q19 9 33.5 17.5t24 19.5t15.5 25l2 -18q-27 9 -42 24.5t-15 37.5q0 23 15 38.5t41 15.5q11 0 20.5 -3.5t18.5 -10.5q3 -9 4.5 -17.5t1.5 -17.5z" />
    <glyph glyph-name="uni013C" unicode="&#x13c;" horiz-adv-x="283" 
d="M105 -14q-25 0 -42 14.5t-17 41.5q0 14 3 33.5t8 45.5l75 362q10 47 19 94t14 94l25 -24l-101 18l3 21l177 49l11 -10l-125 -602q-3 -17 -5.5 -29t-2.5 -20q0 -9 5.5 -14t13.5 -5q13 0 33.5 16t45.5 46l18 -13q-17 -28 -40 -55.5t-52.5 -45t-65.5 -17.5zM153 -116
q0 -38 -14.5 -64t-39.5 -43t-56 -27l-9 23q19 9 33.5 17.5t24 19.5t15.5 25l2 -18q-27 9 -42 24.5t-15 37.5q0 23 15 38.5t41 15.5q11 0 20.5 -3.5t18.5 -10.5q3 -9 4.5 -17.5t1.5 -17.5z" />
    <glyph glyph-name="Lcaron" unicode="&#x13d;" horiz-adv-x="526" 
d="M514 706q18 0 26 -9t8 -21q0 -14 -7 -33t-18.5 -41.5t-24.5 -47.5l-37 -70l-28 1l42 212q10 5 18.5 7t20.5 2zM-5 0l5 27l112 14h34l-6 -41h-145zM69 0l67 354q14 77 27 155t25 155h110l-67 -354q-15 -78 -28 -155.5t-25 -154.5h-109zM107 636l6 28h262l-5 -28l-112 -14
h-41zM119 0l6 34h295l-50 -26l86 181h33l-39 -189h-331z" />
    <glyph glyph-name="lcaron" unicode="&#x13e;" horiz-adv-x="292" 
d="M393 738q19 0 26.5 -9t7.5 -21q0 -14 -7 -33t-18.5 -41.5t-24.5 -47.5l-37 -70l-28 1l42 212q10 5 18.5 7t20.5 2zM105 -14q-25 0 -42 14.5t-17 41.5q0 14 3 33.5t8 45.5l75 362q10 47 19 94t14 94l25 -24l-101 18l3 21l177 49l11 -10l-125 -602q-3 -17 -5.5 -29
t-2.5 -20q0 -9 5.5 -14t13.5 -5q13 0 33.5 16t45.5 46l18 -13q-17 -28 -40 -55.5t-52.5 -45t-65.5 -17.5z" />
    <glyph glyph-name="Ldot" unicode="&#x13f;" horiz-adv-x="526" 
d="M-5 0l5 27l112 14h34l-6 -41h-145zM69 0l67 354q14 77 27 155t25 155h110l-67 -354q-15 -78 -28 -155.5t-25 -154.5h-109zM107 636l6 28h262l-5 -28l-112 -14h-41zM119 0l6 34h295l-50 -26l86 181h33l-39 -189h-331zM457 299q-27 0 -44 17.5t-17 41.5q0 21 10.5 37.5
t27.5 26t36 9.5q27 0 43.5 -18t16.5 -42q0 -21 -10 -37.5t-26.5 -25.5t-36.5 -9z" />
    <glyph glyph-name="ldot" unicode="&#x140;" horiz-adv-x="308" 
d="M105 -14q-25 0 -42 14.5t-17 41.5q0 14 3 33.5t8 45.5l75 362q10 47 19 94t14 94l25 -24l-101 18l3 21l177 49l11 -10l-125 -602q-3 -17 -5.5 -29t-2.5 -20q0 -9 5.5 -14t13.5 -5q13 0 33.5 16t45.5 46l18 -13q-17 -28 -40 -55.5t-52.5 -45t-65.5 -17.5zM315 299
q-27 0 -44 17.5t-17 41.5q0 21 10.5 37.5t27.5 26t36 9.5q27 0 43.5 -18t16.5 -42q0 -21 -10 -37.5t-26.5 -25.5t-36.5 -9z" />
    <glyph glyph-name="Lslash" unicode="&#x141;" horiz-adv-x="526" 
d="M414 446l-7 -38l-221 -110l7 38zM187 338l-7 -39l-150 -72l7 37zM-5 0l5 27l112 14h34l-6 -41h-145zM69 0l67 354q14 77 27 155t25 155h110l-67 -354q-15 -78 -28 -155.5t-25 -154.5h-109zM107 636l6 28h262l-5 -28l-112 -14h-41zM119 0l6 34h295l-50 -26l86 181h33
l-39 -189h-331z" />
    <glyph glyph-name="lslash" unicode="&#x142;" horiz-adv-x="283" 
d="M187 405l-7 -36l-158 -79l7 37zM297 449l-7 -36l-159 -78l6 35zM105 -14q-25 0 -42 14.5t-17 41.5q0 14 3 33.5t8 45.5l75 362q10 47 19 94t14 94l25 -24l-101 18l3 21l177 49l11 -10l-125 -602q-3 -17 -5.5 -29t-2.5 -20q0 -9 5.5 -14t13.5 -5q13 0 33.5 16t45.5 46
l18 -13q-17 -28 -40 -55.5t-52.5 -45t-65.5 -17.5z" />
    <glyph glyph-name="Nacute" unicode="&#x143;" horiz-adv-x="656" 
d="M-12 0l5 27l90 12h20l98 -12l-5 -27h-208zM66 0l122 652h37l-60 -323l-61 -329h-38zM499 636l6 28h206l-6 -28l-83 -11h-20zM534 148l-38 -49l43 230l62 335h37l-124 -670h-41l-281 584l-3 6l-21 44l-65 8l6 28h163l248 -516h14zM346 731q24 24 49 47.5t49 46.5
q21 20 35.5 27t29.5 7q18 0 28.5 -12t10.5 -26q0 -13 -10 -26.5t-39 -26.5q-35 -15 -70 -29t-70 -29z" />
    <glyph glyph-name="nacute" unicode="&#x144;" horiz-adv-x="548" 
d="M56 -8l-11 10l84 401l21 -14l-102 17l4 21l174 49l13 -10l-24 -114l-1 -8l-29 -139q-10 -50 -19 -101.5t-17 -103.5zM369 -14q-26 0 -43 14t-17 39q0 15 3.5 34t9.5 43l39 169q6 23 10.5 46.5t4.5 36.5q0 19 -8.5 27.5t-22.5 8.5q-17 0 -38.5 -9t-48 -27t-58.5 -46l-6 25
h6q34 37 70 66t72 46t69 17q31 0 49 -18.5t18 -55.5q0 -22 -4 -45t-10 -46l-44 -189q-4 -16 -6 -28.5t-2 -19.5q0 -9 4.5 -14t11.5 -5q14 0 36 16t46 46l18 -13q-17 -28 -40.5 -55.5t-53 -45t-65.5 -17.5zM297 545q10 24 19.5 47t19.5 46.5t19 46.5q8 19 16.5 31.5t19 19
t23.5 6.5q16 0 29 -10.5t13 -29.5q0 -13 -9 -29.5t-28 -34.5l-34.5 -34.5t-34.5 -35t-34 -35.5z" />
    <glyph glyph-name="uni0145" unicode="&#x145;" horiz-adv-x="656" 
d="M-12 0l5 27l90 12h20l98 -12l-5 -27h-208zM66 0l122 652h37l-60 -323l-61 -329h-38zM499 636l6 28h206l-6 -28l-83 -11h-20zM534 148l-38 -49l43 230l62 335h37l-124 -670h-41l-281 584l-3 6l-21 44l-65 8l6 28h163l248 -516h14zM331 -116q0 -38 -14.5 -64t-39.5 -43
t-56 -27l-9 23q19 9 33.5 17.5t24 19.5t15.5 25l2 -18q-27 9 -42 24.5t-15 37.5q0 23 15 38.5t41 15.5q11 0 20.5 -3.5t18.5 -10.5q3 -9 4.5 -17.5t1.5 -17.5z" />
    <glyph glyph-name="uni0146" unicode="&#x146;" horiz-adv-x="548" 
d="M56 -8l-11 10l84 401l21 -14l-102 17l4 21l174 49l13 -10l-24 -114l-1 -8l-29 -139q-10 -50 -19 -101.5t-17 -103.5zM369 -14q-26 0 -43 14t-17 39q0 15 3.5 34t9.5 43l39 169q6 23 10.5 46.5t4.5 36.5q0 19 -8.5 27.5t-22.5 8.5q-17 0 -38.5 -9t-48 -27t-58.5 -46l-6 25
h6q34 37 70 66t72 46t69 17q31 0 49 -18.5t18 -55.5q0 -22 -4 -45t-10 -46l-44 -189q-4 -16 -6 -28.5t-2 -19.5q0 -9 4.5 -14t11.5 -5q14 0 36 16t46 46l18 -13q-17 -28 -40.5 -55.5t-53 -45t-65.5 -17.5zM268 -116q0 -38 -14.5 -64t-39.5 -43t-56 -27l-9 23q19 9 33.5 17.5
t24 19.5t15.5 25l2 -18q-27 9 -42 24.5t-15 37.5q0 23 15 38.5t41 15.5q11 0 20.5 -3.5t18.5 -10.5q3 -9 4.5 -17.5t1.5 -17.5z" />
    <glyph glyph-name="Ncaron" unicode="&#x147;" horiz-adv-x="656" 
d="M-12 0l5 27l90 12h20l98 -12l-5 -27h-208zM66 0l122 652h37l-60 -323l-61 -329h-38zM499 636l6 28h206l-6 -28l-83 -11h-20zM534 148l-38 -49l43 230l62 335h37l-124 -670h-41l-281 584l-3 6l-21 44l-65 8l6 28h163l248 -516h14zM300 863l137 -97h-43l175 97l13 -19
l-147 -128h-49l-105 130z" />
    <glyph glyph-name="ncaron" unicode="&#x148;" horiz-adv-x="548" 
d="M56 -8l-11 10l84 401l21 -14l-102 17l4 21l174 49l13 -10l-24 -114l-1 -8l-29 -139q-10 -50 -19 -101.5t-17 -103.5zM369 -14q-26 0 -43 14t-17 39q0 15 3.5 34t9.5 43l39 169q6 23 10.5 46.5t4.5 36.5q0 19 -8.5 27.5t-22.5 8.5q-17 0 -38.5 -9t-48 -27t-58.5 -46l-6 25
h6q34 37 70 66t72 46t69 17q31 0 49 -18.5t18 -55.5q0 -22 -4 -45t-10 -46l-44 -189q-4 -16 -6 -28.5t-2 -19.5q0 -9 4.5 -14t11.5 -5q14 0 36 16t46 46l18 -13q-17 -28 -40.5 -55.5t-53 -45t-65.5 -17.5zM232 733l123 -131h-49l177 131l18 -18l-155 -171h-43l-93 173z" />
    <glyph glyph-name="napostrophe" unicode="&#x149;" horiz-adv-x="801" 
d="M228 742q15 0 27 -5t23 -15q4 -9 6 -17t2 -21q0 -47 -18.5 -85.5t-52 -67.5t-79.5 -48l-12 24q30 16 50.5 31.5t34.5 34.5t24 45l4 -19l-33 15q-23 11 -33 26t-10 35q0 26 17.5 46.5t49.5 20.5zM309 -8l-11 10l84 401l21 -14l-102 17l4 21l174 49l13 -10l-24 -114l-1 -8
l-29 -139q-10 -50 -19 -101.5t-17 -103.5zM622 -14q-26 0 -43 14t-17 39q0 15 3.5 34t9.5 43l39 169q6 23 10.5 46.5t4.5 36.5q0 19 -8.5 27.5t-22.5 8.5q-17 0 -38.5 -9t-48 -27t-58.5 -46l-6 25h6q34 37 70 66t72 46t69 17q31 0 49 -18.5t18 -55.5q0 -22 -4 -45t-10 -46
l-44 -189q-4 -16 -6 -28.5t-2 -19.5q0 -9 4.5 -14t11.5 -5q14 0 36 16t46 46l18 -13q-17 -28 -40.5 -55.5t-53 -45t-65.5 -17.5z" />
    <glyph glyph-name="Eng" unicode="&#x14a;" horiz-adv-x="658" 
d="M-12 0l5 27l90 12h20l98 -12l-5 -27h-208zM66 0l122 652h37l-60 -323l-61 -329h-38zM308 -139q-30 0 -54 13.5t-29 41.5q6 24 25.5 36.5t40.5 12.5q20 0 37 -8t33 -24l34 -33v-11h-22v10q38 26 64 57.5t43 74t27 101.5l33 197l59 334h36l-88 -504q-8 -44 -16.5 -77
t-19 -59.5t-25 -48.5t-33.5 -43q-36 -38 -72.5 -54t-72.5 -16zM473 -4l-281 582l-3 6l-21 44l-65 8l6 28h163l250 -517h13l-42 -151h-20zM602 625l-103 11l6 28h206l-6 -28l-83 -11h-20z" />
    <glyph glyph-name="eng" unicode="&#x14b;" horiz-adv-x="556" 
d="M56 -8l-11 10l84 401l21 -14l-102 17l4 21l174 49l13 -10l-24 -114l-1 -8l-29 -139q-10 -50 -19 -101.5t-17 -103.5zM178 -249l-5 21q15 7 26.5 15t21.5 18t19 22q18 22 30 52t21.5 67.5t19.5 84.5l52 254q5 23 9 46.5t4 36.5q0 19 -8.5 27.5t-22.5 8.5q-17 0 -38.5 -9
t-48 -27t-58.5 -46l-6 25h6q34 37 70 66t72 46t69 17q31 0 49 -18.5t18 -55.5q0 -22 -3.5 -45t-8.5 -46l-60 -285q-9 -44 -22.5 -83t-32.5 -71t-45 -57q-16 -17 -35 -30t-41 -21.5t-52 -12.5z" />
    <glyph glyph-name="Omacron" unicode="&#x14c;" horiz-adv-x="629" 
d="M273 -16q-65 0 -116 28.5t-80.5 85t-29.5 139.5q0 73 16.5 139t47.5 121t73.5 96.5t94.5 64t111 22.5q66 0 117.5 -29.5t81 -86t29.5 -139.5q0 -73 -17 -138.5t-47.5 -121t-73.5 -96t-95 -63t-112 -22.5zM276 16q35 0 66 18.5t57 50.5t47 75t35 92.5t22 103t8 105.5
q0 57 -12.5 99t-39.5 64.5t-71 22.5q-35 0 -66 -18t-57 -50t-46.5 -75t-35 -92.5t-22 -102.5t-7.5 -106q0 -56 12.5 -98.5t39.5 -65.5t70 -23zM267 740l13 62h264l-14 -62h-263z" />
    <glyph glyph-name="omacron" unicode="&#x14d;" horiz-adv-x="476" 
d="M196 -14q-45 0 -84 19.5t-62 59.5t-23 100q0 61 18.5 116.5t52.5 99.5t81 69.5t104 25.5q46 0 84 -19.5t61 -59t23 -99.5q0 -61 -18.5 -117t-52 -100t-80.5 -69.5t-104 -25.5zM200 17q25 0 47.5 17t41 47t32.5 69t21.5 83.5t7.5 89.5q0 65 -18 94t-53 29q-25 0 -47.5 -17
t-41.5 -47t-33 -69t-21.5 -83t-7.5 -90q0 -65 19 -94t53 -29zM190 576l12 63h233l-12 -63h-233z" />
    <glyph glyph-name="Obreve" unicode="&#x14e;" horiz-adv-x="629" 
d="M273 -16q-65 0 -116 28.5t-80.5 85t-29.5 139.5q0 73 16.5 139t47.5 121t73.5 96.5t94.5 64t111 22.5q66 0 117.5 -29.5t81 -86t29.5 -139.5q0 -73 -17 -138.5t-47.5 -121t-73.5 -96t-95 -63t-112 -22.5zM276 16q35 0 66 18.5t57 50.5t47 75t35 92.5t22 103t8 105.5
q0 57 -12.5 99t-39.5 64.5t-71 22.5q-35 0 -66 -18t-57 -50t-46.5 -75t-35 -92.5t-22 -102.5t-7.5 -106q0 -56 12.5 -98.5t39.5 -65.5t70 -23zM401 719q-41 0 -70 17.5t-44 46t-18 60.5l26 11q12 -32 40 -52.5t72 -20.5t76.5 20.5t54.5 52.5l24 -12q-12 -30 -32.5 -58.5
t-52 -46.5t-76.5 -18z" />
    <glyph glyph-name="obreve" unicode="&#x14f;" horiz-adv-x="476" 
d="M196 -14q-45 0 -84 19.5t-62 59.5t-23 100q0 61 18.5 116.5t52.5 99.5t81 69.5t104 25.5q46 0 84 -19.5t61 -59t23 -99.5q0 -61 -18.5 -117t-52 -100t-80.5 -69.5t-104 -25.5zM200 17q25 0 47.5 17t41 47t32.5 69t21.5 83.5t7.5 89.5q0 65 -18 94t-53 29q-25 0 -47.5 -17
t-41.5 -47t-33 -69t-21.5 -83t-7.5 -90q0 -65 19 -94t53 -29zM302 548q-45 0 -72.5 19.5t-39.5 51.5t-12 68l27 10q11 -37 35.5 -61t69.5 -24q46 0 78.5 23.5t54.5 61.5l25 -9q-9 -34 -30.5 -66t-55 -53t-80.5 -21z" />
    <glyph glyph-name="Ohungarumlaut" unicode="&#x150;" horiz-adv-x="629" 
d="M273 -16q-65 0 -116 28.5t-80.5 85t-29.5 139.5q0 73 16.5 139t47.5 121t73.5 96.5t94.5 64t111 22.5q66 0 117.5 -29.5t81 -86t29.5 -139.5q0 -73 -17 -138.5t-47.5 -121t-73.5 -96t-95 -63t-112 -22.5zM276 16q35 0 66 18.5t57 50.5t47 75t35 92.5t22 103t8 105.5
q0 57 -12.5 99t-39.5 64.5t-71 22.5q-35 0 -66 -18t-57 -50t-46.5 -75t-35 -92.5t-22 -102.5t-7.5 -106q0 -56 12.5 -98.5t39.5 -65.5t70 -23zM279 720l76 118q16 24 30 35.5t29 11.5q16 0 26.5 -9.5t10.5 -22.5t-8.5 -25.5t-29.5 -29.5l-115 -93zM433 720l75 118
q16 24 30 35.5t30 11.5q15 0 25.5 -9.5t10.5 -22.5t-8.5 -25.5t-28.5 -29.5l-116 -93z" />
    <glyph glyph-name="ohungarumlaut" unicode="&#x151;" horiz-adv-x="476" 
d="M196 -14q-45 0 -84 19.5t-62 59.5t-23 100q0 61 18.5 116.5t52.5 99.5t81 69.5t104 25.5q46 0 84 -19.5t61 -59t23 -99.5q0 -61 -18.5 -117t-52 -100t-80.5 -69.5t-104 -25.5zM200 17q25 0 47.5 17t41 47t32.5 69t21.5 83.5t7.5 89.5q0 65 -18 94t-53 29q-25 0 -47.5 -17
t-41.5 -47t-33 -69t-21.5 -83t-7.5 -90q0 -65 19 -94t53 -29zM199 550l73 144q13 28 26 40t28 12q17 0 27.5 -9.5t10.5 -24.5t-7 -28.5t-28 -34.5l-109 -113zM346 550l72 144q13 28 26 40t29 12q17 0 27.5 -9.5t10.5 -24.5t-7 -28.5t-28 -34.5l-110 -113z" />
    <glyph glyph-name="OE" unicode="&#x152;" horiz-adv-x="847" 
d="M418 8q-32 -12 -61.5 -18t-63.5 -6q-73 0 -128.5 29.5t-86.5 87.5t-31 142q0 63 16 126t47.5 119t77 99t104 68t128.5 25q29 0 57.5 -5.5t57.5 -18.5l-15 -36q-17 10 -32.5 16t-31.5 8.5t-36 2.5q-49 0 -90.5 -25t-73.5 -68t-54.5 -97.5t-34.5 -115.5t-12 -121
q0 -68 18.5 -113t52 -68t77.5 -23q19 0 36.5 3t36 9.5t39.5 16.5zM371 0l67 354q14 77 27.5 155t25.5 155h109l-67 -354q-15 -78 -28 -155.5t-26 -154.5h-108zM420 0l6 34h307l-47 -26l82 176h33l-38 -184h-343zM481 322l6 34h196l-6 -34h-196zM531 630l6 34h317l-21 -178
h-33l-26 169l38 -25h-281zM669 227l-9 104l3 18l47 102h27l-41 -224h-27z" />
    <glyph glyph-name="oe" unicode="&#x153;" horiz-adv-x="721" 
d="M196 -14q-47 0 -85 19.5t-61 59.5t-23 100q0 61 18.5 116.5t52.5 99.5t81 69.5t104 25.5q39 0 72.5 -16.5t57 -49t30.5 -82.5l-50 -1q24 44 58 77.5t74.5 52.5t81.5 19q51 0 80 -23t29 -64q0 -30 -16.5 -58.5t-53.5 -55.5t-98.5 -51.5t-150.5 -46.5l-3 24q92 25 144 56
t73 65.5t21 69.5q0 25 -11 38.5t-31 13.5q-22 0 -49 -20t-51.5 -56t-40 -84t-15.5 -103q0 -61 29.5 -90.5t73.5 -29.5q26 0 49.5 10t43.5 26t35 34l17 -13q-15 -28 -34.5 -52.5t-43 -42t-52 -27.5t-62.5 -10q-40 0 -72 17t-52 50t-23 80l62 5q-21 -45 -52.5 -79t-71 -53.5
t-85.5 -19.5zM200 17q31 0 58.5 25.5t48 68.5t32 97.5t11.5 112.5q0 65 -18 95t-53 30q-31 0 -58.5 -25.5t-48 -68.5t-32.5 -97.5t-12 -112.5q0 -66 18.5 -95.5t53.5 -29.5z" />
    <glyph glyph-name="Racute" unicode="&#x154;" horiz-adv-x="617" 
d="M-5 0l5 27l111 14h38l113 -14l-6 -27h-261zM69 0l67 353q14 77 27 155.5t25 155.5h110l-67 -354q-15 -78 -28 -155.5t-25 -154.5h-109zM107 636l6 28h136l-2 -42h-30zM502 -10q-33 0 -54.5 7.5t-34 25t-19.5 47.5l-37 140q-10 39 -21 60t-30 29.5t-53 8.5h-82l7 33l111 1
q56 0 93 23t55.5 63t18.5 90q0 52 -27.5 82t-81.5 30h-113l4 34h124q97 0 148 -41t51 -108q0 -40 -18 -74.5t-52 -61.5t-81.5 -43.5t-105.5 -21.5l-1 13q41 -4 68 -12.5t45 -24t29.5 -39.5t22.5 -58l52 -175l-54 25l120 -16l-5 -27q-14 -3 -25.5 -5.5t-24 -3.5t-29.5 -1z
M292 731q24 24 49 47.5t49 46.5q21 20 35.5 27t29.5 7q18 0 28.5 -12t10.5 -26q0 -13 -10 -26.5t-39 -26.5q-35 -15 -70 -29t-70 -29z" />
    <glyph glyph-name="racute" unicode="&#x155;" horiz-adv-x="410" 
d="M185 233l-11 43h10q27 60 55 105t59 70t65 25q21 0 38.5 -9.5t25.5 -32.5q-1 -26 -17 -45t-43 -19q-21 0 -36 10.5t-33 29.5l-13 15l30 4v-6q-27 -23 -50 -52.5t-42.5 -64.5t-37.5 -73zM46 2l83 401l21 -14l-102 17l4 21l168 49l12 -10l-32 -173l2 -7l-17 -81
q-10 -50 -19 -101.5t-17 -103.5l-92 -8zM259 545q10 24 19.5 47t19.5 46.5t19 46.5q8 19 16.5 31.5t19 19t23.5 6.5q16 0 29 -10.5t13 -29.5q0 -13 -9 -29.5t-28 -34.5l-34.5 -34.5t-34.5 -35t-34 -35.5z" />
    <glyph glyph-name="uni0156" unicode="&#x156;" horiz-adv-x="617" 
d="M-5 0l5 27l111 14h38l113 -14l-6 -27h-261zM69 0l67 353q14 77 27 155.5t25 155.5h110l-67 -354q-15 -78 -28 -155.5t-25 -154.5h-109zM107 636l6 28h136l-2 -42h-30zM502 -10q-33 0 -54.5 7.5t-34 25t-19.5 47.5l-37 140q-10 39 -21 60t-30 29.5t-53 8.5h-82l7 33l111 1
q56 0 93 23t55.5 63t18.5 90q0 52 -27.5 82t-81.5 30h-113l4 34h124q97 0 148 -41t51 -108q0 -40 -18 -74.5t-52 -61.5t-81.5 -43.5t-105.5 -21.5l-1 13q41 -4 68 -12.5t45 -24t29.5 -39.5t22.5 -58l52 -175l-54 25l120 -16l-5 -27q-14 -3 -25.5 -5.5t-24 -3.5t-29.5 -1z
M339 -116q0 -38 -14.5 -64t-39.5 -43t-56 -27l-9 23q19 9 33.5 17.5t24 19.5t15.5 25l2 -18q-27 9 -42 24.5t-15 37.5q0 23 15 38.5t41 15.5q11 0 20.5 -3.5t18.5 -10.5q3 -9 4.5 -17.5t1.5 -17.5z" />
    <glyph glyph-name="uni0157" unicode="&#x157;" horiz-adv-x="410" 
d="M185 233l-11 43h10q27 60 55 105t59 70t65 25q21 0 38.5 -9.5t25.5 -32.5q-1 -26 -17 -45t-43 -19q-21 0 -36 10.5t-33 29.5l-13 15l30 4v-6q-27 -23 -50 -52.5t-42.5 -64.5t-37.5 -73zM46 2l83 401l21 -14l-102 17l4 21l168 49l12 -10l-32 -173l2 -7l-17 -81
q-10 -50 -19 -101.5t-17 -103.5l-92 -8zM135 -116q0 -38 -14.5 -64t-39.5 -43t-56 -27l-9 23q19 9 33.5 17.5t24 19.5t15.5 25l2 -18q-27 9 -42 24.5t-15 37.5q0 23 15 38.5t41 15.5q11 0 20.5 -3.5t18.5 -10.5q3 -9 4.5 -17.5t1.5 -17.5z" />
    <glyph glyph-name="Rcaron" unicode="&#x158;" horiz-adv-x="617" 
d="M-5 0l5 27l111 14h38l113 -14l-6 -27h-261zM69 0l67 353q14 77 27 155.5t25 155.5h110l-67 -354q-15 -78 -28 -155.5t-25 -154.5h-109zM107 636l6 28h136l-2 -42h-30zM502 -10q-33 0 -54.5 7.5t-34 25t-19.5 47.5l-37 140q-10 39 -21 60t-30 29.5t-53 8.5h-82l7 33l111 1
q56 0 93 23t55.5 63t18.5 90q0 52 -27.5 82t-81.5 30h-113l4 34h124q97 0 148 -41t51 -108q0 -40 -18 -74.5t-52 -61.5t-81.5 -43.5t-105.5 -21.5l-1 13q41 -4 68 -12.5t45 -24t29.5 -39.5t22.5 -58l52 -175l-54 25l120 -16l-5 -27q-14 -3 -25.5 -5.5t-24 -3.5t-29.5 -1z
M246 863l137 -97h-43l175 97l13 -19l-147 -128h-49l-105 130z" />
    <glyph glyph-name="rcaron" unicode="&#x159;" horiz-adv-x="410" 
d="M185 233l-11 43h10q27 60 55 105t59 70t65 25q21 0 38.5 -9.5t25.5 -32.5q-1 -26 -17 -45t-43 -19q-21 0 -36 10.5t-33 29.5l-13 15l30 4v-6q-27 -23 -50 -52.5t-42.5 -64.5t-37.5 -73zM46 2l83 401l21 -14l-102 17l4 21l168 49l12 -10l-32 -173l2 -7l-17 -81
q-10 -50 -19 -101.5t-17 -103.5l-92 -8zM194 733l123 -131h-49l177 131l18 -18l-155 -171h-43l-93 173z" />
    <glyph glyph-name="Sacute" unicode="&#x15a;" horiz-adv-x="466" 
d="M14 31l30 154h35l15 -169l-37 34q28 -15 60.5 -23.5t65.5 -8.5q42 0 73 17t48 45.5t17 62.5q0 32 -14 58.5t-38 51t-56 50.5q-35 28 -61.5 56t-40.5 60t-14 70q0 56 26.5 99t75 67.5t113.5 24.5q29 0 58.5 -5.5t57 -15.5t50.5 -27l-29 -144h-35l-17 157l32 -31
q-28 17 -53.5 24.5t-52.5 7.5q-36 0 -67.5 -13t-50 -39t-18.5 -66q0 -29 12.5 -53.5t34 -46.5t49.5 -45q38 -30 68 -59.5t47 -63t17 -76.5q0 -61 -28 -105.5t-80 -69.5t-122 -25q-29 0 -61 5.5t-60 16t-50 25.5zM263 731q24 24 49 47.5t49 46.5q21 20 35.5 27t29.5 7
q18 0 28.5 -12t10.5 -26q0 -13 -10 -26.5t-39 -26.5q-35 -15 -70 -29t-70 -29z" />
    <glyph glyph-name="sacute" unicode="&#x15b;" horiz-adv-x="373" 
d="M140 -14q-36 0 -63.5 11.5t-44.5 32.5t-21 50q3 18 14 28t28 10q22 0 35 -12t20 -36l21 -66l-53 18q16 -4 30 -6t32 -2q27 0 47 11t31 30t11 40q0 32 -21 55.5t-53 49.5q-21 17 -39.5 35.5t-30 42t-11.5 53.5q0 40 20 73t56 52.5t86 19.5q35 0 61 -10t42.5 -29t22.5 -48
q-3 -17 -14 -26t-29 -9q-19 0 -32.5 12.5t-23.5 37.5l-22 55l46 -15q-9 1 -20 2.5t-24 1.5q-42 0 -63 -25.5t-21 -54.5q0 -32 20.5 -55.5t51.5 -48.5q24 -19 44 -38.5t31.5 -42.5t11.5 -54q0 -40 -20.5 -72.5t-60 -51.5t-95.5 -19zM229 545q10 24 19.5 47t19.5 46.5t19 46.5
q8 19 16.5 31.5t19 19t23.5 6.5q16 0 29 -10.5t13 -29.5q0 -13 -9 -29.5t-28 -34.5l-34.5 -34.5t-34.5 -35t-34 -35.5z" />
    <glyph glyph-name="Scircumflex" unicode="&#x15c;" horiz-adv-x="466" 
d="M14 31l30 154h35l15 -169l-37 34q28 -15 60.5 -23.5t65.5 -8.5q42 0 73 17t48 45.5t17 62.5q0 32 -14 58.5t-38 51t-56 50.5q-35 28 -61.5 56t-40.5 60t-14 70q0 56 26.5 99t75 67.5t113.5 24.5q29 0 58.5 -5.5t57 -15.5t50.5 -27l-29 -144h-35l-17 157l32 -31
q-28 17 -53.5 24.5t-52.5 7.5q-36 0 -67.5 -13t-50 -39t-18.5 -66q0 -29 12.5 -53.5t34 -46.5t49.5 -45q38 -30 68 -59.5t47 -63t17 -76.5q0 -61 -28 -105.5t-80 -69.5t-122 -25q-29 0 -61 5.5t-60 16t-50 25.5zM372 856l108 -130l-18 -18l-142 95h48l-180 -95l-12 20
l153 128h43z" />
    <glyph glyph-name="scircumflex" unicode="&#x15d;" horiz-adv-x="373" 
d="M140 -14q-36 0 -63.5 11.5t-44.5 32.5t-21 50q3 18 14 28t28 10q22 0 35 -12t20 -36l21 -66l-53 18q16 -4 30 -6t32 -2q27 0 47 11t31 30t11 40q0 32 -21 55.5t-53 49.5q-21 17 -39.5 35.5t-30 42t-11.5 53.5q0 40 20 73t56 52.5t86 19.5q35 0 61 -10t42.5 -29t22.5 -48
q-3 -17 -14 -26t-29 -9q-19 0 -32.5 12.5t-23.5 37.5l-22 55l46 -15q-9 1 -20 2.5t-24 1.5q-42 0 -63 -25.5t-21 -54.5q0 -32 20.5 -55.5t51.5 -48.5q24 -19 44 -38.5t31.5 -42.5t11.5 -54q0 -40 -20.5 -72.5t-60 -51.5t-95.5 -19zM382 535l-128 132h51l-178 -133l-17 19
l156 171h42l96 -173z" />
    <glyph glyph-name="Scedilla" unicode="&#x15e;" horiz-adv-x="466" 
d="M14 31l30 154h35l15 -169l-37 34q28 -15 60.5 -23.5t65.5 -8.5q42 0 73 17t48 45.5t17 62.5q0 32 -14 58.5t-38 51t-56 50.5q-35 28 -61.5 56t-40.5 60t-14 70q0 56 26.5 99t75 67.5t113.5 24.5q29 0 58.5 -5.5t57 -15.5t50.5 -27l-29 -144h-35l-17 157l32 -31
q-28 17 -53.5 24.5t-52.5 7.5q-36 0 -67.5 -13t-50 -39t-18.5 -66q0 -29 12.5 -53.5t34 -46.5t49.5 -45q38 -30 68 -59.5t47 -63t17 -76.5q0 -61 -28 -105.5t-80 -69.5t-122 -25q-29 0 -61 5.5t-60 16t-50 25.5zM148 -79l31 79h27l-26 -70l-11 19q51 -8 77.5 -29.5
t26.5 -55.5q0 -38 -32 -62.5t-88 -24.5q-23 0 -41 4.5t-31 11.5l10 24l24 -6t27 -3q31 0 48 16.5t17 42.5q0 22 -14.5 35.5t-44.5 18.5z" />
    <glyph glyph-name="scedilla" unicode="&#x15f;" horiz-adv-x="373" 
d="M140 -14q-36 0 -63.5 11.5t-44.5 32.5t-21 50q3 18 14 28t28 10q22 0 35 -12t20 -36l21 -66l-53 18q16 -4 30 -6t32 -2q27 0 47 11t31 30t11 40q0 32 -21 55.5t-53 49.5q-21 17 -39.5 35.5t-30 42t-11.5 53.5q0 40 20 73t56 52.5t86 19.5q35 0 61 -10t42.5 -29t22.5 -48
q-3 -17 -14 -26t-29 -9q-19 0 -32.5 12.5t-23.5 37.5l-22 55l46 -15q-9 1 -20 2.5t-24 1.5q-42 0 -63 -25.5t-21 -54.5q0 -32 20.5 -55.5t51.5 -48.5q24 -19 44 -38.5t31.5 -42.5t11.5 -54q0 -40 -20.5 -72.5t-60 -51.5t-95.5 -19zM100 -79l31 79h27l-26 -70l-11 19
q51 -8 77.5 -29.5t26.5 -55.5q0 -38 -32 -62.5t-88 -24.5q-23 0 -41 4.5t-31 11.5l10 24l24 -6t27 -3q31 0 48 16.5t17 42.5q0 22 -14.5 35.5t-44.5 18.5z" />
    <glyph glyph-name="Scaron" unicode="&#x160;" horiz-adv-x="466" 
d="M14 31l30 154h35l15 -169l-37 34q28 -15 60.5 -23.5t65.5 -8.5q42 0 73 17t48 45.5t17 62.5q0 32 -14 58.5t-38 51t-56 50.5q-35 28 -61.5 56t-40.5 60t-14 70q0 56 26.5 99t75 67.5t113.5 24.5q29 0 58.5 -5.5t57 -15.5t50.5 -27l-29 -144h-35l-17 157l32 -31
q-28 17 -53.5 24.5t-52.5 7.5q-36 0 -67.5 -13t-50 -39t-18.5 -66q0 -29 12.5 -53.5t34 -46.5t49.5 -45q38 -30 68 -59.5t47 -63t17 -76.5q0 -61 -28 -105.5t-80 -69.5t-122 -25q-29 0 -61 5.5t-60 16t-50 25.5zM217 863l137 -97h-43l175 97l13 -19l-147 -128h-49l-105 130z
" />
    <glyph glyph-name="scaron" unicode="&#x161;" horiz-adv-x="373" 
d="M140 -14q-36 0 -63.5 11.5t-44.5 32.5t-21 50q3 18 14 28t28 10q22 0 35 -12t20 -36l21 -66l-53 18q16 -4 30 -6t32 -2q27 0 47 11t31 30t11 40q0 32 -21 55.5t-53 49.5q-21 17 -39.5 35.5t-30 42t-11.5 53.5q0 40 20 73t56 52.5t86 19.5q35 0 61 -10t42.5 -29t22.5 -48
q-3 -17 -14 -26t-29 -9q-19 0 -32.5 12.5t-23.5 37.5l-22 55l46 -15q-9 1 -20 2.5t-24 1.5q-42 0 -63 -25.5t-21 -54.5q0 -32 20.5 -55.5t51.5 -48.5q24 -19 44 -38.5t31.5 -42.5t11.5 -54q0 -40 -20.5 -72.5t-60 -51.5t-95.5 -19zM164 733l123 -131h-49l177 131l18 -18
l-155 -171h-43l-93 173z" />
    <glyph glyph-name="uni0162" unicode="&#x162;" horiz-adv-x="563" 
d="M67 477l39 187h511l-23 -187h-32l-27 178l39 -25h-437l50 25l-86 -178h-34zM101 0l6 27l123 14h40l118 -14l-5 -27h-282zM187 0l67 354q14 77 27.5 155t25.5 155h109l-67 -354q-14 -78 -27.5 -155.5t-25.5 -154.5h-109zM204 -79l31 79h27l-26 -70l-11 19
q51 -8 77.5 -29.5t26.5 -55.5q0 -38 -32 -62.5t-88 -24.5q-23 0 -41 4.5t-31 11.5l10 24l24 -6t27 -3q31 0 48 16.5t17 42.5q0 22 -14.5 35.5t-44.5 18.5z" />
    <glyph glyph-name="uni0163" unicode="&#x163;" horiz-adv-x="315" 
d="M41 428l3 26l118 14v-6h178l-8 -36l-173 2h-4h-114zM109 -14q-27 0 -43.5 15t-16.5 41q0 14 3.5 33.5t8.5 43.5l69 328l87 162h44l-103 -489q-3 -16 -5 -27t-2 -20t4.5 -13.5t11.5 -4.5q11 0 23.5 7t27 21t31.5 34l18 -13q-17 -29 -40.5 -56t-53 -44.5t-64.5 -17.5z
M65 -79l31 79h27l-26 -70l-11 19q51 -8 77.5 -29.5t26.5 -55.5q0 -38 -32 -62.5t-88 -24.5q-23 0 -41 4.5t-31 11.5l10 24l24 -6t27 -3q31 0 48 16.5t17 42.5q0 22 -14.5 35.5t-44.5 18.5z" />
    <glyph glyph-name="Tcaron" unicode="&#x164;" horiz-adv-x="563" 
d="M67 477l39 187h511l-23 -187h-32l-27 178l39 -25h-437l50 25l-86 -178h-34zM101 0l6 27l123 14h40l118 -14l-5 -27h-282zM187 0l67 354q14 77 27.5 155t25.5 155h109l-67 -354q-14 -78 -27.5 -155.5t-25.5 -154.5h-109zM263 863l137 -97h-43l175 97l13 -19l-147 -128h-49
l-105 130z" />
    <glyph glyph-name="tcaron" unicode="&#x165;" horiz-adv-x="315" 
d="M384 756q18 0 26 -9t8 -20q0 -14 -7 -33.5t-18.5 -42t-24.5 -47.5l-37 -70l-28 2l42 212q10 5 18.5 6.5t20.5 1.5zM41 428l3 26l118 14v-6h178l-8 -36l-173 2h-4h-114zM109 -14q-27 0 -43.5 15t-16.5 41q0 14 3.5 33.5t8.5 43.5l69 328l87 162h44l-103 -489
q-3 -16 -5 -27t-2 -20t4.5 -13.5t11.5 -4.5q11 0 23.5 7t27 21t31.5 34l18 -13q-17 -29 -40.5 -56t-53 -44.5t-64.5 -17.5z" />
    <glyph glyph-name="Utilde" unicode="&#x168;" horiz-adv-x="645" 
d="M205 622l-106 14l6 28h255l-5 -28l-114 -14h-36zM291 -16q-55 0 -99.5 18t-70 58.5t-25.5 109.5q0 23 3.5 50.5t8.5 56.5l15 76q10 58 19 109t17 100.5t16 101.5h109l-70 -387q-5 -26 -8.5 -50.5t-3.5 -47.5q0 -45 16 -74.5t44 -43t65 -13.5q50 0 86.5 19t62 66t40.5 129
l75 402h38l-76 -407q-18 -100 -53 -160t-87.5 -86.5t-121.5 -26.5zM593 625l-91 11l5 28h195l-6 -28l-85 -11h-18zM275 725q19 61 50 94.5t69 33.5q24 0 38.5 -10.5t27.5 -23.5q14 -14 27 -26.5t30 -12.5q22 0 41.5 19.5t34.5 51.5l22 -9q-19 -60 -49.5 -94t-68.5 -34
q-24 0 -39 11t-28 23q-14 15 -27 27t-30 12q-21 0 -40.5 -19t-35.5 -51z" />
    <glyph glyph-name="utilde" unicode="&#x169;" horiz-adv-x="549" 
d="M130 -14q-21 0 -37 9t-25 25.5t-9 40.5t5 48.5t10 48.5l55 247l14 -15l-96 16l4 21l177 49l12 -10l-64 -287q-3 -15 -6 -31t-5.5 -29.5t-2.5 -23.5q0 -18 9 -27t23 -9q19 0 40 9t48 27.5t60 47.5l8 -26h-11q-35 -38 -71 -67t-70.5 -46.5t-67.5 -17.5zM371 -14
q-26 0 -43 16t-17 44q0 10 2 24t8 41v4l32 150q10 47 18 92t14 92l95 27l12 -10l-72 -346q-3 -16 -5.5 -27t-2.5 -21q0 -8 5 -12.5t12 -4.5q15 0 36 16t45 46l19 -13q-17 -28 -40.5 -55.5t-53 -45t-64.5 -17.5zM182 566q18 61 47 94.5t65 33.5q22 0 36.5 -9t28.5 -24
t26 -27.5t29 -12.5q21 0 38.5 19.5t33.5 50.5l21 -8q-19 -61 -47.5 -94.5t-65.5 -33.5q-22 0 -36.5 9.5t-28.5 24.5q-13 14 -25.5 26.5t-29.5 12.5q-21 0 -38 -19t-33 -51z" />
    <glyph glyph-name="Umacron" unicode="&#x16a;" horiz-adv-x="645" 
d="M205 622l-106 14l6 28h255l-5 -28l-114 -14h-36zM291 -16q-55 0 -99.5 18t-70 58.5t-25.5 109.5q0 23 3.5 50.5t8.5 56.5l15 76q10 58 19 109t17 100.5t16 101.5h109l-70 -387q-5 -26 -8.5 -50.5t-3.5 -47.5q0 -45 16 -74.5t44 -43t65 -13.5q50 0 86.5 19t62 66t40.5 129
l75 402h38l-76 -407q-18 -100 -53 -160t-87.5 -86.5t-121.5 -26.5zM593 625l-91 11l5 28h195l-6 -28l-85 -11h-18zM304 740l13 62h264l-14 -62h-263z" />
    <glyph glyph-name="umacron" unicode="&#x16b;" horiz-adv-x="549" 
d="M130 -14q-21 0 -37 9t-25 25.5t-9 40.5t5 48.5t10 48.5l55 247l14 -15l-96 16l4 21l177 49l12 -10l-64 -287q-3 -15 -6 -31t-5.5 -29.5t-2.5 -23.5q0 -18 9 -27t23 -9q19 0 40 9t48 27.5t60 47.5l8 -26h-11q-35 -38 -71 -67t-70.5 -46.5t-67.5 -17.5zM371 -14
q-26 0 -43 16t-17 44q0 10 2 24t8 41v4l32 150q10 47 18 92t14 92l95 27l12 -10l-72 -346q-3 -16 -5.5 -27t-2.5 -21q0 -8 5 -12.5t12 -4.5q15 0 36 16t45 46l19 -13q-17 -28 -40.5 -55.5t-53 -45t-64.5 -17.5zM218 576l12 63h233l-12 -63h-233z" />
    <glyph glyph-name="Ubreve" unicode="&#x16c;" horiz-adv-x="645" 
d="M205 622l-106 14l6 28h255l-5 -28l-114 -14h-36zM291 -16q-55 0 -99.5 18t-70 58.5t-25.5 109.5q0 23 3.5 50.5t8.5 56.5l15 76q10 58 19 109t17 100.5t16 101.5h109l-70 -387q-5 -26 -8.5 -50.5t-3.5 -47.5q0 -45 16 -74.5t44 -43t65 -13.5q50 0 86.5 19t62 66t40.5 129
l75 402h38l-76 -407q-18 -100 -53 -160t-87.5 -86.5t-121.5 -26.5zM593 625l-91 11l5 28h195l-6 -28l-85 -11h-18zM438 719q-41 0 -70 17.5t-44 46t-18 60.5l26 11q12 -32 40 -52.5t72 -20.5t76.5 20.5t54.5 52.5l24 -12q-12 -30 -32.5 -58.5t-52 -46.5t-76.5 -18z" />
    <glyph glyph-name="ubreve" unicode="&#x16d;" horiz-adv-x="549" 
d="M130 -14q-21 0 -37 9t-25 25.5t-9 40.5t5 48.5t10 48.5l55 247l14 -15l-96 16l4 21l177 49l12 -10l-64 -287q-3 -15 -6 -31t-5.5 -29.5t-2.5 -23.5q0 -18 9 -27t23 -9q19 0 40 9t48 27.5t60 47.5l8 -26h-11q-35 -38 -71 -67t-70.5 -46.5t-67.5 -17.5zM371 -14
q-26 0 -43 16t-17 44q0 10 2 24t8 41v4l32 150q10 47 18 92t14 92l95 27l12 -10l-72 -346q-3 -16 -5.5 -27t-2.5 -21q0 -8 5 -12.5t12 -4.5q15 0 36 16t45 46l19 -13q-17 -28 -40.5 -55.5t-53 -45t-64.5 -17.5zM330 548q-45 0 -72.5 19.5t-39.5 51.5t-12 68l27 10
q11 -37 35.5 -61t69.5 -24q46 0 78.5 23.5t54.5 61.5l25 -9q-9 -34 -30.5 -66t-55 -53t-80.5 -21z" />
    <glyph glyph-name="Uring" unicode="&#x16e;" horiz-adv-x="645" 
d="M205 622l-106 14l6 28h255l-5 -28l-114 -14h-36zM291 -16q-55 0 -99.5 18t-70 58.5t-25.5 109.5q0 23 3.5 50.5t8.5 56.5l15 76q10 58 19 109t17 100.5t16 101.5h109l-70 -387q-5 -26 -8.5 -50.5t-3.5 -47.5q0 -45 16 -74.5t44 -43t65 -13.5q50 0 86.5 19t62 66t40.5 129
l75 402h38l-76 -407q-18 -100 -53 -160t-87.5 -86.5t-121.5 -26.5zM593 625l-91 11l5 28h195l-6 -28l-85 -11h-18zM440 711q-35 0 -61 22.5t-26 59.5q0 33 15.5 56.5t40.5 36.5t51 13q35 0 60.5 -22t25.5 -60q0 -33 -15.5 -56.5t-40 -36.5t-50.5 -13zM441 741
q31 0 50.5 22.5t19.5 51.5q0 21 -13.5 37.5t-40.5 16.5q-30 0 -49.5 -22.5t-19.5 -51.5q0 -23 14 -38.5t39 -15.5z" />
    <glyph glyph-name="uring" unicode="&#x16f;" horiz-adv-x="549" 
d="M130 -14q-21 0 -37 9t-25 25.5t-9 40.5t5 48.5t10 48.5l55 247l14 -15l-96 16l4 21l177 49l12 -10l-64 -287q-3 -15 -6 -31t-5.5 -29.5t-2.5 -23.5q0 -18 9 -27t23 -9q19 0 40 9t48 27.5t60 47.5l8 -26h-11q-35 -38 -71 -67t-70.5 -46.5t-67.5 -17.5zM371 -14
q-26 0 -43 16t-17 44q0 10 2 24t8 41v4l32 150q10 47 18 92t14 92l95 27l12 -10l-72 -346q-3 -16 -5.5 -27t-2.5 -21q0 -8 5 -12.5t12 -4.5q15 0 36 16t45 46l19 -13q-17 -28 -40.5 -55.5t-53 -45t-64.5 -17.5zM335 537q-37 0 -64 23t-27 61q0 34 16 59t42 38t53 13
q36 0 63.5 -22.5t27.5 -61.5q0 -35 -16.5 -59.5t-42 -37.5t-52.5 -13zM335 568q32 0 52.5 23t20.5 53q0 22 -14 39t-42 17q-31 0 -51 -24t-20 -53q0 -23 14 -39t40 -16z" />
    <glyph glyph-name="Uhungarumlaut" unicode="&#x170;" horiz-adv-x="645" 
d="M205 622l-106 14l6 28h255l-5 -28l-114 -14h-36zM291 -16q-55 0 -99.5 18t-70 58.5t-25.5 109.5q0 23 3.5 50.5t8.5 56.5l15 76q10 58 19 109t17 100.5t16 101.5h109l-70 -387q-5 -26 -8.5 -50.5t-3.5 -47.5q0 -45 16 -74.5t44 -43t65 -13.5q50 0 86.5 19t62 66t40.5 129
l75 402h38l-76 -407q-18 -100 -53 -160t-87.5 -86.5t-121.5 -26.5zM593 625l-91 11l5 28h195l-6 -28l-85 -11h-18zM316 720l76 118q16 24 30 35.5t29 11.5q16 0 26.5 -9.5t10.5 -22.5t-8.5 -25.5t-29.5 -29.5l-115 -93zM470 720l75 118q16 24 30 35.5t30 11.5
q15 0 25.5 -9.5t10.5 -22.5t-8.5 -25.5t-28.5 -29.5l-116 -93z" />
    <glyph glyph-name="uhungarumlaut" unicode="&#x171;" horiz-adv-x="549" 
d="M130 -14q-21 0 -37 9t-25 25.5t-9 40.5t5 48.5t10 48.5l55 247l14 -15l-96 16l4 21l177 49l12 -10l-64 -287q-3 -15 -6 -31t-5.5 -29.5t-2.5 -23.5q0 -18 9 -27t23 -9q19 0 40 9t48 27.5t60 47.5l8 -26h-11q-35 -38 -71 -67t-70.5 -46.5t-67.5 -17.5zM371 -14
q-26 0 -43 16t-17 44q0 10 2 24t8 41v4l32 150q10 47 18 92t14 92l95 27l12 -10l-72 -346q-3 -16 -5.5 -27t-2.5 -21q0 -8 5 -12.5t12 -4.5q15 0 36 16t45 46l19 -13q-17 -28 -40.5 -55.5t-53 -45t-64.5 -17.5zM227 550l73 144q13 28 26 40t28 12q17 0 27.5 -9.5t10.5 -24.5
t-7 -28.5t-28 -34.5l-109 -113zM374 550l72 144q13 28 26 40t29 12q17 0 27.5 -9.5t10.5 -24.5t-7 -28.5t-28 -34.5l-110 -113z" />
    <glyph glyph-name="Uogonek" unicode="&#x172;" horiz-adv-x="645" 
d="M205 622l-106 14l6 28h255l-5 -28l-114 -14h-36zM348 -233q-39 0 -61 21.5t-22 54.5q0 31 14 58t38 50.5t53 41.5v1q-17 -5 -37.5 -7.5t-41.5 -2.5q-55 0 -99.5 18t-70 58.5t-25.5 109.5q0 23 3.5 50.5t8.5 56.5l15 76q10 58 19 109t17 100.5t16 101.5h109l-70 -387
q-5 -26 -8.5 -50.5t-3.5 -47.5q0 -45 16 -74.5t44 -43t65 -13.5t66.5 10.5t53 34.5t41 65.5t28.5 103.5l75 402h38l-76 -407q-11 -60 -27.5 -105t-39 -76t-51.5 -52q-32 -24 -55 -50t-35.5 -50.5t-12.5 -47.5q0 -29 15.5 -44t41.5 -15q9 0 19.5 2.5t20.5 6.5l10 -20
q-19 -17 -42.5 -28t-48.5 -11zM593 625l-91 11l5 28h195l-6 -28l-85 -11h-18z" />
    <glyph glyph-name="uogonek" unicode="&#x173;" horiz-adv-x="549" 
d="M130 -14q-21 0 -37 9t-25 25.5t-9 40.5t5 48.5t10 48.5l55 247l14 -15l-96 16l4 21l177 49l12 -10l-64 -287q-3 -15 -6 -31t-5.5 -29.5t-2.5 -23.5q0 -18 9 -27t23 -9q19 0 40 9t48 27.5t60 47.5l9 -22h-8q-36 -39 -72.5 -69.5t-71.5 -48t-69 -17.5zM375 -233
q-39 0 -61 21.5t-22 54.5q0 30 13.5 55.5t35.5 48.5t49 41v27l22 -16q-13 -7 -22 -10t-19 -3q-26 0 -43 16t-17 44q0 10 2 25t8 42l2 10l30 142q10 47 18 92t14 92l95 27l12 -10l-72 -346q-3 -16 -5.5 -27t-2.5 -21q0 -8 5 -12.5t12 -4.5q15 0 36 16t45 46l19 -13
q-11 -18 -26.5 -36.5t-30.5 -34t-28 -25.5q-38 -28 -61 -64t-23 -71q0 -26 15.5 -40.5t41.5 -14.5q9 0 19 2t20 6l10 -20q-19 -18 -42.5 -28.5t-48.5 -10.5z" />
    <glyph glyph-name="Wcircumflex" unicode="&#x174;" horiz-adv-x="871" 
d="M173 622l-101 14l5 28h257l-5 -28l-122 -14h-34zM183 -5l-52 669h110l32 -545h-18l9 18l247 527h63l50 -545h-17l7 16l235 529h40l-304 -669h-50l-56 563h20l-7 -16l-258 -547h-51zM505 624l-92 12l5 28h248l-6 -28l-114 -14zM841 625l-93 11l6 28h195l-6 -28l-84 -11
h-18zM580 856l108 -130l-18 -18l-142 95h48l-180 -95l-12 20l153 128h43z" />
    <glyph glyph-name="wcircumflex" unicode="&#x175;" horiz-adv-x="724" 
d="M140 1q-1 56 -3.5 104t-5.5 91t-7 84t-9 81q-3 27 -9.5 35t-15.5 8q-12 0 -26 -14.5t-35 -49.5l-17 14q28 62 58 92t67 30t53 -21.5t21 -64.5q6 -43 10 -97t6.5 -113t2.5 -117l-15 1l5 9q36 59 68.5 122t61.5 129.5t53 134.5h64q4 -50 7.5 -100t6.5 -100l6 -100t6 -99
l-16 2l6 8q30 37 57.5 74.5t52.5 78t48 86.5q5 9 9 19l8 20l-13 -75l-16 54q-6 22 -10 38t-5 27t-1 20q0 35 16 50t41 15q12 0 22 -3.5t16 -9.5q4 -8 6 -17.5t2 -22.5q0 -19 -6 -40.5t-16 -43t-22 -44.5q-16 -32 -38 -68t-49.5 -74.5t-60 -77.5t-69.5 -77l-46 -5l-9 7
q-3 43 -5.5 86l-5 86t-5 85.5t-5.5 85.5l15 3l-6 -16q-15 -37 -34.5 -79t-43.5 -86t-51 -86.5t-57 -80.5l-53 -5zM571 535l-128 132h51l-178 -133l-17 19l156 171h42l96 -173z" />
    <glyph glyph-name="Ycircumflex" unicode="&#x176;" horiz-adv-x="577" 
d="M74 636l5 28h259l-5 -28l-114 -14h-42zM109 0l5 27l121 14h42l118 -14l-5 -27h-281zM262 212l-135 452h116l100 -359h-9l3 5l224 354h39l-290 -452h-48zM194 0l57 303h104q-11 -57 -19.5 -106t-16.5 -97t-16 -100h-109zM459 636l6 28h189l-6 -28l-83 -11h-21zM452 856
l108 -130l-18 -18l-142 95h48l-180 -95l-12 20l153 128h43z" />
    <glyph glyph-name="ycircumflex" unicode="&#x177;" horiz-adv-x="479" 
d="M-35 -247q-34 0 -59 16t-30 46q4 22 20.5 33t36.5 11q25 0 44 -13t38 -35l20 -20v-8h-28v7q15 8 31 20t31 26t28 27q42 34 74 76t64 87q24 40 43 80t34 80.5t27 83.5t22 89q11 46 20 72t22 37t33 11t31.5 -12.5t11.5 -32.5t-9 -43t-21 -46q-16 -32 -34.5 -65.5
t-42.5 -74.5q-13 -23 -26.5 -46.5t-28.5 -49t-32 -52.5t-37 -55q-20 -30 -45.5 -64t-55.5 -67t-64 -59q-19 -18 -38.5 -31t-39 -20.5t-40.5 -7.5zM164 -76q-5 77 -13 150.5t-16.5 140.5t-17.5 124q-3 28 -7 42t-9 18.5t-11 4.5q-13 0 -27 -15.5t-34 -48.5l-17 14
q29 63 59.5 92.5t66.5 29.5q25 0 39.5 -10.5t23.5 -32t13 -56.5q5 -36 9.5 -81.5t9 -94.5t7 -96t3.5 -88h7zM420 535l-128 132h51l-178 -133l-17 19l156 171h42l96 -173z" />
    <glyph glyph-name="Ydieresis" unicode="&#x178;" horiz-adv-x="577" 
d="M74 636l5 28h259l-5 -28l-114 -14h-42zM109 0l5 27l121 14h42l118 -14l-5 -27h-281zM262 212l-135 452h116l100 -359h-9l3 5l224 354h39l-290 -452h-48zM194 0l57 303h104q-11 -57 -19.5 -106t-16.5 -97t-16 -100h-109zM459 636l6 28h189l-6 -28l-83 -11h-21zM308 732
q-19 0 -34 12.5t-15 35.5q0 29 19 45.5t41 16.5t36 -13t14 -34q0 -29 -18.5 -46t-42.5 -17zM516 732q-19 0 -34.5 12.5t-15.5 35.5q0 29 19 45.5t42 16.5q21 0 35 -13t14 -34q0 -29 -18.5 -46t-41.5 -17z" />
    <glyph glyph-name="Zacute" unicode="&#x179;" horiz-adv-x="526" 
d="M-7 0l5 24l450 625l-12 -30l1 11h-135h-142l40 18l-84 -164h-34l39 180h439l-4 -25l-450 -624l11 30l-1 -11h155h143l-40 -18l88 170h34l-45 -186h-458zM287 731q24 24 49 47.5t49 46.5q21 20 35.5 27t29.5 7q18 0 28.5 -12t10.5 -26q0 -13 -10 -26.5t-39 -26.5
q-35 -15 -70 -29t-70 -29z" />
    <glyph glyph-name="zacute" unicode="&#x17a;" horiz-adv-x="448" 
d="M251 -24q-32 0 -60.5 12t-54.5 39.5t-53 72.5l23 29q36 -26 63.5 -40t54 -20t56.5 -6q19 0 37 3.5t34.5 10t28.5 13.5l6 -8l-16 -10q-28 23 -39 42t-11 35q0 26 14.5 40.5t36.5 16.5q19 -6 29.5 -23.5t10.5 -38.5q0 -31 -13 -61t-36 -54.5t-51.5 -38.5t-59.5 -14zM64 0
l-68 -8l-6 8q15 29 34.5 55t51.5 57q34 33 69 64.5t70.5 63t70.5 64t68 65.5l34 95l64 9l7 -9q-10 -25 -34.5 -57t-62.5 -69q-33 -32 -67 -63t-67.5 -60.5t-66.5 -59t-65 -59.5zM53 261l17 155l76 62q44 -13 79.5 -27t70 -31.5t73.5 -41.5l-35 -44q-42 11 -79 19.5t-75.5 16
t-87.5 15.5l62 43l-77 -171zM273 545q10 24 19.5 47t19.5 46.5t19 46.5q8 19 16.5 31.5t19 19t23.5 6.5q16 0 29 -10.5t13 -29.5q0 -13 -9 -29.5t-28 -34.5l-34.5 -34.5t-34.5 -35t-34 -35.5z" />
    <glyph glyph-name="Zdotaccent" unicode="&#x17b;" horiz-adv-x="526" 
d="M-7 0l5 24l450 625l-12 -30l1 11h-135h-142l40 18l-84 -164h-34l39 180h439l-4 -25l-450 -624l11 30l-1 -11h155h143l-40 -18l88 170h34l-45 -186h-458zM356 726q-23 0 -38 15t-15 39q0 31 21 52t48 21q24 0 39 -15t15 -40q0 -31 -21.5 -51.5t-48.5 -20.5z" />
    <glyph glyph-name="zdotaccent" unicode="&#x17c;" horiz-adv-x="448" 
d="M251 -24q-32 0 -60.5 12t-54.5 39.5t-53 72.5l23 29q36 -26 63.5 -40t54 -20t56.5 -6q19 0 37 3.5t34.5 10t28.5 13.5l6 -8l-16 -10q-28 23 -39 42t-11 35q0 26 14.5 40.5t36.5 16.5q19 -6 29.5 -23.5t10.5 -38.5q0 -31 -13 -61t-36 -54.5t-51.5 -38.5t-59.5 -14zM64 0
l-68 -8l-6 8q15 29 34.5 55t51.5 57q34 33 69 64.5t70.5 63t70.5 64t68 65.5l34 95l64 9l7 -9q-10 -25 -34.5 -57t-62.5 -69q-33 -32 -67 -63t-67.5 -60.5t-66.5 -59t-65 -59.5zM53 261l17 155l76 62q44 -13 79.5 -27t70 -31.5t73.5 -41.5l-35 -44q-42 11 -79 19.5t-75.5 16
t-87.5 15.5l62 43l-77 -171zM310 579q-22 0 -37.5 15t-15.5 39q0 32 21 52.5t48 20.5q25 0 39.5 -15t14.5 -39q0 -32 -21 -52.5t-49 -20.5z" />
    <glyph glyph-name="Zcaron" unicode="&#x17d;" horiz-adv-x="526" 
d="M-7 0l5 24l450 625l-12 -30l1 11h-135h-142l40 18l-84 -164h-34l39 180h439l-4 -25l-450 -624l11 30l-1 -11h155h143l-40 -18l88 170h34l-45 -186h-458zM241 863l137 -97h-43l175 97l13 -19l-147 -128h-49l-105 130z" />
    <glyph glyph-name="zcaron" unicode="&#x17e;" horiz-adv-x="448" 
d="M251 -24q-32 0 -60.5 12t-54.5 39.5t-53 72.5l23 29q36 -26 63.5 -40t54 -20t56.5 -6q19 0 37 3.5t34.5 10t28.5 13.5l6 -8l-16 -10q-28 23 -39 42t-11 35q0 26 14.5 40.5t36.5 16.5q19 -6 29.5 -23.5t10.5 -38.5q0 -31 -13 -61t-36 -54.5t-51.5 -38.5t-59.5 -14zM64 0
l-68 -8l-6 8q15 29 34.5 55t51.5 57q34 33 69 64.5t70.5 63t70.5 64t68 65.5l34 95l64 9l7 -9q-10 -25 -34.5 -57t-62.5 -69q-33 -32 -67 -63t-67.5 -60.5t-66.5 -59t-65 -59.5zM53 261l17 155l76 62q44 -13 79.5 -27t70 -31.5t73.5 -41.5l-35 -44q-42 11 -79 19.5t-75.5 16
t-87.5 15.5l62 43l-77 -171zM208 733l123 -131h-49l177 131l18 -18l-155 -171h-43l-93 173z" />
    <glyph glyph-name="longs" unicode="&#x17f;" horiz-adv-x="299" 
d="M-77 -250q-25 0 -45.5 6.5t-34 20t-18.5 33.5q3 20 19 31t35 11q16 0 29 -5.5t24 -16t23 -24.5l21 -26l-1 -4h-17v4q15 12 27.5 29.5t22.5 38.5q13 27 22 58t16 64t11 65q17 108 33.5 215.5t32.5 217.5q11 76 35 129.5t55 86t66 47.5t70 15q27 0 52.5 -9t43 -25t21.5 -38
q-3 -21 -17 -32t-31 -11q-21 0 -36.5 12.5t-32.5 35.5l-35 46v6h24v-6q-18 -8 -35 -24.5t-31.5 -43t-26 -66t-20.5 -95.5q-18 -112 -35.5 -227t-36.5 -229q-7 -42 -19 -81.5t-30 -74.5t-43 -63q-19 -22 -41 -37.5t-46 -24.5t-51 -9z" />
    <glyph glyph-name="uni018F" unicode="&#x18f;" horiz-adv-x="587" 
d="M248 -16q-73 0 -119 29t-68 79t-22 113q0 41 7.5 80.5t19.5 72.5h428l-7 -35h-327q-10 -34 -16 -72.5t-6 -78.5q0 -48 12.5 -83t37.5 -53.5t63 -18.5q41 0 74.5 25t60 68t45 97.5t28 112.5t9.5 113q0 67 -18.5 109t-51.5 62t-75 20q-46 0 -91 -18t-87 -53l-15 20
q31 34 65.5 57.5t73.5 36.5t85 13q67 0 116.5 -30t77 -89t27.5 -145q0 -59 -14.5 -120t-42.5 -117t-68 -100t-90.5 -69.5t-111.5 -25.5z" />
    <glyph glyph-name="florin" unicode="&#x192;" horiz-adv-x="501" 
d="M120 354l7 32h306l-6 -32h-307zM39 -103q-38 0 -65 15t-31 42q4 21 19 31.5t35 10.5q19 0 33 -8.5t30 -31.5l28 -38l-25 -3l-19 2q19 5 35.5 15t29.5 28q16 20 28 52.5t23 79t24 107.5l32 157q13 61 28 107t35.5 80t47.5 60q28 26 61.5 37.5t66.5 11.5q37 0 63 -14
t31 -39q-3 -22 -18 -33.5t-36 -11.5q-18 0 -32 9t-31 31l-28 39l29 2l16 -3q-20 -4 -36.5 -13.5t-29.5 -28.5q-15 -19 -27 -51.5t-22.5 -77.5t-23.5 -104l-31 -153q-13 -64 -29 -112t-36 -83.5t-48 -61.5t-61 -38t-66 -12z" />
    <glyph glyph-name="Ohorn" unicode="&#x1a0;" horiz-adv-x="629" 
d="M273 -16q-65 0 -116 28.5t-80.5 85t-29.5 139.5q0 73 16.5 139t47.5 121t73.5 96.5t94.5 64t111 22.5q66 0 117.5 -29.5t81 -86t29.5 -139.5q0 -73 -17 -138.5t-47.5 -121t-73.5 -96t-95 -63t-112 -22.5zM276 16q35 0 66 18.5t57 50.5t47 75t35 92.5t22 103t8 105.5
q0 57 -12.5 99t-39.5 64.5t-71 22.5q-35 0 -66 -18t-57 -50t-46.5 -75t-35 -92.5t-22 -102.5t-7.5 -106q0 -56 12.5 -98.5t39.5 -65.5t70 -23zM531 573v25q23 3 41 13t28.5 26.5t10.5 37.5q0 13 -4 25l-8 24t-4 25q0 19 11.5 31.5t30.5 12.5q10 0 18 -2.5t15 -9.5
q3 -7 4.5 -16t1.5 -19q0 -47 -19.5 -84t-52 -60.5t-73.5 -28.5z" />
    <glyph glyph-name="ohorn" unicode="&#x1a1;" horiz-adv-x="476" 
d="M196 -14q-45 0 -84 19.5t-62 59.5t-23 100q0 61 18.5 116.5t52.5 99.5t81 69.5t104 25.5q46 0 84 -19.5t61 -59t23 -99.5q0 -61 -18.5 -117t-52 -100t-80.5 -69.5t-104 -25.5zM200 17q25 0 47.5 17t41 47t32.5 69t21.5 83.5t7.5 89.5q0 65 -18 94t-53 29q-25 0 -47.5 -17
t-41.5 -47t-33 -69t-21.5 -83t-7.5 -90q0 -65 19 -94t53 -29zM377 373v25q23 3 41 13t28.5 26.5t10.5 37.5q0 13 -4 25l-8 24t-4 25q0 19 11.5 31.5t30.5 12.5q10 0 18 -2.5t15 -9.5q3 -7 4.5 -16t1.5 -19q0 -47 -19.5 -84t-52 -60.5t-73.5 -28.5z" />
    <glyph glyph-name="Uhorn" unicode="&#x1af;" horiz-adv-x="645" 
d="M96 170q0 23 3.5 50.5t8.5 56.5l15 76q10 58 19 109t17 100.5t16 101.5h109l-70 -387q-5 -26 -8.5 -50.5t-3.5 -47.5q0 -45 16 -74.5t44 -43t65 -13.5q50 0 86.5 19t62 66t40.5 129l75 402h38l-76 -407q-18 -100 -53 -160t-87.5 -86.5t-121.5 -26.5q-55 0 -99.5 18
t-70 58.5t-25.5 109.5zM609 637l3 27q35 0 55 9t20 29q0 12 -4 22t-8.5 20.5t-4.5 23.5q0 19 11 32t32 13q10 0 18 -3t14 -9q3 -7 4.5 -16.5t1.5 -19.5q0 -41 -16 -68.5t-47.5 -42.5t-78.5 -17zM99 636l6 28h255l-5 -28l-114 -14h-36zM502 636l5 28h107l-6 -39h-15z" />
    <glyph glyph-name="uhorn" unicode="&#x1b0;" horiz-adv-x="549" 
d="M130 -14q-21 0 -37 9t-25 25.5t-9 40.5t5 48.5t10 48.5l55 247l14 -15l-96 16l4 21l177 49l12 -10l-64 -287q-3 -15 -6 -31t-5.5 -29.5t-2.5 -23.5q0 -18 9 -27t23 -9q19 0 40 9t48 27.5t60 47.5l8 -26h-11q-35 -38 -71 -67t-70.5 -46.5t-67.5 -17.5zM371 -14
q-26 0 -43 16t-17 44q0 10 2 24t8 41v4l32 150q10 47 18 92t14 92l67 18q33 9 55.5 22.5t22.5 37.5q0 13 -4 23t-8 21t-4 23q0 20 11.5 32.5t31.5 12.5q10 0 18 -3t14 -10q3 -7 5 -16t2 -18q0 -40 -19.5 -71.5t-52 -51.5t-73.5 -26l41 23l-72 -346q-3 -16 -5.5 -27t-2.5 -21
q0 -8 5 -12.5t12 -4.5q15 0 36 16t45 46l19 -13q-17 -28 -40.5 -55.5t-53 -45t-64.5 -17.5z" />
    <glyph glyph-name="uni01CD" unicode="&#x1cd;" horiz-adv-x="621" 
d="M-34 0l5 27l84 12h20l88 -12l-5 -27h-192zM25 0l342 667h53l94 -667h-107l-72 557h8l-3 -6l-275 -551h-40zM167 226l5 33h258l-1 -33h-262zM314 0l5 27l118 14h45l96 -14l-6 -27h-258zM296 863l137 -97h-43l175 97l13 -19l-147 -128h-49l-105 130z" />
    <glyph glyph-name="uni01CE" unicode="&#x1ce;" horiz-adv-x="523" 
d="M126 -14q-25 0 -47 13t-36 40.5t-14 71.5q0 47 18.5 98t49 98.5t69.5 85.5t80.5 60.5t81.5 22.5q22 0 41.5 -7.5t36 -21.5t28.5 -34l-51 -39q-15 16 -35.5 30.5t-46.5 14.5q-17 0 -33.5 -6.5t-31.5 -18t-29 -27.5q-24 -29 -41.5 -68t-26.5 -80.5t-9 -76.5q0 -41 12 -63.5
t39 -22.5q18 0 39 11t47.5 35.5t58.5 64.5l6 -19h-3q-28 -42 -61 -79t-68.5 -60t-73.5 -23zM353 -14q-27 0 -45.5 17t-18.5 47q0 8 0.5 15.5t3 20.5t7.5 34l-1 3l63 300l6 3l89 55l13 -10l-75 -354q-3 -14 -5 -24.5t-2 -20.5q0 -8 5 -12.5t12 -4.5q15 0 36.5 16.5t44.5 45.5
l19 -13q-17 -28 -39.5 -55t-51 -45t-61.5 -18zM252 733l123 -131h-49l177 131l18 -18l-155 -171h-43l-93 173z" />
    <glyph glyph-name="uni01CF" unicode="&#x1cf;" horiz-adv-x="331" 
d="M-5 0l5 27l112 14h37l110 -14l-5 -27h-259zM69 0l67 353q14 77 27 155.5t25 155.5h110l-67 -354q-15 -78 -28 -155.5t-25 -154.5h-109zM107 636l6 28h259l-5 -28l-111 -14h-38zM144 863l137 -97h-43l175 97l13 -19l-147 -128h-49l-105 130z" />
    <glyph glyph-name="uni01D0" unicode="&#x1d0;" horiz-adv-x="294" 
d="M57 40q0 14 3.5 33.5t8.5 43.5l60 286l16 -14l-97 17l4 21l175 49l12 -10l-71 -344q-4 -16 -6 -28t-2 -20q0 -9 5 -14t12 -5q14 0 34.5 16t45.5 46l18 -13q-17 -29 -40 -56t-52 -44.5t-64 -17.5q-26 0 -44 14t-18 40zM109 733l123 -131h-49l177 131l18 -18l-155 -171h-43
l-93 173z" />
    <glyph glyph-name="uni01D1" unicode="&#x1d1;" horiz-adv-x="629" 
d="M273 -16q-65 0 -116 28.5t-80.5 85t-29.5 139.5q0 73 16.5 139t47.5 121t73.5 96.5t94.5 64t111 22.5q66 0 117.5 -29.5t81 -86t29.5 -139.5q0 -73 -17 -138.5t-47.5 -121t-73.5 -96t-95 -63t-112 -22.5zM276 16q35 0 66 18.5t57 50.5t47 75t35 92.5t22 103t8 105.5
q0 57 -12.5 99t-39.5 64.5t-71 22.5q-35 0 -66 -18t-57 -50t-46.5 -75t-35 -92.5t-22 -102.5t-7.5 -106q0 -56 12.5 -98.5t39.5 -65.5t70 -23zM287 863l137 -97h-43l175 97l13 -19l-147 -128h-49l-105 130z" />
    <glyph glyph-name="uni01D2" unicode="&#x1d2;" horiz-adv-x="476" 
d="M196 -14q-45 0 -84 19.5t-62 59.5t-23 100q0 61 18.5 116.5t52.5 99.5t81 69.5t104 25.5q46 0 84 -19.5t61 -59t23 -99.5q0 -61 -18.5 -117t-52 -100t-80.5 -69.5t-104 -25.5zM200 17q25 0 47.5 17t41 47t32.5 69t21.5 83.5t7.5 89.5q0 65 -18 94t-53 29q-25 0 -47.5 -17
t-41.5 -47t-33 -69t-21.5 -83t-7.5 -90q0 -65 19 -94t53 -29zM208 733l123 -131h-49l177 131l18 -18l-155 -171h-43l-93 173z" />
    <glyph glyph-name="uni01D3" unicode="&#x1d3;" horiz-adv-x="645" 
d="M205 622l-106 14l6 28h255l-5 -28l-114 -14h-36zM291 -16q-55 0 -99.5 18t-70 58.5t-25.5 109.5q0 23 3.5 50.5t8.5 56.5l15 76q10 58 19 109t17 100.5t16 101.5h109l-70 -387q-5 -26 -8.5 -50.5t-3.5 -47.5q0 -45 16 -74.5t44 -43t65 -13.5q50 0 86.5 19t62 66t40.5 129
l75 402h38l-76 -407q-18 -100 -53 -160t-87.5 -86.5t-121.5 -26.5zM593 625l-91 11l5 28h195l-6 -28l-85 -11h-18zM324 863l137 -97h-43l175 97l13 -19l-147 -128h-49l-105 130z" />
    <glyph glyph-name="uni01D4" unicode="&#x1d4;" horiz-adv-x="549" 
d="M130 -14q-21 0 -37 9t-25 25.5t-9 40.5t5 48.5t10 48.5l55 247l14 -15l-96 16l4 21l177 49l12 -10l-64 -287q-3 -15 -6 -31t-5.5 -29.5t-2.5 -23.5q0 -18 9 -27t23 -9q19 0 40 9t48 27.5t60 47.5l8 -26h-11q-35 -38 -71 -67t-70.5 -46.5t-67.5 -17.5zM371 -14
q-26 0 -43 16t-17 44q0 10 2 24t8 41v4l32 150q10 47 18 92t14 92l95 27l12 -10l-72 -346q-3 -16 -5.5 -27t-2.5 -21q0 -8 5 -12.5t12 -4.5q15 0 36 16t45 46l19 -13q-17 -28 -40.5 -55.5t-53 -45t-64.5 -17.5zM236 733l123 -131h-49l177 131l18 -18l-155 -171h-43l-93 173z
" />
    <glyph glyph-name="uni01D5" unicode="&#x1d5;" horiz-adv-x="645" 
d="M205 622l-106 14l6 28h255l-5 -28l-114 -14h-36zM291 -16q-55 0 -99.5 18t-70 58.5t-25.5 109.5q0 23 3.5 50.5t8.5 56.5l15 76q10 58 19 109t17 100.5t16 101.5h109l-70 -387q-5 -26 -8.5 -50.5t-3.5 -47.5q0 -45 16 -74.5t44 -43t65 -13.5q50 0 86.5 19t62 66t40.5 129
l75 402h38l-76 -407q-18 -100 -53 -160t-87.5 -86.5t-121.5 -26.5zM593 625l-91 11l5 28h195l-6 -28l-85 -11h-18zM335 728q-19 0 -34.5 13t-15.5 36q0 29 19.5 45.5t41.5 16.5t36 -13t14 -35q0 -28 -18 -45.5t-43 -17.5zM549 728q-19 0 -34.5 13t-15.5 36q0 29 19 45.5
t42 16.5q21 0 35.5 -13t14.5 -35q0 -28 -19 -45.5t-42 -17.5zM327 886l13 61h264l-13 -61h-264z" />
    <glyph glyph-name="uni01D6" unicode="&#x1d6;" horiz-adv-x="549" 
d="M130 -14q-21 0 -37 9t-25 25.5t-9 40.5t5 48.5t10 48.5l55 247l14 -15l-96 16l4 21l177 49l12 -10l-64 -287q-3 -15 -6 -31t-5.5 -29.5t-2.5 -23.5q0 -18 9 -27t23 -9q19 0 40 9t48 27.5t60 47.5l8 -26h-11q-35 -38 -71 -67t-70.5 -46.5t-67.5 -17.5zM371 -14
q-26 0 -43 16t-17 44q0 10 2 24t8 41v4l32 150q10 47 18 92t14 92l95 27l12 -10l-72 -346q-3 -16 -5.5 -27t-2.5 -21q0 -8 5 -12.5t12 -4.5q15 0 36 16t45 46l19 -13q-17 -28 -40.5 -55.5t-53 -45t-64.5 -17.5zM238 553q-19 0 -34.5 13t-15.5 36q0 29 19.5 46t41.5 17
t36.5 -13t14.5 -35q0 -29 -18.5 -46.5t-43.5 -17.5zM434 553q-20 0 -35 13t-15 36q0 29 19 46t42 17q21 0 35.5 -13t14.5 -35q0 -29 -18.5 -46.5t-42.5 -17.5zM243 710l13 63h233l-13 -63h-233z" />
    <glyph glyph-name="uni01D7" unicode="&#x1d7;" horiz-adv-x="645" 
d="M205 622l-106 14l6 28h255l-5 -28l-114 -14h-36zM291 -16q-55 0 -99.5 18t-70 58.5t-25.5 109.5q0 23 3.5 50.5t8.5 56.5l15 76q10 58 19 109t17 100.5t16 101.5h109l-70 -387q-5 -26 -8.5 -50.5t-3.5 -47.5q0 -45 16 -74.5t44 -43t65 -13.5q50 0 86.5 19t62 66t40.5 129
l75 402h38l-76 -407q-18 -100 -53 -160t-87.5 -86.5t-121.5 -26.5zM593 625l-91 11l5 28h195l-6 -28l-85 -11h-18zM332 726q-20 0 -35 13t-15 35q0 30 19 46.5t42 16.5q21 0 35 -13t14 -34q0 -29 -18.5 -46.5t-41.5 -17.5zM447 836l-16 20l65 78q23 29 38 40.5t32 11.5
q15 0 27 -10t12 -27q0 -15 -7 -25t-22 -18.5t-39 -19.5zM551 726q-18 0 -33 13t-15 35q0 30 18.5 46.5t40.5 16.5t36 -13t14 -34q0 -29 -18 -46.5t-43 -17.5z" />
    <glyph glyph-name="uni01D8" unicode="&#x1d8;" horiz-adv-x="549" 
d="M130 -14q-21 0 -37 9t-25 25.5t-9 40.5t5 48.5t10 48.5l55 247l14 -15l-96 16l4 21l177 49l12 -10l-64 -287q-3 -15 -6 -31t-5.5 -29.5t-2.5 -23.5q0 -18 9 -27t23 -9q19 0 40 9t48 27.5t60 47.5l8 -26h-11q-35 -38 -71 -67t-70.5 -46.5t-67.5 -17.5zM371 -14
q-26 0 -43 16t-17 44q0 10 2 24t8 41v4l32 150q10 47 18 92t14 92l95 27l12 -10l-72 -346q-3 -16 -5.5 -27t-2.5 -21q0 -8 5 -12.5t12 -4.5q15 0 36 16t45 46l19 -13q-17 -28 -40.5 -55.5t-53 -45t-64.5 -17.5zM233 550q-19 0 -34.5 13t-15.5 36q0 30 19 47t43 17
q21 0 35.5 -13.5t14.5 -35.5q0 -29 -18.5 -46.5t-43.5 -17.5zM342 663l-19 15l48 85q13 24 23.5 38t20.5 19.5t22 5.5q14 0 25.5 -10t11.5 -26q0 -13 -5.5 -23t-17.5 -20t-32 -24zM432 550q-20 0 -35 13t-15 36q0 30 19.5 47t42.5 17q21 0 35 -13.5t14 -35.5
q0 -29 -18 -46.5t-43 -17.5z" />
    <glyph glyph-name="uni01D9" unicode="&#x1d9;" horiz-adv-x="645" 
d="M205 622l-106 14l6 28h255l-5 -28l-114 -14h-36zM291 -16q-55 0 -99.5 18t-70 58.5t-25.5 109.5q0 23 3.5 50.5t8.5 56.5l15 76q10 58 19 109t17 100.5t16 101.5h109l-70 -387q-5 -26 -8.5 -50.5t-3.5 -47.5q0 -45 16 -74.5t44 -43t65 -13.5q50 0 86.5 19t62 66t40.5 129
l75 402h38l-76 -407q-18 -100 -53 -160t-87.5 -86.5t-121.5 -26.5zM593 625l-91 11l5 28h195l-6 -28l-85 -11h-18zM335 728q-19 0 -34.5 13t-15.5 36q0 29 19.5 45.5t41.5 16.5t36 -13t14 -35q0 -28 -18 -45.5t-43 -17.5zM430 852l-105 129l20 17l137 -96h-44l175 96l14 -19
l-148 -127h-49zM549 728q-19 0 -34.5 13t-15.5 36q0 29 19 45.5t42 16.5q21 0 35.5 -13t14.5 -35q0 -28 -19 -45.5t-42 -17.5z" />
    <glyph glyph-name="uni01DA" unicode="&#x1da;" horiz-adv-x="549" 
d="M130 -14q-21 0 -37 9t-25 25.5t-9 40.5t5 48.5t10 48.5l55 247l14 -15l-96 16l4 21l177 49l12 -10l-64 -287q-3 -15 -6 -31t-5.5 -29.5t-2.5 -23.5q0 -18 9 -27t23 -9q19 0 40 9t48 27.5t60 47.5l8 -26h-11q-35 -38 -71 -67t-70.5 -46.5t-67.5 -17.5zM371 -14
q-26 0 -43 16t-17 44q0 10 2 24t8 41v4l32 150q10 47 18 92t14 92l95 27l12 -10l-72 -346q-3 -16 -5.5 -27t-2.5 -21q0 -8 5 -12.5t12 -4.5q15 0 36 16t45 46l19 -13q-17 -28 -40.5 -55.5t-53 -45t-64.5 -17.5zM238 553q-19 0 -34.5 13t-15.5 36q0 29 19.5 46t41.5 17
t36.5 -13t14.5 -35q0 -29 -18.5 -46.5t-43.5 -17.5zM329 685l-108 131l19 17l140 -96h-45l177 97l15 -20l-151 -129h-47zM434 553q-20 0 -35 13t-15 36q0 29 19 46t42 17q21 0 35.5 -13t14.5 -35q0 -29 -18.5 -46.5t-42.5 -17.5z" />
    <glyph glyph-name="uni01DB" unicode="&#x1db;" horiz-adv-x="645" 
d="M205 622l-106 14l6 28h255l-5 -28l-114 -14h-36zM291 -16q-55 0 -99.5 18t-70 58.5t-25.5 109.5q0 23 3.5 50.5t8.5 56.5l15 76q10 58 19 109t17 100.5t16 101.5h109l-70 -387q-5 -26 -8.5 -50.5t-3.5 -47.5q0 -45 16 -74.5t44 -43t65 -13.5q50 0 86.5 19t62 66t40.5 129
l75 402h38l-76 -407q-18 -100 -53 -160t-87.5 -86.5t-121.5 -26.5zM593 625l-91 11l5 28h195l-6 -28l-85 -11h-18zM332 726q-20 0 -35 13t-15 35q0 30 19 46.5t42 16.5q21 0 35 -13t14 -34q0 -29 -18.5 -46.5t-41.5 -17.5zM470 836l-90 50q-24 11 -39 19.5t-22 18t-7 24.5
q0 17 12.5 27.5t26.5 10.5q17 0 31.5 -11.5t38.5 -40.5l65 -78zM551 726q-18 0 -33 13t-15 35q0 30 18.5 46.5t40.5 16.5t36 -13t14 -34q0 -29 -18 -46.5t-43 -17.5z" />
    <glyph glyph-name="uni01DC" unicode="&#x1dc;" horiz-adv-x="549" 
d="M130 -14q-21 0 -37 9t-25 25.5t-9 40.5t5 48.5t10 48.5l55 247l14 -15l-96 16l4 21l177 49l12 -10l-64 -287q-3 -15 -6 -31t-5.5 -29.5t-2.5 -23.5q0 -18 9 -27t23 -9q19 0 40 9t48 27.5t60 47.5l8 -26h-11q-35 -38 -71 -67t-70.5 -46.5t-67.5 -17.5zM371 -14
q-26 0 -43 16t-17 44q0 10 2 24t8 41v4l32 150q10 47 18 92t14 92l95 27l12 -10l-72 -346q-3 -16 -5.5 -27t-2.5 -21q0 -8 5 -12.5t12 -4.5q15 0 36 16t45 46l19 -13q-17 -28 -40.5 -55.5t-53 -45t-64.5 -17.5zM233 550q-19 0 -34.5 13t-15.5 36q0 30 19 47t43 17
q21 0 35.5 -13.5t14.5 -35.5q0 -29 -18.5 -46.5t-43.5 -17.5zM349 663l-72 57q-28 21 -40.5 35.5t-12.5 31.5q0 18 12.5 28.5t26.5 10.5q19 0 32 -14.5t29 -48.5l45 -84zM432 550q-20 0 -35 13t-15 36q0 30 19.5 47t42.5 17q21 0 35 -13.5t14 -35.5q0 -29 -18 -46.5
t-43 -17.5z" />
    <glyph glyph-name="Gcaron" unicode="&#x1e6;" horiz-adv-x="615" 
d="M46 251q0 63 16.5 124.5t47.5 116.5t75.5 97t102 66.5t125.5 24.5q28 0 58 -4.5t59.5 -14.5t54.5 -29l-22 -154h-33l-27 164l30 -26q-26 18 -55 25t-58 7q-51 0 -93 -25t-74.5 -68t-54.5 -96.5t-33 -112t-11 -114.5q0 -70 21 -118.5t58.5 -73t87.5 -24.5q27 0 55 6t58 19
l-36 -27l13 71q12 62 21.5 121.5t17.5 115.5h103l-55 -290q-44 -24 -90 -36t-97 -12q-82 0 -141.5 32t-91.5 92t-32 143zM361 295l5 27h245l-5 -27l-100 -14h-31zM307 863l137 -97h-43l175 97l13 -19l-147 -128h-49l-105 130z" />
    <glyph glyph-name="gcaron" unicode="&#x1e7;" horiz-adv-x="484" 
d="M115 -248q-50 0 -85 12.5t-54 35t-19 54.5q0 35 21 63.5t55.5 50t74.5 35.5l10 -8q-36 -23 -58.5 -51.5t-22.5 -63.5q0 -40 34 -63.5t90 -23.5q51 0 87 13.5t55 37t19 51.5q0 20 -8.5 34.5t-29.5 24.5t-60 14l-98 10q-9 1 -18 3l-18 4v2q-30 9 -44.5 27.5t-14.5 42.5
q0 38 30 68t80 59v6l8 -14q-28 -28 -36 -44t-8 -28q0 -14 12.5 -25.5t42.5 -14.5l108 -11q52 -6 82 -20.5t43.5 -36.5t13.5 -52q0 -38 -21.5 -72.5t-61 -61.5t-92.5 -42.5t-117 -15.5zM199 144q-41 0 -74 14.5t-51.5 43.5t-18.5 70q0 43 14.5 80t40.5 65t61.5 44.5
t77.5 16.5q38 0 68 -13.5t48 -39.5t19 -64l-4 3q10 51 23.5 78.5t31.5 38t39 10.5q10 0 18 -1t14 -5q3 -4 5 -10.5t2 -12.5q0 -36 -30.5 -49.5t-84.5 -22.5l21 21q-4 -11 -9.5 -28t-11 -36.5t-10.5 -38.5q-8 -36 -25 -66t-40.5 -52t-54.5 -34t-69 -12zM213 171
q18 0 34.5 10.5t29 31.5t19.5 52t7 72q0 57 -17.5 85.5t-46.5 28.5q-21 0 -37.5 -12t-28.5 -33t-18 -51t-6 -66q0 -34 7 -61t21 -42t36 -15zM186 733l123 -131h-49l177 131l18 -18l-155 -171h-43l-93 173z" />
    <glyph glyph-name="uni01F8" unicode="&#x1f8;" horiz-adv-x="656" 
d="M-12 0l5 27l90 12h20l98 -12l-5 -27h-208zM66 0l122 652h37l-60 -323l-61 -329h-38zM499 636l6 28h206l-6 -28l-83 -11h-20zM534 148l-38 -49l43 230l62 335h37l-124 -670h-41l-281 584l-3 6l-21 44l-65 8l6 28h163l248 -516h14zM463 733l-14 -21q-34 14 -67.5 28.5
t-66.5 29.5q-29 13 -38.5 26.5t-9.5 26.5q0 14 11 26t28 12q14 0 28.5 -7t35.5 -28q23 -22 46.5 -45.5t46.5 -47.5z" />
    <glyph glyph-name="uni01F9" unicode="&#x1f9;" horiz-adv-x="548" 
d="M56 -8l-11 10l84 401l21 -14l-102 17l4 21l174 49l13 -10l-24 -114l-1 -8l-29 -139q-10 -50 -19 -101.5t-17 -103.5zM369 -14q-26 0 -43 14t-17 39q0 15 3.5 34t9.5 43l39 169q6 23 10.5 46.5t4.5 36.5q0 19 -8.5 27.5t-22.5 8.5q-17 0 -38.5 -9t-48 -27t-58.5 -46l-6 25
h6q34 37 70 66t72 46t69 17q31 0 49 -18.5t18 -55.5q0 -22 -4 -45t-10 -46l-44 -189q-4 -16 -6 -28.5t-2 -19.5q0 -9 4.5 -14t11.5 -5q14 0 36 16t46 46l18 -13q-17 -28 -40.5 -55.5t-53 -45t-65.5 -17.5zM353 545l-19 -12q-17 19 -33.5 36t-33 35t-34.5 36q-18 17 -27 32
t-9 28q0 19 12 31t29 12q20 0 34 -14t25 -44q10 -23 19 -46.5t18.5 -46.5t18.5 -47z" />
    <glyph glyph-name="uni0218" unicode="&#x218;" horiz-adv-x="466" 
d="M14 31l30 154h35l15 -169l-37 34q28 -15 60.5 -23.5t65.5 -8.5q42 0 73 17t48 45.5t17 62.5q0 32 -14 58.5t-38 51t-56 50.5q-35 28 -61.5 56t-40.5 60t-14 70q0 56 26.5 99t75 67.5t113.5 24.5q29 0 58.5 -5.5t57 -15.5t50.5 -27l-29 -144h-35l-17 157l32 -31
q-28 17 -53.5 24.5t-52.5 7.5q-36 0 -67.5 -13t-50 -39t-18.5 -66q0 -29 12.5 -53.5t34 -46.5t49.5 -45q38 -30 68 -59.5t47 -63t17 -76.5q0 -61 -28 -105.5t-80 -69.5t-122 -25q-29 0 -61 5.5t-60 16t-50 25.5zM230 -116q0 -38 -14.5 -64t-39.5 -43t-56 -27l-9 23
q19 9 33.5 17.5t24 19.5t15.5 25l2 -18q-27 9 -42 24.5t-15 37.5q0 23 15 38.5t41 15.5q11 0 20.5 -3.5t18.5 -10.5q3 -9 4.5 -17.5t1.5 -17.5z" />
    <glyph glyph-name="uni0219" unicode="&#x219;" horiz-adv-x="373" 
d="M140 -14q-36 0 -63.5 11.5t-44.5 32.5t-21 50q3 18 14 28t28 10q22 0 35 -12t20 -36l21 -66l-53 18q16 -4 30 -6t32 -2q27 0 47 11t31 30t11 40q0 32 -21 55.5t-53 49.5q-21 17 -39.5 35.5t-30 42t-11.5 53.5q0 40 20 73t56 52.5t86 19.5q35 0 61 -10t42.5 -29t22.5 -48
q-3 -17 -14 -26t-29 -9q-19 0 -32.5 12.5t-23.5 37.5l-22 55l46 -15q-9 1 -20 2.5t-24 1.5q-42 0 -63 -25.5t-21 -54.5q0 -32 20.5 -55.5t51.5 -48.5q24 -19 44 -38.5t31.5 -42.5t11.5 -54q0 -40 -20.5 -72.5t-60 -51.5t-95.5 -19zM171 -116q0 -38 -14.5 -64t-39.5 -43
t-56 -27l-9 23q19 9 33.5 17.5t24 19.5t15.5 25l2 -18q-27 9 -42 24.5t-15 37.5q0 23 15 38.5t41 15.5q11 0 20.5 -3.5t18.5 -10.5q3 -9 4.5 -17.5t1.5 -17.5z" />
    <glyph glyph-name="uni021A" unicode="&#x21a;" horiz-adv-x="563" 
d="M67 477l39 187h511l-23 -187h-32l-27 178l39 -25h-437l50 25l-86 -178h-34zM101 0l6 27l123 14h40l118 -14l-5 -27h-282zM187 0l67 354q14 77 27.5 155t25.5 155h109l-67 -354q-14 -78 -27.5 -155.5t-25.5 -154.5h-109zM282 -116q0 -38 -14.5 -64t-39.5 -43t-56 -27
l-9 23q19 9 33.5 17.5t24 19.5t15.5 25l2 -18q-27 9 -42 24.5t-15 37.5q0 23 15 38.5t41 15.5q11 0 20.5 -3.5t18.5 -10.5q3 -9 4.5 -17.5t1.5 -17.5z" />
    <glyph glyph-name="uni021B" unicode="&#x21b;" horiz-adv-x="315" 
d="M41 428l3 26l118 14v-6h178l-8 -36l-173 2h-4h-114zM109 -14q-27 0 -43.5 15t-16.5 41q0 14 3.5 33.5t8.5 43.5l69 328l87 162h44l-103 -489q-3 -16 -5 -27t-2 -20t4.5 -13.5t11.5 -4.5q11 0 23.5 7t27 21t31.5 34l18 -13q-17 -29 -40.5 -56t-53 -44.5t-64.5 -17.5z
M155 -116q0 -38 -14.5 -64t-39.5 -43t-56 -27l-9 23q19 9 33.5 17.5t24 19.5t15.5 25l2 -18q-27 9 -42 24.5t-15 37.5q0 23 15 38.5t41 15.5q11 0 20.5 -3.5t18.5 -10.5q3 -9 4.5 -17.5t1.5 -17.5z" />
    <glyph glyph-name="uni0237" unicode="&#x237;" horiz-adv-x="264" 
d="M-83 -249l-6 21q16 7 27.5 15t22 18t19.5 22q17 22 29 52t22 67.5t19 84.5l75 373l22 -15l-101 17l3 21l174 49l13 -10l-91 -440q-8 -44 -22 -83t-32.5 -71t-45.5 -57q-23 -25 -54.5 -42t-73.5 -22z" />
    <glyph glyph-name="uni0251" unicode="&#x251;" horiz-adv-x="523" 
d="M126 -14q-25 0 -47 13t-36 40.5t-14 71.5q0 47 18.5 98t49 98.5t69.5 85.5t80.5 60.5t81.5 22.5q22 0 41.5 -7.5t36 -21.5t28.5 -34l-51 -39q-15 16 -35.5 30.5t-46.5 14.5q-17 0 -33.5 -6.5t-31.5 -18t-29 -27.5q-24 -29 -41.5 -68t-26.5 -80.5t-9 -76.5q0 -41 12 -63.5
t39 -22.5q18 0 39 11t47.5 35.5t58.5 64.5l6 -19h-3q-28 -42 -61 -79t-68.5 -60t-73.5 -23zM353 -14q-27 0 -45.5 17t-18.5 47q0 8 0.5 15.5t3 20.5t7.5 34l-1 3l63 300l6 3l89 55l13 -10l-75 -354q-3 -14 -5 -24.5t-2 -20.5q0 -8 5 -12.5t12 -4.5q15 0 36.5 16.5t44.5 45.5
l19 -13q-17 -28 -39.5 -55t-51 -45t-61.5 -18z" />
    <glyph glyph-name="uni0259" unicode="&#x259;" horiz-adv-x="416" 
d="M119 -14q-51 0 -79.5 23.5t-28.5 64.5q0 30 17 59t54.5 56.5t99 52.5t151.5 47l2 -24q-92 -25 -144.5 -57t-74 -67t-21.5 -71q0 -25 11.5 -38.5t31.5 -13.5q22 0 49.5 20.5t52 57t40.5 85t16 104.5q0 61 -28.5 90t-70.5 29q-26 0 -50.5 -10.5t-45 -27t-35.5 -34.5l-18 12
q21 39 49 68.5t64 46.5t82 17q43 0 77 -19t53 -56.5t19 -91.5q0 -63 -22 -121t-60.5 -103.5t-87.5 -72t-103 -26.5z" />
    <glyph glyph-name="uni0261" unicode="&#x261;" horiz-adv-x="486" 
d="M116 -250q-42 0 -74.5 13.5t-50.5 39.5t-21 66q5 17 18 28t31 11q15 0 26 -6.5t17.5 -21t9.5 -38.5l10 -73l-43 22q19 -7 38 -9.5t33 -2.5q40 0 68.5 14t49.5 38q18 22 30 52.5t19.5 68t13 80t9.5 88.5l1 3l60 300l8 5l88 53l13 -9l-29 -138l-45 -220q-6 -57 -15.5 -105
t-23 -87t-33 -69.5t-46.5 -51.5q-21 -18 -46 -29t-53.5 -16.5t-62.5 -5.5zM127 -11q-25 0 -47.5 13t-36 40.5t-13.5 71.5q0 47 18 97.5t48.5 97.5t69.5 84.5t80.5 60t81.5 22.5q22 0 41.5 -7.5t36 -21.5t28.5 -34l-51 -39q-15 16 -35.5 30.5t-46.5 14.5q-16 0 -31.5 -5.5
t-30.5 -16t-28 -25.5q-25 -27 -43.5 -67.5t-28 -82t-9.5 -77.5q0 -41 12 -63.5t39 -22.5q18 0 39 11t47.5 35.5t58.5 64.5l9 -19h-6q-28 -42 -60.5 -79t-68 -60t-73.5 -23z" />
    <glyph glyph-name="uni02B0" unicode="&#x2b0;" horiz-adv-x="373" 
d="M103 417l-9 7l85 420l18 -14l-69 12l3 14l127 33l9 -7l-49 -233l-1 -6l-41 -221zM322 413q-19 0 -32 9.5t-13 26.5q0 12 3 26t6 27l25 105q3 14 5.5 28t2.5 22q0 10 -5 15.5t-14 5.5q-17 0 -40 -12t-52 -36l-8 16h7q35 37 71.5 60.5t72.5 23.5q21 0 34.5 -12.5
t13.5 -37.5q0 -14 -2 -29t-6 -29l-28 -119q-6 -24 -5 -32.5t11 -8.5q8 0 21.5 9t29.5 29l14 -9q-12 -19 -28 -37t-37.5 -29.5t-46.5 -11.5z" />
    <glyph glyph-name="uni02B2" unicode="&#x2b2;" horiz-adv-x="189" 
d="M221 797q-18 0 -31 11t-13 30q0 22 15.5 36.5t36.5 14.5q20 0 32 -11t12 -30q0 -21 -15.5 -36t-36.5 -15zM15 263l-4 15q17 7 29.5 15.5t21.5 20.5q15 19 24 50.5t19 78.5l48 237l15 -10l-68 11l3 15l126 34l9 -7l-57 -277q-8 -45 -23 -78.5t-38 -56.5q-19 -20 -44 -31.5
t-61 -16.5z" />
    <glyph glyph-name="uni02B3" unicode="&#x2b3;" horiz-adv-x="294" 
d="M202 565l-11 30h11q17 40 36 70t40.5 47.5t45.5 17.5q15 0 29 -7t19 -24q0 -18 -11.5 -31.5t-30.5 -13.5q-16 0 -29 8t-33 30l20 2v-3q-19 -17 -34.5 -37.5t-28 -42.5t-23.5 -46zM101 424l54 256l15 -10l-68 11l2 15l121 34l9 -8l-20 -111l2 -4l-37 -185l-69 -5z" />
    <glyph glyph-name="uni02B7" unicode="&#x2b7;" horiz-adv-x="503" 
d="M167 419q-2 34 -4 65t-4.5 60.5t-5.5 56.5t-7 52q-2 15 -6 20t-10 5q-8 0 -17.5 -9.5t-22.5 -29.5l-12 10q19 42 41 61.5t49 19.5t38.5 -16t15.5 -45q4 -23 7 -55.5t5.5 -69.5t2.5 -73l-8 1l4 6q37 60 64 119.5t48 119.5h55q4 -41 7.5 -83l7 -84t7.5 -85l-11 2l6 7
q18 22 34.5 43.5t32 46t31.5 54.5q3 6 6.5 12t6.5 13l-11 -54q-13 36 -18.5 54.5t-6.5 27.5t-1 14q0 25 11.5 35.5t30.5 10.5q8 0 15.5 -2.5t11.5 -5.5q4 -7 6 -15t2 -16q0 -19 -8 -39.5t-21 -42.5q-11 -20 -26 -43t-33 -47.5t-40 -49t-46 -49.5l-46 -2q-2 23 -4 49.5
t-4.5 54.5t-5 56.5t-4.5 53.5h7l-2 -7q-14 -35 -32 -70t-39 -69t-45 -66z" />
    <glyph glyph-name="uni02B8" unicode="&#x2b8;" horiz-adv-x="337" 
d="M-8 309q3 16 14.5 23.5t26.5 7.5q18 0 33.5 -10.5t38.5 -36.5v-7h-19v5q21 11 39 27.5t33 30.5q12 9 23 20t21 23l20 24t19 24q15 23 27 47.5t21 50.5t16.5 54t13.5 57q9 46 20 64t33 18q16 0 24.5 -9t8.5 -23q0 -15 -6 -30.5t-15 -32.5q-11 -20 -24 -42t-27 -45
q-11 -18 -23.5 -38t-27 -41.5t-32.5 -45.5q-19 -26 -46 -58t-59 -58q-21 -19 -42.5 -30.5t-46.5 -11.5q-24 0 -42 11t-22 32zM248 436h8l-70 -69q-4 51 -10 100t-13 93.5t-14 80.5q-5 24 -9 30.5t-10 6.5q-8 0 -17.5 -9.5t-22.5 -29.5l-12 10q20 43 42 62t48 19
q27 0 39.5 -16.5t17.5 -50.5q5 -29 10 -69t8.5 -81t4.5 -77z" />
    <glyph glyph-name="quoteleft" unicode="&#x2018;" horiz-adv-x="261" 
d="M188 483q-15 0 -27 5t-23 15q-4 9 -6 17t-2 21q0 47 18.5 85.5t52 67.5t79.5 48l12 -24q-30 -16 -50.5 -31.5t-34.5 -34.5t-24 -45l-4 19l33 -15q23 -11 33 -26t10 -35q0 -26 -17.5 -46.5t-49.5 -20.5z" />
    <glyph glyph-name="quoteleft" unicode="&#x2bb;" horiz-adv-x="261" 
d="M188 483q-15 0 -27 5t-23 15q-4 9 -6 17t-2 21q0 47 18.5 85.5t52 67.5t79.5 48l12 -24q-30 -16 -50.5 -31.5t-34.5 -34.5t-24 -45l-4 19l33 -15q23 -11 33 -26t10 -35q0 -26 -17.5 -46.5t-49.5 -20.5z" />
    <glyph glyph-name="quoteright" unicode="&#x2019;" horiz-adv-x="261" 
d="M228 742q15 0 27 -5t23 -15q4 -9 6 -17t2 -21q0 -47 -18.5 -85.5t-52 -67.5t-79.5 -48l-12 24q30 16 50.5 31.5t34.5 34.5t24 45l4 -19l-33 15q-23 11 -33 26t-10 35q0 26 17.5 46.5t49.5 20.5z" />
    <glyph glyph-name="quoteright" unicode="&#x2bc;" horiz-adv-x="261" 
d="M228 742q15 0 27 -5t23 -15q4 -9 6 -17t2 -21q0 -47 -18.5 -85.5t-52 -67.5t-79.5 -48l-12 24q30 16 50.5 31.5t34.5 34.5t24 45l4 -19l-33 15q-23 11 -33 26t-10 35q0 26 17.5 46.5t49.5 20.5z" />
    <glyph glyph-name="uni02BE" unicode="&#x2be;" horiz-adv-x="246" 
d="M173 735q46 -1 74 -25t28 -64q0 -38 -18 -64t-49.5 -40.5t-72.5 -15.5l7 41q34 2 56 21.5t22 52.5q0 22 -14.5 36.5t-39.5 16.5z" />
    <glyph glyph-name="uni02BF" unicode="&#x2bf;" horiz-adv-x="246" 
d="M236 526q-46 1 -74 25t-28 64q0 38 18 64t49.5 40.5t72.5 15.5l-7 -41q-34 -2 -56 -21.5t-22 -52.5q0 -22 14.5 -36.5t39.5 -16.5z" />
    <glyph glyph-name="circumflex" unicode="&#x2c6;" horiz-adv-x="379" 
d="M378 535l-128 132h51l-178 -133l-17 19l156 171h42l96 -173z" />
    <glyph glyph-name="caron" unicode="&#x2c7;" horiz-adv-x="400" 
d="M169 733l123 -131h-49l177 131l18 -18l-155 -171h-43l-93 173z" />
    <glyph glyph-name="uni02C8" unicode="&#x2c8;" horiz-adv-x="218" 
d="M138 541l28 192h81l-43 -192h-66z" />
    <glyph glyph-name="uni02C9" unicode="&#x2c9;" horiz-adv-x="188" 
d="M51 576l12 63h233l-12 -63h-233z" />
    <glyph glyph-name="uni02CA" unicode="&#x2ca;" horiz-adv-x="102" 
d="M64 545q10 24 19.5 47t19.5 46.5t19 46.5q8 19 16.5 31.5t19 19t23.5 6.5q16 0 29 -10.5t13 -29.5q0 -13 -9 -29.5t-28 -34.5l-34.5 -34.5t-34.5 -35t-34 -35.5z" />
    <glyph glyph-name="uni02CB" unicode="&#x2cb;" horiz-adv-x="124" 
d="M192 545l-19 -12q-17 19 -33.5 36t-33 35t-34.5 36q-18 17 -27 32t-9 28q0 19 12 31t29 12q20 0 34 -14t25 -44q10 -23 19 -46.5t18.5 -46.5t18.5 -47z" />
    <glyph glyph-name="uni02CC" unicode="&#x2cc;" horiz-adv-x="218" 
d="M-29 -254l43 192h61l-28 -192h-76z" />
    <glyph glyph-name="breve" unicode="&#x2d8;" horiz-adv-x="400" 
d="M264 548q-45 0 -72.5 19.5t-39.5 51.5t-12 68l27 10q11 -37 35.5 -61t69.5 -24q46 0 78.5 23.5t54.5 61.5l25 -9q-9 -34 -30.5 -66t-55 -53t-80.5 -21z" />
    <glyph glyph-name="dotaccent" unicode="&#x2d9;" horiz-adv-x="400" 
d="M283 579q-22 0 -37.5 15t-15.5 39q0 32 21 52.5t48 20.5q25 0 39.5 -15t14.5 -39q0 -32 -21 -52.5t-49 -20.5z" />
    <glyph glyph-name="ring" unicode="&#x2da;" horiz-adv-x="400" 
d="M270 537q-37 0 -64 23t-27 61q0 34 16 59t42 38t53 13q36 0 63.5 -22.5t27.5 -61.5q0 -35 -16.5 -59.5t-42 -37.5t-52.5 -13zM270 568q32 0 52.5 23t20.5 53q0 22 -14 39t-42 17q-31 0 -51 -24t-20 -53q0 -23 14 -39t40 -16z" />
    <glyph glyph-name="ogonek" unicode="&#x2db;" horiz-adv-x="400" 
d="M110 -233q-38 0 -60.5 21t-22.5 56q0 34 17.5 63.5t45.5 54t61 43.5v8l27 -6q-25 -18 -44 -40t-29 -45.5t-10 -47.5q0 -27 15 -42t42 -15q8 0 18.5 2.5t21.5 6.5l9 -20q-19 -17 -42.5 -28t-48.5 -11z" />
    <glyph glyph-name="tilde" unicode="&#x2dc;" horiz-adv-x="400" 
d="M116 566q18 61 47 94.5t65 33.5q22 0 36.5 -9t28.5 -24t26 -27.5t29 -12.5q21 0 38.5 19.5t33.5 50.5l21 -8q-19 -61 -47.5 -94.5t-65.5 -33.5q-22 0 -36.5 9.5t-28.5 24.5q-13 14 -25.5 26.5t-29.5 12.5q-21 0 -38 -19t-33 -51z" />
    <glyph glyph-name="hungarumlaut" unicode="&#x2dd;" horiz-adv-x="400" 
d="M151 550l73 144q13 28 26 40t28 12q17 0 27.5 -9.5t10.5 -24.5t-7 -28.5t-28 -34.5l-109 -113zM298 550l72 144q13 28 26 40t29 12q17 0 27.5 -9.5t10.5 -24.5t-7 -28.5t-28 -34.5l-110 -113z" />
    <glyph glyph-name="uni02E1" unicode="&#x2e1;" horiz-adv-x="198" 
d="M148 413q-20 0 -32.5 10t-12.5 28q0 11 3 25.5t6 30.5l67 337l17 -14l-68 12l3 14l127 33l9 -7l-80 -379q-4 -21 -3 -31t11 -10q8 0 21 9t29 29l14 -9q-18 -29 -45.5 -53.5t-65.5 -24.5z" />
    </font>
</defs>
</svg>
